<?xml version="1.0" encoding="UTF-8" standalone="no"?>
<svg
   xmlns:dc="http://purl.org/dc/elements/1.1/"
   xmlns:cc="http://creativecommons.org/ns#"
   xmlns:rdf="http://www.w3.org/1999/02/22-rdf-syntax-ns#"
   xmlns:svg="http://www.w3.org/2000/svg"
   xmlns="http://www.w3.org/2000/svg"
   viewBox="0 0 476.70667 219.12"
   height="219.12"
   width="476.70667"
   xml:space="preserve"
   id="svg2"
   version="1.1"><metadata
     id="metadata8"><rdf:RDF><cc:Work
         rdf:about=""><dc:format>image/svg+xml</dc:format><dc:type
           rdf:resource="http://purl.org/dc/dcmitype/StillImage" /></cc:Work></rdf:RDF></metadata><defs
     id="defs6" /><g
     transform="matrix(1.3333333,0,0,-1.3333333,0,219.12)"
     id="g10"><g
       transform="scale(0.1)"
       id="g12"><path
         id="path14"
         style="fill:#231f20;fill-opacity:1;fill-rule:nonzero;stroke:none"
         d="m 988.238,1230.76 c 0,14.19 5.012,26.34 15.032,36.38 10.02,10 22.14,15.01 36.36,15.01 14.21,0 26.33,-5.01 36.38,-15.01 10,-10.04 15.01,-22.19 15.01,-36.38 0,-14.24 -5.01,-26.35 -15.01,-36.35 -10.05,-10.05 -22.17,-15.04 -36.38,-15.04 -14.22,0 -26.34,4.99 -36.36,15.04 -10.02,10 -15.032,22.11 -15.032,36.35" /><path
         id="path16"
         style="fill:#231f20;fill-opacity:1;fill-rule:nonzero;stroke:none"
         d="m 924.809,636.68 h 74.918 v 390.28 h -74.918 v 13.64 H 1083.42 V 636.68 h 74.95 V 623.059 H 924.809 v 13.621" /><path
         id="path18"
         style="fill:#231f20;fill-opacity:1;fill-rule:nonzero;stroke:none"
         d="m 1168.1,1026.95 h 66.19 l 177.14,-436.02 183.93,436.02 h 52.55 v 13.64 h -147.92 v -13.64 h 79.8 L 1449.37,721.352 1323.82,1026.95 h 79.82 v 13.64 H 1168.1 v -13.64" /><path
         id="path20"
         style="fill:#231f20;fill-opacity:1;fill-rule:nonzero;stroke:none"
         d="m 2191.14,1026.95 h 74.94 V 717.457 c 0,-34.41 9.56,-60.988 28.71,-79.797 19.13,-18.82 53.05,-28.23 101.71,-28.23 19.47,0 35.69,3.101 48.68,9.242 12.96,6.168 23.51,13.93 31.63,23.359 8.1,9.383 14.1,19.297 17.99,29.672 3.9,10.375 6.82,19.781 8.76,28.223 l -13.62,4.887 c -3.91,-21.426 -12.81,-40.411 -26.77,-56.954 -13.95,-16.519 -32.28,-24.789 -54.99,-24.789 -6.5,0 -13.13,0.95 -19.95,2.91 -6.8,1.95 -13.13,5.989 -18.98,12.18 -5.83,6.121 -10.55,14.899 -14.13,26.242 -3.55,11.364 -5.32,26.118 -5.32,44.301 v 318.247 h 138.21 v 13.64 H 2349.8 v 138.4 h -83.72 v -138.4 h -74.94 v -13.64" /><path
         id="path22"
         style="fill:#231f20;fill-opacity:1;fill-rule:nonzero;stroke:none"
         d="m 746.691,753.953 c -1.933,-27.566 -6.82,-51.098 -14.605,-70.539 C 724.324,663.945 712.617,649 697.07,638.629 681.496,628.25 660.406,623.051 633.809,623.051 c -27.282,0 -49.141,5.828 -65.707,17.508 -16.539,11.683 -29.356,26.773 -38.45,45.273 -9.093,18.5 -15.261,39.078 -18.476,61.785 -3.266,22.735 -4.86,44.789 -4.86,66.215 0,25.297 0.457,47.18 1.45,65.68 0.992,18.5 2.757,34.871 5.343,49.14 2.59,14.293 6,26.602 10.231,37 4.207,10.375 9.867,20.094 17.023,29.188 9.746,12.96 22.395,23.7 37.969,32.11 15.551,8.42 35.356,12.65 59.344,12.65 22.73,0 41.379,-4.55 55.984,-13.64 14.606,-9.07 25.949,-22.05 34.051,-38.905 8.125,-16.883 13.781,-37.149 17.047,-60.821 3.238,-23.699 4.859,-50.468 4.859,-80.289 0,-33.757 -0.965,-64.422 -2.926,-91.992 z m 38.938,233.582 c -18.816,19.785 -40.559,35.675 -65.199,47.715 -24.664,11.99 -50.977,17.97 -78.86,17.97 -35.695,0 -64.715,-8.9 -87.082,-26.75 -22.394,-17.84 -38.453,-40.384 -48.172,-67.638 h -1.984 v 81.758 h -156.68 v -13.64 h 74.965 V 364.148 h -74.965 v -13.609 h 233.582 v 13.609 h -74.918 v 339.676 h 1.934 c 1.934,-6.48 5.488,-15.066 10.715,-25.804 5.195,-10.688 12.644,-21.063 22.367,-31.122 9.746,-10.058 22.223,-18.82 37.484,-26.289 15.235,-7.449 33.879,-11.168 55.957,-11.168 28.536,0 55.622,6.161 81.282,18.5 25.609,12.309 48.172,28.848 67.613,49.622 19.469,20.75 34.871,44.593 46.262,71.507 11.34,26.942 17.023,55.332 17.023,85.196 0,29.187 -5.535,57.07 -16.562,83.672 -11.028,26.625 -25.95,49.792 -44.762,69.597" /><path
         id="path24"
         style="fill:#231f20;fill-opacity:1;fill-rule:nonzero;stroke:none"
         d="m 2793.58,764.172 c 0,-12.984 -1.13,-27.422 -3.38,-43.285 -2.3,-15.938 -6.84,-30.664 -13.64,-44.305 -6.82,-13.641 -16.9,-24.98 -30.18,-34.07 -13.3,-9.071 -30.64,-13.621 -52.07,-13.621 -14.94,0 -27.08,2.589 -36.49,7.789 -9.4,5.199 -16.71,11.828 -21.91,19.953 -5.2,8.101 -8.75,17.363 -10.69,27.734 -1.96,10.375 -2.92,20.438 -2.92,30.184 0,22.683 5.51,41.664 16.54,56.926 11.03,15.234 26.91,27.082 47.69,35.523 l 72.98,29.215 c 20.12,8.414 30.81,16.851 32.14,25.293 h 1.93 z m 162.54,-119.703 c -7.16,-5.231 -14.61,-9.09 -22.37,-11.68 -7.81,-2.609 -15.29,-3.898 -22.39,-3.898 -11.03,0 -19.47,3.238 -25.32,9.73 -5.83,6.477 -8.76,19.121 -8.76,37.961 v 242.336 c 0,17.508 -2.59,34.219 -7.76,50.133 -5.22,15.887 -13.98,30.152 -26.29,42.829 -12.33,12.62 -28.58,22.68 -48.68,30.18 -20.09,7.44 -45.1,11.17 -74.94,11.17 -24.64,0 -46.55,-2.93 -65.7,-8.75 -19.11,-5.83 -35.02,-13.79 -47.67,-23.85 -12.67,-10.06 -22.25,-21.595 -28.73,-34.556 -6.48,-12.961 -9.72,-26.601 -9.72,-40.871 0,-12.332 2.59,-22.39 7.79,-30.18 5.2,-7.761 18.5,-11.656 39.9,-11.656 12.33,0 21.71,3.047 28.22,9.215 6.51,6.191 9.72,13.809 9.72,22.902 0,5.176 -0.94,13.129 -2.92,23.844 -1.94,10.688 -2.91,21.547 -2.91,32.598 0,16.854 6.97,29.024 20.95,36.514 13.92,7.43 31.6,11.17 53.03,11.17 16.2,0 29.19,-2.27 38.93,-6.81 9.72,-4.55 17.17,-11.2 22.37,-19.96 5.2,-8.75 8.78,-19.293 10.71,-31.625 1.96,-12.336 2.93,-26.289 2.93,-41.863 0,-19.442 -1.45,-34.872 -4.38,-46.239 -2.92,-11.316 -8.29,-20.746 -16.05,-28.195 -7.79,-7.496 -18.67,-13.809 -32.63,-18.961 -13.95,-5.246 -31.63,-11.387 -53.03,-18.496 -18.18,-5.879 -36.18,-11.367 -54,-16.566 -17.87,-5.2 -34.1,-11.852 -48.68,-19.954 -14.58,-8.125 -26.43,-18.984 -35.52,-32.597 -9.1,-13.614 -13.64,-31.801 -13.64,-54.508 0,-9.723 1.47,-20.289 4.37,-31.633 2.95,-11.363 8.93,-21.57 18.02,-30.633 9.09,-9.121 21.74,-16.711 37.97,-22.91 16.2,-6.14 37.94,-9.211 65.22,-9.211 23.96,0 43.77,2.762 59.34,8.25 15.58,5.492 28.08,12.313 37.49,20.461 9.4,8.074 16.37,16.535 20.91,25.289 4.55,8.754 8.11,16.059 10.72,21.887 h 1.93 c 5.2,-24.012 14.75,-42.688 28.73,-55.957 13.93,-13.277 36.49,-19.93 67.64,-19.93 16.86,0 31.15,2.422 42.83,7.281 11.68,4.86 21.71,10.52 30.15,17.02 l -7.78,10.719" /><path
         id="path26"
         style="fill:#231f20;fill-opacity:1;fill-rule:nonzero;stroke:none"
         d="m 2994.07,1295.79 v -13.64 h 74.94 V 636.66 h -74.94 v -13.59 h 233.58 v 13.59 h -74.94 v 659.13 h -158.64" /><path
         id="path28"
         style="fill:#231f20;fill-opacity:1;fill-rule:nonzero;stroke:none"
         d="m 2109.88,919.91 c -13.95,27.231 -31.8,50.738 -53.56,70.543 -21.72,19.807 -46.07,35.207 -72.96,46.237 -24.5,10.03 -48.57,15.26 -72.23,16.17 v -13.56 c 19.02,-0.7 35.89,-4.05 50.32,-10.4 16.23,-7.15 29.67,-18.98 40.38,-35.521 10.69,-16.566 18.65,-37.941 23.85,-64.231 5.17,-26.285 7.79,-58.882 7.79,-97.816 0,-46.094 -3.58,-82.73 -10.69,-109.961 -7.16,-27.254 -16.57,-48.195 -28.25,-62.777 -11.68,-14.61 -25.29,-24.203 -40.87,-28.735 -13.44,-3.918 -27.65,-6.031 -42.53,-6.558 v -13.512 c 26.06,0.891 51.62,6.441 76.58,17.152 27.26,11.68 51.44,27.567 72.53,47.684 21.06,20.121 38.11,43.652 51.09,70.566 12.97,26.942 19.45,55.645 19.45,86.141 0,31.773 -6.97,61.301 -20.9,88.578" /><path
         id="path30"
         style="fill:#231f20;fill-opacity:1;fill-rule:nonzero;stroke:none"
         d="m 1854.37,629.859 c -15.55,4.532 -29.17,14.125 -40.85,28.735 -11.68,14.582 -21.08,35.523 -28.24,62.777 -7.14,27.231 -10.69,63.867 -10.69,109.961 0,38.934 2.56,71.531 7.79,97.816 5.17,26.29 13.13,47.665 23.82,64.231 10.71,16.541 24.18,28.371 40.41,35.521 14.42,6.35 31.28,9.69 50.32,10.4 v 13.56 c -23.69,-0.91 -47.76,-6.15 -72.23,-16.17 -26.94,-11.03 -51.27,-26.43 -72.99,-46.237 -21.76,-19.805 -39.59,-43.312 -53.54,-70.543 -13.95,-27.277 -20.89,-56.805 -20.89,-88.578 0,-30.496 6.45,-59.199 19.46,-86.141 12.97,-26.914 29.99,-50.445 51.08,-70.566 21.09,-20.117 45.27,-36.004 72.5,-47.684 24.98,-10.711 50.53,-16.25 76.61,-17.152 v 13.512 c -14.89,0.527 -29.1,2.64 -42.56,6.558" /><path
         id="path32"
         style="fill:#ef3120;fill-opacity:1;fill-rule:nonzero;stroke:none"
         d="m 3153.11,368 c 2.85,-12.379 12.36,-19.27 26.87,-19.27 17.58,0 28.17,10.469 28.17,26.258 0,12.262 -7.01,18.332 -22.01,25.223 -9.5,4.398 -16.17,6.891 -16.17,15.09 0,6.41 4.64,10.711 12.14,10.711 5.34,0 9.26,-2.512 12.62,-7.731 l 10.78,5.578 c -3.19,8.93 -11.87,14.032 -24.47,14.032 -15.45,0 -25.56,-9.629 -25.56,-23.289 0,-12.84 8.34,-18.551 23.43,-25.922 8.78,-4.282 15.09,-6.321 15.09,-14.629 0,-7.602 -5.12,-12.602 -13.42,-12.602 -8.68,0 -14.41,4.039 -16.42,11.653 z m -168.9,68 v -85 h 47.45 v 12.359 h -33.64 v 27.469 h 33.64 v 12.113 h -33.64 v 21.278 h 33.64 V 436 Z m -164.14,-46.969 h 1.55 l 28.32,-38.043 h 15.55 l -29.24,38.641 c 12.84,1.551 19.49,9.269 19.49,22.93 0,7.98 -3.1,14.632 -8.2,18.671 -5.22,4.059 -11.99,4.758 -21.16,4.758 h -19.25 v -85 h 12.94 z m 0.85,10.707 v 24.352 h 2.49 c 12.38,0 18.18,-2.25 18.18,-12.719 0,-10.223 -6.04,-11.633 -18.18,-11.633 z m -213.09,36.25 v -52.91 c 0,-22.918 11.39,-34.34 34.82,-34.34 23.43,0 34.94,11.422 34.94,34.34 v 52.91 h -13.78 v -51.597 c 0,-15.34 -7.13,-23.051 -21.16,-23.051 -14.03,0 -21.16,7.711 -21.16,23.051 v 51.597 z M 2428.24,436 v -11.781 h 22.58 V 351 h 13.79 v 73.219 h 22.49 V 436 Z m -197.05,-85.02 h 12.7 v 59.11 c 2.39,-3.34 5.13,-6.559 8.22,-9.531 l 55.04,-52.887 v 88.316 h -12.72 v -58.957 c -2.85,3.547 -5.83,7.008 -9.28,10.348 l -53.96,51.941 z M 2057.43,436 v -85 h 47.43 v 12.359 h -33.64 v 27.469 h 33.64 v 12.113 h -33.64 v 21.278 h 33.64 V 436 h -47.43" /><path
         id="path34"
         style="fill:#ef3120;fill-opacity:1;fill-rule:nonzero;stroke:none"
         d="m 1866.1,435.988 h 14.39 l 19,-45.289 c 2.03,-4.769 3.58,-9.14 4.53,-13.687 1.06,4.429 2.61,8.918 4.64,13.687 l 19.03,45.289 h 14.27 l -37.94,-88.34 -37.92,88.34" /><path
         id="path36"
         style="fill:#ef3120;fill-opacity:1;fill-rule:nonzero;stroke:none"
         d="m 1896.93,483.66 h 14.1992 v 695.309 H 1896.93 Z" /></g></g></svg>