<svg width="166" height="145" viewBox="0 0 166 145" fill="none" xmlns="http://www.w3.org/2000/svg">
<g clip-path="url(#clip0)">
<path opacity="0.8" d="M164.059 80.8821C164.059 102.46 151.004 121.547 131.028 133.162C117.218 141.028 101.558 145.113 85.6448 145C75.9053 145.216 66.2222 143.474 57.1763 139.876C48.1305 136.279 39.9084 130.901 33.0031 124.066C21.2018 111.829 12.3927 97.0522 7.25906 80.8821C-17.4159 8.95582 23.8028 -10.663 85.6448 16.7921C125.035 34.256 164.059 45.4787 164.059 80.8821Z" fill="#D5E8F7"/>
<path d="M151.932 29.3862V43.7995C151.932 43.9331 151.879 44.0612 151.784 44.1557C151.689 44.2501 151.56 44.3032 151.426 44.3032H151.06V119.448C151.06 121.526 150.23 123.52 148.753 124.989C147.275 126.459 145.271 127.284 143.182 127.284H96.0831C93.9937 127.284 91.9899 126.459 90.5125 124.989C89.0351 123.52 88.2051 121.526 88.2051 119.448V46.934H87.9519C87.9052 46.9379 87.8583 46.9321 87.814 46.9169C87.7698 46.9018 87.7291 46.8777 87.6947 46.8461C87.6603 46.8145 87.6329 46.7762 87.6142 46.7335C87.5955 46.6908 87.586 46.6447 87.5861 46.5981V38.37C87.586 38.3234 87.5955 38.2774 87.6142 38.2347C87.6329 38.192 87.6603 38.1536 87.6947 38.1221C87.7291 38.0905 87.7698 38.0664 87.814 38.0512C87.8583 38.0361 87.9052 38.0303 87.9519 38.0342H88.2051V34.9276H87.9519C87.9015 34.9315 87.8509 34.9249 87.8033 34.9084C87.7556 34.8918 87.7119 34.8657 87.6749 34.8315C87.6379 34.7973 87.6084 34.7559 87.5883 34.7098C87.5681 34.6637 87.5578 34.614 87.558 34.5638V26.4476C87.5578 26.3974 87.5681 26.3477 87.5883 26.3016C87.6084 26.2555 87.6379 26.2141 87.6749 26.1799C87.7119 26.1457 87.7556 26.1195 87.8033 26.103C87.8509 26.0865 87.9015 26.0799 87.9519 26.0838H88.2051V21.8577H87.9237C87.8417 21.8577 87.7629 21.8253 87.7049 21.7676C87.6469 21.7098 87.6143 21.6315 87.6143 21.5499V17.128C87.6103 17.0852 87.6154 17.0422 87.6292 17.0015C87.643 16.9609 87.6652 16.9236 87.6943 16.892C87.7235 16.8603 87.7589 16.8351 87.7984 16.8179C87.8379 16.8007 87.8806 16.7919 87.9237 16.7921H88.2051V7.83632C88.2051 5.758 89.0351 3.7648 90.5125 2.29521C91.9899 0.825611 93.9937 0 96.0831 0H143.295C145.384 0 147.388 0.825611 148.865 2.29521C150.343 3.7648 151.173 5.758 151.173 7.83632V28.8825H151.538C151.652 28.9083 151.754 28.9725 151.826 29.0644C151.897 29.1562 151.935 29.2699 151.932 29.3862Z" fill="#3F3D56"/>
<path d="M121.968 4.03009H114.287C113.976 4.03009 113.724 4.28069 113.724 4.58983V5.23353C113.724 5.54266 113.976 5.79326 114.287 5.79326H121.968C122.279 5.79326 122.531 5.54266 122.531 5.23353V4.58983C122.531 4.28069 122.279 4.03009 121.968 4.03009Z" fill="#E6E8EC"/>
<path d="M124.866 5.90525C125.425 5.90525 125.879 5.45417 125.879 4.89773C125.879 4.34128 125.425 3.8902 124.866 3.8902C124.306 3.8902 123.853 4.34128 123.853 4.89773C123.853 5.45417 124.306 5.90525 124.866 5.90525Z" fill="#E6E8EC"/>
<path d="M147.402 9.37561V120.092C147.402 120.746 147.273 121.394 147.021 121.998C146.77 122.602 146.401 123.152 145.936 123.614C145.471 124.077 144.918 124.444 144.311 124.694C143.703 124.944 143.052 125.073 142.394 125.073H97.2085C95.8851 125.073 94.6155 124.552 93.6771 123.624C92.7387 122.696 92.2078 121.436 92.2004 120.12V9.37561C92.2078 8.05925 92.7387 6.79932 93.6771 5.87112C94.6155 4.94292 95.8851 4.42192 97.2085 4.42194H104.102V5.28953C104.109 6.37579 104.548 7.41505 105.323 8.18054C106.098 8.94604 107.146 9.37564 108.238 9.37561H131.196C132.288 9.37564 133.336 8.94604 134.111 8.18054C134.886 7.41505 135.325 6.37579 135.332 5.28953V4.42194H142.535C143.858 4.42192 145.128 4.94292 146.066 5.87112C147.005 6.79932 147.536 8.05925 147.543 9.37561H147.402Z" fill="white"/>
<path d="M142.845 77.2997H96.9272V83.233H142.845V77.2997Z" fill="#E6E6E6"/>
<path d="M142.845 87.8508H96.9272V93.784H142.845V87.8508Z" fill="#E6E6E6"/>
<path d="M142.845 98.3739H96.9272V104.307H142.845V98.3739Z" fill="#E6E6E6"/>
<path d="M137.78 24.3766C140.22 24.3766 142.197 22.4093 142.197 19.9826C142.197 17.5559 140.22 15.5887 137.78 15.5887C135.34 15.5887 133.363 17.5559 133.363 19.9826C133.363 22.4093 135.34 24.3766 137.78 24.3766Z" fill="#42B6E9"/>
<path d="M142.76 34.7037H96.8428V65.0135H142.76V34.7037Z" fill="#E6E6E6"/>
<path d="M166 126.948H7.96252V127.648H166V126.948Z" fill="#3F3D56"/>
<path d="M110.095 49.8446C110.095 50.5869 110.391 51.2987 110.919 51.8236C111.446 52.3485 112.162 52.6433 112.908 52.6433H116.791V56.5055C116.791 57.27 117.096 58.0032 117.64 58.5438C118.183 59.0844 118.92 59.3881 119.689 59.3881C120.457 59.3881 121.195 59.0844 121.738 58.5438C122.281 58.0032 122.587 57.27 122.587 56.5055V49.8446C122.587 49.1024 122.29 48.3905 121.763 47.8657C121.235 47.3408 120.519 47.0459 119.773 47.0459H113.021C112.642 47.0309 112.264 47.0921 111.909 47.226C111.555 47.3598 111.231 47.5636 110.958 47.825C110.685 48.0864 110.467 48.4001 110.319 48.7471C110.171 49.0942 110.094 49.4675 110.095 49.8446Z" fill="#42B6E9"/>
<path d="M129.424 49.8446C129.424 49.1024 129.127 48.3905 128.6 47.8657C128.072 47.3408 127.356 47.046 126.61 47.046H122.699V43.0998C122.699 42.3353 122.394 41.6021 121.851 41.0615C121.307 40.5209 120.57 40.2172 119.801 40.2172C119.033 40.2172 118.296 40.5209 117.752 41.0615C117.209 41.6021 116.904 42.3353 116.904 43.0998V45.8985H119.717C120.25 45.8714 120.784 45.9541 121.284 46.1413C121.783 46.3286 122.239 46.6164 122.622 46.9868C123.005 47.3571 123.307 47.8021 123.509 48.2938C123.711 48.7856 123.809 49.3135 123.797 49.8446V52.6433H126.61C127.356 52.6433 128.072 52.3485 128.6 51.8236C129.127 51.2988 129.424 50.5869 129.424 49.8446Z" fill="#9377B6"/>
<path d="M17.3316 52.9232C17.3316 52.9232 21.3831 59.3042 19.9482 61.0394C18.5133 62.7745 30.7804 62.8025 30.7804 62.8025C29.9587 59.0407 29.5251 55.2053 29.4862 51.3559L17.3316 52.9232Z" fill="#FFB8B8"/>
<path d="M23.8029 55.2181C30.8109 55.2181 36.492 49.567 36.492 42.596C36.492 35.625 30.8109 29.9739 23.8029 29.9739C16.7948 29.9739 11.1137 35.625 11.1137 42.596C11.1137 49.567 16.7948 55.2181 23.8029 55.2181Z" fill="#2F2E41"/>
<path d="M53.6829 111.052V118.552L61.1951 116.985L60.5761 111.696L53.6829 111.052Z" fill="#FFB8B8"/>
<path d="M80.3271 112.311L101.288 115.726L95.9705 123.534C95.9705 123.534 81.2275 118.552 77.4573 118.552C73.6871 118.552 80.3271 112.311 80.3271 112.311Z" fill="#FFB8B8"/>
<path d="M32.6656 97.3384C32.6656 97.3384 48.3371 79.2309 53.3734 80.1824C54.9939 80.6692 56.4832 81.5135 57.7302 82.6522C58.9773 83.7909 59.9501 85.1948 60.5761 86.7593L63.3896 114.522C63.3896 114.522 53.3734 115.446 53.3734 114.522C53.3734 113.599 51.4883 93.6161 51.4883 93.6161C51.4883 93.6161 36.7452 126.053 28.9798 104.531L32.6656 97.3384Z" fill="#D0CDE1"/>
<path d="M7.25916 109.485C7.25916 109.485 7.56865 125.941 16.8815 126.781C26.1944 127.62 36.5764 119.784 36.5764 119.784L53.4578 111.724C53.4578 111.724 73.5185 122.303 79.4832 119.476C79.4832 119.476 85.7575 112.927 81.6778 111.08C77.5981 109.233 81.3683 111.08 81.3683 111.08L57.1998 98.5978C57.1998 98.5978 52.5012 97.3663 44.3419 100.781C38.2009 103.118 31.824 104.788 25.3222 105.762L7.25916 109.485Z" fill="#D0CDE1"/>
<path d="M22.9306 56.1416C28.1206 56.1416 32.3279 51.9566 32.3279 46.794C32.3279 41.6315 28.1206 37.4464 22.9306 37.4464C17.7406 37.4464 13.5333 41.6315 13.5333 46.794C13.5333 51.9566 17.7406 56.1416 22.9306 56.1416Z" fill="#FFB8B8"/>
<path d="M36.5763 72.9897L35.9291 86.0876C35.9291 86.0876 36.2386 103.272 33.4251 104.503C31.9901 105.147 29.1203 106.406 26.4756 107.777C24.7398 108.63 23.0989 109.662 21.58 110.856C21.3078 111.102 21.0711 111.385 20.8766 111.696C19.6386 113.879 11.4793 113.543 9.62235 112.003C7.7654 110.464 9.00337 113.879 7.42777 114.494C5.85218 115.11 3.79828 110.156 5.09252 102.768C5.12579 102.514 5.17275 102.261 5.2332 102.012C6.66811 94.8475 4.41726 77.6915 4.75489 71.0866C4.78023 70.5799 4.83661 70.0752 4.92371 69.5753C5.6271 64.5657 17.6973 54.4065 19.9481 58.7724C22.7617 64.1179 29.064 59.2202 30.1613 56.7853C36.4356 56.4775 38.602 63.978 38.602 63.978L36.5763 72.9897Z" fill="#42B6E9"/>
<path d="M61.8984 115.726C59.7869 116.578 57.5575 117.107 55.2865 117.293C54.8919 117.25 54.4925 117.29 54.1146 117.411C53.7366 117.532 53.3887 117.731 53.0938 117.995C52.7988 118.26 52.5634 118.583 52.403 118.944C52.2427 119.306 52.161 119.697 52.1635 120.092C52.1635 121.939 50.2784 126.305 53.0919 126.641C55.9055 126.976 67.5255 126.305 69.9733 127.256C69.9733 127.256 81.2275 127.564 80.3272 122.89C80.0832 121.607 79.3773 120.455 78.3416 119.652C77.3059 118.848 76.0113 118.447 74.7001 118.524C74.7001 118.524 61.8984 117.909 61.8984 115.726Z" fill="#2F2E41"/>
<path d="M98.4746 116.677C98.4746 116.677 99.0936 114.802 100.05 114.802C103.164 115.276 106.301 115.584 109.447 115.726C110.376 115.418 121.377 114.802 119.492 120.12C118.765 121.706 117.636 123.077 116.215 124.097C114.794 125.118 113.131 125.753 111.389 125.941C111.389 125.941 100.135 124.709 98.5308 125.017C96.9271 125.325 91.3 125.017 92.2566 123.45C93.2132 121.883 99.1498 119.168 98.4746 116.677Z" fill="#2F2E41"/>
<path d="M69.9733 71.8703L71.6895 78.923C71.7178 78.995 71.7178 79.0749 71.6895 79.1469L63.896 103.551C63.8573 103.663 63.7783 103.756 63.6743 103.813C63.5703 103.87 63.4487 103.887 63.3333 103.859C63.2485 103.832 63.1738 103.78 63.1187 103.71C63.0636 103.64 63.0305 103.556 63.0238 103.467L61.8984 93.8959C61.8834 93.8654 61.8757 93.8319 61.8757 93.798C61.8757 93.7641 61.8834 93.7306 61.8984 93.7L69.0729 71.8143C69.1168 71.7079 69.1981 71.6209 69.3015 71.5694C69.405 71.5179 69.5237 71.5055 69.6356 71.5344C69.7194 71.55 69.7965 71.5904 69.8568 71.6503C69.9171 71.7102 69.9577 71.7869 69.9733 71.8703Z" fill="#3F3D56"/>
<path d="M69.3544 72.458L70.93 78.5032L64.0368 100.641L62.4612 93.784L69.3544 72.458Z" fill="white"/>
<path d="M34.6632 105.371C34.9164 106.182 62.2079 105.119 62.4611 104.867C62.6853 104.528 62.8828 104.172 63.052 103.803C63.2771 103.272 63.5303 102.74 63.5303 102.74L62.4611 94.2038L35.451 93.2523C35.451 93.2523 34.7757 100.501 34.635 103.803C34.5879 104.325 34.5973 104.851 34.6632 105.371Z" fill="#3F3D56"/>
<path opacity="0.1" d="M59.0286 95.3793L59.535 102.74H47.6337V95.3793H59.0286Z" fill="black"/>
<path opacity="0.1" d="M43.6666 97.7302H43.7229L43.3852 100.893H36.7734V97.7302H43.6666Z" fill="black"/>
<path opacity="0.1" d="M34.6632 105.371C34.9164 106.182 62.2079 105.119 62.4611 104.867C62.6853 104.528 62.8828 104.172 63.052 103.803H34.635C34.5879 104.325 34.5973 104.851 34.6632 105.371Z" fill="black"/>
<path d="M25.9129 34.6198C29.145 34.6198 31.7651 32.0135 31.7651 28.7985C31.7651 25.5835 29.145 22.9772 25.9129 22.9772C22.6809 22.9772 20.0607 25.5835 20.0607 28.7985C20.0607 32.0135 22.6809 34.6198 25.9129 34.6198Z" fill="#2F2E41"/>
<path d="M24.8438 32.6047C21.9713 36.7024 17.7031 39.6256 12.8299 40.8329C4.38923 43.0718 12.8299 55.6379 12.8299 55.6379C11.9607 54.1553 11.6106 52.4277 11.8347 50.7259C12.0587 49.0241 12.8441 47.4443 14.0679 46.2343C18.4852 41.3926 25.5191 38.0902 24.8438 32.6047Z" fill="#2F2E41"/>
<path opacity="0.1" d="M26.3349 107.777C25.6531 108.934 25.0424 110.13 24.5061 111.36C24.5061 111.78 23.24 111.556 21.4393 110.856C16.0361 108.611 10.7578 106.079 5.62712 103.272L4.86745 102.768C4.90072 102.514 4.94768 102.261 5.00813 102.012C6.44305 94.8475 4.1922 77.6916 4.52983 71.0867L7.34339 70.1911L12.661 75.1728V96.3868C12.661 96.3868 26.4756 103.887 27.4041 104.503C27.798 104.811 27.1508 106.35 26.3349 107.777Z" fill="black"/>
<path d="M37.9833 90.7894L46.4239 95.1554C46.4239 95.1554 51.4602 89.8379 54.5833 93.896C57.7063 97.9541 45.4955 99.2135 45.4955 99.2135C45.4955 99.2135 34.8321 96.6947 34.5226 93.2803C34.2131 89.8659 37.9833 90.7894 37.9833 90.7894Z" fill="#FFB8B8"/>
<path d="M23.8872 102.32L28.8954 103.579C28.8954 103.579 34.5225 96.6947 40.5154 99.2135C46.5083 101.732 32.975 106.686 32.975 106.686C32.975 106.686 25.7723 110.436 22.9306 107.302C22.5577 106.956 22.279 106.523 22.1205 106.041C21.9621 105.559 21.9291 105.046 22.0247 104.548C22.1203 104.05 22.3413 103.585 22.6671 103.195C22.9928 102.805 23.4126 102.504 23.8872 102.32Z" fill="#FFB8B8"/>
<path d="M34.86 61.1513C35.1695 61.4592 38.6301 63.95 38.6301 63.95C38.6301 63.95 39.5586 75.8164 38.2925 78.3073C37.0264 80.7981 36.0979 80.7981 37.0545 82.0295C38.0111 83.2609 39.2491 82.3654 37.983 84.5483C36.7169 86.7313 35.4789 86.4235 36.4356 87.347C37.3922 88.2706 37.0545 88.6064 37.0545 88.6064L40.8247 91.713C40.8247 91.713 38.5176 95.3793 35.5915 95.0994C32.6654 94.8195 30.1613 80.7981 30.1613 80.7981L34.86 61.1513Z" fill="#42B6E9"/>
<path d="M7.25909 68.6238L4.44553 69.5754C4.44553 69.5754 -3.0948 97.0305 5.62723 101.704C14.3493 106.378 24.1404 111.052 24.4499 109.821C24.7594 108.589 28.2201 103.579 27.2635 102.936C26.3069 102.292 12.5204 94.8475 12.5204 94.8475V73.6055L7.25909 68.6238Z" fill="#42B6E9"/>
<path opacity="0.1" d="M11.4793 80.0145L10.8604 94.9874L27.4885 102.796L12.1265 94.9874L11.4793 80.0145Z" fill="black"/>
</g>
<defs>
<clipPath id="clip0">
<rect width="166" height="145" fill="white"/>
</clipPath>
</defs>
</svg>
