<svg width="166" height="145" viewBox="0 0 166 145" fill="none" xmlns="http://www.w3.org/2000/svg">
<path d="M83.9102 54.5258C84.8325 55.0109 85.7306 55.496 86.5801 56.0296L83.9102 54.5258Z" fill="#D5E8F7"/>
<path opacity="0.8" d="M51.4703 135.042C24.5807 123.841 1.39609 113.54 0.0356936 86.3788C-0.301199 76.8637 1.75115 67.4162 6.00438 58.9034C10.2576 50.3905 16.5755 43.085 24.3781 37.6573C34.9639 30.0577 47.5229 25.7029 60.5299 25.1215C71.1587 24.4409 81.7586 26.8383 91.0665 32.0278" fill="#D5E8F7"/>
<path d="M152.699 81.4976C155.505 74.4386 156.651 66.8296 156.049 59.2576C155.447 51.6856 153.114 44.353 149.228 37.8254L69.9536 48.8405L145.927 32.9972C139.616 24.8066 130.898 18.7957 120.997 15.8075C111.096 12.8193 100.507 13.0036 90.7161 16.3346C80.9249 19.6656 72.4223 25.9763 66.4005 34.3816C60.3787 42.787 57.1397 52.8655 57.1377 63.2038C57.1455 65.4597 57.2995 67.7127 57.5989 69.9487L152.699 81.4976Z" fill="#F2F2F2"/>
<path d="M60.463 81.0366C63.957 90.0687 70.0236 97.8786 77.9122 103.5C85.8008 109.121 95.1651 112.307 104.846 112.663C114.528 113.02 124.101 110.531 132.382 105.505C140.663 100.478 147.288 93.1356 151.437 84.3848L60.463 81.0366Z" fill="#F2F2F2"/>
<path d="M125.343 2.7179C122.17 0.465736 118.231 -0.433983 114.394 0.216677C110.556 0.867337 107.135 3.01507 104.882 6.18741C102.629 9.35975 101.728 13.2968 102.379 17.1325C103.03 20.9682 105.179 24.3884 108.353 26.6405H108.498C108.831 26.8815 109.18 27.1003 109.542 27.2956C109.955 27.5428 110.385 27.7617 110.828 27.9507H110.974L112.018 28.3632L112.527 28.533C112.794 28.533 113.11 28.7028 113.401 28.7514H113.668L114.081 29.1153H114.227C115.028 29.2598 115.84 29.341 116.654 29.3579H116.824C117.398 29.394 117.973 29.394 118.547 29.3579C118.898 29.325 119.247 29.2683 119.591 29.1881C119.822 29.1653 120.05 29.1165 120.27 29.0425L120.78 28.9212H120.926L121.46 28.7271H121.727L122.212 28.533L122.698 28.3146C123.28 28.0722 123.84 27.7799 124.372 27.4412C124.931 27.0971 125.466 26.7162 125.974 26.3009L126.436 25.8884C127.233 25.1655 127.941 24.3511 128.547 23.4622C128.747 23.2191 128.926 22.9594 129.081 22.6858C129.322 22.4208 129.541 22.1368 129.737 21.8366C130.92 19.6806 131.538 17.2599 131.533 14.8005C131.548 12.4376 130.994 10.1058 129.917 8.00249C128.839 5.89922 127.27 4.0865 125.343 2.7179Z" fill="white"/>
<path d="M116.848 0.000501511C113.939 -0.0235342 111.088 0.816884 108.657 2.41512C106.226 4.01335 104.325 6.29736 103.195 8.97734C102.065 11.6573 101.756 14.6125 102.309 17.4678C102.862 20.3231 104.251 22.9499 106.3 25.015C108.349 27.08 110.965 28.4901 113.817 29.0664C116.669 29.6426 119.628 29.3591 122.318 28.2518C125.008 27.1444 127.309 25.2632 128.928 22.8467C130.547 20.4303 131.411 17.5875 131.412 14.6792C131.399 10.811 129.864 7.10293 127.139 4.35633C124.414 1.60972 120.718 0.0450907 116.848 0.000501511ZM116.848 4.39198C117.722 4.39198 118.576 4.65096 119.302 5.13617C120.029 5.62138 120.595 6.31102 120.929 7.11789C121.264 7.92476 121.351 8.81262 121.181 9.66919C121.01 10.5258 120.59 11.3126 119.972 11.9301C119.354 12.5477 118.567 12.9682 117.71 13.1386C116.853 13.309 115.965 13.2216 115.157 12.8873C114.35 12.5531 113.66 11.9871 113.175 11.261C112.689 10.5348 112.43 9.68107 112.43 8.80772C112.443 7.64051 112.913 6.52467 113.738 5.69927C114.564 4.87388 115.68 4.4046 116.848 4.39198ZM116.848 25.5972C115.106 25.5922 113.393 25.1605 111.857 24.3399C110.32 23.5193 109.009 22.3349 108.037 20.8904C108.037 17.9546 113.911 16.3533 116.848 16.3533C119.785 16.3533 125.586 17.9546 125.659 20.8904C124.682 22.3305 123.37 23.5115 121.835 24.3315C120.3 25.1515 118.588 25.5859 116.848 25.5972Z" fill="#9377B6"/>
<path d="M74.8808 78.497C80.4172 78.497 84.9053 74.0107 84.9053 68.4766C84.9053 62.9426 80.4172 58.4563 74.8808 58.4563C69.3444 58.4563 64.8562 62.9426 64.8562 68.4766C64.8562 74.0107 69.3444 78.497 74.8808 78.497Z" fill="#A0616A"/>
<path d="M67.4049 73.4747C67.4049 73.4747 69.2981 87.7167 66.3854 89.318C63.4727 90.9193 83.6675 91.0648 83.6675 91.0648C83.6675 91.0648 79.1771 78.7153 81.2402 74.9304L67.4049 73.4747Z" fill="#A0616A"/>
<path d="M98.4251 91.1377L96.7503 98.7803L93.1823 114.963V115.837L91.9687 126.1L91.1434 132.917L90.5851 137.503C87.284 139.201 84.8568 140.39 84.8568 140.39C84.8568 140.39 84.6626 139.347 84.3228 137.964C80.9679 139.023 77.5098 139.722 74.007 140.051C75.342 141.531 75.9488 142.938 75.1235 143.957C72.6963 147.062 62.2833 140.56 58.6424 138.134C58.5935 138.723 58.5935 139.316 58.6424 139.905L55.8511 137.77L56.1424 132.917L56.6036 124.62L57.1861 114.235C56.9962 113.796 56.842 113.341 56.7249 112.877C55.8754 109.844 54.8317 103.827 54.0549 98.7803C53.4238 94.7285 52.9384 91.2833 52.8413 90.5554V90.4098L67.9631 83.6406C69.0554 86.0669 74.1283 86.916 74.1283 86.916C76.7914 86.7046 79.3681 85.8738 81.6528 84.4898L98.4251 91.1377Z" fill="#44B6E8"/>
<path d="M85.9249 137.479L84.2258 138.012C80.8709 139.071 77.4128 139.771 73.91 140.099C70.7545 140.317 68.1088 139.832 67.6234 137.673C67.5152 137.274 67.5265 136.852 67.656 136.46C67.7854 136.067 68.0273 135.721 68.3515 135.465C70.2691 133.669 75.2935 133.039 79.2985 132.82C80.415 132.82 81.4587 132.82 82.3325 132.82H84.7598L85.9249 137.479Z" fill="#FFB8B8"/>
<path d="M66.5311 58.9901L64.6621 58.238C65.8715 56.9767 67.3271 55.977 68.9387 55.3009C70.5503 54.6248 72.2836 54.2867 74.0313 54.3075L72.5021 52.6091C73.7998 52.2174 75.1874 52.2406 76.4712 52.6756C77.7549 53.1106 78.8707 53.9356 79.6625 55.0353C81.7034 57.2198 83.4422 59.6678 84.8326 62.314H86.8229L85.9977 64.158L88.9347 66.0019L85.9249 65.6865C86.0706 66.7003 86.0706 67.7297 85.9249 68.7435C85.7937 69.7646 85.2717 70.6951 84.4685 71.3396C83.5249 69.5409 82.7136 67.6758 82.0413 65.7593V67.6517C82.0413 67.6517 80.1723 65.9534 80.1723 64.8373L79.1528 66.1475L78.6431 64.0852L72.3322 66.1475L73.3517 64.4491L69.4438 65.0071L70.973 62.9448C70.973 62.9448 66.5311 65.3711 66.3612 67.4576C66.171 68.8892 65.6743 70.2629 64.9048 71.4852C64.9048 71.4852 61.6038 61.8045 66.5311 58.9901Z" fill="#2F2E41"/>
<path d="M109.226 126.294C107.194 128.063 104.972 129.601 102.6 130.879L99.0078 132.917C96.0465 134.567 92.9639 136.193 90.391 137.503C87.0899 139.201 84.6627 140.39 84.6627 140.39C84.6627 140.39 84.4685 139.347 84.1287 137.964C83.7628 136.189 83.15 134.474 82.3082 132.869C82.0898 132.602 81.8956 132.432 81.7014 132.432L91.8473 126.148L96.2164 123.431L93.061 115.885L89.1045 106.447L91.5318 98.8288L93.9591 91.1862H98.4738C98.4738 91.1862 99.9787 94.4373 101.872 98.9744L102.746 101.085C106.629 110.596 111.654 123.916 109.226 126.294Z" fill="#44B6E8"/>
<path d="M75.0265 144.005C72.5992 147.111 62.1863 140.609 58.5454 138.182L57.3075 137.333L60.6814 132.917L61.6523 131.486L64.0795 132.796H64.2252C65.4388 133.5 66.9194 134.422 68.4486 135.441C70.4654 136.74 72.3299 138.262 74.007 139.978C75.2449 141.579 75.8517 142.986 75.0265 144.005Z" fill="#FFB8B8"/>
<path d="M63.9825 132.82C63.2719 132.811 62.5665 132.942 61.9073 133.207C61.248 133.473 60.6481 133.866 60.1422 134.365C59.6364 134.864 59.2347 135.458 58.9606 136.113C58.6865 136.769 58.5453 137.472 58.5454 138.182C58.4964 138.772 58.4964 139.364 58.5454 139.953L55.7541 137.818L54.7589 137.042C52.3359 136.131 50.1289 134.727 48.2781 132.917C46.6553 131.349 45.1993 129.617 43.9333 127.749C42.6647 125.912 41.5369 123.982 40.5595 121.975C40.29 121.411 40.1501 120.793 40.1501 120.168C40.1501 119.542 40.29 118.924 40.5595 118.36L43.9819 110.717L48.982 99.5567C48.982 99.2898 48.982 99.0472 49.1034 98.7803C49.4771 95.7346 50.7535 92.8702 52.7685 90.5554H54.8074L56.1667 98.7803L57.8658 108.995L56.6764 112.877L53.8123 121.781L56.4337 124.62L63.9825 132.82Z" fill="#44B6E8"/>
<path d="M105.925 142.355V143.18C105.983 143.395 105.983 143.621 105.925 143.835C105.9 143.93 105.859 144.021 105.804 144.102C105.641 144.375 105.41 144.601 105.133 144.759C104.857 144.916 104.544 144.999 104.226 145H43.2052C42.8876 144.997 42.576 144.913 42.3 144.756C42.0239 144.598 41.7925 144.374 41.6275 144.102C41.6142 144.014 41.6142 143.924 41.6275 143.835C41.5522 143.625 41.5112 143.404 41.5061 143.18V142.355C41.5061 141.871 41.6971 141.405 42.0378 141.06C42.3785 140.715 42.8415 140.518 43.3265 140.511H46.8461V140.123H48.5451V140.511H49.686V140.123H51.5064V140.511H52.6472V140.123H54.4676V140.511H55.6327V140.123H57.4532V140.511H58.594V140.123H60.4144V140.511H61.5552V140.123H63.3757V140.511H65.5359V140.123H79.881V140.511H81.0218V140.123H82.8423V140.511H83.9831V140.123H85.8035V140.511H87.3812V140.123H89.2017V140.511H90.3425V140.123H92.1629V140.511H93.3037V140.123H95.1484V140.511H96.2892V140.123H98.134V140.511H103.474C103.715 140.511 103.954 140.559 104.176 140.652C104.399 140.745 104.6 140.881 104.77 141.053C104.939 141.225 105.073 141.428 105.163 141.652C105.253 141.875 105.298 142.114 105.294 142.355H105.925Z" fill="#3F3D56"/>
<path d="M101.022 107.515H78.3275V107.029H67.9631V107.515H45.244C44.8385 107.515 44.4495 107.676 44.1627 107.962C43.876 108.249 43.7148 108.638 43.7148 109.043V140.099C43.7148 140.504 43.876 140.893 44.1627 141.18C44.4495 141.466 44.8385 141.628 45.244 141.628H101.071C101.479 141.628 101.87 141.467 102.161 141.181C102.451 140.895 102.618 140.507 102.624 140.099V109.043C102.618 108.636 102.451 108.247 102.161 107.961C101.87 107.675 101.479 107.515 101.071 107.515H101.022Z" fill="#3F3D56"/>
<path d="M72.0895 128.065C74.4622 128.065 76.3857 126.142 76.3857 123.77C76.3857 121.399 74.4622 119.476 72.0895 119.476C69.7167 119.476 67.7932 121.399 67.7932 123.77C67.7932 126.142 69.7167 128.065 72.0895 128.065Z" fill="#D0CDE1"/>
<path d="M150 143.981H0V144.393H150V143.981Z" fill="#3F3D56"/>
<path d="M15.6558 123.601C18.294 126.778 19.85 130.713 20.0977 134.834C15.9994 134.291 12.1813 132.455 9.19928 129.593C6.59604 126.404 5.07451 122.47 4.85449 118.36C8.92133 118.913 12.7055 120.749 15.6558 123.601Z" fill="#9377B6"/>
<path d="M29.127 130.685C25.9519 133.331 22.0148 134.895 17.8889 135.149C18.3765 131.047 20.1722 127.21 23.0104 124.207C26.1793 121.551 30.12 119.986 34.2486 119.743C33.766 123.847 31.9696 127.685 29.127 130.685Z" fill="#9377B6"/>
<path d="M27.8649 144.199H11.1169C10.7957 144.201 10.4808 144.111 10.2097 143.939C9.93859 143.766 9.72267 143.52 9.5877 143.229L5.94682 135.756C5.74481 135.347 5.71313 134.875 5.85872 134.443C6.00431 134.011 6.3153 133.654 6.72354 133.451C6.9618 133.349 7.21687 133.291 7.47599 133.281H31.5544C32.0072 133.288 32.4393 133.472 32.7573 133.794C33.0753 134.117 33.2535 134.551 33.2534 135.004C33.2552 135.264 33.1971 135.522 33.0835 135.756L29.4426 143.229C29.2994 143.524 29.0748 143.772 28.7953 143.944C28.5159 144.116 28.1931 144.205 27.8649 144.199Z" fill="#3F3D56"/>
<path d="M4.73309 118.36L20.0976 134.834" stroke="#3F3D56" stroke-width="0.3" stroke-miterlimit="10"/>
<path d="M34.2485 119.791L17.7675 135.149" stroke="#3F3D56" stroke-width="0.3" stroke-miterlimit="10"/>
<path d="M159.956 37.874C156.782 35.6218 152.844 34.7221 149.006 35.3727C145.169 36.0234 141.747 38.1711 139.494 41.3435C137.241 44.5158 136.341 48.4529 136.992 52.2886C137.643 56.1243 139.791 59.5444 142.965 61.7966H143.111L144.13 62.4517C144.567 62.6943 144.98 62.9127 145.417 63.1068H145.562L146.582 63.5192L147.116 63.6891C147.392 63.7873 147.676 63.8604 147.965 63.9074H148.257H148.693H148.839C149.641 64.044 150.453 64.1171 151.266 64.1258H151.461C152.019 64.1258 152.601 64.1258 153.16 64.1258L154.228 63.956L154.907 63.7861L155.417 63.6648L155.975 63.4707H156.218L156.703 63.2766L157.213 63.0825C157.763 62.8237 158.322 62.5326 158.888 62.2091C159.458 61.871 160.002 61.4898 160.514 61.0687L160.975 60.6563C161.772 59.9327 162.48 59.1184 163.087 58.2301C163.281 57.9874 163.451 57.7205 163.621 57.4779L164.034 56.7501C165.739 53.5913 166.234 49.9194 165.425 46.4224C164.616 42.9253 162.56 39.8429 159.64 37.7527L159.956 37.874Z" fill="white"/>
<path d="M151.436 35.1566C148.556 35.1566 145.74 36.0104 143.345 37.61C140.95 39.2096 139.084 41.4831 137.982 44.1431C136.879 46.8032 136.591 49.7302 137.153 52.554C137.715 55.3779 139.102 57.9718 141.138 60.0076C143.175 62.0435 145.77 63.43 148.595 63.9917C151.42 64.5534 154.349 64.2651 157.01 63.1633C159.671 62.0615 161.945 60.1956 163.546 57.8017C165.146 55.4077 166 52.5932 166 49.714C165.962 45.8649 164.416 42.1842 161.693 39.4623C158.969 36.7404 155.287 35.1945 151.436 35.1566ZM151.436 39.5724C152.312 39.5676 153.17 39.8231 153.9 40.3064C154.63 40.7898 155.2 41.4792 155.537 42.287C155.875 43.0949 155.964 43.9847 155.795 44.8436C155.625 45.7024 155.204 46.4914 154.584 47.1104C153.965 47.7294 153.176 48.1505 152.317 48.3201C151.457 48.4897 150.567 48.4002 149.759 48.063C148.951 47.7258 148.261 47.1561 147.778 46.4262C147.294 45.6963 147.038 44.8392 147.043 43.9638C147.043 43.3871 147.157 42.8161 147.378 42.2833C147.598 41.7505 147.922 41.2664 148.33 40.8586C148.738 40.4508 149.222 40.1273 149.755 39.9066C150.288 39.6859 150.86 39.5724 151.436 39.5724ZM151.436 60.7534C149.699 60.7444 147.99 60.3108 146.459 59.4904C144.927 58.67 143.619 57.4877 142.65 56.0465C142.65 53.135 148.499 51.5094 151.436 51.5094C154.373 51.5094 160.199 53.135 160.199 56.0465C159.221 57.4663 157.912 58.6276 156.386 59.4306C154.86 60.2335 153.161 60.6541 151.436 60.6563V60.7534Z" fill="#9377B6"/>
<path d="M153.184 79.7993C150.011 77.5471 146.072 76.6474 142.234 77.298C138.397 77.9487 134.976 80.0964 132.722 83.2688C130.469 86.4411 129.569 90.3782 130.22 94.2139C130.871 98.0496 133.02 101.47 136.193 103.722H136.339L137.359 104.377C137.795 104.62 138.208 104.838 138.645 105.032H138.791L139.81 105.445L140.344 105.614C140.631 105.704 140.923 105.777 141.218 105.833H141.485H141.922H142.067C142.869 105.969 143.681 106.042 144.495 106.051H144.689C145.247 106.051 145.83 106.051 146.388 106.051L147.456 105.881L148.136 105.711H148.645L149.204 105.517H149.446L149.932 105.323L150.441 105.129C151.008 104.87 151.566 104.579 152.116 104.256C152.687 103.918 153.23 103.536 153.742 103.115L154.204 102.703C155 101.979 155.709 101.165 156.315 100.277C156.51 100.034 156.679 99.7671 156.849 99.5245C156.995 99.2819 157.141 99.0393 157.262 98.7967C158.433 96.6456 159.043 94.2339 159.034 91.7849C159.073 89.4676 158.563 87.1739 157.547 85.091C156.53 83.0081 155.035 81.1948 153.184 79.7993Z" fill="white"/>
<path d="M144.665 77.0819C141.76 77.0819 138.921 77.9428 136.506 79.5557C134.091 81.1686 132.209 83.4611 131.097 86.1433C129.986 88.8255 129.695 91.7769 130.262 94.6243C130.828 97.4717 132.227 100.087 134.281 102.14C136.334 104.193 138.951 105.591 141.8 106.157C144.648 106.724 147.601 106.433 150.284 105.322C152.967 104.211 155.261 102.33 156.875 99.9157C158.488 97.5018 159.349 94.6638 159.349 91.7606C159.343 87.8695 157.794 84.1397 155.041 81.3883C152.289 78.6369 148.557 77.0883 144.665 77.0819ZM144.665 81.4977C145.533 81.4977 146.383 81.7552 147.105 82.2377C147.828 82.7203 148.391 83.4061 148.723 84.2086C149.056 85.011 149.143 85.894 148.973 86.7459C148.804 87.5977 148.385 88.3802 147.771 88.9944C147.157 89.6085 146.374 90.0268 145.522 90.1962C144.669 90.3657 143.786 90.2787 142.983 89.9463C142.18 89.6139 141.494 89.0511 141.012 88.3289C140.529 87.6067 140.271 86.7577 140.271 85.8891C140.271 84.7244 140.734 83.6074 141.558 82.7839C142.382 81.9603 143.499 81.4977 144.665 81.4977ZM144.665 102.679C142.935 102.662 141.236 102.224 139.714 101.404C138.191 100.584 136.891 99.4062 135.926 97.9718C135.926 95.036 141.8 93.4347 144.713 93.4347C147.626 93.4347 153.451 95.036 153.524 97.9718C152.552 99.4163 151.241 100.601 149.705 101.421C148.169 102.242 146.455 102.674 144.713 102.679H144.665Z" fill="#9377B6"/>
</svg>
