<svg width="275" height="59" viewBox="0 0 550 118" fill="none" xmlns="http://www.w3.org/2000/svg">
<path d="M176.656 46.1637V5.4719H166.827V20.875H150.963V5.4719H141.134V46.1637H150.963V29.1513H166.827V46.1637H176.656Z" fill="black"/>
<path d="M192.099 28.5766C192.329 25.6454 194.973 23.1165 198.594 23.1165C202.33 23.1165 204.227 25.5879 204.227 28.5766H192.099ZM212.907 32.1974C212.907 22.4268 206.986 16.6219 198.537 16.6219C189.857 16.6219 183.075 22.5992 183.075 31.9675C183.075 41.6232 190.202 47.0833 198.824 47.0833C204.63 47.0833 209.113 44.8992 211.815 40.991L205.262 36.8528C203.997 38.5771 201.928 39.8415 198.939 39.8415C195.548 39.8415 192.386 37.6 192.099 34.4389H212.849C212.907 33.7492 212.907 32.9446 212.907 32.1974Z" fill="black"/>
<path d="M228.409 46.1637V2.71313H218.867V46.1637H228.409Z" fill="black"/>
<path d="M267.716 31.7376C267.716 23.7487 262.486 16.7369 254.151 16.7369C249.955 16.7369 246.736 18.7485 245.012 21.0474H244.84V17.5415H235.873V59.9575H245.299V43.0026H245.414C247.196 45.474 250.588 46.9683 254.094 46.9683C262.716 46.9683 267.716 39.7266 267.716 31.7376ZM258.577 31.7376C258.577 35.4735 256.336 39.1518 251.852 39.1518C247.599 39.1518 244.955 35.5309 244.955 31.7951C244.955 28.1742 247.599 24.4384 251.852 24.4384C256.336 24.4384 258.577 28.0593 258.577 31.7376Z" fill="black"/>
<path d="M283.881 8.40309C283.881 5.52937 281.467 3.2304 278.478 3.2304C275.432 3.2304 273.075 5.64432 273.075 8.40309C273.075 11.2193 275.432 13.5758 278.478 13.5758C281.467 13.5758 283.881 11.3343 283.881 8.40309ZM283.191 46.1637V17.5415H273.765V46.1637H283.191Z" fill="black"/>
<path d="M318.938 46.1637V28.4616C318.938 22.7142 316.179 16.7369 308.477 16.7369C304.511 16.7369 301.234 18.9784 299.912 21.5072H299.797V17.5415H290.658V46.1637H300.142V30.6456C300.142 27.3696 301.867 24.4959 305.2 24.4959C308.592 24.4959 309.454 27.3696 309.454 30.5307V46.1637H318.938Z" fill="black"/>
<path d="M356.427 43.4624V17.5415H347.517V21.2198H347.402C345.391 18.1737 341.827 16.7369 338.263 16.7369C329.641 16.7369 324.641 23.8062 324.641 31.7376C324.641 39.6691 329.641 46.451 338.321 46.451C342.114 46.451 345.218 44.9567 347 42.6577H347.173V44.382C347.173 49.1523 344.586 52.3709 339.068 52.3709C335.849 52.3709 332.343 51.1639 329.584 48.75L324.87 55.4745C328.722 58.3482 334.584 59.9575 339.585 59.9575C349.759 59.9575 356.427 54.6699 356.427 43.4624ZM347.46 31.6802C347.46 35.5884 344.816 38.9794 340.505 38.9794C336.251 38.9794 333.78 35.4735 333.78 31.6802C333.78 27.7144 336.251 24.4384 340.505 24.4384C344.758 24.4384 347.46 27.7719 347.46 31.6802Z" fill="black"/>
<path d="M414.32 46.1637V5.4719H404.491V20.875H388.627V5.4719H378.798V46.1637H388.627V29.1513H404.491V46.1637H414.32Z" fill="black"/>
<path d="M439.075 34.6688C439.075 38.2322 436.948 40.5312 433.155 40.5312C431.258 40.5312 429.074 39.784 429.074 37.6C429.074 34.209 433.729 33.6918 437.868 33.6918H439.075V34.6688ZM426.545 26.565C428.269 24.9557 430.913 23.6338 433.615 23.6338C436.546 23.6338 438.788 24.9557 438.788 27.7719V28.2317C430.453 28.2317 420.394 29.6111 420.394 37.8874C420.394 44.6119 426.257 46.8534 430.798 46.8534C434.189 46.8534 437.466 45.474 438.903 43.1175H439.075V46.1637H447.697V31.7376C447.697 21.3348 444.133 16.6219 434.534 16.6219C429.878 16.6219 425.108 18.2887 421.774 21.4497L426.545 26.565Z" fill="black"/>
<path d="M483.013 46.1637V28.4616C483.013 22.7142 480.254 16.7369 472.552 16.7369C468.585 16.7369 465.309 18.9784 463.987 21.5072H463.872V17.5415H454.733V46.1637H464.217V30.6456C464.217 27.3696 465.941 24.4959 469.275 24.4959C472.667 24.4959 473.529 27.3696 473.529 30.5307V46.1637H483.013Z" fill="black"/>
<path d="M520.502 46.1637V2.71313H511.075V20.5876H510.96C509.351 18.691 506.419 16.7369 502.223 16.7369C493.889 16.7369 488.715 23.7487 488.715 31.7376C488.715 39.7266 493.716 46.9683 502.338 46.9683C506.132 46.9683 509.868 45.3016 511.707 42.4279H511.822V46.1637H520.502ZM511.477 31.7951C511.477 35.5309 508.833 39.1518 504.58 39.1518C500.096 39.1518 497.797 35.4735 497.797 31.7376C497.797 28.0593 500.096 24.4384 504.58 24.4384C508.833 24.4384 511.477 28.1742 511.477 31.7951Z" fill="black"/>
<path d="M550 20.6451C547.184 18.0013 542.758 16.6219 538.504 16.6219C533.044 16.6219 526.606 19.3807 526.606 26.2201C526.606 31.6227 530.975 33.6343 534.941 34.5539C538.849 35.4735 540.631 36.0482 540.631 37.8299C540.631 39.6691 538.792 40.3013 537.24 40.3013C534.481 40.3013 531.894 38.9219 530.227 37.0827L524.939 42.6577C527.928 45.5315 532.756 47.0833 537.412 47.0833C543.275 47.0833 549.655 44.5544 549.655 37.3126C549.655 31.7376 544.885 29.5536 540.516 28.5766C536.837 27.7719 535.286 27.3121 535.286 25.7028C535.286 24.0361 537.067 23.4039 538.849 23.4039C541.148 23.4039 543.333 24.5534 544.827 25.9902L550 20.6451Z" fill="black"/>
<path d="M176.943 97.5837L170.103 91.1466C168.379 93.5606 165.332 95.2848 161.481 95.2848C154.699 95.2848 149.928 90.2271 149.928 82.8129C149.928 75.6286 154.814 70.341 161.654 70.341C164.757 70.341 168.034 71.5479 169.873 74.0768L176.541 67.4098C173.15 63.5015 166.999 61.4324 161.309 61.4324C148.893 61.4324 139.237 69.7662 139.237 82.8129C139.237 95.5722 148.606 104.308 161.136 104.308C167.976 104.308 173.379 101.722 176.943 97.5837Z" fill="black"/>
<path d="M210.314 88.7902C210.314 79.4219 203.072 73.6745 194.392 73.6745C185.77 73.6745 178.528 79.4219 178.528 88.7902C178.528 98.1585 185.77 104.136 194.392 104.136C203.072 104.136 210.314 98.1585 210.314 88.7902ZM201.232 88.7902C201.232 92.4685 198.876 96.2044 194.45 96.2044C190.024 96.2044 187.667 92.4685 187.667 88.7902C187.667 85.1118 189.966 81.491 194.392 81.491C198.818 81.491 201.232 85.1118 201.232 88.7902Z" fill="black"/>
<path d="M262.266 103.216V85.5142C262.266 80.1116 259.622 73.7894 251.862 73.7894C247.609 73.7894 244.62 75.6861 242.723 78.6747C241.114 75.5711 238.24 73.7894 234.101 73.7894C229.79 73.7894 226.859 76.1459 225.537 78.5598H225.422V74.594H216.283V103.216H225.767V87.6982C225.767 84.2497 227.491 81.5484 230.48 81.5484C233.296 81.5484 234.561 83.6175 234.561 86.8935V103.216H243.988V87.7557C243.988 84.5371 245.54 81.5484 248.758 81.5484C252.092 81.5484 252.839 84.3072 252.839 87.5832V103.216H262.266Z" fill="black"/>
<path d="M315.367 103.216V85.5142C315.367 80.1116 312.723 73.7894 304.964 73.7894C300.71 73.7894 297.721 75.6861 295.824 78.6747C294.215 75.5711 291.341 73.7894 287.202 73.7894C282.891 73.7894 279.96 76.1459 278.638 78.5598H278.523V74.594H269.384V103.216H278.868V87.6982C278.868 84.2497 280.592 81.5484 283.581 81.5484C286.398 81.5484 287.662 83.6175 287.662 86.8935V103.216H297.089V87.7557C297.089 84.5371 298.641 81.5484 301.86 81.5484C305.193 81.5484 305.941 84.3072 305.941 87.5832V103.216H315.367Z" fill="black"/>
<path d="M350.42 103.216V74.594H340.993V90.0546C340.993 93.3307 339.211 96.2044 335.935 96.2044C332.486 96.2044 331.682 93.3307 331.682 90.1121V74.594H322.198V92.2961C322.198 98.0435 324.899 104.021 332.601 104.021C336.625 104.021 339.901 101.779 341.223 99.2505H341.338V103.216H350.42Z" fill="black"/>
<path d="M386.072 103.216V85.5142C386.072 79.7667 383.313 73.7894 375.611 73.7894C371.645 73.7894 368.368 76.0309 367.046 78.5598H366.931V74.594H357.792V103.216H367.276V87.6982C367.276 84.4221 369.001 81.5484 372.335 81.5484C375.726 81.5484 376.588 84.4221 376.588 87.5832V103.216H386.072Z" fill="black"/>
<path d="M403.443 65.4556C403.443 62.5819 401.029 60.283 398.04 60.283C394.994 60.283 392.637 62.6969 392.637 65.4556C392.637 68.2719 394.994 70.6283 398.04 70.6283C401.029 70.6283 403.443 68.3868 403.443 65.4556ZM402.753 103.216V74.594H393.327V103.216H402.753Z" fill="black"/>
<path d="M427.176 81.6634V74.594H420.451V67.0649H411.197V74.594H406.656V81.6634H411.254V93.733C411.254 99.8252 413.784 103.906 421.428 103.906C423.44 103.906 425.624 103.504 426.889 103.044L426.774 96.1469C426.084 96.4343 424.935 96.6067 424.015 96.6067C421.313 96.6067 420.451 95.2273 420.451 92.5835V81.6634H427.176Z" fill="black"/>
<path d="M460.576 74.594H450.574L444.884 92.9858H444.712L438.331 74.594H427.87L439.826 102.756L438.906 105.113C437.986 107.584 437.009 108.964 434.078 108.964C433.158 108.964 431.951 108.734 431.031 108.446L429.997 116.378C431.376 116.723 433.388 117.01 435.17 117.01C442.355 117.01 445.459 113.504 447.758 107.527L460.576 74.594Z" fill="black"/>
<path d="M0 54.2623C0 63.2527 7.28818 70.5409 16.2786 70.5409H37.9834V92.2457C37.9834 101.236 45.2716 108.524 54.262 108.524C63.2525 108.524 70.5406 101.236 70.5406 92.2457V54.2623C70.5406 45.2718 63.2525 37.9836 54.262 37.9836H16.2786C7.28818 37.9836 0 45.2718 0 54.2623Z" fill="#42B6E9"/>
<path d="M108.524 54.262C108.524 45.2716 101.236 37.9834 92.2453 37.9834L70.5405 37.9834L70.5405 16.2786C70.5405 7.28818 63.2523 0 54.2619 0C45.2715 0 37.9833 7.28818 37.9833 16.2786V32.5572H54.2619C66.2491 32.5572 75.9667 42.2748 75.9667 54.262V70.5406H92.2453C101.236 70.5406 108.524 63.2525 108.524 54.262Z" fill="#9377B6"/>
</svg>
