<svg width="53" height="53" viewBox="0 0 53 53" fill="none" xmlns="http://www.w3.org/2000/svg">
<path d="M26.5 53C41.1355 53 53 41.1355 53 26.5C53 11.8645 41.1355 0 26.5 0C11.8645 0 0 11.8645 0 26.5C0 41.1355 11.8645 53 26.5 53Z" fill="#9377B6"/>
<path d="M46.2936 31.5211C45.5382 30.8353 44.3759 30.8818 43.5855 31.5211L37.716 36.2167C36.9954 36.7978 36.1004 37.1116 35.1706 37.1116H27.6507C27.0928 37.1116 26.6279 36.6584 26.6279 36.0888C26.6279 35.5193 27.0811 35.066 27.6507 35.066H32.6252C33.6364 35.066 34.5779 34.3687 34.7406 33.3807C34.9498 32.1138 33.9735 30.998 32.7298 30.998H22.5599C20.8397 30.998 19.1893 31.5908 17.8526 32.6717L14.9004 35.066H11.3787C10.8208 35.066 10.3559 35.5193 10.3559 36.0888V42.1908C10.3559 42.7487 10.8092 43.2136 11.3787 43.2136H34.0548C34.973 43.2136 35.868 42.8998 36.6002 42.3187L46.2123 34.6244C47.177 33.8689 47.2583 32.3928 46.2936 31.5211Z" fill="white"/>
<path d="M35.5542 9.3215C33.1482 7.27589 29.58 7.63619 27.3717 9.91426L26.5 10.8092L25.6399 9.91426C23.4432 7.63619 19.8634 7.26426 17.4574 9.3215C14.7028 11.6693 14.5634 15.8884 17.0274 18.4454L25.512 27.209C26.0583 27.7785 26.9533 27.7785 27.4995 27.209L35.9842 18.4454C38.4482 15.9 38.3088 11.6693 35.5542 9.3215Z" fill="white"/>
<path d="M20.3632 18.178C20.3632 19.2008 21.1884 20.0261 22.2112 20.0261H24.6636V22.4785C24.6636 23.5013 25.4888 24.3265 26.5116 24.3265C27.5344 24.3265 28.3597 23.5013 28.3597 22.4785V18.178C28.3597 17.1552 27.5344 16.33 26.5116 16.33H22.2112C21.1884 16.3416 20.3632 17.1669 20.3632 18.178Z" fill="#42B6E9"/>
<path d="M32.6368 18.1781C32.6368 17.1553 31.8116 16.33 30.7888 16.33H28.3364V13.8776C28.3364 12.8548 27.5112 12.0296 26.4884 12.0296C25.4656 12.0296 24.6404 12.8548 24.6404 13.8776V15.7257H26.5C27.8599 15.7257 28.9524 16.8298 28.9524 18.1781V20.0261H30.8004C31.8116 20.0261 32.6368 19.2009 32.6368 18.1781Z" fill="#9377B6"/>
</svg>
