<svg width="59.5%" height="100%" viewBox="0 0 229 192" fill="none" xmlns="http://www.w3.org/2000/svg">
<g clip-path="url(#clip0)">
<path d="M10.6409 182.956C13.8173 188.872 20.5589 191.412 20.5589 191.412C20.5589 191.412 22.1504 184.359 18.974 178.443C15.7975 172.526 9.05593 169.986 9.05593 169.986C9.05593 169.986 7.46441 177.039 10.6409 182.956Z" fill="#2F2E41"/>
<path d="M12.8241 181.009C18.559 184.475 20.7676 191.358 20.7676 191.358C20.7676 191.358 13.6783 192.622 7.94348 189.157C2.20866 185.692 0 178.809 0 178.809C0 178.809 7.08932 177.544 12.8241 181.009Z" fill="#9377B6"/>
<path d="M141.399 9.21735H105.618V9.73074H141.399V9.21735Z" fill="#F2F2F2"/>
<path d="M131.687 9.60215H131.176V14.351H131.687V9.60215Z" fill="#F2F2F2"/>
<path d="M116.097 9.60215H115.586V14.351H116.097V9.60215Z" fill="#F2F2F2"/>
<path d="M159.546 33.8601H123.765V34.3735H159.546V33.8601Z" fill="#F2F2F2"/>
<path d="M133.988 29.2393H133.477V33.9881H133.988V29.2393Z" fill="#F2F2F2"/>
<path d="M149.578 29.2393H149.067V33.9881H149.578V29.2393Z" fill="#F2F2F2"/>
<path d="M207.083 45.4114H171.302V45.9248H207.083V45.4114Z" fill="#F2F2F2"/>
<path d="M181.526 40.7907H181.015V45.5395H181.526V40.7907Z" fill="#F2F2F2"/>
<path d="M197.116 40.7907H196.605V45.5395H197.116V40.7907Z" fill="#F2F2F2"/>
<path d="M203.505 164.517H167.724V165.031H203.505V164.517Z" fill="#F2F2F2"/>
<path d="M177.948 159.897H177.437V164.646H177.948V159.897Z" fill="#F2F2F2"/>
<path d="M193.538 159.897H193.026V164.646H193.538V159.897Z" fill="#F2F2F2"/>
<path d="M142.422 82.1183H106.641V82.6317H142.422V82.1183Z" fill="#F2F2F2"/>
<path d="M116.864 77.4982H116.353V82.247H116.864V77.4982Z" fill="#F2F2F2"/>
<path d="M132.454 77.4982H131.943V82.247H132.454V77.4982Z" fill="#F2F2F2"/>
<path d="M153.667 143.982H117.886V144.495H153.667V143.982Z" fill="#F2F2F2"/>
<path d="M128.109 139.361H127.598V144.11H128.109V139.361Z" fill="#F2F2F2"/>
<path d="M143.7 139.361H143.188V144.11H143.7V139.361Z" fill="#F2F2F2"/>
<path d="M210.917 125.243H175.136V125.757H210.917V125.243Z" fill="#F2F2F2"/>
<path d="M185.359 120.623H184.848V125.371H185.359V120.623Z" fill="#F2F2F2"/>
<path d="M200.95 120.623H200.438V125.371H200.95V120.623Z" fill="#F2F2F2"/>
<path d="M92.5354 180.247H32.0176V179.81H92.0999V158.602H37.1052L34.4336 153.011L34.8262 152.822L37.3791 158.164H92.5354V180.247Z" fill="#2F2E41"/>
<path d="M40.072 190.96C42.5968 190.96 44.6435 188.904 44.6435 186.369C44.6435 183.833 42.5968 181.777 40.072 181.777C37.5472 181.777 35.5005 183.833 35.5005 186.369C35.5005 188.904 37.5472 190.96 40.072 190.96Z" fill="#3F3D56"/>
<path d="M85.134 190.96C87.6587 190.96 89.7055 188.904 89.7055 186.369C89.7055 183.833 87.6587 181.777 85.134 181.777C82.6092 181.777 80.5625 183.833 80.5625 186.369C80.5625 188.904 82.6092 190.96 85.134 190.96Z" fill="#3F3D56"/>
<path d="M138.25 91.6976C139.813 91.6976 141.08 90.425 141.08 88.8553C141.08 87.2855 139.813 86.0129 138.25 86.0129C136.687 86.0129 135.42 87.2855 135.42 88.8553C135.42 90.425 136.687 91.6976 138.25 91.6976Z" fill="#3F3D56"/>
<path d="M99.0084 151.386H30.986L16.2676 103.067H114.166L114.077 103.351L99.0084 151.386ZM31.3081 150.949H98.6891L113.573 103.504H16.856L31.3081 150.949Z" fill="#2F2E41"/>
<path d="M93.6982 148.872H33.9517L21.0239 106.019H107.012L106.933 106.271L93.6982 148.872Z" fill="#F2F2F2"/>
<path d="M115.386 98.7501L114.965 98.638L117.838 87.7621H134.55V88.1995H118.173L115.386 98.7501Z" fill="#2F2E41"/>
<path d="M109.274 117.716H21.0234V118.154H109.274V117.716Z" fill="#2F2E41"/>
<path d="M104.22 133.826H25.9312V134.263H104.22V133.826Z" fill="#2F2E41"/>
<path d="M65.4329 103.286H64.9976V151.168H65.4329V103.286Z" fill="#2F2E41"/>
<path d="M84.9256 103.272L81.8003 151.153L82.2348 151.182L85.3602 103.301L84.9256 103.272Z" fill="#2F2E41"/>
<path d="M45.5141 103.271L45.0796 103.3L48.1868 151.182L48.6213 151.153L45.5141 103.271Z" fill="#2F2E41"/>
<path d="M152.175 15.883C152.175 15.883 155.911 26.5631 153.612 28.2061C151.313 29.8492 161.372 43.2678 161.372 43.2678L173.443 39.9816L166.833 28.7538C166.833 28.7538 165.97 17.526 165.97 15.883C165.97 14.2399 152.175 15.883 152.175 15.883Z" fill="#A0616A"/>
<path opacity="0.1" d="M152.175 15.883C152.175 15.883 155.911 26.5631 153.612 28.2061C151.313 29.8492 161.372 43.2678 161.372 43.2678L173.443 39.9816L166.833 28.7538C166.833 28.7538 165.97 17.526 165.97 15.883C165.97 14.2399 152.175 15.883 152.175 15.883Z" fill="black"/>
<path d="M145.904 92.0129C145.904 92.0129 144.814 105.705 145.904 112.825C146.995 119.945 148.631 139.663 148.631 139.663C148.631 139.663 148.631 176.906 154.629 177.454C160.628 178.001 164.99 178.549 165.536 176.358C166.081 174.167 162.809 173.072 164.445 171.977C166.081 170.881 166.626 167.047 164.445 162.666C162.264 158.284 164.445 113.921 164.445 113.921L174.806 141.853C174.806 141.853 175.897 164.857 176.987 168.143C178.078 171.429 175.897 177.454 179.714 178.001C183.531 178.549 187.894 175.263 190.075 174.167C192.256 173.072 186.803 173.072 187.894 172.524C188.984 171.977 192.256 170.334 191.166 169.786C190.075 169.238 188.984 142.949 188.984 142.949C188.984 142.949 185.985 86.8098 182.168 84.619C178.351 82.4282 175.897 86.2017 175.897 86.2017L145.904 92.0129Z" fill="#3F3D56"/>
<path d="M155.72 175.263V179.645C155.72 179.645 150.812 191.555 155.72 191.555C160.628 191.555 164.445 192.789 164.445 191.146V176.359L155.72 175.263Z" fill="#2F2E41"/>
<path d="M187.894 175.255V179.637C187.894 179.637 192.801 191.548 187.894 191.548C182.986 191.548 179.168 192.782 179.168 191.139V176.351L187.894 175.255Z" fill="#2F2E41"/>
<path d="M159.81 23.8247C165.231 23.8247 169.626 19.4109 169.626 13.9662C169.626 8.52145 165.231 4.10763 159.81 4.10763C154.389 4.10763 149.994 8.52145 149.994 13.9662C149.994 19.4109 154.389 23.8247 159.81 23.8247Z" fill="#A0616A"/>
<path d="M166.813 22.1936C162.578 24.02 158.108 24.0182 153.43 22.4021C154.747 20.0873 152.696 18.3225 151.621 16.0233L168.983 15.2402C167.686 17.2724 165.763 19.6794 166.813 22.1936Z" fill="#C1DEE2"/>
<path d="M168.875 15.5578L168.669 15.3552L168.951 15.0596L170.627 13.0034L170.847 13.1892L169.164 15.2537L168.875 15.5578Z" fill="#C1DEE2"/>
<path d="M150.205 14.6039L150.023 14.8287L151.778 16.2452L151.96 16.0204L150.205 14.6039Z" fill="#C1DEE2"/>
<path d="M169.379 17.2266L166.421 22.0369L166.667 22.1882L169.625 17.3779L169.379 17.2266Z" fill="#C1DEE2"/>
<path d="M150.568 17.5194L150.327 17.6782L153.432 22.3944L153.673 22.2356L150.568 17.5194Z" fill="#C1DEE2"/>
<path d="M156.81 32.3141C156.81 32.3141 159.537 40.5295 163.9 38.8865L168.262 37.2434L175.897 89.8223C175.897 89.8223 169.898 98.5854 161.173 93.1085C152.448 87.6315 156.81 32.3141 156.81 32.3141Z" fill="#D4A1A1"/>
<path d="M164.445 30.671L166.899 25.4678C166.899 25.4678 181.35 32.3141 183.531 34.5048C185.712 36.6956 185.712 39.9818 185.712 39.9818L181.895 53.6742C181.895 53.6742 182.986 83.7976 182.986 84.893C182.986 85.9884 186.803 92.013 184.076 89.8223C181.35 87.6315 180.804 85.4407 178.623 88.7269C176.442 92.013 171.534 95.8469 171.534 95.8469L164.445 30.671Z" fill="#9377B6"/>
<path d="M183.531 70.1051L181.895 85.4406C181.895 85.4406 172.079 94.2038 174.261 94.7515C176.442 95.2992 177.533 93.1084 177.533 93.1084C177.533 93.1084 181.35 96.9423 183.531 94.7515C185.712 92.5607 191.166 71.7482 191.166 71.7482L183.531 70.1051Z" fill="#A0616A"/>
<path d="M160.019 0.0333372C157.843 -0.0447929 155.514 -0.083441 153.679 1.09431C152.835 1.68537 152.095 2.41332 151.488 3.24837C149.702 5.51715 148.158 8.37179 148.821 11.1867L149.592 10.8848C149.592 11.6362 149.426 12.3781 149.105 13.0571C149.214 12.74 149.577 13.2525 149.48 13.5732L148.631 16.3714C150.027 15.8574 151.763 16.8981 151.976 18.3761C152.073 15.126 152.409 11.3992 155.034 9.49617C156.357 8.53647 158.033 8.24351 159.645 7.98335C161.132 7.74334 162.691 7.51447 164.115 8.00616C165.539 8.49784 166.752 9.96088 166.429 11.4384C167.086 11.2112 167.821 11.6709 168.145 12.2877C168.47 12.9045 168.487 13.6321 168.497 14.3297C169.197 14.8266 169.993 13.8399 170.279 13.028C170.948 11.1222 171.544 9.09352 171.183 7.10527C170.822 5.11701 169.209 3.21693 167.197 3.21019C167.441 2.94075 167.571 2.58645 167.56 2.22224L165.902 2.08149C166.323 2.02162 166.71 1.81657 166.997 1.50148C166.331 2.23741 161.096 0.0719979 160.019 0.0333372Z" fill="#2F2E41"/>
<path d="M159.537 29.028C159.537 29.028 155.098 24.6589 153.5 24.9265C151.902 25.1941 149.721 29.028 149.721 29.028C149.721 29.028 136.633 33.4096 137.179 37.7912C137.724 42.1728 143.723 63.5329 143.723 63.5329C143.723 63.5329 148.63 89.2747 144.268 92.0132C139.905 94.7517 164.99 101.872 165.535 98.5856C166.081 95.2994 167.171 62.4375 165.535 57.5083C163.899 52.579 159.537 29.028 159.537 29.028Z" fill="#9377B6"/>
<path d="M178.624 37.791H185.366C185.366 37.791 190.075 58.6035 190.621 60.7943C191.166 62.9851 192.257 73.3913 191.711 73.3913C191.166 73.3913 180.259 71.2005 180.259 72.8436L178.624 37.791Z" fill="#9377B6"/>
<path d="M178.395 89.3297H152.581C150.062 77.6912 149.852 66.4463 152.581 55.7028H178.395C174.229 66.2531 173.969 77.4209 178.395 89.3297Z" fill="#F2F2F2"/>
<path d="M142.086 75.0344L149.721 78.3206C149.721 78.3206 164.445 80.5114 164.445 74.4867C164.445 68.462 149.721 71.7482 149.721 71.7482L144.813 70.1721L142.086 75.0344Z" fill="#A0616A"/>
<path d="M143.723 34.5049L137.179 36.148L132.271 65.176C132.271 65.176 130.635 72.8437 133.362 73.3914C136.088 73.9391 143.723 78.3207 143.723 78.3207C143.723 78.3207 144.813 70.1052 146.995 70.1052L141.541 65.7237L144.813 46.5543L143.723 34.5049Z" fill="#9377B6"/>
<path d="M51.1797 90.5895H15.3984V91.1029H51.1797V90.5895Z" fill="#F2F2F2"/>
<path d="M25.6215 85.9687H25.1104V90.7176H25.6215V85.9687Z" fill="#F2F2F2"/>
<path d="M41.2118 85.9687H40.7007V90.7176H41.2118V85.9687Z" fill="#F2F2F2"/>
<path d="M63.7031 14.6081H27.9219V15.1214H63.7031V14.6081Z" fill="#F2F2F2"/>
<path d="M53.9911 14.993H53.48V19.7418H53.9911V14.993Z" fill="#F2F2F2"/>
<path d="M38.4008 14.993H37.8896V19.7418H38.4008V14.993Z" fill="#F2F2F2"/>
<path d="M99.7398 65.1767H63.9585V65.6901H99.7398V65.1767Z" fill="#F2F2F2"/>
<path d="M90.0278 65.5616H89.5166V70.3104H90.0278V65.5616Z" fill="#F2F2F2"/>
<path d="M74.4374 65.5616H73.9263V70.3104H74.4374V65.5616Z" fill="#F2F2F2"/>
<path d="M38.9116 64.9202H3.13037V65.4336H38.9116V64.9202Z" fill="#F2F2F2"/>
<path d="M29.1996 65.3053H28.6885V70.0541H29.1996V65.3053Z" fill="#F2F2F2"/>
<path d="M13.6093 65.3053H13.0981V70.0541H13.6093V65.3053Z" fill="#F2F2F2"/>
<path d="M81.8491 39.2509H46.0679V39.7642H81.8491V39.2509Z" fill="#F2F2F2"/>
<path d="M56.2914 34.63H55.7803V39.3788H56.2914V34.63Z" fill="#F2F2F2"/>
<path d="M71.8813 34.63H71.3701V39.3788H71.8813V34.63Z" fill="#F2F2F2"/>
</g>
<defs>
<clipPath id="clip0">
<rect width="229" height="192" fill="white"/>
</clipPath>
</defs>
</svg>
