<svg width="100%" height="250" viewBox="0 0 315 250" fill="none" xmlns="http://www.w3.org/2000/svg">
<mask id="mask0" mask-type="alpha" maskUnits="userSpaceOnUse" x="97" y="3" width="121" height="110">
<rect x="97.2026" y="3.21053" width="120.635" height="109.158" fill="#C4C4C4"/>
</mask>
<g mask="url(#mask0)">
<path d="M135.988 38.9973L137.739 39.35C137.739 39.35 143.302 50.0096 142.312 50.424C141.312 50.8472 141.87 52.6106 141.87 52.6106L143.011 55.9523C143.011 55.9523 144.833 58.1829 144.099 58.4475C143.364 58.712 142.161 60.1227 142.161 60.1227C142.161 60.1227 137.907 58.6414 136.111 60.7575L133.944 56.9221L135.988 38.9973Z" fill="#8D72AD"/>
<path d="M115.29 68.0933C115.29 68.0933 113.371 66.1095 111.009 67.723C108.647 69.3365 111.027 102.259 111.027 102.259C111.027 102.259 112.345 117.653 111.672 118.068C110.991 118.482 113.291 119.152 114.052 119.373C114.821 119.593 111.204 120.078 112.734 120.519C114.264 120.968 117.413 122.494 119.898 121.841C122.384 121.189 120.473 117.874 120.942 115.863C121.411 113.853 120.34 100.372 120.34 100.372L125.037 83.2055C125.037 83.2055 129.929 108.828 128.832 111.57C127.726 114.312 128.39 116.489 129.557 116.983C130.725 117.477 128.646 118.403 129.177 119.628C129.707 120.854 132.556 120.148 136.492 119.302C140.428 118.456 137.527 96.7836 137.527 96.7836C137.527 96.7836 137.075 85.1629 137.243 80.9307C137.412 76.6898 135.625 68.8163 135.625 68.8163L115.29 68.0933Z" fill="#2E2D40"/>
<path d="M156.234 50.3623C156.234 50.3623 168.776 50.9619 169.537 55.3439C170.289 59.7259 154.872 55.7936 154.872 55.7936L156.234 50.3623Z" fill="#9C5F67"/>
<path d="M116.484 29.528L117.846 38.1333L127.222 38.583L126.16 25.9042L116.484 29.528Z" fill="#A0616A"/>
<path d="M119.509 31.794C124.02 31.794 127.673 28.1438 127.673 23.6383C127.673 19.1329 124.02 15.4827 119.509 15.4827C114.998 15.4827 111.345 19.1329 111.345 23.6383C111.345 28.1438 114.998 31.794 119.509 31.794Z" fill="#A0616A"/>
<path opacity="0.1" d="M145.425 47.7173L143.028 56.3579L147.088 48.0082L145.425 47.7173Z" fill="#040000"/>
<path d="M126.222 15.4649L127.726 14.8654C127.726 14.8654 124.586 11.4179 120.217 11.7177L121.446 10.3687C121.446 10.3687 118.448 9.16962 115.714 12.3173C114.282 13.9749 112.619 15.9234 111.584 18.11H109.974L110.646 19.5824L108.302 21.0549L110.717 20.7903C110.575 21.6015 110.549 22.4215 110.655 23.2415C110.761 24.0526 111.177 24.8021 111.814 25.3134C111.814 25.3134 113.671 21.4693 113.671 20.8609V22.3598C113.671 22.3598 115.175 21.0108 115.175 20.1114L115.997 21.1607L116.404 19.5119L121.455 21.1607L120.632 19.8117L123.772 20.2613L122.543 18.6126C122.543 18.6126 126.09 20.5611 126.231 22.2099C126.364 23.8586 127.408 25.4281 127.408 25.4281C127.408 25.4281 130.176 17.7132 126.222 15.4649Z" fill="#2E2D40"/>
<path d="M174.411 42.4447C181.177 42.4447 186.652 36.9693 186.652 30.2156C186.652 23.4618 181.168 17.9865 174.411 17.9865C167.653 17.9865 162.169 23.4618 162.169 30.2156C162.16 36.9693 167.644 42.4447 174.411 42.4447Z" fill="#EFEFEF"/>
<path d="M172.756 35.347L167.449 28.2935L169.36 26.8651L173.013 31.7233L189.801 14.9711L191.49 16.6551L172.756 35.347Z" fill="#57B894"/>
<path d="M128.734 36.167C128.734 36.167 126.718 36.0612 126.169 36.6431C125.621 37.2251 122.215 38.6975 119.863 37.8599C117.51 37.0223 116.086 36.1141 115.608 36.2552C115.131 36.4051 113.485 40.8665 113.485 40.8665L114.741 48.2815L111.106 67.5201L109.576 72.678C109.576 72.678 108.55 70.703 113.645 72.6692C118.748 74.6353 125.895 73.7801 128.133 73.93C130.371 74.0711 134.218 74.027 134.661 72.7485C135.103 71.4701 135.014 66.4973 135.014 66.4973L133.926 51.2175L133.033 42.9561L128.734 36.167Z" fill="#45ACDB"/>
<path d="M126.771 34.5361C126.771 34.5361 128.805 34.0159 129.292 34.9505C129.787 35.8762 137.845 38.7594 137.73 39.3501C137.615 39.9408 136.067 56.4109 135.351 57.7158C134.625 59.0207 135.616 60.8723 135.616 60.8723L135.926 67.1499C135.926 67.1499 137.765 79.3261 135.934 79.3702C134.104 79.4143 132.653 78.7089 131.998 78.5767C131.344 78.4444 133.104 70.9324 131.76 68.5871C130.415 66.2418 129.026 60.7841 128.788 59.6996C128.549 58.6151 125.886 43.785 126.426 42.2421C126.992 40.6903 126.771 34.5361 126.771 34.5361Z" fill="#8D72AD"/>
<path d="M117.457 35.3295C117.457 35.3295 115.697 35.0385 115.414 35.4C115.131 35.7615 112.504 37.9746 111.522 38.4242C110.54 38.8739 107.037 40.9371 106.94 41.5366C106.843 42.1274 112.504 47.5321 112.504 47.5321C112.504 47.5321 113.211 59.6466 111.239 63.3938C109.266 67.1322 105.711 76.3106 106.489 77.0513C107.267 77.7919 109.222 78.3121 109.355 77.5186C109.487 76.725 112.221 68.4283 113.609 66.8324C115.007 65.2277 120.172 54.4887 119.376 51.103C118.571 47.7173 117.457 35.3295 117.457 35.3295Z" fill="#8D72AD"/>
<path d="M109.488 41.1398L106.931 41.5366L105.95 47.4792L104.87 48.5196C104.87 48.5196 104.694 50.9355 105.26 51.632C105.826 52.3374 107.179 52.355 106.507 53.6687C106.091 54.5328 105.861 55.4586 105.826 56.402C105.826 56.402 109.036 61.604 109.355 61.0485C109.673 60.493 113.972 53.6687 114.405 53.7481C114.848 53.8186 111.902 41.5366 111.902 41.5366L109.488 41.1398Z" fill="#8D72AD"/>
<path d="M192.286 45.61H134.245V106.147H192.295V45.61H192.286Z" fill="#EFEFEF"/>
<path d="M183.22 58.8883H140.286V64.9279H183.22V58.8883Z" fill="#45ACDB"/>
<path d="M175.782 74.8911H147.672V77.9064H175.79V74.8911H175.782Z" fill="#45ACDB"/>
<path d="M175.843 80.1725H147.725V83.1879H175.843V80.1725Z" fill="#45ACDB"/>
<path d="M161.833 85.4627H147.778V88.4781H161.833V85.4627Z" fill="#45ACDB"/>
<path d="M183.972 100.707H177.471V103.723H183.972V100.707Z" fill="#45ACDB"/>
<path d="M128.841 56.014C128.841 56.014 110.814 66.5679 108.86 61.9655C106.905 57.363 112.99 54.7532 112.99 54.7532C112.99 54.7532 117.793 55.7671 123.879 53.1661L129.778 51.6585C129.778 51.6585 135.988 45.3367 137.244 48.3433C138.517 51.3499 133.095 55.3263 128.841 56.014Z" fill="#A0616A"/>
</g>
<path d="M2.10413 167V164.744H5.51213V154.712H2.70413V152.984C3.47213 152.84 4.12813 152.672 4.67213 152.48C5.23213 152.272 5.75213 152.024 6.23213 151.736H8.29613V164.744H11.2961V167H2.10413ZM15.9448 167.288C15.4328 167.288 15.0008 167.112 14.6488 166.76C14.3128 166.408 14.1448 165.96 14.1448 165.416C14.1448 164.872 14.3128 164.424 14.6488 164.072C15.0008 163.72 15.4328 163.544 15.9448 163.544C16.4568 163.544 16.8808 163.72 17.2168 164.072C17.5528 164.424 17.7208 164.872 17.7208 165.416C17.7208 165.96 17.5528 166.408 17.2168 166.76C16.8808 167.112 16.4568 167.288 15.9448 167.288ZM32.3029 167.288C31.3109 167.288 30.3829 167.112 29.5189 166.76C28.6549 166.408 27.9029 165.888 27.2629 165.2C26.6389 164.512 26.1429 163.664 25.7749 162.656C25.4069 161.648 25.2229 160.496 25.2229 159.2C25.2229 157.92 25.4069 156.776 25.7749 155.768C26.1589 154.744 26.6709 153.88 27.3109 153.176C27.9669 152.472 28.7269 151.936 29.5909 151.568C30.4709 151.2 31.4069 151.016 32.3989 151.016C33.3909 151.016 34.2709 151.216 35.0389 151.616C35.8069 152.016 36.4389 152.48 36.9349 153.008L35.4469 154.808C35.0309 154.392 34.5829 154.064 34.1029 153.824C33.6229 153.568 33.0789 153.44 32.4709 153.44C31.8309 153.44 31.2389 153.576 30.6949 153.848C30.1669 154.104 29.7029 154.48 29.3029 154.976C28.9189 155.456 28.6149 156.048 28.3909 156.752C28.1829 157.456 28.0789 158.248 28.0789 159.128C28.0789 160.92 28.4629 162.328 29.2309 163.352C30.0149 164.36 31.0709 164.864 32.3989 164.864C33.1029 164.864 33.7269 164.72 34.2709 164.432C34.8149 164.128 35.3109 163.736 35.7589 163.256L37.2469 165.008C36.6069 165.744 35.8709 166.312 35.0389 166.712C34.2229 167.096 33.3109 167.288 32.3029 167.288ZM39.627 167V150.056H42.387V154.424L42.291 156.704C42.787 156.24 43.331 155.832 43.923 155.48C44.531 155.112 45.243 154.928 46.059 154.928C47.323 154.928 48.243 155.336 48.819 156.152C49.395 156.952 49.683 158.104 49.683 159.608V167H46.923V159.968C46.923 158.992 46.779 158.304 46.491 157.904C46.203 157.504 45.731 157.304 45.075 157.304C44.563 157.304 44.107 157.432 43.707 157.688C43.323 157.928 42.883 158.288 42.387 158.768V167H39.627ZM57.8338 167.288C57.0978 167.288 56.3938 167.152 55.7218 166.88C55.0498 166.608 54.4498 166.208 53.9218 165.68C53.4098 165.152 53.0018 164.504 52.6978 163.736C52.3938 162.968 52.2418 162.096 52.2418 161.12C52.2418 160.144 52.3938 159.272 52.6978 158.504C53.0018 157.736 53.4098 157.088 53.9218 156.56C54.4498 156.032 55.0498 155.632 55.7218 155.36C56.3938 155.072 57.0978 154.928 57.8338 154.928C58.5698 154.928 59.2738 155.072 59.9458 155.36C60.6338 155.632 61.2338 156.032 61.7458 156.56C62.2578 157.088 62.6658 157.736 62.9698 158.504C63.2898 159.272 63.4498 160.144 63.4498 161.12C63.4498 162.096 63.2898 162.968 62.9698 163.736C62.6658 164.504 62.2578 165.152 61.7458 165.68C61.2338 166.208 60.6338 166.608 59.9458 166.88C59.2738 167.152 58.5698 167.288 57.8338 167.288ZM57.8338 165.032C58.6978 165.032 59.3778 164.68 59.8738 163.976C60.3698 163.256 60.6178 162.304 60.6178 161.12C60.6178 159.92 60.3698 158.968 59.8738 158.264C59.3778 157.544 58.6978 157.184 57.8338 157.184C56.9698 157.184 56.2898 157.544 55.7938 158.264C55.3138 158.968 55.0738 159.92 55.0738 161.12C55.0738 162.304 55.3138 163.256 55.7938 163.976C56.2898 164.68 56.9698 165.032 57.8338 165.032ZM71.0057 167.288C70.2697 167.288 69.5657 167.152 68.8937 166.88C68.2217 166.608 67.6217 166.208 67.0937 165.68C66.5817 165.152 66.1737 164.504 65.8697 163.736C65.5657 162.968 65.4137 162.096 65.4137 161.12C65.4137 160.144 65.5657 159.272 65.8697 158.504C66.1737 157.736 66.5817 157.088 67.0937 156.56C67.6217 156.032 68.2217 155.632 68.8937 155.36C69.5657 155.072 70.2697 154.928 71.0057 154.928C71.7417 154.928 72.4457 155.072 73.1177 155.36C73.8057 155.632 74.4057 156.032 74.9177 156.56C75.4297 157.088 75.8377 157.736 76.1417 158.504C76.4617 159.272 76.6217 160.144 76.6217 161.12C76.6217 162.096 76.4617 162.968 76.1417 163.736C75.8377 164.504 75.4297 165.152 74.9177 165.68C74.4057 166.208 73.8057 166.608 73.1177 166.88C72.4457 167.152 71.7417 167.288 71.0057 167.288ZM71.0057 165.032C71.8697 165.032 72.5497 164.68 73.0457 163.976C73.5417 163.256 73.7897 162.304 73.7897 161.12C73.7897 159.92 73.5417 158.968 73.0457 158.264C72.5497 157.544 71.8697 157.184 71.0057 157.184C70.1417 157.184 69.4617 157.544 68.9657 158.264C68.4857 158.968 68.2457 159.92 68.2457 161.12C68.2457 162.304 68.4857 163.256 68.9657 163.976C69.4617 164.68 70.1417 165.032 71.0057 165.032ZM82.5478 167.288C81.7318 167.288 80.9238 167.136 80.1238 166.832C79.3398 166.512 78.6598 166.12 78.0838 165.656L79.3798 163.88C79.9078 164.296 80.4278 164.624 80.9398 164.864C81.4678 165.088 82.0358 165.2 82.6438 165.2C83.2838 165.2 83.7558 165.072 84.0598 164.816C84.3638 164.544 84.5158 164.2 84.5158 163.784C84.5158 163.544 84.4438 163.336 84.2998 163.16C84.1558 162.968 83.9638 162.8 83.7238 162.656C83.4838 162.512 83.2118 162.384 82.9078 162.272C82.6038 162.144 82.2998 162.016 81.9958 161.888C81.6118 161.744 81.2198 161.576 80.8198 161.384C80.4198 161.192 80.0598 160.96 79.7398 160.688C79.4358 160.416 79.1798 160.104 78.9718 159.752C78.7798 159.384 78.6838 158.952 78.6838 158.456C78.6838 157.416 79.0678 156.568 79.8358 155.912C80.6038 155.256 81.6518 154.928 82.9798 154.928C83.7958 154.928 84.5318 155.072 85.1878 155.36C85.8438 155.648 86.4118 155.976 86.8918 156.344L85.6198 158.024C85.2038 157.72 84.7798 157.48 84.3478 157.304C83.9318 157.112 83.4918 157.016 83.0278 157.016C82.4358 157.016 81.9958 157.144 81.7078 157.4C81.4358 157.64 81.2998 157.944 81.2998 158.312C81.2998 158.552 81.3638 158.76 81.4918 158.936C81.6358 159.096 81.8198 159.24 82.0438 159.368C82.2678 159.496 82.5238 159.616 82.8118 159.728C83.1158 159.84 83.4278 159.952 83.7478 160.064C84.1478 160.208 84.5478 160.376 84.9478 160.568C85.3478 160.744 85.7078 160.968 86.0278 161.24C86.3638 161.512 86.6278 161.848 86.8198 162.248C87.0278 162.632 87.1318 163.096 87.1318 163.64C87.1318 164.152 87.0278 164.632 86.8198 165.08C86.6278 165.512 86.3398 165.896 85.9558 166.232C85.5718 166.552 85.0918 166.808 84.5158 167C83.9398 167.192 83.2838 167.288 82.5478 167.288ZM94.6358 167.288C93.8198 167.288 93.0598 167.152 92.3558 166.88C91.6518 166.592 91.0358 166.184 90.5078 165.656C89.9798 165.128 89.5638 164.488 89.2598 163.736C88.9718 162.968 88.8278 162.096 88.8278 161.12C88.8278 160.16 88.9798 159.296 89.2838 158.528C89.5878 157.76 89.9878 157.112 90.4838 156.584C90.9958 156.056 91.5798 155.648 92.2358 155.36C92.8918 155.072 93.5638 154.928 94.2518 154.928C95.0518 154.928 95.7558 155.064 96.3638 155.336C96.9718 155.608 97.4758 155.992 97.8758 156.488C98.2918 156.984 98.6038 157.576 98.8118 158.264C99.0198 158.952 99.1238 159.704 99.1238 160.52C99.1238 160.792 99.1078 161.048 99.0758 161.288C99.0598 161.528 99.0358 161.72 99.0038 161.864H91.5158C91.6438 162.92 92.0118 163.736 92.6198 164.312C93.2438 164.872 94.0358 165.152 94.9958 165.152C95.5078 165.152 95.9798 165.08 96.4118 164.936C96.8598 164.776 97.2998 164.56 97.7318 164.288L98.6678 166.016C98.1078 166.384 97.4838 166.688 96.7958 166.928C96.1078 167.168 95.3878 167.288 94.6358 167.288ZM91.4918 159.992H96.7238C96.7238 159.08 96.5238 158.368 96.1238 157.856C95.7398 157.328 95.1398 157.064 94.3238 157.064C93.6198 157.064 93.0038 157.312 92.4758 157.808C91.9478 158.304 91.6198 159.032 91.4918 159.992ZM109.421 167.288C108.381 167.288 107.541 166.976 106.901 166.352C106.261 165.712 105.941 164.872 105.941 163.832C105.941 163.208 106.069 162.656 106.325 162.176C106.597 161.68 107.013 161.256 107.573 160.904C108.149 160.552 108.869 160.256 109.733 160.016C110.613 159.776 111.661 159.592 112.877 159.464C112.861 159.16 112.813 158.872 112.733 158.6C112.669 158.312 112.549 158.064 112.373 157.856C112.213 157.632 111.997 157.464 111.725 157.352C111.453 157.224 111.117 157.16 110.717 157.16C110.141 157.16 109.573 157.272 109.013 157.496C108.469 157.72 107.933 157.992 107.405 158.312L106.396 156.464C107.053 156.048 107.789 155.688 108.605 155.384C109.421 155.08 110.301 154.928 111.245 154.928C112.717 154.928 113.813 155.368 114.533 156.248C115.269 157.112 115.637 158.368 115.637 160.016V167H113.357L113.165 165.704H113.069C112.541 166.152 111.973 166.528 111.365 166.832C110.773 167.136 110.125 167.288 109.421 167.288ZM110.309 165.128C110.789 165.128 111.221 165.016 111.605 164.792C112.005 164.568 112.429 164.248 112.877 163.832V161.192C112.077 161.288 111.405 161.416 110.861 161.576C110.317 161.736 109.877 161.92 109.541 162.128C109.205 162.32 108.965 162.544 108.821 162.8C108.677 163.056 108.605 163.328 108.605 163.616C108.605 164.144 108.765 164.528 109.085 164.768C109.405 165.008 109.813 165.128 110.309 165.128ZM123.744 167V155.216H126.024L126.216 156.8H126.312C126.84 156.288 127.408 155.848 128.016 155.48C128.64 155.112 129.36 154.928 130.176 154.928C131.44 154.928 132.36 155.336 132.936 156.152C133.512 156.952 133.8 158.104 133.8 159.608V167H131.04V159.968C131.04 158.992 130.896 158.304 130.608 157.904C130.32 157.504 129.848 157.304 129.192 157.304C128.68 157.304 128.224 157.432 127.824 157.688C127.44 157.928 127 158.288 126.504 158.768V167H123.744ZM142.214 167.288C141.398 167.288 140.638 167.152 139.934 166.88C139.23 166.592 138.614 166.184 138.086 165.656C137.558 165.128 137.142 164.488 136.838 163.736C136.55 162.968 136.406 162.096 136.406 161.12C136.406 160.16 136.558 159.296 136.862 158.528C137.166 157.76 137.566 157.112 138.062 156.584C138.574 156.056 139.158 155.648 139.814 155.36C140.47 155.072 141.142 154.928 141.83 154.928C142.63 154.928 143.334 155.064 143.942 155.336C144.55 155.608 145.054 155.992 145.454 156.488C145.87 156.984 146.182 157.576 146.39 158.264C146.598 158.952 146.702 159.704 146.702 160.52C146.702 160.792 146.686 161.048 146.654 161.288C146.638 161.528 146.614 161.72 146.582 161.864H139.094C139.222 162.92 139.59 163.736 140.198 164.312C140.822 164.872 141.614 165.152 142.574 165.152C143.086 165.152 143.558 165.08 143.99 164.936C144.438 164.776 144.878 164.56 145.31 164.288L146.246 166.016C145.686 166.384 145.062 166.688 144.374 166.928C143.686 167.168 142.966 167.288 142.214 167.288ZM139.07 159.992H144.302C144.302 159.08 144.102 158.368 143.702 157.856C143.318 157.328 142.718 157.064 141.902 157.064C141.198 157.064 140.582 157.312 140.054 157.808C139.526 158.304 139.198 159.032 139.07 159.992ZM149.338 167V155.216H152.098V167H149.338ZM150.73 153.152C150.234 153.152 149.826 153.008 149.506 152.72C149.186 152.432 149.026 152.056 149.026 151.592C149.026 151.128 149.186 150.752 149.506 150.464C149.826 150.16 150.234 150.008 150.73 150.008C151.226 150.008 151.634 150.16 151.954 150.464C152.274 150.752 152.434 151.128 152.434 151.592C152.434 152.056 152.274 152.432 151.954 152.72C151.634 153.008 151.226 153.152 150.73 153.152ZM159.723 172.208C159.019 172.208 158.363 172.144 157.755 172.016C157.163 171.888 156.651 171.696 156.219 171.44C155.787 171.184 155.443 170.864 155.187 170.48C154.947 170.096 154.827 169.648 154.827 169.136C154.827 168.64 154.971 168.176 155.259 167.744C155.547 167.328 155.963 166.952 156.507 166.616V166.52C156.203 166.328 155.947 166.072 155.739 165.752C155.547 165.432 155.451 165.032 155.451 164.552C155.451 164.088 155.579 163.672 155.835 163.304C156.107 162.92 156.411 162.608 156.747 162.368V162.272C156.347 161.968 155.987 161.552 155.667 161.024C155.363 160.48 155.211 159.856 155.211 159.152C155.211 158.48 155.339 157.88 155.595 157.352C155.851 156.824 156.187 156.384 156.603 156.032C157.035 155.664 157.531 155.392 158.091 155.216C158.651 155.024 159.243 154.928 159.867 154.928C160.187 154.928 160.491 154.96 160.779 155.024C161.083 155.072 161.355 155.136 161.595 155.216H165.819V157.256H163.659C163.851 157.48 164.011 157.768 164.139 158.12C164.267 158.456 164.331 158.832 164.331 159.248C164.331 159.904 164.211 160.48 163.971 160.976C163.747 161.472 163.435 161.888 163.035 162.224C162.635 162.56 162.163 162.816 161.619 162.992C161.075 163.168 160.491 163.256 159.867 163.256C159.611 163.256 159.347 163.232 159.075 163.184C158.803 163.136 158.531 163.056 158.259 162.944C158.083 163.104 157.939 163.264 157.827 163.424C157.731 163.584 157.683 163.8 157.683 164.072C157.683 164.408 157.819 164.672 158.091 164.864C158.379 165.056 158.883 165.152 159.603 165.152H161.691C163.115 165.152 164.187 165.384 164.907 165.848C165.643 166.296 166.011 167.032 166.011 168.056C166.011 168.632 165.859 169.176 165.555 169.688C165.267 170.2 164.851 170.64 164.307 171.008C163.763 171.376 163.099 171.664 162.315 171.872C161.547 172.096 160.683 172.208 159.723 172.208ZM159.867 161.528C160.427 161.528 160.907 161.328 161.307 160.928C161.707 160.512 161.907 159.92 161.907 159.152C161.907 158.416 161.707 157.848 161.307 157.448C160.923 157.032 160.443 156.824 159.867 156.824C159.291 156.824 158.803 157.024 158.403 157.424C158.003 157.824 157.803 158.4 157.803 159.152C157.803 159.92 158.003 160.512 158.403 160.928C158.803 161.328 159.291 161.528 159.867 161.528ZM160.155 170.408C161.115 170.408 161.883 170.216 162.459 169.832C163.051 169.464 163.347 169.024 163.347 168.512C163.347 168.048 163.163 167.736 162.795 167.576C162.443 167.416 161.931 167.336 161.259 167.336H159.651C159.011 167.336 158.475 167.28 158.043 167.168C157.435 167.632 157.131 168.152 157.131 168.728C157.131 169.256 157.395 169.664 157.923 169.952C158.467 170.256 159.211 170.408 160.155 170.408ZM168.088 167V150.056H170.848V154.424L170.752 156.704C171.248 156.24 171.792 155.832 172.384 155.48C172.992 155.112 173.704 154.928 174.52 154.928C175.784 154.928 176.704 155.336 177.28 156.152C177.856 156.952 178.144 158.104 178.144 159.608V167H175.384V159.968C175.384 158.992 175.24 158.304 174.952 157.904C174.664 157.504 174.192 157.304 173.536 157.304C173.024 157.304 172.568 157.432 172.168 157.688C171.784 157.928 171.344 158.288 170.848 158.768V167H168.088ZM187.183 167.288C186.639 167.288 186.087 167.16 185.527 166.904C184.983 166.632 184.463 166.248 183.967 165.752H183.895L183.655 167H181.471V150.056H184.231V154.424L184.159 156.392C184.655 155.96 185.191 155.608 185.767 155.336C186.359 155.064 186.959 154.928 187.567 154.928C188.303 154.928 188.959 155.072 189.535 155.36C190.111 155.632 190.599 156.032 190.999 156.56C191.399 157.072 191.703 157.696 191.911 158.432C192.119 159.168 192.223 159.992 192.223 160.904C192.223 161.912 192.079 162.816 191.791 163.616C191.519 164.4 191.151 165.064 190.687 165.608C190.223 166.152 189.687 166.568 189.079 166.856C188.471 167.144 187.839 167.288 187.183 167.288ZM186.607 165.008C187.391 165.008 188.047 164.672 188.575 164C189.103 163.312 189.367 162.296 189.367 160.952C189.367 159.768 189.167 158.848 188.767 158.192C188.367 157.536 187.719 157.208 186.823 157.208C185.991 157.208 185.127 157.648 184.231 158.528V164.024C184.647 164.392 185.055 164.648 185.455 164.792C185.871 164.936 186.255 165.008 186.607 165.008ZM199.818 167.288C199.082 167.288 198.378 167.152 197.706 166.88C197.034 166.608 196.434 166.208 195.906 165.68C195.394 165.152 194.986 164.504 194.682 163.736C194.378 162.968 194.226 162.096 194.226 161.12C194.226 160.144 194.378 159.272 194.682 158.504C194.986 157.736 195.394 157.088 195.906 156.56C196.434 156.032 197.034 155.632 197.706 155.36C198.378 155.072 199.082 154.928 199.818 154.928C200.554 154.928 201.258 155.072 201.93 155.36C202.618 155.632 203.218 156.032 203.73 156.56C204.242 157.088 204.65 157.736 204.954 158.504C205.274 159.272 205.434 160.144 205.434 161.12C205.434 162.096 205.274 162.968 204.954 163.736C204.65 164.504 204.242 165.152 203.73 165.68C203.218 166.208 202.618 166.608 201.93 166.88C201.258 167.152 200.554 167.288 199.818 167.288ZM199.818 165.032C200.682 165.032 201.362 164.68 201.858 163.976C202.354 163.256 202.602 162.304 202.602 161.12C202.602 159.92 202.354 158.968 201.858 158.264C201.362 157.544 200.682 157.184 199.818 157.184C198.954 157.184 198.274 157.544 197.778 158.264C197.298 158.968 197.058 159.92 197.058 161.12C197.058 162.304 197.298 163.256 197.778 163.976C198.274 164.68 198.954 165.032 199.818 165.032ZM208.166 167V155.216H210.446L210.638 157.304H210.734C211.15 156.536 211.654 155.952 212.246 155.552C212.838 155.136 213.446 154.928 214.07 154.928C214.63 154.928 215.078 155.008 215.414 155.168L214.934 157.568C214.726 157.504 214.534 157.456 214.358 157.424C214.182 157.392 213.966 157.376 213.71 157.376C213.246 157.376 212.758 157.56 212.246 157.928C211.734 158.28 211.294 158.904 210.926 159.8V167H208.166ZM217.741 157.616L217.069 156.392C217.741 156.008 218.237 155.584 218.557 155.12C218.893 154.656 219.061 154.072 219.061 153.368C219.013 153.384 218.941 153.392 218.845 153.392C218.429 153.392 218.061 153.264 217.741 153.008C217.437 152.736 217.285 152.368 217.285 151.904C217.285 151.392 217.429 150.992 217.717 150.704C218.005 150.4 218.381 150.248 218.845 150.248C219.453 150.248 219.917 150.48 220.237 150.944C220.573 151.408 220.741 152.064 220.741 152.912C220.741 155.008 219.741 156.576 217.741 157.616ZM226.103 167.288C225.287 167.288 224.479 167.136 223.679 166.832C222.895 166.512 222.215 166.12 221.639 165.656L222.935 163.88C223.463 164.296 223.983 164.624 224.495 164.864C225.023 165.088 225.591 165.2 226.199 165.2C226.839 165.2 227.311 165.072 227.615 164.816C227.919 164.544 228.071 164.2 228.071 163.784C228.071 163.544 227.999 163.336 227.855 163.16C227.711 162.968 227.519 162.8 227.279 162.656C227.039 162.512 226.767 162.384 226.463 162.272C226.159 162.144 225.855 162.016 225.551 161.888C225.167 161.744 224.775 161.576 224.375 161.384C223.975 161.192 223.615 160.96 223.295 160.688C222.991 160.416 222.735 160.104 222.527 159.752C222.335 159.384 222.239 158.952 222.239 158.456C222.239 157.416 222.623 156.568 223.391 155.912C224.159 155.256 225.207 154.928 226.535 154.928C227.351 154.928 228.087 155.072 228.743 155.36C229.399 155.648 229.967 155.976 230.447 156.344L229.175 158.024C228.759 157.72 228.335 157.48 227.903 157.304C227.487 157.112 227.047 157.016 226.583 157.016C225.991 157.016 225.551 157.144 225.263 157.4C224.991 157.64 224.855 157.944 224.855 158.312C224.855 158.552 224.919 158.76 225.047 158.936C225.191 159.096 225.375 159.24 225.599 159.368C225.823 159.496 226.079 159.616 226.367 159.728C226.671 159.84 226.983 159.952 227.303 160.064C227.703 160.208 228.103 160.376 228.503 160.568C228.903 160.744 229.263 160.968 229.583 161.24C229.919 161.512 230.183 161.848 230.375 162.248C230.583 162.632 230.687 163.096 230.687 163.64C230.687 164.152 230.583 164.632 230.375 165.08C230.183 165.512 229.895 165.896 229.511 166.232C229.127 166.552 228.647 166.808 228.071 167C227.495 167.192 226.839 167.288 226.103 167.288ZM237.955 167V155.216H240.235L240.427 157.304H240.523C240.939 156.536 241.443 155.952 242.035 155.552C242.627 155.136 243.235 154.928 243.859 154.928C244.419 154.928 244.867 155.008 245.203 155.168L244.723 157.568C244.515 157.504 244.323 157.456 244.147 157.424C243.971 157.392 243.755 157.376 243.499 157.376C243.035 157.376 242.547 157.56 242.035 157.928C241.523 158.28 241.083 158.904 240.715 159.8V167H237.955ZM251.714 167.288C250.898 167.288 250.138 167.152 249.434 166.88C248.73 166.592 248.114 166.184 247.586 165.656C247.058 165.128 246.642 164.488 246.338 163.736C246.05 162.968 245.906 162.096 245.906 161.12C245.906 160.16 246.058 159.296 246.362 158.528C246.666 157.76 247.066 157.112 247.562 156.584C248.074 156.056 248.658 155.648 249.314 155.36C249.97 155.072 250.642 154.928 251.33 154.928C252.13 154.928 252.834 155.064 253.442 155.336C254.05 155.608 254.554 155.992 254.954 156.488C255.37 156.984 255.682 157.576 255.89 158.264C256.098 158.952 256.202 159.704 256.202 160.52C256.202 160.792 256.186 161.048 256.154 161.288C256.138 161.528 256.114 161.72 256.082 161.864H248.594C248.722 162.92 249.09 163.736 249.698 164.312C250.322 164.872 251.114 165.152 252.074 165.152C252.586 165.152 253.058 165.08 253.49 164.936C253.938 164.776 254.378 164.56 254.81 164.288L255.746 166.016C255.186 166.384 254.562 166.688 253.874 166.928C253.186 167.168 252.466 167.288 251.714 167.288ZM248.57 159.992H253.802C253.802 159.08 253.602 158.368 253.202 157.856C252.818 157.328 252.218 157.064 251.402 157.064C250.698 157.064 250.082 157.312 249.554 157.808C249.026 158.304 248.698 159.032 248.57 159.992ZM266.11 171.656V167.792L266.206 165.824C265.774 166.24 265.278 166.592 264.718 166.88C264.158 167.152 263.574 167.288 262.966 167.288C261.478 167.288 260.294 166.752 259.414 165.68C258.55 164.592 258.118 163.072 258.118 161.12C258.118 160.16 258.254 159.296 258.526 158.528C258.814 157.76 259.19 157.112 259.654 156.584C260.118 156.056 260.646 155.648 261.238 155.36C261.846 155.072 262.47 154.928 263.11 154.928C263.782 154.928 264.366 155.048 264.862 155.288C265.374 155.512 265.878 155.864 266.374 156.344H266.446L266.686 155.216H268.87V171.656H266.11ZM263.638 165.008C264.518 165.008 265.342 164.568 266.11 163.688V158.192C265.694 157.824 265.286 157.568 264.886 157.424C264.502 157.28 264.11 157.208 263.71 157.208C262.942 157.208 262.294 157.544 261.766 158.216C261.238 158.888 260.974 159.848 260.974 161.096C260.974 162.376 261.198 163.352 261.646 164.024C262.11 164.68 262.774 165.008 263.638 165.008ZM275.889 167.288C274.625 167.288 273.705 166.888 273.129 166.088C272.553 165.272 272.265 164.112 272.265 162.608V155.216H275.025V162.248C275.025 163.224 275.169 163.912 275.457 164.312C275.745 164.712 276.209 164.912 276.849 164.912C277.361 164.912 277.809 164.784 278.193 164.528C278.593 164.272 279.017 163.856 279.465 163.28V155.216H282.225V167H279.969L279.753 165.272H279.681C279.169 165.88 278.609 166.368 278.001 166.736C277.409 167.104 276.705 167.288 275.889 167.288ZM290.761 167.288C289.945 167.288 289.185 167.152 288.481 166.88C287.777 166.592 287.161 166.184 286.633 165.656C286.105 165.128 285.689 164.488 285.385 163.736C285.097 162.968 284.953 162.096 284.953 161.12C284.953 160.16 285.105 159.296 285.409 158.528C285.713 157.76 286.113 157.112 286.609 156.584C287.121 156.056 287.705 155.648 288.361 155.36C289.017 155.072 289.689 154.928 290.377 154.928C291.177 154.928 291.881 155.064 292.489 155.336C293.097 155.608 293.601 155.992 294.001 156.488C294.417 156.984 294.729 157.576 294.937 158.264C295.145 158.952 295.249 159.704 295.249 160.52C295.249 160.792 295.233 161.048 295.201 161.288C295.185 161.528 295.161 161.72 295.129 161.864H287.641C287.769 162.92 288.137 163.736 288.745 164.312C289.369 164.872 290.161 165.152 291.121 165.152C291.633 165.152 292.105 165.08 292.537 164.936C292.985 164.776 293.425 164.56 293.857 164.288L294.793 166.016C294.233 166.384 293.609 166.688 292.921 166.928C292.233 167.168 291.513 167.288 290.761 167.288ZM287.617 159.992H292.849C292.849 159.08 292.649 158.368 292.249 157.856C291.865 157.328 291.265 157.064 290.449 157.064C289.745 157.064 289.129 157.312 288.601 157.808C288.073 158.304 287.745 159.032 287.617 159.992ZM301.173 167.288C300.357 167.288 299.549 167.136 298.749 166.832C297.965 166.512 297.285 166.12 296.709 165.656L298.005 163.88C298.533 164.296 299.053 164.624 299.565 164.864C300.093 165.088 300.661 165.2 301.269 165.2C301.909 165.2 302.381 165.072 302.685 164.816C302.989 164.544 303.141 164.2 303.141 163.784C303.141 163.544 303.069 163.336 302.925 163.16C302.781 162.968 302.589 162.8 302.349 162.656C302.109 162.512 301.837 162.384 301.533 162.272C301.229 162.144 300.925 162.016 300.621 161.888C300.237 161.744 299.845 161.576 299.445 161.384C299.045 161.192 298.685 160.96 298.365 160.688C298.061 160.416 297.805 160.104 297.597 159.752C297.405 159.384 297.309 158.952 297.309 158.456C297.309 157.416 297.693 156.568 298.461 155.912C299.229 155.256 300.277 154.928 301.605 154.928C302.421 154.928 303.157 155.072 303.813 155.36C304.469 155.648 305.037 155.976 305.517 156.344L304.245 158.024C303.829 157.72 303.405 157.48 302.973 157.304C302.557 157.112 302.117 157.016 301.653 157.016C301.061 157.016 300.621 157.144 300.333 157.4C300.061 157.64 299.925 157.944 299.925 158.312C299.925 158.552 299.989 158.76 300.117 158.936C300.261 159.096 300.445 159.24 300.669 159.368C300.893 159.496 301.149 159.616 301.437 159.728C301.741 159.84 302.053 159.952 302.373 160.064C302.773 160.208 303.173 160.376 303.573 160.568C303.973 160.744 304.333 160.968 304.653 161.24C304.989 161.512 305.253 161.848 305.445 162.248C305.653 162.632 305.757 163.096 305.757 163.64C305.757 164.152 305.653 164.632 305.445 165.08C305.253 165.512 304.965 165.896 304.581 166.232C304.197 166.552 303.717 166.808 303.141 167C302.565 167.192 301.909 167.288 301.173 167.288ZM311.904 167.288C311.216 167.288 310.632 167.184 310.152 166.976C309.688 166.768 309.304 166.48 309 166.112C308.712 165.728 308.496 165.28 308.352 164.768C308.224 164.24 308.16 163.656 308.16 163.016V157.4H306.48V155.336L308.304 155.216L308.64 152H310.944V155.216H313.944V157.4H310.944V163.016C310.944 164.392 311.496 165.08 312.6 165.08C312.808 165.08 313.016 165.056 313.224 165.008C313.448 164.96 313.648 164.896 313.824 164.816L314.304 166.856C313.984 166.968 313.616 167.064 313.2 167.144C312.8 167.24 312.368 167.288 311.904 167.288Z" fill="black"/>
<path d="M41.5927 219H43.0867V214.014H45.2287L48.0727 219H49.7647L46.7587 213.852C48.3787 213.456 49.4227 212.34 49.4227 210.504C49.4227 208.056 47.6947 207.192 45.2827 207.192H41.5927V219ZM43.0867 212.79V208.398H45.0667C46.9027 208.398 47.9287 208.956 47.9287 210.504C47.9287 212.034 46.9027 212.79 45.0667 212.79H43.0867ZM55.0669 219.216C56.2549 219.216 57.1909 218.802 57.9469 218.316L57.4249 217.344C56.7769 217.758 56.0749 218.028 55.2469 218.028C53.5729 218.028 52.4389 216.84 52.3309 214.986H58.2349C58.2709 214.77 58.2889 214.446 58.2889 214.14C58.2889 211.638 57.0289 210.036 54.7969 210.036C52.7989 210.036 50.8729 211.782 50.8729 214.644C50.8729 217.506 52.7269 219.216 55.0669 219.216ZM52.3129 213.924C52.4929 212.196 53.6089 211.206 54.8329 211.206C56.2009 211.206 56.9929 212.16 56.9929 213.924H52.3129ZM62.4285 219H64.1565L67.2525 210.252H65.7945L64.1385 215.22C63.8865 216.084 63.5985 216.966 63.3465 217.794H63.2745C63.0045 216.966 62.7165 216.084 62.4645 215.22L60.8085 210.252H59.2785L62.4285 219ZM68.9408 219H70.4168V210.252H68.9408V219ZM69.6968 208.452C70.2728 208.452 70.7228 208.056 70.7228 207.498C70.7228 206.922 70.2728 206.544 69.6968 206.544C69.1208 206.544 68.6708 206.922 68.6708 207.498C68.6708 208.056 69.1208 208.452 69.6968 208.452ZM76.9165 219.216C78.1045 219.216 79.0405 218.802 79.7965 218.316L79.2745 217.344C78.6265 217.758 77.9245 218.028 77.0965 218.028C75.4225 218.028 74.2885 216.84 74.1805 214.986H80.0845C80.1205 214.77 80.1385 214.446 80.1385 214.14C80.1385 211.638 78.8785 210.036 76.6465 210.036C74.6485 210.036 72.7225 211.782 72.7225 214.644C72.7225 217.506 74.5765 219.216 76.9165 219.216ZM74.1625 213.924C74.3425 212.196 75.4585 211.206 76.6825 211.206C78.0505 211.206 78.8425 212.16 78.8425 213.924H74.1625ZM83.7741 219H85.5021L86.7261 214.32C86.9601 213.492 87.1401 212.664 87.3381 211.782H87.4101C87.6261 212.664 87.7881 213.474 88.0041 214.302L89.2641 219H91.0641L93.4041 210.252H92.0001L90.7221 215.31C90.5421 216.138 90.3801 216.93 90.1821 217.74H90.1101C89.9121 216.93 89.7141 216.138 89.4981 215.31L88.1301 210.252H86.6901L85.3401 215.31C85.1241 216.12 84.9441 216.93 84.7461 217.74H84.6741C84.5121 216.93 84.3501 216.138 84.1521 215.31L82.8561 210.252H81.3441L83.7741 219ZM98.9115 219H100.388V213.384C100.982 211.908 101.864 211.368 102.602 211.368C102.962 211.368 103.16 211.422 103.448 211.512L103.736 210.216C103.448 210.09 103.178 210.036 102.8 210.036C101.81 210.036 100.91 210.738 100.316 211.836H100.262L100.136 210.252H98.9115V219ZM108.522 219.216C109.71 219.216 110.646 218.802 111.402 218.316L110.88 217.344C110.232 217.758 109.53 218.028 108.702 218.028C107.028 218.028 105.894 216.84 105.786 214.986H111.69C111.726 214.77 111.744 214.446 111.744 214.14C111.744 211.638 110.484 210.036 108.252 210.036C106.254 210.036 104.328 211.782 104.328 214.644C104.328 217.506 106.182 219.216 108.522 219.216ZM105.768 213.924C105.948 212.196 107.064 211.206 108.288 211.206C109.656 211.206 110.448 212.16 110.448 213.924H105.768ZM119.45 222.69H120.944V210.252H119.756L119.612 211.08H119.576C118.784 210.396 118.082 210.036 117.074 210.036C115.076 210.036 113.276 211.8 113.276 214.644C113.276 217.56 114.698 219.216 116.894 219.216C117.902 219.216 118.82 218.676 119.522 217.992L119.45 219.576V222.69ZM117.218 217.974C115.688 217.974 114.806 216.714 114.806 214.626C114.806 212.628 115.922 211.278 117.326 211.278C118.046 211.278 118.712 211.53 119.45 212.196V216.768C118.73 217.578 118.028 217.974 117.218 217.974ZM126.446 219.216C127.652 219.216 128.516 218.586 129.326 217.632H129.38L129.506 219H130.73V210.252H129.254V216.462C128.426 217.488 127.796 217.938 126.896 217.938C125.744 217.938 125.258 217.236 125.258 215.598V210.252H123.764V215.796C123.764 218.028 124.592 219.216 126.446 219.216ZM137.227 219.216C138.415 219.216 139.351 218.802 140.107 218.316L139.585 217.344C138.937 217.758 138.235 218.028 137.407 218.028C135.733 218.028 134.599 216.84 134.491 214.986H140.395C140.431 214.77 140.449 214.446 140.449 214.14C140.449 211.638 139.189 210.036 136.957 210.036C134.959 210.036 133.033 211.782 133.033 214.644C133.033 217.506 134.887 219.216 137.227 219.216ZM134.473 213.924C134.653 212.196 135.769 211.206 136.993 211.206C138.361 211.206 139.153 212.16 139.153 213.924H134.473ZM144.897 219.216C146.967 219.216 148.101 218.028 148.101 216.606C148.101 214.95 146.697 214.428 145.437 213.96C144.447 213.582 143.493 213.276 143.493 212.448C143.493 211.782 143.997 211.188 145.095 211.188C145.869 211.188 146.499 211.512 147.093 211.962L147.795 211.026C147.129 210.486 146.175 210.036 145.077 210.036C143.187 210.036 142.071 211.116 142.071 212.52C142.071 213.996 143.439 214.59 144.681 215.04C145.635 215.4 146.679 215.796 146.679 216.696C146.679 217.452 146.103 218.064 144.951 218.064C143.907 218.064 143.133 217.632 142.377 217.02L141.639 218.01C142.467 218.694 143.655 219.216 144.897 219.216ZM152.554 219.216C153.094 219.216 153.688 219.054 154.174 218.892L153.886 217.776C153.598 217.884 153.202 218.01 152.896 218.01C151.888 218.01 151.546 217.398 151.546 216.318V211.458H153.904V210.252H151.546V207.804H150.304L150.124 210.252L148.756 210.342V211.458H150.052V216.3C150.052 218.028 150.682 219.216 152.554 219.216ZM157.992 219.216C160.062 219.216 161.196 218.028 161.196 216.606C161.196 214.95 159.792 214.428 158.532 213.96C157.542 213.582 156.588 213.276 156.588 212.448C156.588 211.782 157.092 211.188 158.19 211.188C158.964 211.188 159.594 211.512 160.188 211.962L160.89 211.026C160.224 210.486 159.27 210.036 158.172 210.036C156.282 210.036 155.166 211.116 155.166 212.52C155.166 213.996 156.534 214.59 157.776 215.04C158.73 215.4 159.774 215.796 159.774 216.696C159.774 217.452 159.198 218.064 158.046 218.064C157.002 218.064 156.228 217.632 155.472 217.02L154.734 218.01C155.562 218.694 156.75 219.216 157.992 219.216ZM167.103 219H168.579V211.458H170.433V210.252H168.579V208.866C168.579 207.75 168.975 207.174 169.803 207.174C170.127 207.174 170.469 207.246 170.793 207.39L171.117 206.256C170.721 206.094 170.199 205.968 169.659 205.968C167.913 205.968 167.103 207.084 167.103 208.866V210.252L165.915 210.342V211.458H167.103V219ZM172.107 219H173.583V213.384C174.177 211.908 175.059 211.368 175.797 211.368C176.157 211.368 176.355 211.422 176.643 211.512L176.931 210.216C176.643 210.09 176.373 210.036 175.995 210.036C175.005 210.036 174.105 210.738 173.511 211.836H173.457L173.331 210.252H172.107V219ZM181.573 219.216C183.715 219.216 185.623 217.542 185.623 214.644C185.623 211.71 183.715 210.036 181.573 210.036C179.431 210.036 177.523 211.71 177.523 214.644C177.523 217.542 179.431 219.216 181.573 219.216ZM181.573 217.992C180.079 217.992 179.053 216.642 179.053 214.644C179.053 212.628 180.079 211.26 181.573 211.26C183.085 211.26 184.093 212.628 184.093 214.644C184.093 216.642 183.085 217.992 181.573 217.992ZM187.927 219H189.403V212.664C190.213 211.764 190.951 211.314 191.599 211.314C192.715 211.314 193.237 212.016 193.237 213.654V219H194.713V212.664C195.523 211.764 196.225 211.314 196.909 211.314C198.007 211.314 198.529 212.016 198.529 213.654V219H200.005V213.456C200.005 211.224 199.141 210.036 197.341 210.036C196.279 210.036 195.379 210.72 194.461 211.71C194.101 210.666 193.381 210.036 192.049 210.036C191.005 210.036 190.087 210.684 189.331 211.512H189.277L189.151 210.252H187.927V219ZM206.455 222.69H207.931V219.738L207.895 218.208C208.705 218.838 209.515 219.216 210.325 219.216C212.323 219.216 214.105 217.47 214.105 214.5C214.105 211.782 212.899 210.036 210.649 210.036C209.623 210.036 208.651 210.594 207.859 211.26H207.805L207.679 210.252H206.455V222.69ZM210.073 217.974C209.497 217.974 208.723 217.722 207.931 217.056V212.466C208.795 211.692 209.533 211.278 210.271 211.278C211.927 211.278 212.575 212.574 212.575 214.5C212.575 216.66 211.513 217.974 210.073 217.974ZM219.985 219.216C221.173 219.216 222.109 218.802 222.865 218.316L222.343 217.344C221.695 217.758 220.993 218.028 220.165 218.028C218.491 218.028 217.357 216.84 217.249 214.986H223.153C223.189 214.77 223.207 214.446 223.207 214.14C223.207 211.638 221.947 210.036 219.715 210.036C217.717 210.036 215.791 211.782 215.791 214.644C215.791 217.506 217.645 219.216 219.985 219.216ZM217.231 213.924C217.411 212.196 218.527 211.206 219.751 211.206C221.119 211.206 221.911 212.16 221.911 213.924H217.231ZM228.771 219.216C230.913 219.216 232.821 217.542 232.821 214.644C232.821 211.71 230.913 210.036 228.771 210.036C226.629 210.036 224.721 211.71 224.721 214.644C224.721 217.542 226.629 219.216 228.771 219.216ZM228.771 217.992C227.277 217.992 226.251 216.642 226.251 214.644C226.251 212.628 227.277 211.26 228.771 211.26C230.283 211.26 231.291 212.628 231.291 214.644C231.291 216.642 230.283 217.992 228.771 217.992ZM235.124 222.69H236.6V219.738L236.564 218.208C237.374 218.838 238.184 219.216 238.994 219.216C240.992 219.216 242.774 217.47 242.774 214.5C242.774 211.782 241.568 210.036 239.318 210.036C238.292 210.036 237.32 210.594 236.528 211.26H236.474L236.348 210.252H235.124V222.69ZM238.742 217.974C238.166 217.974 237.392 217.722 236.6 217.056V212.466C237.464 211.692 238.202 211.278 238.94 211.278C240.596 211.278 241.244 212.574 241.244 214.5C241.244 216.66 240.182 217.974 238.742 217.974ZM246.675 219.216C247.071 219.216 247.323 219.162 247.521 219.072L247.323 217.956C247.161 217.992 247.089 217.992 246.999 217.992C246.783 217.992 246.585 217.812 246.585 217.344V206.184H245.109V217.236C245.109 218.514 245.559 219.216 246.675 219.216ZM253.243 219.216C254.431 219.216 255.367 218.802 256.123 218.316L255.601 217.344C254.953 217.758 254.251 218.028 253.423 218.028C251.749 218.028 250.615 216.84 250.507 214.986H256.411C256.447 214.77 256.465 214.446 256.465 214.14C256.465 211.638 255.205 210.036 252.973 210.036C250.975 210.036 249.049 211.782 249.049 214.644C249.049 217.506 250.903 219.216 253.243 219.216ZM250.489 213.924C250.669 212.196 251.785 211.206 253.009 211.206C254.377 211.206 255.169 212.16 255.169 213.924H250.489ZM262.23 219H263.706V210.252H262.23V219ZM262.986 208.452C263.562 208.452 264.012 208.056 264.012 207.498C264.012 206.922 263.562 206.544 262.986 206.544C262.41 206.544 261.96 206.922 261.96 207.498C261.96 208.056 262.41 208.452 262.986 208.452ZM266.66 219H268.136V212.664C269.018 211.782 269.63 211.314 270.53 211.314C271.682 211.314 272.186 212.016 272.186 213.654V219H273.662V213.456C273.662 211.224 272.834 210.036 270.998 210.036C269.792 210.036 268.892 210.684 268.064 211.512H268.01L267.884 210.252H266.66V219ZM35.4755 247.762C37.2395 247.762 38.1395 246.448 38.7515 244.72L42.0455 235.252H40.6055L39.0395 240.094C38.8055 240.868 38.5535 241.768 38.3015 242.56H38.2295C37.9595 241.75 37.6535 240.85 37.3835 240.094L35.6015 235.252H34.0715L37.5815 244.018L37.3835 244.666C37.0235 245.746 36.3935 246.538 35.4035 246.538C35.1875 246.538 34.9175 246.466 34.7375 246.412L34.4495 247.582C34.7375 247.69 35.0795 247.762 35.4755 247.762ZM47.0655 244.216C49.2075 244.216 51.1155 242.542 51.1155 239.644C51.1155 236.71 49.2075 235.036 47.0655 235.036C44.9235 235.036 43.0155 236.71 43.0155 239.644C43.0155 242.542 44.9235 244.216 47.0655 244.216ZM47.0655 242.992C45.5715 242.992 44.5455 241.642 44.5455 239.644C44.5455 237.628 45.5715 236.26 47.0655 236.26C48.5775 236.26 49.5855 237.628 49.5855 239.644C49.5855 241.642 48.5775 242.992 47.0655 242.992ZM55.9754 244.216C57.1814 244.216 58.0454 243.586 58.8554 242.632H58.9094L59.0354 244H60.2594V235.252H58.7834V241.462C57.9554 242.488 57.3254 242.938 56.4254 242.938C55.2734 242.938 54.7874 242.236 54.7874 240.598V235.252H53.2934V240.796C53.2934 243.028 54.1214 244.216 55.9754 244.216ZM63.2104 244H64.6864V238.384C65.2804 236.908 66.1624 236.368 66.9004 236.368C67.2604 236.368 67.4584 236.422 67.7464 236.512L68.0344 235.216C67.7464 235.09 67.4764 235.036 67.0984 235.036C66.1084 235.036 65.2084 235.738 64.6144 236.836H64.5604L64.4344 235.252H63.2104V244ZM75.0701 244.216C76.1681 244.216 77.1401 243.64 77.9681 242.956H78.0221L78.1481 244H79.3721V238.636C79.3721 236.458 78.4721 235.036 76.3301 235.036C74.9261 235.036 73.7021 235.648 72.8921 236.17L73.4681 237.196C74.1521 236.728 75.0701 236.26 76.0781 236.26C77.5181 236.26 77.8781 237.34 77.8781 238.456C74.1521 238.87 72.5141 239.824 72.5141 241.732C72.5141 243.298 73.6121 244.216 75.0701 244.216ZM75.5021 243.028C74.6381 243.028 73.9541 242.614 73.9541 241.624C73.9541 240.508 74.9621 239.788 77.8781 239.428V241.858C77.0321 242.614 76.3481 243.028 75.5021 243.028ZM82.1244 244H83.6004V238.384C84.1944 236.908 85.0764 236.368 85.8144 236.368C86.1744 236.368 86.3724 236.422 86.6604 236.512L86.9484 235.216C86.6604 235.09 86.3904 235.036 86.0124 235.036C85.0224 235.036 84.1224 235.738 83.5284 236.836H83.4744L83.3484 235.252H82.1244V244ZM91.7349 244.216C92.9229 244.216 93.8589 243.802 94.6149 243.316L94.0929 242.344C93.4449 242.758 92.7429 243.028 91.9149 243.028C90.2409 243.028 89.1069 241.84 88.9989 239.986H94.9029C94.9389 239.77 94.9569 239.446 94.9569 239.14C94.9569 236.638 93.6969 235.036 91.4649 235.036C89.4669 235.036 87.5409 236.782 87.5409 239.644C87.5409 242.506 89.3949 244.216 91.7349 244.216ZM88.9809 238.924C89.1609 237.196 90.2769 236.206 91.5009 236.206C92.8689 236.206 93.6609 237.16 93.6609 238.924H88.9809ZM98.8885 244.216C99.9865 244.216 100.958 243.64 101.786 242.956H101.84L101.966 244H103.19V238.636C103.19 236.458 102.29 235.036 100.148 235.036C98.7445 235.036 97.5205 235.648 96.7105 236.17L97.2865 237.196C97.9705 236.728 98.8885 236.26 99.8965 236.26C101.336 236.26 101.696 237.34 101.696 238.456C97.9705 238.87 96.3325 239.824 96.3325 241.732C96.3325 243.298 97.4305 244.216 98.8885 244.216ZM99.3205 243.028C98.4565 243.028 97.7725 242.614 97.7725 241.624C97.7725 240.508 98.7805 239.788 101.696 239.428V241.858C100.85 242.614 100.166 243.028 99.3205 243.028ZM111.562 244.216C112.66 244.216 113.632 243.64 114.46 242.956H114.514L114.64 244H115.864V238.636C115.864 236.458 114.964 235.036 112.822 235.036C111.418 235.036 110.194 235.648 109.384 236.17L109.96 237.196C110.644 236.728 111.562 236.26 112.57 236.26C114.01 236.26 114.37 237.34 114.37 238.456C110.644 238.87 109.006 239.824 109.006 241.732C109.006 243.298 110.104 244.216 111.562 244.216ZM111.994 243.028C111.13 243.028 110.446 242.614 110.446 241.624C110.446 240.508 111.454 239.788 114.37 239.428V241.858C113.524 242.614 112.84 243.028 111.994 243.028ZM118.617 244H120.093V237.664C120.975 236.782 121.587 236.314 122.487 236.314C123.639 236.314 124.143 237.016 124.143 238.654V244H125.619V238.456C125.619 236.224 124.791 235.036 122.955 235.036C121.749 235.036 120.849 235.684 120.021 236.512H119.967L119.841 235.252H118.617V244ZM131.448 244.216C132.474 244.216 133.41 243.64 134.094 242.974H134.148L134.274 244H135.498V231.184H134.004V234.55L134.076 236.044C133.302 235.414 132.636 235.036 131.628 235.036C129.63 235.036 127.83 236.8 127.83 239.644C127.83 242.56 129.252 244.216 131.448 244.216ZM131.772 242.974C130.242 242.974 129.36 241.714 129.36 239.626C129.36 237.628 130.476 236.278 131.88 236.278C132.6 236.278 133.266 236.53 134.004 237.196V241.768C133.284 242.578 132.582 242.974 131.772 242.974ZM144.334 244.216C146.404 244.216 147.538 243.028 147.538 241.606C147.538 239.95 146.134 239.428 144.874 238.96C143.884 238.582 142.93 238.276 142.93 237.448C142.93 236.782 143.434 236.188 144.532 236.188C145.306 236.188 145.936 236.512 146.53 236.962L147.232 236.026C146.566 235.486 145.612 235.036 144.514 235.036C142.624 235.036 141.508 236.116 141.508 237.52C141.508 238.996 142.876 239.59 144.118 240.04C145.072 240.4 146.116 240.796 146.116 241.696C146.116 242.452 145.54 243.064 144.388 243.064C143.344 243.064 142.57 242.632 141.814 242.02L141.076 243.01C141.904 243.694 143.092 244.216 144.334 244.216ZM153.135 244.216C154.323 244.216 155.259 243.802 156.015 243.316L155.493 242.344C154.845 242.758 154.143 243.028 153.315 243.028C151.641 243.028 150.507 241.84 150.399 239.986H156.303C156.339 239.77 156.357 239.446 156.357 239.14C156.357 236.638 155.097 235.036 152.865 235.036C150.867 235.036 148.941 236.782 148.941 239.644C148.941 242.506 150.795 244.216 153.135 244.216ZM150.381 238.924C150.561 237.196 151.677 236.206 152.901 236.206C154.269 236.206 155.061 237.16 155.061 238.924H150.381ZM160.085 244.216C160.481 244.216 160.733 244.162 160.931 244.072L160.733 242.956C160.571 242.992 160.499 242.992 160.409 242.992C160.193 242.992 159.995 242.812 159.995 242.344V231.184H158.519V242.236C158.519 243.514 158.969 244.216 160.085 244.216ZM166.653 244.216C167.841 244.216 168.777 243.802 169.533 243.316L169.011 242.344C168.363 242.758 167.661 243.028 166.833 243.028C165.159 243.028 164.025 241.84 163.917 239.986H169.821C169.857 239.77 169.875 239.446 169.875 239.14C169.875 236.638 168.615 235.036 166.383 235.036C164.385 235.036 162.459 236.782 162.459 239.644C162.459 242.506 164.313 244.216 166.653 244.216ZM163.899 238.924C164.079 237.196 165.195 236.206 166.419 236.206C167.787 236.206 168.579 237.16 168.579 238.924H163.899ZM175.493 244.216C176.537 244.216 177.527 243.802 178.319 243.1L177.671 242.11C177.131 242.596 176.429 242.992 175.619 242.992C174.017 242.992 172.919 241.642 172.919 239.644C172.919 237.628 174.071 236.26 175.655 236.26C176.357 236.26 176.897 236.584 177.401 237.034L178.157 236.062C177.545 235.504 176.753 235.036 175.601 235.036C173.351 235.036 171.389 236.71 171.389 239.644C171.389 242.542 173.171 244.216 175.493 244.216ZM182.824 244.216C183.364 244.216 183.958 244.054 184.444 243.892L184.156 242.776C183.868 242.884 183.472 243.01 183.166 243.01C182.158 243.01 181.816 242.398 181.816 241.318V236.458H184.174V235.252H181.816V232.804H180.574L180.394 235.252L179.026 235.342V236.458H180.322V241.3C180.322 243.028 180.952 244.216 182.824 244.216ZM191.141 244H192.869L194.093 239.32C194.327 238.492 194.507 237.664 194.705 236.782H194.777C194.993 237.664 195.155 238.474 195.371 239.302L196.631 244H198.431L200.771 235.252H199.367L198.089 240.31C197.909 241.138 197.747 241.93 197.549 242.74H197.477C197.279 241.93 197.081 241.138 196.865 240.31L195.497 235.252H194.057L192.707 240.31C192.491 241.12 192.311 241.93 192.113 242.74H192.041C191.879 241.93 191.717 241.138 191.519 240.31L190.223 235.252H188.711L191.141 244ZM202.675 244H204.151V237.664C205.033 236.782 205.645 236.314 206.545 236.314C207.697 236.314 208.201 237.016 208.201 238.654V244H209.677V238.456C209.677 236.224 208.849 235.036 207.013 235.036C205.807 235.036 204.925 235.684 204.097 236.476L204.151 234.676V231.184H202.675V244ZM215.868 244.216C218.01 244.216 219.918 242.542 219.918 239.644C219.918 236.71 218.01 235.036 215.868 235.036C213.726 235.036 211.818 236.71 211.818 239.644C211.818 242.542 213.726 244.216 215.868 244.216ZM215.868 242.992C214.374 242.992 213.348 241.642 213.348 239.644C213.348 237.628 214.374 236.26 215.868 236.26C217.38 236.26 218.388 237.628 218.388 239.644C218.388 241.642 217.38 242.992 215.868 242.992ZM228.58 244.216C229.12 244.216 229.714 244.054 230.2 243.892L229.912 242.776C229.624 242.884 229.228 243.01 228.922 243.01C227.914 243.01 227.572 242.398 227.572 241.318V236.458H229.93V235.252H227.572V232.804H226.33L226.15 235.252L224.782 235.342V236.458H226.078V241.3C226.078 243.028 226.708 244.216 228.58 244.216ZM235.064 244.216C237.206 244.216 239.114 242.542 239.114 239.644C239.114 236.71 237.206 235.036 235.064 235.036C232.922 235.036 231.014 236.71 231.014 239.644C231.014 242.542 232.922 244.216 235.064 244.216ZM235.064 242.992C233.57 242.992 232.544 241.642 232.544 239.644C232.544 237.628 233.57 236.26 235.064 236.26C236.576 236.26 237.584 237.628 237.584 239.644C237.584 241.642 236.576 242.992 235.064 242.992ZM245.021 244H246.497V237.664C247.379 236.782 247.991 236.314 248.891 236.314C250.043 236.314 250.547 237.016 250.547 238.654V244H252.023V238.456C252.023 236.224 251.195 235.036 249.359 235.036C248.153 235.036 247.271 235.684 246.443 236.476L246.497 234.676V231.184H245.021V244ZM258.358 244.216C259.546 244.216 260.482 243.802 261.238 243.316L260.716 242.344C260.068 242.758 259.366 243.028 258.538 243.028C256.864 243.028 255.73 241.84 255.622 239.986H261.526C261.562 239.77 261.58 239.446 261.58 239.14C261.58 236.638 260.32 235.036 258.088 235.036C256.09 235.036 254.164 236.782 254.164 239.644C254.164 242.506 256.018 244.216 258.358 244.216ZM255.604 238.924C255.784 237.196 256.9 236.206 258.124 236.206C259.492 236.206 260.284 237.16 260.284 238.924H255.604ZM265.308 244.216C265.704 244.216 265.956 244.162 266.154 244.072L265.956 242.956C265.794 242.992 265.722 242.992 265.632 242.992C265.416 242.992 265.218 242.812 265.218 242.344V231.184H263.742V242.236C263.742 243.514 264.192 244.216 265.308 244.216ZM268.33 247.69H269.806V244.738L269.77 243.208C270.58 243.838 271.39 244.216 272.2 244.216C274.198 244.216 275.98 242.47 275.98 239.5C275.98 236.782 274.774 235.036 272.524 235.036C271.498 235.036 270.526 235.594 269.734 236.26H269.68L269.554 235.252H268.33V247.69ZM271.948 242.974C271.372 242.974 270.598 242.722 269.806 242.056V237.466C270.67 236.692 271.408 236.278 272.146 236.278C273.802 236.278 274.45 237.574 274.45 239.5C274.45 241.66 273.388 242.974 271.948 242.974ZM278.912 244.216C279.488 244.216 279.974 243.748 279.974 243.1C279.974 242.416 279.488 241.948 278.912 241.948C278.318 241.948 277.832 242.416 277.832 243.1C277.832 243.748 278.318 244.216 278.912 244.216Z" fill="black"/>
</svg>
