<svg width="300" height="248" viewBox="0 0 300 248" fill="none" xmlns="http://www.w3.org/2000/svg">
<g clip-path="url(#clip0)">
<path opacity="0.8" d="M190.2 50.6832C188.44 63.7195 198.83 75.17 207.572 81.0189C216.036 86.7235 225.572 89.4935 234.952 92.3458C241.326 94.2508 247.834 96.2794 253.271 100.779C266.452 111.653 269.839 134.935 264.526 153.295C259.213 171.655 247.021 185.793 234.17 197.141C204.781 223.028 169.709 238.165 133.977 245.013C121.188 247.464 108.162 248.885 95.301 247.134C77.2294 244.642 60.1153 235.992 44.2782 225.211C35.3402 219.156 26.6287 212.329 19.4515 203.402C-1.70934 177.195 -6.17834 133.123 8.96891 101.304C16.4756 85.6732 27.7305 73.4504 39.2222 62.0925C70.9686 30.7477 107.647 3.0893 148.28 0.185472C161.224 -0.74128 175.444 1.59619 184.496 12.9952C193.547 24.3943 192.064 36.6789 190.2 50.6832Z" fill="#D5E8F7"/>
<path d="M108.749 136.305H102.169V230.576H108.749V136.305Z" fill="#40414D"/>
<path d="M252.355 136.305H245.775V230.576H252.355V136.305Z" fill="#40414D"/>
<path d="M99.6567 128.623H251.572C254.396 128.623 257.104 129.745 259.101 131.742C261.098 133.738 262.219 136.447 262.219 139.27V140.681H89.0094V139.27C89.0094 136.447 90.1312 133.738 92.1279 131.742C94.1247 129.745 96.8329 128.623 99.6567 128.623Z" fill="#DFE6F5"/>
<path opacity="0.1" d="M99.6567 128.623H251.572C254.396 128.623 257.104 129.745 259.101 131.742C261.098 133.738 262.219 136.447 262.219 139.27V140.681H89.0094V139.27C89.0094 136.447 90.1312 133.738 92.1279 131.742C94.1247 129.745 96.8329 128.623 99.6567 128.623Z" fill="black"/>
<path d="M99.6567 126.43H251.572C254.396 126.43 257.104 127.552 259.101 129.548C261.098 131.545 262.219 134.253 262.219 137.077V138.488H89.0094V137.077C89.0094 134.253 90.1312 131.545 92.1279 129.548C94.1247 127.552 96.8329 126.43 99.6567 126.43Z" fill="#D3D3D3"/>
<path d="M249.059 208.097V214.677H106.556V208.097" fill="#40414D"/>
<g opacity="0.1">
<path opacity="0.1" d="M128.211 211.093C128.243 209.806 128.427 208.528 128.757 207.283L128.52 207.366C128.273 208.592 128.17 209.843 128.211 211.093Z" fill="white"/>
</g>
<path d="M226.776 87.115H175.321V126.43H226.776V87.115Z" fill="#D3D3D3"/>
<path d="M207.376 114.66H194.721V126.43H207.376V114.66Z" fill="#42B6E9"/>
<path fill-rule="evenodd" clip-rule="evenodd" d="M61.7217 114.938L39.8915 116.792L41.5906 106.494L60.2904 109.419C67.5328 107.037 71.1506 106.412 71.1437 107.545C71.1437 108.502 70.3817 108.945 69.7124 109.367C69.043 109.789 68.6826 109.985 68.6209 110.49C68.4252 111.633 71.329 113.27 74.1402 114.701C76.9513 116.133 75.4479 116.853 74.4388 117.049C70.1236 116.926 65.8452 116.216 61.7217 114.938Z" fill="#D8A982"/>
<path d="M31.1698 223.111C31.1698 223.111 49.5297 230.658 48.778 233.027C48.3765 234.293 38.4808 232.388 29.2133 229.938C21.3874 227.878 33.569 228.795 32.5908 227.6C30.449 225.005 31.1698 223.111 31.1698 223.111Z" fill="#9E616A"/>
<path d="M68.6621 220.907C68.6621 220.907 86.085 224.954 86.085 227.405C86.085 229.855 56.223 227.405 53.7002 225.263C51.1773 223.121 68.6621 220.907 68.6621 220.907Z" fill="#9E616A"/>
<path d="M38.7589 114.567L46.2244 125.472C46.2244 125.472 58.6943 153.748 61.1657 171.14C63.637 188.533 78.5989 218.971 73.6253 223.327C68.6518 227.683 43.7633 227.919 43.7633 223.327V134.163L38.7589 114.567Z" fill="#2F2E41"/>
<path opacity="0.1" d="M38.7589 114.567L46.2244 125.472C46.2244 125.472 58.6943 153.748 61.1657 171.14C63.637 188.533 78.5989 218.971 73.6253 223.327C68.6518 227.683 43.7633 227.919 43.7633 223.327V134.163L38.7589 114.567Z" fill="black"/>
<path d="M18.8234 105.578V115.535C18.8234 118.027 33.775 118.027 33.775 118.027V108.121L18.8234 105.578Z" fill="#A0616A"/>
<path d="M26.2992 110.273L18.844 108.739C18.844 108.739 11.327 124.926 13.8395 131.722C16.352 138.518 23.7866 175.486 23.7866 175.486V199.406C23.7866 199.406 8.84533 221.123 16.3211 225.51C23.7969 229.896 38.7176 234.437 41.189 232.017C43.6603 229.598 46.1934 138.508 46.1934 138.508V125.462L43.7324 108.121L26.2992 110.273Z" fill="#2F2E41"/>
<path d="M39.2531 57.1599C47.3116 57.1599 53.8443 50.6272 53.8443 42.5687C53.8443 34.5102 47.3116 27.9775 39.2531 27.9775C31.1946 27.9775 24.6619 34.5102 24.6619 42.5687C24.6619 50.6272 31.1946 57.1599 39.2531 57.1599Z" fill="#2F2E41"/>
<path d="M27.7305 37.9452C33.4175 37.9452 38.0277 33.335 38.0277 27.648C38.0277 21.9609 33.4175 17.3507 27.7305 17.3507C22.0435 17.3507 17.4332 21.9609 17.4332 27.648C17.4332 33.335 22.0435 37.9452 27.7305 37.9452Z" fill="#2F2E41"/>
<path d="M13.8086 27.6482C13.4036 30.1854 13.9897 32.7812 15.4458 34.8981C16.9018 37.0151 19.1162 38.491 21.6304 39.0203C24.1447 39.5496 26.7662 39.0918 28.9521 37.7416C31.1381 36.3914 32.7211 34.2522 33.3734 31.7671C33.2441 33.1034 32.8481 34.4002 32.2088 35.5808C31.5695 36.7614 30.7 37.8018 29.6515 38.6404C28.6031 39.479 27.3972 40.0988 26.105 40.4632C24.8128 40.8275 23.4607 40.929 22.1286 40.7617C20.7965 40.5943 19.5115 40.1615 18.3497 39.4888C17.1878 38.816 16.1727 37.9172 15.3643 36.8452C14.5559 35.7733 13.9708 34.5502 13.6434 33.2481C13.3161 31.9461 13.2532 30.5916 13.4585 29.2649C13.5301 28.7214 13.6437 28.1844 13.7983 27.6585L13.8086 27.6482Z" fill="#2F2E41"/>
<path d="M44.3503 48.4073C49.588 48.4073 53.834 45.0879 53.834 40.9932C53.834 36.8986 49.588 33.5792 44.3503 33.5792C39.1125 33.5792 34.8665 36.8986 34.8665 40.9932C34.8665 45.0879 39.1125 48.4073 44.3503 48.4073Z" fill="#2F2E41"/>
<path d="M41.9819 33.3223C48.4485 33.3223 53.7001 39.0372 53.7001 46.1835C53.7001 53.3298 50.8272 59.0551 44.3502 59.0551C37.8733 59.0551 30.2636 53.2783 30.2636 46.1835C30.2636 39.0887 35.5152 33.3223 41.9819 33.3223Z" fill="#D8A982"/>
<path d="M33.7544 53.2678C33.7544 53.2678 36.236 58.2517 31.2625 60.7436C26.2889 63.2356 41.189 73.193 41.189 73.193L46.1935 55.7598L33.7544 53.2678Z" fill="#D8A982"/>
<path d="M36.236 63.2355C36.236 63.2355 31.2624 55.7597 28.7705 60.7538C26.2786 65.748 16.1358 80.02 16.1358 94.9304C16.1358 109.841 13.8292 110.562 16.3211 110.562C18.8131 110.562 26.2786 108.07 28.7705 110.562C31.2624 113.054 41.2199 110.562 41.2199 110.562L45.8742 89.5861C45.8742 89.5861 46.2243 75.6951 43.7324 73.2032C41.2405 70.7113 36.236 63.2355 36.236 63.2355Z" fill="#42B6E9"/>
<path d="M23.8072 73.1928C23.8072 73.1928 16.3417 110.562 23.8072 113.043C31.2727 115.525 58.3751 120.251 58.3751 117.728C58.3751 115.206 59.8579 105.866 59.8579 105.866L33.775 103.086V78.1767C33.775 78.1767 38.7794 65.7273 33.775 65.7273C28.7705 65.7273 23.8072 73.1928 23.8072 73.1928Z" fill="#42B6E9"/>
<path d="M41.7263 43.4301C47.6331 41.5688 51.5833 37.3997 50.5493 34.1181C49.5152 30.8366 43.8885 29.6852 37.9817 31.5465C32.0748 33.4078 28.1246 37.5769 29.1587 40.8585C30.1927 44.14 35.8194 45.2914 41.7263 43.4301Z" fill="#2F2E41"/>
<path d="M27.5863 83.974L46.698 100.172C47.453 100.802 48.3495 101.24 49.3107 101.448C50.272 101.656 51.2693 101.628 52.2173 101.366L61.145 98.9462L60.7537 86.3218L49.8181 87.8767L33.0644 70.6597L27.5863 83.974Z" fill="#42B6E9"/>
<path d="M53.7002 46.6566L36.0404 49.0353C37.3996 51.4345 39.7886 53.1542 38.5632 55.78C44.3914 59.0339 48.5103 60.0739 53.0308 54.3487C54.3283 51.5787 54.7711 49.0044 53.7002 46.6566Z" fill="white"/>
<path d="M36.3596 49.4273H30.1812L30.3975 49.2111H36.5758L36.9053 49.5097L36.6994 49.7465L36.3596 49.4273Z" fill="white"/>
<path d="M38.7691 55.6053L38.5323 55.801L32.7556 53.1958L32.9924 53.0001L38.7691 55.6053Z" fill="white"/>
<path d="M174.209 87.3412L175.537 83.7887L187.956 76.6939L196.379 74.9227L174.209 87.3412Z" fill="#42B6E9"/>
<path d="M128.541 87.3412L127.212 83.7887L114.794 76.6939L106.371 74.9227L128.541 87.3412Z" fill="#42B6E9"/>
<path d="M175.094 88.2268H127.655L123.66 69.5991H179.09L175.094 88.2268Z" fill="#42B6E9"/>
<path opacity="0.1" d="M175.094 88.2268H127.655L123.66 69.5991H179.09L175.094 88.2268Z" fill="black"/>
<path d="M175.311 87.115H127.428V126.43H175.311V87.115Z" fill="#42B6E9"/>
<path d="M157.517 114.99H145.232V126.43H157.517V114.99Z" fill="#3F3D56"/>
<path d="M78.5165 88.4839H54.3282C56.017 79.7622 55.636 69.2384 54.3282 57.9011H78.5165C77.2293 69.2384 76.8586 79.7622 78.5165 88.4839Z" fill="#D3D3D3"/>
<path d="M74.6756 62.0615H58.1382V86.5484H74.6756V62.0615Z" fill="white"/>
<path fill-rule="evenodd" clip-rule="evenodd" d="M80.6892 65.9022V94.7345C80.6896 94.8383 80.7302 94.938 80.8025 95.0125C80.8372 95.0485 80.8788 95.077 80.9248 95.0965C80.9708 95.116 81.0203 95.1259 81.0702 95.1258H99.8833C99.9332 95.1259 99.9827 95.116 100.029 95.0965C100.075 95.077 100.116 95.0485 100.151 95.0125C100.223 94.938 100.264 94.8383 100.264 94.7345V65.9022H80.6892Z" fill="#3F3D56"/>
<path fill-rule="evenodd" clip-rule="evenodd" d="M80.7304 65.9432H100.254L98.6579 58.6425H97.7826H83.1606H82.6766L80.7304 65.9432Z" fill="#D7D7D7"/>
<path d="M98.8432 57.2217H82.4397V59.5386H98.8432V57.2217Z" fill="#B5B5B5"/>
<path fill-rule="evenodd" clip-rule="evenodd" d="M90.4922 64.3064C92.2942 64.3064 93.7564 63.668 93.7564 62.8854C93.7564 62.1028 92.2942 61.4644 90.4922 61.4644C88.6902 61.4644 87.2383 62.1028 87.2383 62.8854C87.2383 63.668 88.7005 64.3064 90.4922 64.3064Z" fill="#50595E"/>
<path d="M93.7564 61.7013H87.2383V62.8752H93.7564V61.7013Z" fill="#50595E"/>
<path fill-rule="evenodd" clip-rule="evenodd" d="M90.4922 63.132C92.2942 63.132 93.7564 62.4936 93.7564 61.7007C93.7564 60.9078 92.2942 60.2797 90.4922 60.2797C88.6902 60.2797 87.2383 60.9181 87.2383 61.7007C87.2383 62.4833 88.7005 63.132 90.4922 63.132Z" fill="#263238"/>
<path d="M100.254 72.7395H80.6892V84.8285H100.254V72.7395Z" fill="#3F3D56"/>
<path d="M102.169 70.217H52.8661V110.696H102.169V70.217Z" fill="#977CB8"/>
<path d="M83.8505 98.9155H71.1952V110.685H83.8505V98.9155Z" fill="#3F3D56"/>
<path fill-rule="evenodd" clip-rule="evenodd" d="M58.89 110.592L60.3934 109.954C68.0751 107.431 71.916 106.103 71.916 107.307C71.916 108.337 71.1025 108.79 70.392 109.233C69.8462 109.573 69.3623 109.892 69.2387 110.417C69.0224 111.632 72.1013 113.372 75.0875 114.896C78.0737 116.42 76.4674 117.172 75.4067 117.378C70.8244 117.236 66.2828 116.47 61.907 115.102L58.5707 115.391" fill="#D8A982"/>
<path d="M204.483 185.32H147.374V231.348H204.483V185.32Z" fill="#42B6E9"/>
<path d="M182.941 218.271H168.906V231.338H182.941V218.271Z" fill="#3F3D56"/>
<path d="M274.669 186.679L276.183 182.622L290.372 174.518L300 172.489L274.669 186.679Z" fill="#9377B6"/>
<path d="M222.482 186.679L220.958 182.622L206.769 174.518L197.151 172.489L222.482 186.679Z" fill="#9377B6"/>
<path d="M275.678 187.688H221.463L216.901 166.414H280.24L275.678 187.688Z" fill="#9377B6"/>
<path opacity="0.1" d="M275.678 187.688H221.463L216.901 166.414H280.24L275.678 187.688Z" fill="black"/>
<path d="M275.935 186.422H221.216V231.338H275.935V186.422Z" fill="#9377B6"/>
<path d="M255.588 218.271H241.553V231.338H255.588V218.271Z" fill="#D3D3D3"/>
</g>
<defs>
<clipPath id="clip0">
<rect width="300" height="247.875" fill="white"/>
</clipPath>
</defs>
</svg>
