<svg width="300" height="248" viewBox="0 0 300 244" fill="none" xmlns="http://www.w3.org/2000/svg">
<g clip-path="url(#clip0)">
<path opacity="0.8" d="M297.559 94.6037C306.15 133.918 291.498 173.563 262.02 202.186C243.116 220.534 218.113 234.359 189.228 240.673C150.76 249.069 118.12 240.42 90.9662 222.188C65.9727 205.367 45.6782 180.354 29.8201 153.113C-40.8602 31.2005 21.6771 -19.9345 138.2 7.01451C212.383 24.1763 283.472 30.0817 297.559 94.6037Z" fill="#D5E8F7"/>
<path d="M58.3733 103.545C58.3733 103.545 34.5083 103.846 21.4522 119.48C16.8041 125.155 14.0003 132.113 13.4161 139.425L12.8615 147.373L11.7719 177.066H58.1398" fill="#9377B6"/>
<path d="M38.9155 176.998L257.816 177.066C259.626 177.028 261.355 176.304 262.652 175.04C263.949 173.775 264.717 172.065 264.801 170.256C264.801 170.256 266.396 107.397 260.744 96.6275C255.091 85.8576 253.165 66.4679 201.767 64.3373C169.322 64.4248 122.817 64.4346 116.26 66.9641C106.531 70.7486 58.3733 103.545 58.3733 103.545" fill="#9377B6"/>
<path d="M163.99 75.3308C141.614 75.8756 124.218 77.2279 121.436 77.2279C117.097 77.2279 85.9352 96.3452 71.5851 107.592C70.859 108.164 70.3274 108.947 70.0632 109.832C69.7989 110.718 69.8148 111.664 70.1087 112.541C70.4027 113.417 70.9602 114.181 71.7052 114.729C72.4501 115.276 73.346 115.58 74.2703 115.599H163.572L163.99 75.3308Z" fill="white"/>
<path d="M234.797 80.5549C227.831 75.6904 201.028 74.8246 174.682 75.1651L174.41 115.628H248.884C248.884 115.628 249.06 90.4783 234.797 80.5549Z" fill="white"/>
<path d="M63.8799 199.461C80.9986 199.461 94.8761 185.584 94.8761 168.465C94.8761 151.346 80.9986 137.469 63.8799 137.469C46.7611 137.469 32.8836 151.346 32.8836 168.465C32.8836 185.584 46.7611 199.461 63.8799 199.461Z" fill="#3F3D56"/>
<path d="M78.4073 171.781C80.7221 163.485 75.8732 154.883 67.577 152.568C59.2807 150.253 50.6788 155.102 48.364 163.398C46.0492 171.694 50.8981 180.296 59.1944 182.611C67.4906 184.926 76.0925 180.077 78.4073 171.781Z" fill="#D0CDE1"/>
<path d="M211.954 199.51C229.072 199.51 242.95 185.633 242.95 168.514C242.95 151.395 229.072 137.518 211.954 137.518C194.835 137.518 180.957 151.395 180.957 168.514C180.957 185.633 194.835 199.51 211.954 199.51Z" fill="#3F3D56"/>
<path d="M226.483 171.822C228.798 163.526 223.949 154.924 215.653 152.609C207.357 150.295 198.755 155.143 196.44 163.44C194.125 171.736 198.974 180.338 207.27 182.653C215.566 184.967 224.168 180.118 226.483 171.822Z" fill="#D0CDE1"/>
<path d="M10.8185 145.447C14.6238 145.861 18.4535 144.921 21.6337 142.79C24.814 140.66 27.141 137.476 28.2055 133.799C29.27 130.122 29.0037 126.188 27.4535 122.688C25.9033 119.188 23.1684 116.347 19.7301 114.665C15.4008 120.035 12.2292 127.166 11.373 136.613L10.8185 145.447Z" fill="#D0CDE1"/>
<path d="M134.414 50.2207H133.85V55.3965H134.414V50.2207Z" fill="#F2F2F2"/>
<path d="M169.429 62.8196H168.864V68.0051H169.429V62.8196Z" fill="#F2F2F2"/>
<path d="M137.255 35.6372C137.255 35.6372 141.351 47.3119 138.831 49.0825C136.311 50.8532 147.334 65.5244 147.334 65.5244L160.527 61.9344L153.279 49.6857C153.279 49.6857 152.374 37.4371 152.374 35.6372C152.374 33.8374 137.255 35.6372 137.255 35.6372Z" fill="#A0616A"/>
<path d="M130.367 118.693C130.367 118.693 129.17 133.636 130.367 141.4C131.564 149.164 133.354 170.684 133.354 170.684C133.354 170.684 133.354 211.312 139.931 211.915C146.507 212.518 151.304 213.112 151.887 210.718C152.471 208.325 148.891 207.128 150.681 205.941C152.471 204.754 153.074 200.591 150.681 195.784C148.288 190.978 150.681 142.597 150.681 142.597L162.064 173.077C162.064 173.077 163.26 198.168 164.457 201.758C165.654 205.348 163.26 211.915 167.444 212.518C171.627 213.121 176.404 209.531 178.817 208.335C181.23 207.138 175.237 207.128 176.424 206.535C177.611 205.941 181.21 204.151 180.014 203.548C178.817 202.945 177.62 174.274 177.62 174.274C177.62 174.274 174.342 112.982 170.158 110.627C165.975 108.273 163.28 112.35 163.28 112.35L130.367 118.693Z" fill="#2F2E41"/>
<path d="M141.137 209.541V214.328C141.137 214.328 135.786 227.316 141.137 227.316C146.488 227.316 150.701 228.658 150.701 226.868V210.738L141.137 209.541Z" fill="#8C4503"/>
<path d="M176.394 209.531V214.318C176.394 214.318 181.755 227.306 176.394 227.306C171.034 227.306 166.841 228.649 166.841 226.868V210.728L176.394 209.531Z" fill="#8C4503"/>
<path d="M145.622 44.3056C147.753 44.3075 149.837 43.6765 151.609 42.4928C153.381 41.309 154.761 39.6257 155.575 37.6563C156.39 35.6869 156.601 33.5201 156.182 31.4306C155.763 29.3411 154.733 27.4231 153.223 25.9196C151.713 24.4162 149.79 23.395 147.698 22.9857C145.607 22.5763 143.441 22.7972 141.476 23.6203C139.51 24.4433 137.833 25.8316 136.657 27.609C135.481 29.3863 134.86 31.4728 134.872 33.6038C134.872 36.4421 135.999 39.1641 138.006 41.1711C140.013 43.1781 142.735 44.3056 145.573 44.3056H145.622Z" fill="#A0616A"/>
<path d="M135.105 34.5376L134.901 34.7808L136.769 36.3277L136.963 36.0942L135.105 34.5376Z" fill="#C1DEE2"/>
<path d="M152.831 42.9732C148.213 44.8228 143.06 44.8228 138.442 42.9732C139.892 40.5118 137.712 38.5758 136.603 36.0852L155.273 35.5306C153.843 37.7196 151.771 40.2491 152.831 42.9732Z" fill="white"/>
<path d="M154.417 36.4352L154.203 36.2114L154.504 35.9001L156.372 33.7111L156.606 33.9056L154.757 36.0946L154.417 36.4352Z" fill="white"/>
<path d="M134.638 36.1816L134.745 35.8898L135.154 36.026L137.936 36.6875L137.858 36.9891L135.066 36.3178L134.638 36.1816Z" fill="white"/>
<path d="M155.662 37.6805L152.413 42.8077L152.675 42.9731L155.935 37.8557L155.662 37.6805Z" fill="white"/>
<path d="M135.737 37.6316L135.465 37.797L138.569 43.0214L138.831 42.856L135.737 37.6316Z" fill="white"/>
<path d="M142.373 53.5675C142.373 53.5675 145.359 62.5375 150.156 60.7474L154.933 58.9476L163.299 116.348C163.299 116.348 156.723 125.911 147.159 119.928C137.596 113.945 142.373 53.5675 142.373 53.5675Z" fill="#9377B6"/>
<path d="M150.701 51.7774L153.386 46.1055C153.386 46.1055 169.215 53.5675 171.608 55.9608C173.084 57.6075 173.928 59.724 173.991 61.9344L169.808 76.8585C169.808 76.8585 171.014 109.723 171.014 110.91C171.014 112.097 175.198 118.693 172.201 116.27C169.205 113.848 168.621 111.484 166.228 115.064C163.835 118.644 158.445 122.847 158.445 122.847L150.701 51.7774Z" fill="#42B6E9"/>
<path d="M171.618 94.8082L169.827 111.532C169.827 111.532 159.067 121.096 161.461 121.699C163.854 122.302 165.051 119.899 165.051 119.899C165.051 119.899 169.234 124.082 171.618 121.699C174.001 119.315 179.984 96.6178 179.984 96.6178L171.618 94.8082Z" fill="#A0616A"/>
<path d="M145.855 18.3489C143.472 18.2711 140.923 18.2225 138.909 19.5067C137.981 20.1507 137.169 20.9467 136.506 21.8611C134.56 24.3322 132.858 27.4454 133.587 30.5198L134.424 30.189C134.429 31.0107 134.246 31.8226 133.889 32.5628C134.015 32.2126 134.414 32.7769 134.307 33.1271L133.334 36.1723C134.067 35.9657 134.851 36.0535 135.52 36.417C136.189 36.7805 136.689 37.3909 136.915 38.118C136.915 38.2153 136.915 38.3029 136.983 38.4002C137.09 34.8589 137.459 30.7825 140.329 28.6713C141.867 27.7486 143.593 27.1865 145.379 27.0271C146.977 26.6392 148.645 26.6392 150.243 27.0271C151.79 27.5427 153.162 29.1577 152.773 30.7727C153.151 30.6709 153.552 30.7047 153.908 30.8682C154.263 31.0317 154.55 31.3146 154.718 31.6678C155.021 32.3695 155.155 33.1328 155.108 33.8957C155.876 34.4405 156.742 33.3606 157.053 32.4753C157.935 30.4436 158.271 28.2166 158.026 26.0153C157.637 23.8458 155.867 21.793 153.687 21.7832C153.823 21.639 153.928 21.4692 153.996 21.2837C154.065 21.0982 154.095 20.9009 154.086 20.7033L152.277 20.5574C152.735 20.4872 153.157 20.2644 153.473 19.925C152.744 20.752 147.062 18.3976 145.855 18.3489Z" fill="#2F2E41"/>
<path d="M145.32 49.9872C145.32 49.9872 140.456 45.22 138.714 45.5119C136.973 45.8038 134.57 49.9872 134.57 49.9872C134.57 49.9872 120.23 54.7641 120.833 59.5507C121.436 64.3373 127.993 87.6574 127.993 87.6574C127.993 87.6574 133.354 115.764 128.596 118.732C123.839 121.699 151.304 129.433 151.946 125.902C152.588 122.37 153.726 86.4608 151.946 81.0613C150.165 75.6617 145.32 49.9872 145.32 49.9872Z" fill="#42B6E9"/>
<path d="M166.247 59.5507H173.612C173.612 59.5507 178.768 82.2579 179.362 84.6415C179.955 87.025 181.162 98.3884 180.558 98.3884C179.955 98.3884 168.008 96.0048 168.008 97.7852L166.247 59.5507Z" fill="#42B6E9"/>
<path d="M165.994 115.774H137.683C134.92 103.058 134.696 90.8092 137.683 79.0762H165.975C161.431 90.5952 161.11 102.785 165.994 115.774Z" fill="white"/>
<path d="M126.203 100.208L134.57 103.788C134.57 103.788 150.7 106.181 150.7 99.6044C150.7 93.0277 134.57 96.6858 134.57 96.6858L129.219 94.9637L126.203 100.208Z" fill="#A0616A"/>
<path d="M127.993 55.9612L120.833 57.7513L115.472 89.4286C115.472 89.4286 113.682 97.7954 116.669 98.3889C119.656 98.9823 128.052 103.749 128.052 103.749C128.052 103.749 129.248 94.7892 131.642 94.7892L125.639 90.022L129.229 69.0757L127.993 55.9612Z" fill="#42B6E9"/>
<path d="M229.368 168.514H204.073C205.844 158.96 205.445 147.432 204.073 135.037H229.368C228.045 147.432 227.656 158.96 229.368 168.514Z" fill="white"/>
<path d="M216.886 156.957C220.25 156.957 222.976 154.23 222.976 150.866C222.976 147.503 220.25 144.776 216.886 144.776C213.522 144.776 210.796 147.503 210.796 150.866C210.796 154.23 213.522 156.957 216.886 156.957Z" fill="#9377B6"/>
<path d="M248.612 167.104H227.053C228.561 158.961 228.23 149.135 227.053 138.55H248.612C247.474 149.135 247.114 158.961 248.612 167.104Z" fill="#D3D3D3"/>
<path d="M245.197 145.905H230.458V165.294H245.197V145.905Z" fill="white"/>
<path fill-rule="evenodd" clip-rule="evenodd" d="M234.009 142.714L230.691 141.906C227.909 142.451 227.529 143.492 226.625 146.771C225.399 151.256 222.539 166.734 225.73 169.215C228.94 168.155 238.961 145.934 234.009 142.714Z" fill="#A0616A"/>
<path fill-rule="evenodd" clip-rule="evenodd" d="M230.691 141.906L234.009 142.713C234.885 140.126 235.955 138.978 236.636 135.767L234.875 137.265L234.388 134.872L232.589 136.915C232.511 134.784 232.91 135.738 231.849 134.814C230.662 136.73 231.032 139.717 230.691 141.906Z" fill="#42B6E9"/>
<path d="M249.809 151.353H203.762V189.149H249.809V151.353Z" fill="#42B6E9"/>
<path d="M232.695 178.155H220.875V189.149H232.695V178.155Z" fill="#3F3D56"/>
<path d="M259.275 189.149H211.224V227.88H259.275V189.149Z" fill="#D3D3D3"/>
<path d="M241.169 216.886H229.349V227.88H241.169V216.886Z" fill="#977CB8"/>
</g>
<defs>
<clipPath id="clip0">
<rect width="300" height="243.894" fill="white"/>
</clipPath>
</defs>
</svg>
