<svg width="140" height="204" viewBox="0 0 140 204" fill="none" xmlns="http://www.w3.org/2000/svg">
<path fill-rule="evenodd" clip-rule="evenodd" d="M67.23 39.1491C64.2081 40.9724 61.239 41.8533 59.8452 41.4937C56.3502 40.5919 56.0289 27.7933 58.7331 22.7477C61.4374 17.7022 75.3395 15.503 76.0402 25.4999C76.2834 28.9695 74.828 32.0658 72.6777 34.5924L76.5333 52.5813H65.3333L67.23 39.1491Z" fill="#B28B67"/>
<path d="M59.4804 41.4088C62.0778 42.448 65.0649 39.2006 65.7142 38.1614C63.9452 36.2595 64.5598 33.9599 65.0649 31.5368L56.883 32.4461C56.883 32.4461 55.9739 38.8109 59.4804 41.4088Z" fill="#C1DEE2"/>
<path d="M67.6088 28.1598L67.7922 28.3102L64.8614 31.8853L64.6779 31.7348L67.6088 28.1598Z" fill="#C1DEE2"/>
<path d="M71.017 33.3557L71.1688 33.538L65.6057 38.1728L65.4539 37.9905L71.017 33.3557Z" fill="#C1DEE2"/>
<path fill-rule="evenodd" clip-rule="evenodd" d="M65.1167 16.9322C66.5928 16.6899 70.5674 16.5233 71.3003 16.5234C71.7687 16.5234 72.2764 16.6305 72.5538 16.2C72.781 15.8474 72.6977 15.2511 72.7655 14.842C72.8443 14.3668 72.9561 13.8976 73.0692 13.4297C73.3911 12.0981 73.8778 10.8312 74.5588 9.64182C75.8367 7.41036 77.7087 5.66244 80.0721 4.64533C82.6819 3.52228 85.6351 3.26513 88.4423 3.49292C91.4464 3.73663 94.1658 4.72933 97.0022 5.66351C99.7051 6.55371 102.536 6.90411 105.363 6.46939C108.211 6.03145 110.363 4.48615 112.766 3.01948C115.225 1.51796 118.036 0.535913 120.943 0.761663C123.657 0.972463 126.159 2.09422 128.403 3.59273C130.503 4.99476 132.235 6.68159 133.214 9.05567C134.266 11.6095 134.265 14.4127 132.534 16.6696C130.026 19.9411 125.37 20.7871 121.496 20.703C119.255 20.6545 117.055 20.2451 114.939 19.5003C112.118 18.5069 109.68 16.8233 107.041 15.4573C105.802 14.8163 104.522 14.2899 103.18 13.9106C101.877 13.5425 100.595 13.3736 99.4155 14.1611C98.1682 14.9942 97.0505 15.8126 95.6235 16.3341C94.2546 16.8344 92.8046 17.1143 91.3462 17.103C88.5085 17.081 85.7113 16.196 82.9552 15.6032C80.7078 15.1198 78.3031 14.6381 76.0118 15.1027C75.0557 15.2966 73.6592 15.6969 73.3139 16.6916C79.1259 17.746 81.4086 24.9412 79.7701 30.2231C78.8858 33.074 73.57 36.4066 71.5031 34.9078C70.1937 33.9583 70.9886 32.7118 71.5031 31.889C72.4883 30.3131 72.8254 28.2889 71.0024 27.1918C69.4298 26.2455 67.7764 28.4926 67.7451 28.4901C67.3129 28.456 63.5783 26.3418 61.0053 23.2567C58.4669 23.4073 58.0818 21.7319 58.6879 20.3617C59.294 18.9916 63.0772 17.2672 65.1167 16.9322Z" fill="#1E2452"/>
<path fill-rule="evenodd" clip-rule="evenodd" d="M85.5661 91.3547C84.7246 102.851 30.5168 136.697 30.2006 137.646C29.9897 138.279 47.0734 177.671 47.0734 177.671L42.3348 179.514C42.3348 179.514 16.1314 137.796 17.4773 133.35C19.4042 126.986 59.5364 91.4769 59.5364 91.4769L85.5661 91.3547Z" fill="#B28B67"/>
<path fill-rule="evenodd" clip-rule="evenodd" d="M45.8264 171.741L38.09 174.56C21.7765 156.135 15.382 140.933 16.548 133.187C17.7139 125.441 58.462 91.3833 58.462 91.3833L86.1209 91.3833C85.1771 118.006 34.9333 137.748 34.2613 138.882C33.5893 140.017 40.2029 151.128 45.8264 171.741Z" fill="#42B6E9"/>
<path fill-rule="evenodd" clip-rule="evenodd" d="M46.5589 177.495C47.4588 176.745 48.8199 176.739 49.5285 177.672C49.997 178.288 50.446 178.954 50.6229 179.441C51.0546 180.628 51.4877 183.05 51.4877 183.05C50.1117 183.551 26.7542 192.061 26.7542 192.061C26.7542 192.061 24.63 189.222 26.6147 188.211C28.5994 187.2 29.8987 186.494 29.8987 186.494L39.1346 177.558C39.5397 177.166 40.1883 177.186 40.5681 177.602L41.5896 178.722C41.5896 178.722 43.8391 178.919 45.0413 178.481C45.4949 178.316 46.0471 177.922 46.5589 177.495Z" fill="#1E2452"/>
<path fill-rule="evenodd" clip-rule="evenodd" d="M79.3332 91.355L103.481 149.386L127.215 198.446H121.616L60.3522 91.355H79.3332Z" fill="#997659"/>
<path fill-rule="evenodd" clip-rule="evenodd" d="M125.178 196.094C126.281 195.697 127.562 196.158 127.909 197.277C128.139 198.017 128.333 198.796 128.333 199.314C128.333 200.577 127.913 203.001 127.913 203.001C126.448 203.001 101.592 203.001 101.592 203.001C101.592 203.001 100.566 199.606 102.776 199.335C104.987 199.065 106.449 198.846 106.449 198.846L118.181 193.611C118.696 193.381 119.298 193.622 119.513 194.143L120.09 195.545C120.09 195.545 122.137 196.501 123.416 196.501C123.899 196.501 124.552 196.32 125.178 196.094Z" fill="#1E2452"/>
<path fill-rule="evenodd" clip-rule="evenodd" d="M125.072 188.254L112.63 190.59C103.009 176.432 62.7477 118.38 58.3334 91.355H86.0328C100.774 110.891 115.902 173.862 125.072 188.254Z" fill="#42B6E9"/>
<path fill-rule="evenodd" clip-rule="evenodd" d="M20.4239 71.1299L37.3334 78.5634L31.9341 85.4874L19.2699 75.7679C12.9443 74.6049 10.0107 73.6058 10.4691 72.7705C10.8556 72.0662 11.5747 72.0265 12.2371 71.99C12.7531 71.9615 13.2347 71.9349 13.4978 71.5975C14.0986 70.8271 12.6158 68.4471 11.1122 66.2488C9.60867 64.0504 11.0179 64.1298 11.8428 64.3927C14.6014 65.9294 17.4618 68.1752 20.4239 71.1299ZM96.1334 82.5106L105.696 80.6113C112.182 97.7223 116.048 107.099 117.296 108.741C118.21 109.946 123.852 113.048 127.671 114.705C129.204 115.37 128.874 116.666 128.425 117.081C125.589 119.697 122.953 118.78 120.084 117.782C119.253 117.493 118.402 117.197 117.522 116.978C115.243 116.412 114.55 117.585 113.895 118.693C113.314 119.675 112.764 120.606 111.17 120.234C111.242 119.921 111.331 119.57 111.427 119.192C112.049 116.744 112.965 113.133 111.606 111.036C110.908 109.96 105.75 100.451 96.1334 82.5106Z" fill="#B28B67"/>
<path fill-rule="evenodd" clip-rule="evenodd" d="M70.1424 44.7958L66.1071 44.103C57.3177 52.6376 53.731 73.1418 47.8735 75.8559C42.3355 78.4219 34.485 75.9388 25.1535 72.5859L22.2957 78.9773C30.7744 88.1594 48.8371 95.9168 56.1587 91.4882C67.8644 84.4079 70.5667 59.119 70.1424 44.7958Z" fill="#9377B6"/>
<path fill-rule="evenodd" clip-rule="evenodd" d="M87.7334 95.5591C87.7334 95.5591 63.4632 95.5591 52.0281 95.5591C50.3965 95.5591 50.7039 93.2008 50.9398 92.0108C53.6618 78.2768 64.2875 63.4722 64.2875 43.9222L74.5866 42.3055C83.1052 56.0199 86.0511 72.9051 87.7334 95.5591Z" fill="#DDE3E9"/>
<path fill-rule="evenodd" clip-rule="evenodd" d="M75.1334 42.3055H75.251C98.3517 56.5552 112.312 78.6444 117.133 108.573L109.649 110.04C104.692 104.259 98.5735 94.7966 91.2947 81.6539C93.5278 89.571 95.1583 97.6908 95.6668 105.369H63.5264C57.3044 89.629 71.1731 42.3055 71.1731 42.3055H73.3921H75.1334Z" fill="#9377B6"/>
</svg>
