<svg width="82" height="102" viewBox="0 0 82 102" fill="none" xmlns="http://www.w3.org/2000/svg">
<g opacity="0.7">
<path opacity="0.7" d="M82 26.9141H0V98.342H82V26.9141Z" fill="url(#paint0_linear)"/>
</g>
<path d="M81.1337 27.7188H1.44495V97.5082H81.1337V27.7188Z" fill="#EEEEEE"/>
<g opacity="0.7">
<path opacity="0.7" d="M26.4453 5.81445H16.5604V25.3085H26.4453V5.81445Z" fill="url(#paint1_linear)"/>
</g>
<path d="M26.1931 6.03906H16.7888V25.3425H26.1931V6.03906Z" fill="#535461"/>
<g opacity="0.7">
<path opacity="0.7" d="M71.0495 97.5392H11.22V24.3756L41.3949 23.7051L71.0495 24.3756V97.5392Z" fill="url(#paint2_linear)"/>
</g>
<path d="M70.3435 97.5067H12.1361V24.3557L41.2398 3.66211L70.3435 24.3557V97.5067Z" fill="white"/>
<path d="M48.6643 72.957H33.9144V97.5071H48.6643V72.957Z" fill="#535461"/>
<path opacity="0.5" d="M54.8018 35.3398H27.777V52.1685H54.8018V35.3398Z" fill="#42B6E9"/>
<path d="M56.1926 51H26V53.9698H56.1926V51Z" fill="#535461"/>
<g opacity="0.1">
<path opacity="0.1" d="M54.7585 35.3223H27.7804V41.9957H54.7585V35.3223Z" fill="black"/>
</g>
<g opacity="0.7">
<path opacity="0.7" d="M74.2965 30.5663L41.3511 5.09438L9.46498 30.5475L6.96399 27.4144L41.3135 0L76.7474 27.3956L74.2965 30.5663Z" fill="url(#paint3_linear)"/>
</g>
<path d="M74.327 30.7865L41.3786 5.37847L9.48974 30.7677L6.98853 27.6488L41.341 0.296875L76.778 27.63L74.327 30.7865Z" fill="#42B6E9"/>
<path d="M46.4865 86.3204C47.0879 86.3204 47.5754 85.8329 47.5754 85.2315C47.5754 84.6301 47.0879 84.1426 46.4865 84.1426C45.8851 84.1426 45.3976 84.6301 45.3976 85.2315C45.3976 85.8329 45.8851 86.3204 46.4865 86.3204Z" fill="#E0E0E0"/>
<path d="M41.8737 99.9252L35.0542 101.32L34.8987 101.305L28.9058 100.7V93.1056L36.2421 91.8652L41.5639 92.4859L41.5659 92.5196V92.5354L41.8737 99.9252Z" fill="#9377B6"/>
<defs>
<linearGradient id="paint0_linear" x1="5363.62" y1="20201.7" x2="5363.62" y2="12059.7" gradientUnits="userSpaceOnUse">
<stop stop-color="#808080" stop-opacity="0.25"/>
<stop offset="0.54" stop-color="#808080" stop-opacity="0.12"/>
<stop offset="1" stop-color="#808080" stop-opacity="0.1"/>
</linearGradient>
<linearGradient id="paint1_linear" x1="355.612" y1="3239.87" x2="355.612" y2="2633.41" gradientUnits="userSpaceOnUse">
<stop stop-color="#808080" stop-opacity="0.25"/>
<stop offset="0.54" stop-color="#808080" stop-opacity="0.12"/>
<stop offset="1" stop-color="#808080" stop-opacity="0.1"/>
</linearGradient>
<linearGradient id="paint2_linear" x1="3937.23" y1="20783.6" x2="3937.23" y2="12083.8" gradientUnits="userSpaceOnUse">
<stop stop-color="#808080" stop-opacity="0.25"/>
<stop offset="0.54" stop-color="#808080" stop-opacity="0.12"/>
<stop offset="1" stop-color="#808080" stop-opacity="0.1"/>
</linearGradient>
<linearGradient id="paint3_linear" x1="4667.1" y1="5327.4" x2="4667.1" y2="3836.38" gradientUnits="userSpaceOnUse">
<stop stop-color="#808080" stop-opacity="0.25"/>
<stop offset="0.54" stop-color="#808080" stop-opacity="0.12"/>
<stop offset="1" stop-color="#808080" stop-opacity="0.1"/>
</linearGradient>
</defs>
</svg>
