<svg width="154" height="206" viewBox="0 0 154 206" fill="none" xmlns="http://www.w3.org/2000/svg">
<path d="M0.000106812 1.31641H154V98.5262H0.000106812V1.31641Z" fill="white"/>
<path d="M0.000106812 94.407H154V199.855H0.000106812V94.407Z" fill="#F8F8F8"/>
<path d="M132.056 54.0403L145.72 63.5084V71.3404L125.022 54.0403H132.056Z" fill="#E6E6E6"/>
<path d="M108.876 54.0403L145.72 82.2034V88.6405L97.699 54.0403H108.876Z" fill="#E6E6E6"/>
<path d="M21.7533 7.80734L52.1614 48.0653L42.7667 49.0972L16.5592 6.25897L21.7533 7.80734Z" fill="#E6E6E6"/>
<path d="M73.3212 0H80.6533V98.4863H73.3212V0Z" fill="#3F3D56"/>
<path d="M-9.53674e-07 0H8.14679V98.4863H-9.53674e-07V0Z" fill="#3F3D56"/>
<path d="M0.000137329 90.2793H153.974V98.4865H0.000137329V90.2793Z" fill="#3F3D56"/>
<path d="M145.828 0H153.974V98.4863H145.828V0Z" fill="#3F3D56"/>
<path d="M0.000137329 0H153.974V8.20719H0.000137329V0Z" fill="#3F3D56"/>
<path d="M0.000137329 45.1387H153.974V54.1666H0.000137329V45.1387Z" fill="#3F3D56"/>
<path fill-rule="evenodd" clip-rule="evenodd" d="M69.7055 143.229C73.4901 145.548 77.2086 146.668 78.9542 146.211C83.3312 145.064 83.7337 128.787 80.3469 122.37C76.9602 115.953 59.5497 113.156 58.6721 125.87C58.3675 130.283 60.1902 134.221 62.8833 137.434L58.0544 160.313H72.081L69.7055 143.229Z" fill="#FFC9C9"/>
<path fill-rule="evenodd" clip-rule="evenodd" d="M74.8065 115.38C72.8898 114.786 70.1076 114.585 68.9371 114.721C69.6029 113.1 69.8671 111.293 69.6517 109.534C69.4424 107.825 68.6911 106.369 67.9962 104.844C67.6759 104.141 67.3129 103.442 66.7717 102.905C66.2204 102.357 65.5226 101.995 64.7908 101.823C64.0419 101.646 63.2588 101.661 62.5088 101.821C62.177 101.892 61.8793 102.046 61.5539 102.132C61.2207 102.22 61.059 102.008 60.8171 101.795C60.2343 101.281 59.3798 101.028 58.6423 100.937C57.815 100.835 56.9565 100.962 56.1674 101.239C55.3994 101.508 54.6616 101.945 54.1063 102.582C53.8591 102.865 53.6347 103.188 53.4888 103.544C53.429 103.69 53.4191 103.777 53.2756 103.83C53.1429 103.88 52.9877 103.881 52.8507 103.928C51.5265 104.384 50.3943 105.424 49.7778 106.76C49.4181 107.539 49.2478 108.911 49.2944 110.448C49.3411 111.985 50.7068 115.997 51.9841 117.46C53.1242 118.766 54.8001 119.628 56.4174 120.006C55.3439 121.253 54.6293 122.812 54.1009 124.397C53.5269 126.119 53.1716 127.908 53.0405 129.731C52.9158 131.463 52.9043 133.294 53.3038 134.99C53.6774 136.575 54.4765 137.875 55.8106 138.7C56.4217 139.078 57.0791 139.362 57.7404 139.621C58.3921 139.877 59.0458 140.126 59.7284 140.269C61.0204 140.54 62.5091 140.494 63.5043 139.449C63.863 139.072 64.2575 138.598 64.5191 138.138C64.6132 137.972 64.67 137.864 64.5557 137.702C64.4187 137.508 64.1972 137.36 64.0213 137.208C63.018 136.344 62.397 135.19 62.2405 133.818C62.0817 132.427 62.4494 130.63 63.7803 130.023C65.4233 129.273 67.2326 130.134 68.6929 130.936C69.3135 128.709 70.5877 126.705 72.5855 125.683C74.7958 124.554 77.332 124.421 79.6034 123.452C80.1953 123.199 80.7981 122.912 81.2339 122.398C81.416 122.183 81.6296 121.904 81.7023 121.619C81.7978 121.245 81.5607 120.932 81.3775 120.641C80.4063 119.096 76.7231 115.974 74.8065 115.38Z" fill="#997659"/>
<path d="M79.4954 147.001C76.1482 148.38 72.2988 144.07 71.462 142.691C73.7417 140.167 72.9496 137.115 72.2987 133.899L82.8425 135.106C82.8425 135.106 84.0141 143.553 79.4954 147.001Z" fill="#9BCCD3"/>
<path d="M69.0207 129.419L68.7843 129.619L72.5612 134.363L72.7976 134.163L69.0207 129.419Z" fill="#9BCCD3"/>
<path d="M64.6286 136.315L64.4329 136.557L71.6019 142.708L71.7976 142.466L64.6286 136.315Z" fill="#9BCCD3"/>
<path fill-rule="evenodd" clip-rule="evenodd" d="M104.797 160.891L84.5056 172.047L91.999 180.12L106.743 166.569C114.511 164.42 118.063 162.848 117.4 161.853C116.84 161.014 115.939 161.043 115.108 161.07C114.461 161.091 113.857 161.111 113.492 160.717C112.658 159.819 114.249 156.678 115.886 153.762C117.522 150.846 115.772 151.1 114.771 151.519C111.496 153.745 108.172 156.869 104.797 160.891ZM125.199 176.545L116.286 181.46L116.794 190.439C116.794 190.439 122.567 186.257 127.533 184.867C133.866 183.094 136.428 181.741 139.522 177.783C141.178 175.665 142.583 171.408 141.007 170.022C140.403 169.49 138.15 170.747 135.852 172.028C134.1 173.005 132.322 173.997 131.227 174.224C129.752 174.528 129.925 172.61 130.063 171.076C130.162 169.976 130.243 169.074 129.684 169.335C127.075 169.38 125.199 176.545 125.199 176.545Z" fill="#FFC9C9"/>
<path fill-rule="evenodd" clip-rule="evenodd" d="M74.6231 169.563C81.7306 169.488 91.2084 167.981 101.321 161.537L105.293 170.427C98.3172 177.376 88.5088 183.086 79.9326 182.844C73.174 182.654 69.7198 174.448 74.6231 169.563Z" fill="#42B6E9"/>
<path fill-rule="evenodd" clip-rule="evenodd" d="M68.1298 200.025H42.9909C44.0851 198.457 44.9961 195.477 44.9961 185.366C45.0074 170.252 57.0969 146.989 58.8756 146.989H59.3862H70.8146H70.9708C70.9708 158.997 75.1438 164.672 79.0635 170.003C82.0214 174.026 84.8352 177.853 85.6029 184.057C97.9424 185.784 122.153 177.136 122.153 177.136C122.153 177.136 128.761 190.859 128.263 196.703C98.8253 208.633 79.3435 208.343 68.1298 200.025Z" fill="#42B6E9"/>
</svg>
