<svg width="100%" height="100%" viewBox="0 0 1197 1200" fill="none" xmlns="http://www.w3.org/2000/svg">
<path d="M434.195 765.803V1034.19C434.195 1078.17 451.664 1120.34 482.758 1151.43C513.853 1182.53 556.026 1200 600 1200C643.974 1200 686.147 1182.53 717.242 1151.43C748.336 1120.34 765.805 1078.17 765.805 1034.19V596.419C765.34 574.644 760.59 553.173 751.825 533.234C743.06 513.295 730.452 495.279 714.723 480.214C698.993 465.148 680.449 453.33 660.151 445.434C639.852 437.537 618.197 433.717 596.421 434.192H165.805C121.831 434.192 79.6577 451.661 48.5632 482.755C17.4687 513.85 0 556.023 0 599.997C0 643.972 17.4687 686.145 48.5632 717.239C79.6577 748.334 121.831 765.803 165.805 765.803H434.195Z" fill="#42B6E9"/>
<path d="M434.182 165.805C434.182 121.831 451.651 79.6577 482.745 48.5632C513.84 17.4687 556.013 0 599.987 0C643.962 0 686.135 17.4687 717.229 48.5632C748.324 79.6577 765.792 121.831 765.792 165.805V404.374C718.473 364.538 658.248 343.331 596.409 344.732H434.182V165.805ZM1030.6 434.195C1074.58 434.195 1116.75 451.664 1147.85 482.758C1178.94 513.853 1196.41 556.026 1196.41 600C1196.41 643.974 1178.94 686.147 1147.85 717.242C1116.75 748.336 1074.58 765.805 1030.6 765.805H855.256V596.421C855.352 535.675 833.781 476.886 794.421 430.616L1030.6 434.195Z" fill="#9377B6"/>
</svg>