<svg width="53" height="53" viewBox="0 0 53 53" fill="none" xmlns="http://www.w3.org/2000/svg">
<path fill-rule="evenodd" clip-rule="evenodd" d="M0 26.1986C-8.81449e-08 22.7577 0.67784 19.3504 1.99481 16.1715C3.31179 12.9925 5.24209 10.1042 7.67549 7.67131C10.1089 5.23846 12.9977 3.30881 16.1769 1.99255C19.3562 0.676298 22.7636 -0.000778177 26.2046 6.71173e-07C33.1529 6.71173e-07 39.8166 2.76021 44.7297 7.67341C49.6429 12.5866 52.4032 19.2503 52.4032 26.1986V26.1986C52.4032 33.1475 49.6431 39.8118 44.7301 44.7259C39.8171 49.6401 33.1534 52.4016 26.2046 52.4032C19.2547 52.4032 12.5894 49.6424 7.67512 44.728C2.76082 39.8137 0 33.1485 0 26.1986V26.1986Z" fill="#EA0B8C"/>
<path fill-rule="evenodd" clip-rule="evenodd" d="M9 14.4323H14.3149V28.6963C14.3149 30.9537 15.3475 32.2983 16.164 32.8747C15.2996 33.6431 12.658 34.3155 10.6889 32.6825C9.52796 31.72 9 30.1371 9 28.6482V14.4323ZM42.2162 26.2811V24.7821H43.8372V19.5232H42.057C41.3737 16.3659 38.5627 14 35.201 14C31.3283 14 28.1891 17.1394 28.1891 21.012V33.293C29.2924 33.4481 30.6068 33.2738 31.7251 32.3464C32.8859 31.3837 33.4138 29.801 33.4138 28.3121V27.8596H36.0683V22.6008H33.4138V21.012H33.4202C33.4202 20.0285 34.2174 19.2313 35.201 19.2313C36.1844 19.2313 36.9849 20.0285 36.9849 21.012V26.2811C36.9849 30.1536 40.1275 33.293 44 33.293V28.0617C43.0166 28.0617 42.2162 27.2645 42.2162 26.2811ZM22.0866 19.5232V27.2412C22.0866 27.6793 21.7231 28.0345 21.2745 28.0345C20.826 28.0345 20.4625 27.6793 20.4625 27.2412V19.5232H15.2034V28.6003C15.2034 30.2332 15.7572 32.2983 18.2772 32.9707C20.8 33.6438 22.2634 32.2504 22.2634 32.2504C22.1301 33.1684 21.2655 33.8408 19.8728 33.9849C18.819 34.0938 17.4713 33.7448 16.7991 33.4566V38.2657C18.5121 38.7708 20.3238 38.934 22.0969 38.5899C25.3147 37.9656 27.3455 35.2761 27.3455 31.698V19.5232H22.0866Z" fill="white"/>
</svg>
