<svg width="166" height="145" viewBox="0 0 166 145" fill="none" xmlns="http://www.w3.org/2000/svg">
<path opacity="0.8" d="M164.059 80.8821C164.059 102.46 151.004 121.547 131.027 133.162C117.218 141.028 101.558 145.113 85.6448 145C75.9052 145.216 66.2221 143.474 57.1763 139.876C48.1304 136.279 39.9083 130.901 33.0031 124.066C21.2017 111.829 12.3926 97.0522 7.259 80.8821C-17.4159 8.95582 23.8027 -10.663 85.6448 16.7921C125.035 34.256 164.059 45.4787 164.059 80.8821Z" fill="#D5E8F7"/>
<path d="M151.932 29.3862V43.7995C151.932 43.9331 151.879 44.0612 151.784 44.1557C151.689 44.2501 151.56 44.3032 151.426 44.3032H151.06V119.448C151.06 121.526 150.23 123.52 148.752 124.989C147.275 126.459 145.271 127.284 143.182 127.284H96.0829C93.9936 127.284 91.9898 126.459 90.5124 124.989C89.035 123.52 88.205 121.526 88.205 119.448V46.934H87.9518C87.9051 46.9379 87.8582 46.9321 87.8139 46.9169C87.7696 46.9018 87.729 46.8777 87.6946 46.8461C87.6602 46.8145 87.6328 46.7762 87.6141 46.7335C87.5954 46.6908 87.5858 46.6447 87.586 46.5981V38.37C87.5858 38.3234 87.5954 38.2774 87.6141 38.2347C87.6328 38.192 87.6602 38.1536 87.6946 38.1221C87.729 38.0905 87.7696 38.0664 87.8139 38.0512C87.8582 38.0361 87.9051 38.0303 87.9518 38.0342H88.205V34.9276H87.9518C87.9014 34.9315 87.8508 34.9249 87.8031 34.9084C87.7555 34.8918 87.7117 34.8657 87.6747 34.8315C87.6377 34.7973 87.6083 34.7559 87.5881 34.7098C87.568 34.6637 87.5577 34.614 87.5579 34.5638V26.4476C87.5577 26.3974 87.568 26.3477 87.5881 26.3016C87.6083 26.2555 87.6377 26.2141 87.6747 26.1799C87.7117 26.1457 87.7555 26.1195 87.8031 26.103C87.8508 26.0865 87.9014 26.0799 87.9518 26.0838H88.205V21.8577H87.9236C87.8415 21.8577 87.7628 21.8253 87.7048 21.7676C87.6467 21.7098 87.6141 21.6315 87.6141 21.5499V17.128C87.6102 17.0852 87.6153 17.0422 87.6291 17.0015C87.6429 16.9609 87.6651 16.9236 87.6942 16.892C87.7233 16.8603 87.7588 16.8351 87.7983 16.8179C87.8378 16.8007 87.8805 16.7919 87.9236 16.7921H88.205V7.83632C88.205 5.758 89.035 3.7648 90.5124 2.29521C91.9898 0.825611 93.9936 0 96.0829 0H143.294C145.384 0 147.388 0.825611 148.865 2.29521C150.342 3.7648 151.172 5.758 151.172 7.83632V28.8825H151.538C151.652 28.9083 151.754 28.9725 151.826 29.0644C151.897 29.1562 151.935 29.2699 151.932 29.3862Z" fill="#3F3D56"/>
<path d="M121.968 4.03009H114.287C113.976 4.03009 113.724 4.28069 113.724 4.58983V5.23353C113.724 5.54266 113.976 5.79326 114.287 5.79326H121.968C122.279 5.79326 122.531 5.54266 122.531 5.23353V4.58983C122.531 4.28069 122.279 4.03009 121.968 4.03009Z" fill="#E6E8EC"/>
<path d="M124.866 5.90525C125.425 5.90525 125.879 5.45417 125.879 4.89773C125.879 4.34128 125.425 3.8902 124.866 3.8902C124.306 3.8902 123.853 4.34128 123.853 4.89773C123.853 5.45417 124.306 5.90525 124.866 5.90525Z" fill="#E6E8EC"/>
<path d="M147.402 9.37561V120.092C147.402 120.746 147.273 121.394 147.021 121.998C146.769 122.602 146.401 123.152 145.936 123.614C145.47 124.077 144.918 124.444 144.311 124.694C143.703 124.944 143.052 125.073 142.394 125.073H97.2085C95.8851 125.073 94.6155 124.552 93.6771 123.624C92.7387 122.696 92.2078 121.436 92.2003 120.12V9.37561C92.2078 8.05925 92.7387 6.79932 93.6771 5.87112C94.6155 4.94292 95.8851 4.42192 97.2085 4.42194H104.102V5.28953C104.109 6.37579 104.548 7.41505 105.323 8.18054C106.098 8.94604 107.146 9.37564 108.238 9.37561H131.196C132.288 9.37564 133.336 8.94604 134.111 8.18054C134.886 7.41505 135.325 6.37579 135.332 5.28953V4.42194H142.535C143.858 4.42192 145.128 4.94292 146.066 5.87112C147.005 6.79932 147.536 8.05925 147.543 9.37561H147.402Z" fill="white"/>
<path d="M142.845 77.2997H96.9272V83.233H142.845V77.2997Z" fill="#E6E6E6"/>
<path d="M142.845 87.8508H96.9272V93.784H142.845V87.8508Z" fill="#E6E6E6"/>
<path d="M142.845 98.3738H96.9272V104.307H142.845V98.3738Z" fill="#E6E6E6"/>
<path d="M137.78 24.3766C140.22 24.3766 142.197 22.4093 142.197 19.9826C142.197 17.5559 140.22 15.5887 137.78 15.5887C135.34 15.5887 133.363 17.5559 133.363 19.9826C133.363 22.4093 135.34 24.3766 137.78 24.3766Z" fill="#42B6E9"/>
<path d="M142.76 34.7037H96.8428V65.0135H142.76V34.7037Z" fill="#E6E6E6"/>
<path d="M166 126.948H7.96252V127.648H166V126.948Z" fill="#3F3D56"/>
<path d="M110.095 49.8446C110.095 50.5869 110.391 51.2987 110.919 51.8236C111.446 52.3485 112.162 52.6433 112.908 52.6433H116.791V56.5055C116.791 57.27 117.096 58.0032 117.64 58.5438C118.183 59.0844 118.92 59.3881 119.689 59.3881C120.457 59.3881 121.195 59.0844 121.738 58.5438C122.281 58.0032 122.587 57.27 122.587 56.5055V49.8446C122.587 49.1024 122.29 48.3905 121.763 47.8657C121.235 47.3408 120.519 47.0459 119.773 47.0459H113.021C112.642 47.0309 112.264 47.0921 111.909 47.226C111.555 47.3598 111.231 47.5636 110.958 47.825C110.685 48.0864 110.467 48.4001 110.319 48.7471C110.171 49.0942 110.094 49.4675 110.095 49.8446Z" fill="#42B6E9"/>
<path d="M129.424 49.8446C129.424 49.1024 129.127 48.3905 128.6 47.8657C128.072 47.3408 127.356 47.046 126.61 47.046H122.699V43.0998C122.699 42.3353 122.394 41.6021 121.851 41.0615C121.307 40.5209 120.57 40.2172 119.801 40.2172C119.033 40.2172 118.296 40.5209 117.752 41.0615C117.209 41.6021 116.903 42.3353 116.903 43.0998V45.8985H119.717C120.25 45.8714 120.784 45.9541 121.283 46.1413C121.783 46.3286 122.239 46.6164 122.622 46.9868C123.005 47.3571 123.307 47.8021 123.509 48.2938C123.711 48.7856 123.809 49.3135 123.797 49.8446V52.6433H126.61C127.356 52.6433 128.072 52.3485 128.6 51.8236C129.127 51.2988 129.424 50.5869 129.424 49.8446Z" fill="#9377B6"/>
<path d="M17.3315 52.9232C17.3315 52.9232 21.3831 59.3042 19.9482 61.0394C18.5132 62.7745 30.7804 62.8025 30.7804 62.8025C29.9587 59.0407 29.525 55.2053 29.4861 51.3559L17.3315 52.9232Z" fill="#FFB8B8"/>
<path d="M23.8028 55.2181C30.8108 55.2181 36.492 49.567 36.492 42.596C36.492 35.625 30.8108 29.9739 23.8028 29.9739C16.7948 29.9739 11.1136 35.625 11.1136 42.596C11.1136 49.567 16.7948 55.2181 23.8028 55.2181Z" fill="#2F2E41"/>
<path d="M53.6829 111.052V118.552L61.1951 116.985L60.5761 111.696L53.6829 111.052Z" fill="#FFB8B8"/>
<path d="M80.327 112.311L101.288 115.726L95.9704 123.534C95.9704 123.534 81.2273 118.552 77.4572 118.552C73.687 118.552 80.327 112.311 80.327 112.311Z" fill="#FFB8B8"/>
<path d="M32.6655 97.3384C32.6655 97.3384 48.337 79.2309 53.3733 80.1824C54.9938 80.6692 56.4831 81.5135 57.7302 82.6522C58.9773 83.7909 59.95 85.1948 60.576 86.7593L63.3896 114.522C63.3896 114.522 53.3733 115.446 53.3733 114.522C53.3733 113.599 51.4882 93.6161 51.4882 93.6161C51.4882 93.6161 36.7452 126.053 28.9797 104.531L32.6655 97.3384Z" fill="#D0CDE1"/>
<path d="M7.25903 109.485C7.25903 109.485 7.56853 125.941 16.8814 126.781C26.1943 127.62 36.5763 119.784 36.5763 119.784L53.4577 111.724C53.4577 111.724 73.5184 122.303 79.4831 119.476C79.4831 119.476 85.7573 112.927 81.6777 111.08C77.598 109.233 81.3682 111.08 81.3682 111.08L57.1997 98.5978C57.1997 98.5978 52.5011 97.3663 44.3417 100.781C38.2008 103.118 31.8239 104.788 25.3221 105.762L7.25903 109.485Z" fill="#D0CDE1"/>
<path d="M22.9306 56.1416C28.1206 56.1416 32.3279 51.9566 32.3279 46.794C32.3279 41.6315 28.1206 37.4464 22.9306 37.4464C17.7406 37.4464 13.5333 41.6315 13.5333 46.794C13.5333 51.9566 17.7406 56.1416 22.9306 56.1416Z" fill="#FFB8B8"/>
<path d="M36.5761 72.9897L35.929 86.0876C35.929 86.0876 36.2385 103.272 33.4249 104.503C31.99 105.147 29.1202 106.406 26.4754 107.777C24.7397 108.63 23.0988 109.662 21.5799 110.856C21.3076 111.102 21.0709 111.385 20.8765 111.696C19.6385 113.879 11.4792 113.543 9.62223 112.003C7.76528 110.464 9.00324 113.879 7.42765 114.494C5.85206 115.11 3.79816 110.156 5.0924 102.768C5.12567 102.514 5.17263 102.261 5.23307 102.012C6.66799 94.8475 4.41714 77.6915 4.75477 71.0866C4.78011 70.5799 4.83649 70.0752 4.92358 69.5753C5.62697 64.5657 17.6971 54.4065 19.948 58.7724C22.7616 64.1179 29.0639 59.2202 30.1612 56.7853C36.4355 56.4775 38.6019 63.978 38.6019 63.978L36.5761 72.9897Z" fill="#42B6E9"/>
<path d="M61.8982 115.726C59.7868 116.578 57.5574 117.106 55.2864 117.293C54.8918 117.25 54.4924 117.29 54.1144 117.411C53.7365 117.532 53.3886 117.731 53.0936 117.995C52.7986 118.26 52.5632 118.583 52.4029 118.944C52.2426 119.306 52.1609 119.697 52.1633 120.092C52.1633 121.939 50.2783 126.305 53.0918 126.641C55.9054 126.976 67.5254 126.305 69.9732 127.256C69.9732 127.256 81.2274 127.564 80.3271 122.89C80.0831 121.607 79.3772 120.455 78.3415 119.651C77.3058 118.848 76.0112 118.447 74.6999 118.524C74.6999 118.524 61.8982 117.909 61.8982 115.726Z" fill="#2F2E41"/>
<path d="M98.4745 116.677C98.4745 116.677 99.0935 114.802 100.05 114.802C103.164 115.276 106.301 115.584 109.447 115.726C110.376 115.418 121.377 114.802 119.492 120.12C118.765 121.706 117.636 123.077 116.215 124.097C114.794 125.118 113.131 125.753 111.389 125.941C111.389 125.941 100.135 124.71 98.5308 125.017C96.927 125.325 91.2999 125.017 92.2565 123.45C93.2132 121.883 99.1498 119.168 98.4745 116.677Z" fill="#2F2E41"/>
<path d="M69.9732 71.8703L71.6895 78.923C71.7177 78.995 71.7177 79.0749 71.6895 79.1469L63.8959 103.551C63.8572 103.663 63.7782 103.756 63.6742 103.813C63.5702 103.87 63.4487 103.887 63.3332 103.859C63.2484 103.832 63.1737 103.78 63.1186 103.71C63.0635 103.64 63.0305 103.556 63.0237 103.467L61.8983 93.8959C61.8834 93.8654 61.8756 93.8319 61.8756 93.798C61.8756 93.7641 61.8834 93.7306 61.8983 93.7L69.0729 71.8143C69.1168 71.7079 69.198 71.6209 69.3015 71.5694C69.4049 71.5179 69.5236 71.5055 69.6356 71.5344C69.7194 71.55 69.7965 71.5904 69.8567 71.6503C69.917 71.7102 69.9576 71.7869 69.9732 71.8703Z" fill="#3F3D56"/>
<path d="M69.3543 72.458L70.9299 78.5032L64.0367 100.641L62.4611 93.784L69.3543 72.458Z" fill="white"/>
<path d="M34.6631 105.371C34.9163 106.182 62.2078 105.119 62.4611 104.867C62.6852 104.528 62.8827 104.172 63.0519 103.803C63.277 103.272 63.5302 102.74 63.5302 102.74L62.4611 94.2038L35.4509 93.2523C35.4509 93.2523 34.7756 100.501 34.635 103.803C34.5878 104.325 34.5972 104.851 34.6631 105.371Z" fill="#3F3D56"/>
<path opacity="0.1" d="M59.0286 95.3793L59.535 102.74H47.6337V95.3793H59.0286Z" fill="black"/>
<path opacity="0.1" d="M43.6665 97.7302H43.7228L43.3852 100.893H36.7733V97.7302H43.6665Z" fill="black"/>
<path opacity="0.1" d="M34.6631 105.371C34.9163 106.182 62.2078 105.119 62.4611 104.867C62.6852 104.528 62.8827 104.172 63.0519 103.803H34.635C34.5878 104.325 34.5972 104.851 34.6631 105.371Z" fill="black"/>
<path d="M25.9129 34.6198C29.145 34.6198 31.7651 32.0135 31.7651 28.7985C31.7651 25.5835 29.145 22.9772 25.9129 22.9772C22.6808 22.9772 20.0607 25.5835 20.0607 28.7985C20.0607 32.0135 22.6808 34.6198 25.9129 34.6198Z" fill="#2F2E41"/>
<path d="M24.8437 32.6047C21.9711 36.7024 17.703 39.6256 12.8298 40.8329C4.3891 43.0718 12.8298 55.6379 12.8298 55.6379C11.9605 54.1553 11.6105 52.4277 11.8345 50.7259C12.0586 49.0241 12.844 47.4443 14.0677 46.2343C18.485 41.3926 25.5189 38.0902 24.8437 32.6047Z" fill="#2F2E41"/>
<path opacity="0.1" d="M26.3349 107.777C25.653 108.934 25.0423 110.13 24.506 111.36C24.506 111.78 23.2399 111.556 21.4393 110.856C16.036 108.611 10.7577 106.079 5.62705 103.272L4.86739 102.768C4.90066 102.514 4.94762 102.261 5.00807 102.012C6.44299 94.8475 4.19214 77.6916 4.52977 71.0867L7.34333 70.1911L12.661 75.1728V96.3868C12.661 96.3868 26.4755 103.887 27.404 104.503C27.7979 104.811 27.1508 106.35 26.3349 107.777Z" fill="black"/>
<path d="M37.9831 90.7894L46.4238 95.1554C46.4238 95.1554 51.4601 89.8379 54.5831 93.896C57.7062 97.9541 45.4953 99.2135 45.4953 99.2135C45.4953 99.2135 34.8319 96.6947 34.5225 93.2803C34.213 89.8659 37.9831 90.7894 37.9831 90.7894Z" fill="#FFB8B8"/>
<path d="M23.8872 102.32L28.8953 103.579C28.8953 103.579 34.5224 96.6946 40.5153 99.2134C46.5082 101.732 32.975 106.686 32.975 106.686C32.975 106.686 25.7723 110.436 22.9306 107.302C22.5577 106.956 22.2789 106.523 22.1205 106.041C21.962 105.559 21.9291 105.046 22.0247 104.548C22.1202 104.05 22.3413 103.585 22.667 103.195C22.9928 102.805 23.4126 102.504 23.8872 102.32Z" fill="#FFB8B8"/>
<path d="M34.8599 61.1513C35.1694 61.4592 38.6301 63.95 38.6301 63.95C38.6301 63.95 39.5585 75.8164 38.2924 78.3073C37.0263 80.7981 36.0979 80.7981 37.0545 82.0295C38.0111 83.2609 39.2491 82.3654 37.983 84.5483C36.7169 86.7313 35.4789 86.4235 36.4355 87.347C37.3921 88.2706 37.0545 88.6064 37.0545 88.6064L40.8246 91.713C40.8246 91.713 38.5175 95.3793 35.5914 95.0994C32.6653 94.8195 30.1613 80.7981 30.1613 80.7981L34.8599 61.1513Z" fill="#42B6E9"/>
<path d="M7.25903 68.6238L4.44547 69.5754C4.44547 69.5754 -3.09487 97.0305 5.62717 101.704C14.3492 106.378 24.1404 111.052 24.4499 109.821C24.7594 108.589 28.22 103.579 27.2634 102.936C26.3068 102.292 12.5204 94.8475 12.5204 94.8475V73.6055L7.25903 68.6238Z" fill="#42B6E9"/>
<path opacity="0.1" d="M11.4792 80.0145L10.8602 94.9874L27.4884 102.796L12.1263 94.9874L11.4792 80.0145Z" fill="black"/>
</svg>
