<svg width="166" height="145" viewBox="0 0 166 145" fill="none" xmlns="http://www.w3.org/2000/svg">
<path opacity="0.8" d="M115.769 29.7316C114.734 37.341 120.862 44.0062 125.927 47.4776C130.93 50.4759 136.366 52.6956 142.046 54.0595C145.948 54.9607 149.623 56.6428 152.848 59.0028C160.627 65.3625 162.614 78.9705 159.48 89.7181C156.112 99.7915 149.907 108.696 141.598 115.379C124.801 129.795 104.407 139.463 82.5523 143.373C75.066 144.996 67.3644 145.409 59.7455 144.595C48.8574 142.674 38.5573 138.304 29.6349 131.82C24.1502 128.309 19.2263 124.003 15.0273 119.045C2.7984 103.715 1.5974e-05 77.943 8.95484 59.3361C13.496 50.7119 19.5298 42.9472 26.7805 36.3968C45.5017 18.0676 67.1612 1.84905 91.0594 0.182758C98.6989 -0.3449 107.066 1.0159 112.411 7.68106C117.756 14.3462 116.86 21.539 115.769 29.7316Z" fill="#D5E8F7"/>
<mask id="mask0" mask-type="alpha" maskUnits="userSpaceOnUse" x="3" y="0" width="158" height="146">
<path opacity="0.8" d="M115.769 29.7316C114.734 37.341 120.862 44.0062 125.927 47.4776C130.93 50.4759 136.366 52.6956 142.046 54.0595C145.948 54.9607 149.623 56.6428 152.848 59.0028C160.627 65.3625 162.614 78.9705 159.48 89.7181C156.112 99.7915 149.907 108.696 141.598 115.379C124.801 129.795 104.407 139.463 82.5523 143.373C75.066 144.996 67.3644 145.409 59.7455 144.595C48.8574 142.674 38.5573 138.304 29.6349 131.82C24.1502 128.309 19.2263 124.003 15.0273 119.045C2.7984 103.715 1.5974e-05 77.943 8.95484 59.3361C13.496 50.7119 19.5298 42.9472 26.7805 36.3968C45.5017 18.0676 67.1612 1.84905 91.0594 0.182758C98.6989 -0.3449 107.066 1.0159 112.411 7.68106C117.756 14.3462 116.86 21.539 115.769 29.7316Z" fill="#D5E8F7"/>
</mask>
<g mask="url(#mask0)">
<path fill-rule="evenodd" clip-rule="evenodd" d="M40.3528 110.685C39.4013 110.518 38.0021 109.852 40.6326 108.519C43.2631 107.186 45.9775 105.742 45.8096 104.575C45.8096 104.131 45.2779 103.853 44.7742 103.548C44.2705 103.242 43.4869 102.742 43.4869 101.854C43.4869 100.965 46.873 101.381 53.6731 103.603L71.1909 100.826L72.758 110.435L52.3018 108.685C48.4302 109.893 44.4094 110.566 40.3528 110.685Z" fill="#D8A982"/>
<path d="M69.148 130.125V225.187C69.148 230.075 45.7815 229.825 41.1642 225.187C36.5468 220.549 50.3708 188.084 52.8054 169.422C55.24 150.759 66.7973 120.738 66.7973 120.738L73.7933 109.158L69.148 130.125Z" fill="#2F2E41"/>
<path opacity="0.1" d="M69.148 130.125V225.187C69.148 230.075 45.7815 229.825 41.1642 225.187C36.5468 220.549 50.3708 188.084 52.8054 169.422C55.24 150.759 66.7973 120.738 66.7973 120.738L73.7933 109.158L69.148 130.125Z" fill="black"/>
<path d="M78.4946 102.298V111.574C78.4946 111.574 92.4865 111.574 92.4865 109.269V99.9929L78.4946 102.298Z" fill="#A0616A"/>
<path d="M69.148 102.298L66.8253 120.849V134.735C66.8253 134.735 69.148 231.935 71.4986 234.435C73.8493 236.934 87.8412 232.102 94.8371 227.464C101.833 222.826 87.8412 199.693 87.8412 199.693V174.171C87.8412 174.171 94.8371 134.763 97.1878 127.542C99.5384 120.322 92.5145 103.048 92.5145 103.048L85.5185 104.631L69.148 102.298Z" fill="#2F2E41"/>
<path d="M73.3737 54.9198C80.9312 54.9198 87.0578 48.8397 87.0578 41.3395C87.0578 33.8394 80.9312 27.7593 73.3737 27.7593C65.8161 27.7593 59.6896 33.8394 59.6896 41.3395C59.6896 48.8397 65.8161 54.9198 73.3737 54.9198Z" fill="#2F2E41"/>
<path d="M84.1753 37.035C89.5073 37.035 93.8297 32.7453 93.8297 27.4538C93.8297 22.1623 89.5073 17.8726 84.1753 17.8726C78.8433 17.8726 74.5209 22.1623 74.5209 27.4538C74.5209 32.7453 78.8433 37.035 84.1753 37.035Z" fill="#2F2E41"/>
<path d="M97.2158 27.4538C97.374 27.9424 97.4864 28.4444 97.5516 28.9535C97.7698 30.2007 97.7308 31.479 97.4369 32.7109C97.143 33.9427 96.6004 35.1027 95.8418 36.1204C95.0832 37.1382 94.1244 37.9926 93.0235 38.632C91.9225 39.2715 90.7023 39.6826 89.4367 39.8405C88.171 39.9985 86.8863 39.9 85.6601 39.5509C84.4339 39.2019 83.2918 38.6097 82.3029 37.81C81.314 37.0103 80.4989 36.0198 79.9069 34.8985C79.3148 33.7772 78.9581 32.5483 78.8584 31.2863C79.1732 32.2799 79.6455 33.2173 80.2576 34.0634C81.4794 35.7485 83.2326 36.9812 85.2397 37.5663C87.2469 38.1513 89.3933 38.0555 91.3393 37.2938C93.2853 36.5321 94.9199 35.1481 95.9842 33.3609C97.0485 31.5737 97.4819 29.4852 97.2158 27.426V27.4538Z" fill="#2F2E41"/>
<path d="M68.5605 46.7827C73.4752 46.7827 77.4593 43.6867 77.4593 39.8676C77.4593 36.0485 73.4752 32.9525 68.5605 32.9525C63.6458 32.9525 59.6616 36.0485 59.6616 39.8676C59.6616 43.6867 63.6458 46.7827 68.5605 46.7827Z" fill="#2F2E41"/>
<path d="M81.7966 44.6999C81.7966 51.3095 74.6328 56.6694 68.5603 56.6694C62.4878 56.6694 59.8013 51.3095 59.8013 44.6999C59.6647 41.6691 60.7464 38.7086 62.8087 36.4692C64.8711 34.2299 67.7451 32.895 70.799 32.7581C73.8528 32.895 76.7269 34.2299 78.7892 36.4692C80.8515 38.7086 81.9333 41.6691 81.7966 44.6999Z" fill="#D8A982"/>
<path d="M66.8253 53.6145L71.4986 69.8331C71.4986 69.8331 85.4905 60.5852 80.8452 58.2524C80.2223 57.9599 79.6654 57.5456 79.2076 57.0344C78.7499 56.5232 78.4009 55.9256 78.1814 55.2773C77.9619 54.629 77.8765 53.9435 77.9303 53.2617C77.9841 52.5799 78.176 51.9159 78.4946 51.3095L66.8253 53.6145Z" fill="#D8A982"/>
<path d="M69.1481 69.8331C66.8254 72.1659 67.1333 85.0796 67.1333 85.0796L71.4987 104.52C71.4987 104.52 80.8453 106.825 83.168 104.52C85.4906 102.215 92.5146 104.52 94.8372 104.52C97.1599 104.52 95.0331 103.881 95.0331 89.9674C95.0331 76.0539 85.5186 62.8902 83.168 58.3357C80.8173 53.7811 76.172 60.6685 76.172 60.6685C74.0303 63.869 71.6842 66.9302 69.1481 69.8331Z" fill="#42B6E9"/>
<path d="M78.4947 62.8902C73.8214 62.8902 78.4947 74.4709 78.4947 74.4709V97.6601L54.0369 100.271C54.0369 100.271 55.4081 108.991 55.4081 111.379C55.4081 113.768 80.8454 109.352 87.8413 107.019C94.8373 104.686 87.8413 69.9164 87.8413 69.9164C87.8413 69.9164 83.168 62.8902 78.4947 62.8902Z" fill="#42B6E9"/>
<path d="M82.815 39.7665C83.7858 36.7091 80.0797 32.8256 74.5373 31.0924C68.9948 29.3592 63.7148 30.4326 62.7441 33.49C61.7733 36.5474 65.4794 40.431 71.0218 42.1642C76.5643 43.8974 81.8443 42.8239 82.815 39.7665Z" fill="#2F2E41"/>
<path d="M76.3118 67.4725L60.6128 83.5245L50.3708 82.0803L49.979 93.8277L58.3741 96.0772C59.2641 96.3116 60.1974 96.3331 61.0973 96.14C61.9973 95.9469 62.8383 95.5446 63.5511 94.9663L81.4888 79.8864L76.3118 67.4725Z" fill="#42B6E9"/>
<path d="M57.6187 52.3093C61.8723 57.6136 65.7341 56.6694 71.1909 53.6145C70.0436 51.1706 72.2823 49.5877 73.5695 47.3382L56.9751 45.1165C56.5318 46.2865 56.3595 47.5405 56.4709 48.7857C56.5823 50.0308 56.9746 51.2351 57.6187 52.3093Z" fill="white"/>
<path d="M72.8979 48.0047L72.7579 47.7825L73.0937 47.5048H78.8584L79.0543 47.727H73.2337L72.8979 48.0047Z" fill="white"/>
<path d="M76.3958 51.004L76.6196 51.1984L71.1908 53.6145L70.9669 53.4479L76.3958 51.004Z" fill="white"/>
<path d="M131.776 146.677C132.615 142.594 129.145 138.929 125.731 136.512C122.317 134.096 118.316 131.736 117.168 127.764C115.517 121.988 120.582 116.795 124.528 112.296C127.468 108.96 129.995 105.286 132.056 101.354C132.94 99.803 133.546 98.1115 133.847 96.3549C133.975 93.8037 133.546 91.2551 132.587 88.8844C129.789 80.7195 126.991 72.6658 123.94 64.6398" stroke="#C1DEE2" stroke-width="1.74" stroke-miterlimit="10"/>
<path d="M133.063 61.335C132.535 59.8672 131.651 58.551 130.489 57.5025C129.321 56.4515 127.907 55.7069 126.375 55.3364L125.563 59.8909L124.164 55.0864C122.185 55.0936 120.26 55.7278 118.669 56.8968C117.078 58.0657 115.906 59.7082 115.321 61.585C114.705 63.4714 114.705 65.5027 115.321 67.3892C115.784 68.7901 116.577 70.0615 117.633 71.0977C118.69 72.134 119.98 72.9054 121.397 73.3479C122.815 73.7904 124.317 73.8913 125.782 73.6423C127.246 73.3933 128.629 72.8015 129.817 71.916C131.402 70.713 132.559 69.0397 133.119 67.1393C133.674 65.2456 133.625 63.2278 132.979 61.3628L133.063 61.335Z" fill="#977CB8"/>
<path d="M125.731 110.685C123.571 111.427 121.211 111.358 119.099 110.491C116.971 109.599 115.24 107.97 114.23 105.908C113.218 103.843 113.008 101.48 113.642 99.2709C114.231 97.0779 115.617 95.1786 117.532 93.9387L118.595 97.6324L119.407 93.0223C120.564 92.6145 121.792 92.4413 123.017 92.5129C124.243 92.5844 125.442 92.8993 126.543 93.4389C128.785 94.5296 130.505 96.4511 131.332 98.789C132.159 101.127 132.027 103.694 130.964 105.936C130.441 107.039 129.701 108.027 128.788 108.842C127.875 109.658 126.807 110.284 125.647 110.685H125.731Z" fill="#977CB8"/>
<path d="M143.081 89.7453C141.719 90.2269 140.261 90.3792 138.828 90.1896C137.383 90.0068 136.001 89.4925 134.792 88.6875C133.582 87.8824 132.578 86.8088 131.86 85.5518C131.132 84.2956 130.711 82.8881 130.628 81.4416C130.54 80.0024 130.787 78.5623 131.35 77.233C131.913 75.9037 132.777 74.721 133.875 73.7767C134.977 72.8335 136.292 72.1668 137.708 71.8327C139.116 71.4998 140.582 71.4998 141.99 71.8327L141.738 76.6649L144.033 72.5547C146.246 73.6096 147.954 75.4843 148.79 77.7758C149.079 78.591 149.258 79.4409 149.322 80.303C149.45 82.3516 148.91 84.3868 147.782 86.1072C146.662 87.8009 145.009 89.0799 143.081 89.7453Z" fill="#977CB8"/>
<path opacity="0.1" d="M132.587 64.0844C130.573 64.9453 128.754 66.1672 126.739 66.8615C125.752 67.3197 124.67 67.5409 123.581 67.5071C122.492 67.4733 121.427 67.1856 120.47 66.6671C119.574 65.9123 118.724 65.1055 117.924 64.251C117.125 63.5424 116.165 63.0372 115.126 62.7791C114.881 64.0669 114.91 65.3909 115.209 66.6671C115.528 67.9523 116.119 69.1549 116.945 70.1944C117.77 71.2338 118.81 72.0859 119.995 72.6935C121.175 73.2985 122.471 73.6485 123.797 73.7203C125.124 73.7921 126.451 73.5841 127.69 73.1101C128.921 72.6202 130.035 71.8826 130.964 70.9439C131.888 69.9935 132.594 68.8569 133.035 67.6114C133.489 66.3676 133.67 65.0421 133.567 63.7233L132.587 64.0844Z" fill="black"/>
<path opacity="0.1" d="M143.081 89.7452C141.562 90.2672 139.933 90.3915 138.352 90.1063C136.757 89.8309 135.267 89.1301 134.042 88.079C132.791 87.0519 131.827 85.7225 131.244 84.2187C130.664 82.706 130.481 81.0719 130.712 79.4698C131.573 79.7387 132.371 80.1727 133.063 80.7473C133.946 81.616 134.881 82.4321 135.861 83.1912C136.864 83.7273 137.976 84.0331 139.114 84.086C140.253 84.1389 141.388 83.9375 142.437 83.4967C144.564 82.7746 146.467 81.5249 148.566 80.7195L149.433 80.3862C149.527 82.4209 148.947 84.4301 147.782 86.1072C146.662 87.8009 145.009 89.0799 143.081 89.7452Z" fill="black"/>
<path opacity="0.1" d="M125.731 110.685C124.232 111.207 122.621 111.332 121.058 111.046C119.477 110.776 117.993 110.106 116.749 109.102C115.514 108.082 114.553 106.775 113.95 105.297C113.353 103.809 113.15 102.193 113.363 100.604C114.246 100.878 115.071 101.311 115.797 101.881C116.678 102.753 117.613 103.569 118.596 104.325C119.672 104.867 120.852 105.177 122.058 105.234C123.263 105.292 124.468 105.096 125.592 104.659C127.802 103.964 129.761 102.77 131.916 101.881C131.902 103.795 131.296 105.657 130.18 107.217C129.063 108.777 127.491 109.958 125.675 110.602L125.731 110.685Z" fill="black"/>
</g>
<path d="M0 20.6498C0.158092 17.5086 1.52775 14.5483 3.8252 12.382C6.12265 10.2157 9.17179 9.00958 12.3409 9.01349H13.4602C15.6516 5.29664 19.2359 2.59127 23.4303 1.48817C27.6248 0.385065 32.0887 0.973844 35.8473 3.12593C38.3791 4.54038 40.4924 6.58973 41.9757 9.06904H42.8992C46.0397 9.09269 49.053 10.3037 51.3251 12.4554C53.5973 14.6071 54.9573 17.5376 55.1281 20.6498" fill="#F2F2F2"/>
<path opacity="0.05" d="M2.57458 19.7055C2.73268 16.5644 4.10234 13.604 6.39979 11.4378C8.69724 9.27149 11.7464 8.06536 14.9154 8.06928H16.0348C18.2262 4.35242 21.8105 1.64706 26.0049 0.543955C30.1994 -0.559149 34.6633 0.0296302 38.4219 2.18172C40.8851 3.60377 42.9379 5.6314 44.3824 8.06928H45.3059C48.4749 8.06536 51.5241 9.27149 53.8215 11.4378C56.119 13.604 57.4886 16.5644 57.6467 19.7055" fill="black"/>
<path d="M105.023 42.7559C105.223 39.4575 106.684 36.3592 109.107 34.0934C111.531 31.8276 114.734 30.5653 118.064 30.5642H119.239C120.765 27.9588 122.954 25.7967 125.586 24.2938C128.218 22.7909 131.202 21.9999 134.238 21.9999C137.275 21.9999 140.259 22.7909 142.891 24.2938C145.523 25.7967 147.711 27.9588 149.238 30.5642H150.217C153.565 30.5669 156.784 31.8446 159.211 34.1338C161.637 36.4229 163.086 39.5489 163.258 42.867" fill="#F2F2F2"/>
<path opacity="0.05" d="M107.738 41.6728C107.91 38.3548 109.358 35.2288 111.785 32.9396C114.211 30.6505 117.43 29.3728 120.778 29.37H121.953C123.48 26.7647 125.668 24.6025 128.3 23.0996C130.933 21.5967 133.916 20.8057 136.953 20.8057C139.989 20.8057 142.973 21.5967 145.605 23.0996C148.237 24.6025 150.426 26.7647 151.952 29.37H152.96C156.307 29.3728 159.526 30.6505 161.953 32.9396C164.379 35.2288 165.828 38.3548 166 41.6728" fill="black"/>
<path d="M61.0888 102.131L38.7017 106.741H38.0581L18.2736 104.714V79.5809L42.4796 75.4985L60.0534 77.5258V77.7757L61.0888 102.131Z" fill="#C1DEE2"/>
<path opacity="0.1" d="M61.0888 102.131L38.7017 106.769H38.198V80.9695L60.0534 77.7758L61.0888 102.131Z" fill="black"/>
<path opacity="0.05" d="M60.0534 77.7757L38.0581 80.9695L18.2736 79.5809L42.4796 75.4985L60.0534 77.5258V77.7757Z" fill="black"/>
<path d="M52.1618 77.2481L29.7747 81.8859H29.2431L9.4585 79.8864V54.892L33.5805 50.6152L51.1264 52.6703L52.1618 77.2481Z" fill="#977CB8"/>
<path opacity="0.1" d="M52.1617 77.2481L29.7746 81.8859H29.2429V56.0862L51.1542 52.7814L52.1617 77.2481Z" fill="black"/>
</svg>
