<svg width="167" height="147" viewBox="0 0 167 147" fill="none" xmlns="http://www.w3.org/2000/svg">
<path d="M8.94649 122.723C8.94649 122.723 -4.24115 99.7762 2.2208 80.2585C8.68274 60.7408 19.6285 59.5539 26.0904 57.4439C32.5524 55.3338 36.7724 50.5863 46.5313 32.2555C56.2901 13.9246 78.9729 -10.6044 108.513 5.88019C138.053 22.3647 179.595 52.5644 162.451 104.524C148.076 148.175 94.5343 147.252 77.6541 145.801C74.0934 145.537 70.4009 145.405 66.8402 145.405C53.5207 145.537 21.8704 145.01 8.94649 122.723Z" fill="#42B6E9"/>
<path d="M132.119 11.0234H37.5637V70.7634H132.119V11.0234Z" fill="white"/>
<path d="M132.119 64.3013H37.5637V131.954H132.119V64.3013Z" fill="#F8F8F8"/>
<path d="M118.272 14.9793L93.8749 62.191L99.6774 62.8504L121.569 14.0562L118.272 14.9793Z" fill="#E6E6E6"/>
<path d="M70.6646 13.397L43.4981 60.2131V64.3013L77.6541 13.2651H70.6646V13.397Z" fill="#E6E6E6"/>
<path d="M87.413 12.8696H82.1379V65.4883H87.413V12.8696Z" fill="#3F3D56"/>
<path d="M132.119 12.8696H127.635V65.4883H132.119V12.8696Z" fill="#3F3D56"/>
<path d="M132.119 60.2129H37.5637V65.4879H132.119V60.2129Z" fill="#3F3D56"/>
<path d="M62.6202 14.0562L42.0475 48.6078V53.3553L66.9721 14.0562H62.6202Z" fill="white"/>
<path d="M42.0475 12.8696H37.5637V65.4883H42.0475V12.8696Z" fill="#3F3D56"/>
<path d="M132.119 10.2319H37.5637V15.507H132.119V10.2319Z" fill="#3F3D56"/>
<path fill-rule="evenodd" clip-rule="evenodd" d="M58.9276 127.602C58.9276 127.602 57.3451 131.294 58.6639 133.668C59.9826 136.042 60.5101 136.965 60.5101 136.965C60.5101 136.965 59.8508 137.888 58.9276 137.36C58.1364 136.701 57.2132 134.987 56.1582 134.987C55.1032 134.987 52.9932 135.91 49.96 137.624C46.9269 139.339 44.4212 138.02 44.1575 137.624C43.8937 137.229 43.1024 136.305 44.1575 135.514C45.2125 134.723 52.3338 130.107 52.7294 128.789C53.1251 127.47 53.2569 127.338 53.2569 127.338H58.9276V127.602Z" fill="#9E616A"/>
<path d="M75.4122 100.303L62.752 129.712H50.6194L56.422 106.765C56.8176 105.183 57.6088 103.6 58.532 102.281L71.1921 85.7968C71.5877 85.2693 73.3021 83.2912 74.0934 83.0274C75.544 81.7087 78.7091 81.1812 78.9728 81.1812L75.4122 100.303Z" fill="#9377B6"/>
<path fill-rule="evenodd" clip-rule="evenodd" d="M123.02 119.426L125.393 118.766C125.393 118.766 133.833 113.887 136.075 113.887C138.317 113.887 136.603 115.733 136.603 115.733C136.603 115.733 132.647 119.162 132.778 120.349C132.91 121.536 133.57 122.327 134.625 122.195C135.68 122.063 135.943 123.514 135.416 123.909C134.888 124.305 134.888 124.305 134.888 124.305L123.943 124.569L123.02 119.426Z" fill="#9E616A"/>
<path fill-rule="evenodd" clip-rule="evenodd" d="M99.5456 62.1908C99.5456 62.1908 103.37 73.4003 100.732 78.9391C98.0949 84.4779 90.578 79.9942 90.578 79.9942L91.2374 84.6098L82.9291 82.8954L84.6435 75.7741C84.6435 75.7741 77.786 71.5541 81.6104 63.5096C85.4348 55.4651 92.2924 56.652 100.205 59.1577C100.205 60.3446 99.5456 62.1908 99.5456 62.1908Z" fill="#9E616A"/>
<path fill-rule="evenodd" clip-rule="evenodd" d="M100.337 59.5536C100.337 59.5536 85.5666 51.9047 81.3466 63.6417C77.1265 75.3787 84.5116 76.3019 84.5116 76.3019L86.4897 73.7962C86.4897 73.7962 83.7203 68.5212 88.8635 68.3893C89.2591 74.06 90.1823 79.7307 90.1823 79.7307C90.1823 79.7307 92.8198 82.6319 96.7761 82.5001C100.732 82.3682 100.337 81.9726 100.337 80.7857C100.337 79.5988 100.469 79.5988 98.7542 79.4669C97.0398 79.4669 97.963 78.0163 99.1499 77.6206C100.205 77.0931 102.315 75.7744 101.919 74.7194C101.524 73.6644 98.8861 75.2469 98.8861 75.2469C98.8861 75.2469 96.7761 76.4338 94.7979 76.3019C92.8198 76.17 92.4242 74.1919 91.8967 72.3456C91.501 70.4993 90.7098 66.8068 90.7098 66.8068L91.2373 66.1474C92.8198 64.3011 95.0617 63.2461 97.5673 63.1142H97.8311C97.8311 63.2461 100.337 62.8505 100.337 59.5536Z" fill="#AEAFAE"/>
<path fill-rule="evenodd" clip-rule="evenodd" d="M90.446 82.6321C91.1054 82.764 91.6329 83.2915 91.6329 83.9509C92.0285 87.6434 93.4792 99.7761 96.6442 106.502C100.469 114.414 105.084 124.833 104.557 130.371C104.293 131.822 104.425 131.822 104.425 131.822H94.1386C94.1386 131.822 92.1604 106.634 88.9954 96.2154C85.8304 85.6653 84.9072 81.709 84.9072 81.709L90.446 82.6321Z" fill="#3F3D56"/>
<path fill-rule="evenodd" clip-rule="evenodd" d="M69.3458 131.822L93.3473 132.086C93.6111 132.086 93.8748 132.218 94.0067 132.218C94.4023 132.349 95.1936 132.086 94.4023 127.338C93.0836 118.898 90.7098 92.7865 86.0941 82.7639C85.8304 82.1045 85.171 81.577 84.3797 81.577L78.9728 81.1814C77.9178 81.0495 77.1265 81.7089 76.8628 82.632C71.4558 102.677 68.1589 114.282 67.3677 129.58C67.2358 130.899 68.1589 131.822 69.3458 131.822Z" fill="#9377B6"/>
<path fill-rule="evenodd" clip-rule="evenodd" d="M91.7648 84.6104C91.7648 84.6104 100.996 95.5561 110.755 111.381C114.975 118.107 120.909 116.129 124.866 114.678C126.316 114.151 127.899 115.338 127.503 116.92C126.712 120.349 126.185 123.514 125.921 125.228C125.789 126.02 125.261 126.811 124.338 126.943C120.25 128.13 108.249 131.295 103.634 127.47C101.655 121.008 99.4136 111.513 96.6442 106.502C92.9517 99.908 91.7648 84.6104 91.7648 84.6104Z" fill="#9377B6"/>
</svg>
