<svg width="100%" height="252" viewBox="0 0 258 252" fill="none" xmlns="http://www.w3.org/2000/svg">
<path d="M6.14672 145.822C4.89872 145.822 3.85872 145.614 3.02672 145.198C2.19472 144.782 1.50672 144.27 0.962719 143.662L2.28272 141.886C2.74672 142.35 3.27472 142.75 3.86672 143.086C4.45872 143.406 5.13872 143.566 5.90672 143.566C6.73872 143.566 7.41072 143.366 7.92272 142.966C8.45072 142.55 8.71472 141.982 8.71472 141.262C8.71472 140.862 8.64272 140.502 8.49872 140.182C8.35472 139.862 8.10672 139.59 7.75472 139.366C7.41872 139.142 6.96272 138.974 6.38672 138.862C5.81072 138.734 5.09072 138.67 4.22672 138.67V136.654C4.97872 136.654 5.60272 136.598 6.09872 136.486C6.61072 136.358 7.01872 136.19 7.32272 135.982C7.64272 135.758 7.86672 135.494 7.99472 135.19C8.13872 134.886 8.21072 134.558 8.21072 134.206C8.21072 133.566 8.01072 133.07 7.61072 132.718C7.21072 132.35 6.65872 132.166 5.95472 132.166C5.34672 132.166 4.79472 132.302 4.29872 132.574C3.81872 132.83 3.34672 133.174 2.88272 133.606L1.46672 131.902C2.12272 131.326 2.81872 130.862 3.55472 130.51C4.30672 130.158 5.13872 129.982 6.05072 129.982C6.78672 129.982 7.45872 130.07 8.06672 130.246C8.67472 130.422 9.19472 130.686 9.62672 131.038C10.0587 131.374 10.3947 131.798 10.6347 132.31C10.8747 132.806 10.9947 133.374 10.9947 134.014C10.9947 134.878 10.7547 135.598 10.2747 136.174C9.81072 136.75 9.16272 137.198 8.33072 137.518V137.614C9.24272 137.854 9.99472 138.294 10.5867 138.934C11.1947 139.574 11.4987 140.398 11.4987 141.406C11.4987 142.11 11.3547 142.734 11.0667 143.278C10.7947 143.822 10.4107 144.286 9.91472 144.67C9.43472 145.038 8.86672 145.326 8.21072 145.534C7.57072 145.726 6.88272 145.822 6.14672 145.822ZM16.0034 145.822C15.4914 145.822 15.0594 145.646 14.7074 145.294C14.3714 144.942 14.2034 144.494 14.2034 143.95C14.2034 143.406 14.3714 142.958 14.7074 142.606C15.0594 142.254 15.4914 142.078 16.0034 142.078C16.5154 142.078 16.9394 142.254 17.2754 142.606C17.6114 142.958 17.7794 143.406 17.7794 143.95C17.7794 144.494 17.6114 144.942 17.2754 145.294C16.9394 145.646 16.5154 145.822 16.0034 145.822ZM26.0975 145.534V129.838H31.4015C32.2175 129.838 32.9775 129.918 33.6815 130.078C34.3855 130.238 34.9935 130.502 35.5055 130.87C36.0175 131.222 36.4175 131.694 36.7055 132.286C37.0095 132.878 37.1615 133.614 37.1615 134.494C37.1615 135.694 36.8735 136.662 36.2975 137.398C35.7375 138.134 34.9855 138.662 34.0415 138.982L37.7855 145.534H34.6655L31.2815 139.39H28.8815V145.534H26.0975ZM28.8815 137.182H31.1135C32.1855 137.182 33.0015 136.958 33.5615 136.51C34.1375 136.062 34.4255 135.39 34.4255 134.494C34.4255 133.582 34.1375 132.95 33.5615 132.598C33.0015 132.246 32.1855 132.07 31.1135 132.07H28.8815V137.182ZM44.8662 145.822C44.0502 145.822 43.2902 145.686 42.5862 145.414C41.8822 145.126 41.2662 144.718 40.7382 144.19C40.2102 143.662 39.7942 143.022 39.4902 142.27C39.2022 141.502 39.0582 140.63 39.0582 139.654C39.0582 138.694 39.2102 137.83 39.5142 137.062C39.8182 136.294 40.2182 135.646 40.7142 135.118C41.2262 134.59 41.8102 134.182 42.4662 133.894C43.1222 133.606 43.7942 133.462 44.4822 133.462C45.2822 133.462 45.9862 133.598 46.5942 133.87C47.2022 134.142 47.7062 134.526 48.1062 135.022C48.5222 135.518 48.8342 136.11 49.0422 136.798C49.2502 137.486 49.3542 138.238 49.3542 139.054C49.3542 139.326 49.3382 139.582 49.3062 139.822C49.2902 140.062 49.2662 140.254 49.2342 140.398H41.7462C41.8742 141.454 42.2422 142.27 42.8502 142.846C43.4742 143.406 44.2662 143.686 45.2262 143.686C45.7382 143.686 46.2102 143.614 46.6422 143.47C47.0902 143.31 47.5302 143.094 47.9622 142.822L48.8982 144.55C48.3382 144.918 47.7142 145.222 47.0262 145.462C46.3382 145.702 45.6182 145.822 44.8662 145.822ZM41.7222 138.526H46.9542C46.9542 137.614 46.7542 136.902 46.3542 136.39C45.9702 135.862 45.3702 135.598 44.5542 135.598C43.8502 135.598 43.2342 135.846 42.7062 136.342C42.1782 136.838 41.8502 137.566 41.7222 138.526ZM51.9903 145.534V133.75H54.7503V145.534H51.9903ZM53.3823 131.686C52.8863 131.686 52.4783 131.542 52.1583 131.254C51.8383 130.966 51.6783 130.59 51.6783 130.126C51.6783 129.662 51.8383 129.286 52.1583 128.998C52.4783 128.694 52.8863 128.542 53.3823 128.542C53.8783 128.542 54.2863 128.694 54.6063 128.998C54.9263 129.286 55.0863 129.662 55.0863 130.126C55.0863 130.59 54.9263 130.966 54.6063 131.254C54.2863 131.542 53.8783 131.686 53.3823 131.686ZM58.2715 145.534V133.75H60.5515L60.7435 135.358H60.8395C61.3355 134.83 61.8715 134.382 62.4475 134.014C63.0395 133.646 63.7035 133.462 64.4395 133.462C65.3035 133.462 65.9915 133.646 66.5035 134.014C67.0315 134.382 67.4315 134.902 67.7035 135.574C68.2635 134.966 68.8475 134.462 69.4555 134.062C70.0635 133.662 70.7435 133.462 71.4955 133.462C72.7435 133.462 73.6635 133.87 74.2555 134.686C74.8475 135.486 75.1435 136.638 75.1435 138.142V145.534H72.3595V138.502C72.3595 137.526 72.2075 136.838 71.9035 136.438C71.6155 136.038 71.1675 135.838 70.5595 135.838C69.8235 135.838 68.9995 136.326 68.0875 137.302V145.534H65.3275V138.502C65.3275 137.526 65.1755 136.838 64.8715 136.438C64.5835 136.038 64.1275 135.838 63.5035 135.838C62.7675 135.838 61.9435 136.326 61.0315 137.302V145.534H58.2715ZM84.2101 145.822C83.6661 145.822 83.1141 145.694 82.5541 145.438C82.0101 145.166 81.4901 144.782 80.9941 144.286H80.9221L80.6821 145.534H78.4981V128.59H81.2581V132.958L81.1861 134.926C81.6821 134.494 82.2181 134.142 82.7941 133.87C83.3861 133.598 83.9861 133.462 84.5941 133.462C85.3301 133.462 85.9861 133.606 86.5621 133.894C87.1381 134.166 87.6261 134.566 88.0261 135.094C88.4261 135.606 88.7301 136.23 88.9381 136.966C89.1461 137.702 89.2501 138.526 89.2501 139.438C89.2501 140.446 89.1061 141.35 88.8181 142.15C88.5461 142.934 88.1781 143.598 87.7141 144.142C87.2501 144.686 86.7141 145.102 86.1061 145.39C85.4981 145.678 84.8661 145.822 84.2101 145.822ZM83.6341 143.542C84.4181 143.542 85.0741 143.206 85.6021 142.534C86.1301 141.846 86.3941 140.83 86.3941 139.486C86.3941 138.302 86.1941 137.382 85.7941 136.726C85.3941 136.07 84.7461 135.742 83.8501 135.742C83.0181 135.742 82.1541 136.182 81.2581 137.062V142.558C81.6741 142.926 82.0821 143.182 82.4821 143.326C82.8981 143.47 83.2821 143.542 83.6341 143.542ZM95.5255 145.822C94.2615 145.822 93.3415 145.422 92.7655 144.622C92.1895 143.806 91.9015 142.646 91.9015 141.142V133.75H94.6615V140.782C94.6615 141.758 94.8055 142.446 95.0935 142.846C95.3815 143.246 95.8455 143.446 96.4855 143.446C96.9975 143.446 97.4455 143.318 97.8295 143.062C98.2295 142.806 98.6535 142.39 99.1015 141.814V133.75H101.862V145.534H99.6055L99.3895 143.806H99.3175C98.8055 144.414 98.2455 144.902 97.6375 145.27C97.0455 145.638 96.3415 145.822 95.5255 145.822ZM105.357 145.534V133.75H107.637L107.829 135.838H107.925C108.341 135.07 108.845 134.486 109.437 134.086C110.029 133.67 110.637 133.462 111.261 133.462C111.821 133.462 112.269 133.542 112.605 133.702L112.125 136.102C111.917 136.038 111.725 135.99 111.549 135.958C111.373 135.926 111.157 135.91 110.901 135.91C110.437 135.91 109.949 136.094 109.437 136.462C108.925 136.814 108.485 137.438 108.117 138.334V145.534H105.357ZM117.458 145.822C116.642 145.822 115.834 145.67 115.034 145.366C114.25 145.046 113.57 144.654 112.994 144.19L114.29 142.414C114.818 142.83 115.338 143.158 115.85 143.398C116.378 143.622 116.946 143.734 117.554 143.734C118.194 143.734 118.666 143.606 118.97 143.35C119.274 143.078 119.426 142.734 119.426 142.318C119.426 142.078 119.354 141.87 119.21 141.694C119.066 141.502 118.874 141.334 118.634 141.19C118.394 141.046 118.122 140.918 117.818 140.806C117.514 140.678 117.21 140.55 116.906 140.422C116.522 140.278 116.13 140.11 115.73 139.918C115.33 139.726 114.97 139.494 114.65 139.222C114.346 138.95 114.09 138.638 113.882 138.286C113.69 137.918 113.594 137.486 113.594 136.99C113.594 135.95 113.978 135.102 114.746 134.446C115.514 133.79 116.562 133.462 117.89 133.462C118.706 133.462 119.442 133.606 120.098 133.894C120.754 134.182 121.322 134.51 121.802 134.878L120.53 136.558C120.114 136.254 119.69 136.014 119.258 135.838C118.842 135.646 118.402 135.55 117.938 135.55C117.346 135.55 116.906 135.678 116.618 135.934C116.346 136.174 116.21 136.478 116.21 136.846C116.21 137.086 116.274 137.294 116.402 137.47C116.546 137.63 116.73 137.774 116.954 137.902C117.178 138.03 117.434 138.15 117.722 138.262C118.026 138.374 118.338 138.486 118.658 138.598C119.058 138.742 119.458 138.91 119.858 139.102C120.258 139.278 120.618 139.502 120.938 139.774C121.274 140.046 121.538 140.382 121.73 140.782C121.938 141.166 122.042 141.63 122.042 142.174C122.042 142.686 121.938 143.166 121.73 143.614C121.538 144.046 121.25 144.43 120.866 144.766C120.482 145.086 120.002 145.342 119.426 145.534C118.85 145.726 118.194 145.822 117.458 145.822ZM129.546 145.822C128.73 145.822 127.97 145.686 127.266 145.414C126.562 145.126 125.946 144.718 125.418 144.19C124.89 143.662 124.474 143.022 124.17 142.27C123.882 141.502 123.738 140.63 123.738 139.654C123.738 138.694 123.89 137.83 124.194 137.062C124.498 136.294 124.898 135.646 125.394 135.118C125.906 134.59 126.49 134.182 127.146 133.894C127.802 133.606 128.474 133.462 129.162 133.462C129.962 133.462 130.666 133.598 131.274 133.87C131.882 134.142 132.386 134.526 132.786 135.022C133.202 135.518 133.514 136.11 133.722 136.798C133.93 137.486 134.034 138.238 134.034 139.054C134.034 139.326 134.018 139.582 133.986 139.822C133.97 140.062 133.946 140.254 133.914 140.398H126.426C126.554 141.454 126.922 142.27 127.53 142.846C128.154 143.406 128.946 143.686 129.906 143.686C130.418 143.686 130.89 143.614 131.322 143.47C131.77 143.31 132.21 143.094 132.642 142.822L133.578 144.55C133.018 144.918 132.394 145.222 131.706 145.462C131.018 145.702 130.298 145.822 129.546 145.822ZM126.402 138.526H131.634C131.634 137.614 131.434 136.902 131.034 136.39C130.65 135.862 130.05 135.598 129.234 135.598C128.53 135.598 127.914 135.846 127.386 136.342C126.858 136.838 126.53 137.566 126.402 138.526ZM144.331 145.822C143.291 145.822 142.451 145.51 141.811 144.886C141.171 144.246 140.851 143.406 140.851 142.366C140.851 141.742 140.979 141.19 141.235 140.71C141.507 140.214 141.923 139.79 142.483 139.438C143.059 139.086 143.779 138.79 144.643 138.55C145.523 138.31 146.571 138.126 147.787 137.998C147.771 137.694 147.723 137.406 147.643 137.134C147.579 136.846 147.459 136.598 147.283 136.39C147.123 136.166 146.907 135.998 146.635 135.886C146.363 135.758 146.027 135.694 145.627 135.694C145.051 135.694 144.483 135.806 143.923 136.03C143.379 136.254 142.843 136.526 142.315 136.846L141.307 134.998C141.963 134.582 142.699 134.222 143.515 133.918C144.331 133.614 145.211 133.462 146.155 133.462C147.627 133.462 148.723 133.902 149.443 134.782C150.179 135.646 150.547 136.902 150.547 138.55V145.534H148.267L148.075 144.238H147.979C147.451 144.686 146.883 145.062 146.275 145.366C145.683 145.67 145.035 145.822 144.331 145.822ZM145.219 143.662C145.699 143.662 146.131 143.55 146.515 143.326C146.915 143.102 147.339 142.782 147.787 142.366V139.726C146.987 139.822 146.315 139.95 145.771 140.11C145.227 140.27 144.787 140.454 144.451 140.662C144.115 140.854 143.875 141.078 143.731 141.334C143.587 141.59 143.515 141.862 143.515 142.15C143.515 142.678 143.675 143.062 143.995 143.302C144.315 143.542 144.723 143.662 145.219 143.662ZM153.85 145.534V133.75H156.13L156.322 135.334H156.418C156.946 134.822 157.514 134.382 158.122 134.014C158.746 133.646 159.466 133.462 160.282 133.462C161.546 133.462 162.466 133.87 163.042 134.686C163.618 135.486 163.906 136.638 163.906 138.142V145.534H161.146V138.502C161.146 137.526 161.002 136.838 160.714 136.438C160.426 136.038 159.954 135.838 159.298 135.838C158.786 135.838 158.33 135.966 157.93 136.222C157.546 136.462 157.106 136.822 156.61 137.302V145.534H153.85ZM171.407 145.822C169.919 145.822 168.735 145.286 167.855 144.214C166.991 143.126 166.559 141.606 166.559 139.654C166.559 138.694 166.695 137.83 166.967 137.062C167.255 136.294 167.631 135.646 168.095 135.118C168.559 134.59 169.087 134.182 169.679 133.894C170.287 133.606 170.911 133.462 171.551 133.462C172.223 133.462 172.791 133.582 173.255 133.822C173.719 134.046 174.183 134.358 174.647 134.758L174.551 132.862V128.59H177.311V145.534H175.031L174.839 144.262H174.743C174.311 144.694 173.807 145.062 173.231 145.366C172.655 145.67 172.047 145.822 171.407 145.822ZM172.079 143.542C172.959 143.542 173.783 143.102 174.551 142.222V136.726C174.135 136.358 173.727 136.102 173.327 135.958C172.943 135.814 172.551 135.742 172.151 135.742C171.383 135.742 170.735 136.078 170.207 136.75C169.679 137.422 169.415 138.382 169.415 139.63C169.415 140.91 169.639 141.886 170.087 142.558C170.551 143.214 171.215 143.542 172.079 143.542ZM185.631 145.534V133.75H187.911L188.103 135.838H188.199C188.615 135.07 189.119 134.486 189.711 134.086C190.303 133.67 190.911 133.462 191.535 133.462C192.095 133.462 192.543 133.542 192.879 133.702L192.399 136.102C192.191 136.038 191.999 135.99 191.823 135.958C191.647 135.926 191.431 135.91 191.175 135.91C190.711 135.91 190.223 136.094 189.711 136.462C189.199 136.814 188.759 137.438 188.391 138.334V145.534H185.631ZM199.39 145.822C198.574 145.822 197.814 145.686 197.11 145.414C196.406 145.126 195.79 144.718 195.262 144.19C194.734 143.662 194.318 143.022 194.014 142.27C193.726 141.502 193.582 140.63 193.582 139.654C193.582 138.694 193.734 137.83 194.038 137.062C194.342 136.294 194.742 135.646 195.238 135.118C195.75 134.59 196.334 134.182 196.99 133.894C197.646 133.606 198.318 133.462 199.006 133.462C199.806 133.462 200.51 133.598 201.118 133.87C201.726 134.142 202.23 134.526 202.63 135.022C203.046 135.518 203.358 136.11 203.566 136.798C203.774 137.486 203.878 138.238 203.878 139.054C203.878 139.326 203.862 139.582 203.83 139.822C203.814 140.062 203.79 140.254 203.758 140.398H196.27C196.398 141.454 196.766 142.27 197.374 142.846C197.998 143.406 198.79 143.686 199.75 143.686C200.262 143.686 200.734 143.614 201.166 143.47C201.614 143.31 202.054 143.094 202.486 142.822L203.422 144.55C202.862 144.918 202.238 145.222 201.55 145.462C200.862 145.702 200.142 145.822 199.39 145.822ZM196.246 138.526H201.478C201.478 137.614 201.278 136.902 200.878 136.39C200.494 135.862 199.894 135.598 199.078 135.598C198.374 135.598 197.758 135.846 197.23 136.342C196.702 136.838 196.374 137.566 196.246 138.526ZM211.434 145.822C210.634 145.822 209.882 145.686 209.178 145.414C208.49 145.142 207.89 144.742 207.378 144.214C206.866 143.686 206.466 143.038 206.178 142.27C205.89 141.502 205.746 140.63 205.746 139.654C205.746 138.678 205.906 137.806 206.226 137.038C206.546 136.27 206.978 135.622 207.522 135.094C208.066 134.566 208.69 134.166 209.394 133.894C210.114 133.606 210.866 133.462 211.65 133.462C212.418 133.462 213.074 133.59 213.618 133.846C214.178 134.102 214.674 134.414 215.106 134.782L213.762 136.582C213.442 136.31 213.122 136.102 212.802 135.958C212.498 135.798 212.162 135.718 211.794 135.718C210.834 135.718 210.058 136.078 209.466 136.798C208.874 137.502 208.578 138.454 208.578 139.654C208.578 140.838 208.866 141.79 209.442 142.51C210.034 143.214 210.794 143.566 211.722 143.566C212.186 143.566 212.618 143.47 213.018 143.278C213.434 143.07 213.81 142.83 214.146 142.558L215.274 144.382C214.714 144.862 214.098 145.222 213.426 145.462C212.77 145.702 212.106 145.822 211.434 145.822ZM222.054 145.822C221.238 145.822 220.478 145.686 219.774 145.414C219.07 145.126 218.454 144.718 217.926 144.19C217.398 143.662 216.982 143.022 216.678 142.27C216.39 141.502 216.246 140.63 216.246 139.654C216.246 138.694 216.398 137.83 216.702 137.062C217.006 136.294 217.406 135.646 217.902 135.118C218.414 134.59 218.998 134.182 219.654 133.894C220.31 133.606 220.982 133.462 221.67 133.462C222.47 133.462 223.174 133.598 223.782 133.87C224.39 134.142 224.894 134.526 225.294 135.022C225.71 135.518 226.022 136.11 226.23 136.798C226.438 137.486 226.542 138.238 226.542 139.054C226.542 139.326 226.526 139.582 226.494 139.822C226.478 140.062 226.454 140.254 226.422 140.398H218.934C219.062 141.454 219.43 142.27 220.038 142.846C220.662 143.406 221.454 143.686 222.414 143.686C222.926 143.686 223.398 143.614 223.83 143.47C224.278 143.31 224.718 143.094 225.15 142.822L226.086 144.55C225.526 144.918 224.902 145.222 224.214 145.462C223.526 145.702 222.806 145.822 222.054 145.822ZM218.91 138.526H224.142C224.142 137.614 223.942 136.902 223.542 136.39C223.158 135.862 222.558 135.598 221.742 135.598C221.038 135.598 220.422 135.846 219.894 136.342C219.366 136.838 219.038 137.566 218.91 138.526ZM229.178 145.534V133.75H231.938V145.534H229.178ZM230.57 131.686C230.074 131.686 229.666 131.542 229.346 131.254C229.026 130.966 228.866 130.59 228.866 130.126C228.866 129.662 229.026 129.286 229.346 128.998C229.666 128.694 230.074 128.542 230.57 128.542C231.066 128.542 231.474 128.694 231.794 128.998C232.114 129.286 232.274 129.662 232.274 130.126C232.274 130.59 232.114 130.966 231.794 131.254C231.474 131.542 231.066 131.686 230.57 131.686ZM238.099 145.534L233.995 133.75H236.803L238.675 139.87C238.835 140.446 238.995 141.03 239.155 141.622C239.331 142.214 239.499 142.814 239.659 143.422H239.755C239.931 142.814 240.099 142.214 240.259 141.622C240.419 141.03 240.587 140.446 240.763 139.87L242.635 133.75H245.299L241.291 145.534H238.099ZM252.241 145.822C251.425 145.822 250.665 145.686 249.961 145.414C249.257 145.126 248.641 144.718 248.113 144.19C247.585 143.662 247.169 143.022 246.865 142.27C246.577 141.502 246.433 140.63 246.433 139.654C246.433 138.694 246.585 137.83 246.889 137.062C247.193 136.294 247.593 135.646 248.089 135.118C248.601 134.59 249.185 134.182 249.841 133.894C250.497 133.606 251.169 133.462 251.857 133.462C252.657 133.462 253.361 133.598 253.969 133.87C254.577 134.142 255.081 134.526 255.481 135.022C255.897 135.518 256.209 136.11 256.417 136.798C256.625 137.486 256.729 138.238 256.729 139.054C256.729 139.326 256.713 139.582 256.681 139.822C256.665 140.062 256.641 140.254 256.609 140.398H249.121C249.249 141.454 249.617 142.27 250.225 142.846C250.849 143.406 251.641 143.686 252.601 143.686C253.113 143.686 253.585 143.614 254.017 143.47C254.465 143.31 254.905 143.094 255.337 142.822L256.273 144.55C255.713 144.918 255.089 145.222 254.401 145.462C253.713 145.702 252.993 145.822 252.241 145.822ZM249.097 138.526H254.329C254.329 137.614 254.129 136.902 253.729 136.39C253.345 135.862 252.745 135.598 251.929 135.598C251.225 135.598 250.609 135.846 250.081 136.342C249.553 136.838 249.225 137.566 249.097 138.526Z" fill="black"/>
<path d="M29.938 196.216C29.11 196.216 28.342 196.06 27.634 195.748C26.926 195.436 26.314 195.01 25.798 194.47L26.698 193.426C27.118 193.87 27.61 194.23 28.174 194.506C28.75 194.77 29.344 194.902 29.956 194.902C30.736 194.902 31.342 194.728 31.774 194.38C32.206 194.02 32.422 193.552 32.422 192.976C32.422 192.676 32.368 192.424 32.26 192.22C32.164 192.004 32.026 191.824 31.846 191.68C31.678 191.524 31.474 191.386 31.234 191.266C30.994 191.146 30.736 191.02 30.46 190.888L28.768 190.15C28.492 190.03 28.21 189.886 27.922 189.718C27.634 189.55 27.376 189.346 27.148 189.106C26.92 188.866 26.734 188.584 26.59 188.26C26.446 187.924 26.374 187.54 26.374 187.108C26.374 186.664 26.464 186.25 26.644 185.866C26.836 185.482 27.094 185.152 27.418 184.876C27.754 184.588 28.144 184.366 28.588 184.21C29.044 184.054 29.542 183.976 30.082 183.976C30.79 183.976 31.444 184.114 32.044 184.39C32.644 184.654 33.154 185.002 33.574 185.434L32.764 186.406C32.404 186.058 32.002 185.788 31.558 185.596C31.126 185.392 30.634 185.29 30.082 185.29C29.422 185.29 28.888 185.446 28.48 185.758C28.084 186.058 27.886 186.478 27.886 187.018C27.886 187.306 27.94 187.552 28.048 187.756C28.168 187.948 28.324 188.122 28.516 188.278C28.708 188.422 28.918 188.554 29.146 188.674C29.374 188.782 29.608 188.884 29.848 188.98L31.522 189.7C31.858 189.844 32.176 190.012 32.476 190.204C32.776 190.384 33.034 190.6 33.25 190.852C33.466 191.092 33.634 191.38 33.754 191.716C33.886 192.04 33.952 192.418 33.952 192.85C33.952 193.318 33.856 193.756 33.664 194.164C33.484 194.572 33.22 194.932 32.872 195.244C32.524 195.544 32.104 195.784 31.612 195.964C31.12 196.132 30.562 196.216 29.938 196.216ZM39.6792 196.216C39.0912 196.216 38.5392 196.114 38.0232 195.91C37.5192 195.694 37.0752 195.394 36.6912 195.01C36.3192 194.614 36.0252 194.134 35.8092 193.57C35.5932 193.006 35.4852 192.364 35.4852 191.644C35.4852 190.924 35.5932 190.282 35.8092 189.718C36.0372 189.142 36.3312 188.656 36.6912 188.26C37.0632 187.864 37.4832 187.564 37.9512 187.36C38.4192 187.144 38.9052 187.036 39.4092 187.036C39.9612 187.036 40.4532 187.132 40.8852 187.324C41.3292 187.516 41.6952 187.792 41.9832 188.152C42.2832 188.512 42.5112 188.944 42.6672 189.448C42.8232 189.952 42.9012 190.516 42.9012 191.14C42.9012 191.296 42.8952 191.452 42.8832 191.608C42.8832 191.752 42.8712 191.878 42.8472 191.986H36.9432C37.0032 192.922 37.2912 193.666 37.8072 194.218C38.3352 194.758 39.0192 195.028 39.8592 195.028C40.2792 195.028 40.6632 194.968 41.0112 194.848C41.3712 194.716 41.7132 194.548 42.0372 194.344L42.5592 195.316C42.1752 195.556 41.7492 195.766 41.2812 195.946C40.8132 196.126 40.2792 196.216 39.6792 196.216ZM36.9252 190.924H41.6052C41.6052 190.036 41.4132 189.364 41.0292 188.908C40.6572 188.44 40.1292 188.206 39.4452 188.206C39.1332 188.206 38.8332 188.266 38.5452 188.386C38.2692 188.506 38.0172 188.686 37.7892 188.926C37.5612 189.154 37.3692 189.436 37.2132 189.772C37.0692 190.108 36.9732 190.492 36.9252 190.924ZM48.5189 196.216C47.9429 196.216 47.4029 196.114 46.8989 195.91C46.3949 195.706 45.9569 195.412 45.5849 195.028C45.2249 194.632 44.9369 194.152 44.7209 193.588C44.5169 193.012 44.4149 192.364 44.4149 191.644C44.4149 190.912 44.5289 190.264 44.7569 189.7C44.9849 189.124 45.2909 188.638 45.6749 188.242C46.0589 187.846 46.5029 187.546 47.0069 187.342C47.5229 187.138 48.0629 187.036 48.6269 187.036C49.2029 187.036 49.6949 187.138 50.1029 187.342C50.5109 187.546 50.8709 187.786 51.1829 188.062L50.4269 189.034C50.1749 188.806 49.9049 188.62 49.6169 188.476C49.3409 188.332 49.0289 188.26 48.6809 188.26C48.2849 188.26 47.9189 188.344 47.5829 188.512C47.2469 188.668 46.9589 188.896 46.7189 189.196C46.4789 189.496 46.2869 189.856 46.1429 190.276C46.0109 190.684 45.9449 191.14 45.9449 191.644C45.9449 192.148 46.0109 192.604 46.1429 193.012C46.2749 193.42 46.4549 193.774 46.6829 194.074C46.9229 194.362 47.2109 194.59 47.5469 194.758C47.8829 194.914 48.2489 194.992 48.6449 194.992C49.0529 194.992 49.4249 194.908 49.7609 194.74C50.1089 194.56 50.4209 194.35 50.6969 194.11L51.3449 195.1C50.9489 195.448 50.5109 195.724 50.0309 195.928C49.5509 196.12 49.0469 196.216 48.5189 196.216ZM55.8279 196.216C54.8919 196.216 54.2079 195.928 53.7759 195.352C53.3559 194.776 53.1459 193.924 53.1459 192.796V187.252H54.6399V192.598C54.6399 193.426 54.7659 194.026 55.0179 194.398C55.2819 194.758 55.7019 194.938 56.2779 194.938C56.7339 194.938 57.1359 194.824 57.4839 194.596C57.8319 194.356 58.2159 193.978 58.6359 193.462V187.252H60.1119V196H58.8879L58.7619 194.632H58.7079C58.2999 195.112 57.8679 195.496 57.4119 195.784C56.9679 196.072 56.4399 196.216 55.8279 196.216ZM63.0629 196V187.252H64.2869L64.4129 188.836H64.4669C64.7669 188.284 65.1269 187.846 65.5469 187.522C65.9789 187.198 66.4469 187.036 66.9509 187.036C67.2989 187.036 67.6109 187.096 67.8869 187.216L67.5989 188.512C67.4549 188.464 67.3229 188.428 67.2029 188.404C67.0829 188.38 66.9329 188.368 66.7529 188.368C66.3809 188.368 65.9909 188.518 65.5829 188.818C65.1869 189.118 64.8389 189.64 64.5389 190.384V196H63.0629ZM72.6734 196.216C72.0854 196.216 71.5334 196.114 71.0174 195.91C70.5134 195.694 70.0694 195.394 69.6854 195.01C69.3134 194.614 69.0194 194.134 68.8034 193.57C68.5874 193.006 68.4794 192.364 68.4794 191.644C68.4794 190.924 68.5874 190.282 68.8034 189.718C69.0314 189.142 69.3254 188.656 69.6854 188.26C70.0574 187.864 70.4774 187.564 70.9454 187.36C71.4134 187.144 71.8994 187.036 72.4034 187.036C72.9554 187.036 73.4474 187.132 73.8794 187.324C74.3234 187.516 74.6894 187.792 74.9774 188.152C75.2774 188.512 75.5054 188.944 75.6614 189.448C75.8174 189.952 75.8954 190.516 75.8954 191.14C75.8954 191.296 75.8894 191.452 75.8774 191.608C75.8774 191.752 75.8654 191.878 75.8414 191.986H69.9374C69.9974 192.922 70.2854 193.666 70.8014 194.218C71.3294 194.758 72.0134 195.028 72.8534 195.028C73.2734 195.028 73.6574 194.968 74.0054 194.848C74.3654 194.716 74.7074 194.548 75.0314 194.344L75.5534 195.316C75.1694 195.556 74.7434 195.766 74.2754 195.946C73.8074 196.126 73.2734 196.216 72.6734 196.216ZM69.9194 190.924H74.5994C74.5994 190.036 74.4074 189.364 74.0234 188.908C73.6514 188.44 73.1234 188.206 72.4394 188.206C72.1274 188.206 71.8274 188.266 71.5394 188.386C71.2634 188.506 71.0114 188.686 70.7834 188.926C70.5554 189.154 70.3634 189.436 70.2074 189.772C70.0634 190.108 69.9674 190.492 69.9194 190.924ZM79.6231 196.216C79.0591 196.216 78.6571 196.048 78.4171 195.712C78.1771 195.376 78.0571 194.884 78.0571 194.236V183.184H79.5331V194.344C79.5331 194.584 79.5751 194.752 79.6591 194.848C79.7431 194.944 79.8391 194.992 79.9471 194.992C79.9951 194.992 80.0371 194.992 80.0731 194.992C80.1211 194.992 80.1871 194.98 80.2711 194.956L80.4691 196.072C80.3731 196.12 80.2591 196.156 80.1271 196.18C79.9951 196.204 79.8271 196.216 79.6231 196.216ZM82.7889 199.762C82.5849 199.762 82.3989 199.744 82.2309 199.708C82.0629 199.684 81.9069 199.642 81.7629 199.582L82.0509 198.412C82.1469 198.436 82.2549 198.46 82.3749 198.484C82.4949 198.52 82.6089 198.538 82.7169 198.538C83.2209 198.538 83.6289 198.358 83.9409 197.998C84.2649 197.65 84.5169 197.206 84.6969 196.666L84.8949 196.018L81.3849 187.252H82.9149L84.6969 192.094C84.8289 192.478 84.9669 192.886 85.1109 193.318C85.2669 193.738 85.4109 194.152 85.5429 194.56H85.6149C85.7469 194.164 85.8729 193.75 85.9929 193.318C86.1129 192.886 86.2329 192.478 86.3529 192.094L87.9189 187.252H89.3589L86.0649 196.72C85.9089 197.152 85.7349 197.554 85.5429 197.926C85.3509 198.298 85.1229 198.616 84.8589 198.88C84.5949 199.156 84.2949 199.372 83.9589 199.528C83.6229 199.684 83.2329 199.762 82.7889 199.762ZM94.6508 199.69V187.252H95.8748L96.0008 188.26H96.0548C96.4508 187.924 96.8828 187.636 97.3508 187.396C97.8308 187.156 98.3288 187.036 98.8448 187.036C99.4088 187.036 99.9068 187.144 100.339 187.36C100.771 187.564 101.131 187.864 101.419 188.26C101.707 188.644 101.923 189.112 102.067 189.664C102.223 190.204 102.301 190.816 102.301 191.5C102.301 192.244 102.199 192.91 101.995 193.498C101.791 194.074 101.515 194.566 101.167 194.974C100.819 195.382 100.417 195.694 99.9608 195.91C99.5048 196.114 99.0248 196.216 98.5208 196.216C98.1128 196.216 97.7048 196.126 97.2968 195.946C96.9008 195.766 96.4988 195.52 96.0908 195.208L96.1268 196.738V199.69H94.6508ZM98.2688 194.974C98.6288 194.974 98.9588 194.896 99.2588 194.74C99.5708 194.572 99.8348 194.344 100.051 194.056C100.279 193.756 100.453 193.39 100.573 192.958C100.705 192.526 100.771 192.04 100.771 191.5C100.771 191.02 100.729 190.582 100.645 190.186C100.561 189.79 100.423 189.454 100.231 189.178C100.051 188.89 99.8108 188.668 99.5108 188.512C99.2228 188.356 98.8748 188.278 98.4668 188.278C98.0948 188.278 97.7168 188.38 97.3328 188.584C96.9608 188.788 96.5588 189.082 96.1268 189.466V194.056C96.5228 194.392 96.9068 194.632 97.2788 194.776C97.6508 194.908 97.9808 194.974 98.2688 194.974ZM106.405 196.216C105.673 196.216 105.061 196 104.569 195.568C104.089 195.136 103.849 194.524 103.849 193.732C103.849 192.772 104.275 192.04 105.127 191.536C105.979 191.02 107.341 190.66 109.213 190.456C109.213 190.18 109.183 189.91 109.123 189.646C109.075 189.382 108.985 189.148 108.853 188.944C108.721 188.74 108.535 188.578 108.295 188.458C108.067 188.326 107.773 188.26 107.413 188.26C106.909 188.26 106.435 188.356 105.991 188.548C105.547 188.74 105.151 188.956 104.803 189.196L104.227 188.17C104.635 187.906 105.133 187.654 105.721 187.414C106.309 187.162 106.957 187.036 107.665 187.036C108.733 187.036 109.507 187.366 109.987 188.026C110.467 188.674 110.707 189.544 110.707 190.636V196H109.483L109.357 194.956H109.303C108.883 195.304 108.433 195.604 107.953 195.856C107.473 196.096 106.957 196.216 106.405 196.216ZM106.837 195.028C107.257 195.028 107.653 194.932 108.025 194.74C108.397 194.536 108.793 194.242 109.213 193.858V191.428C108.481 191.524 107.863 191.638 107.359 191.77C106.867 191.902 106.465 192.058 106.153 192.238C105.853 192.418 105.631 192.628 105.487 192.868C105.355 193.096 105.289 193.348 105.289 193.624C105.289 194.128 105.439 194.488 105.739 194.704C106.039 194.92 106.405 195.028 106.837 195.028ZM113.603 199.762C113.399 199.762 113.213 199.744 113.045 199.708C112.877 199.684 112.721 199.642 112.577 199.582L112.865 198.412C112.961 198.436 113.069 198.46 113.189 198.484C113.309 198.52 113.423 198.538 113.531 198.538C114.035 198.538 114.443 198.358 114.755 197.998C115.079 197.65 115.331 197.206 115.511 196.666L115.709 196.018L112.199 187.252H113.729L115.511 192.094C115.643 192.478 115.781 192.886 115.925 193.318C116.081 193.738 116.225 194.152 116.357 194.56H116.429C116.561 194.164 116.687 193.75 116.807 193.318C116.927 192.886 117.047 192.478 117.167 192.094L118.733 187.252H120.173L116.879 196.72C116.723 197.152 116.549 197.554 116.357 197.926C116.165 198.298 115.937 198.616 115.673 198.88C115.409 199.156 115.109 199.372 114.773 199.528C114.437 199.684 114.047 199.762 113.603 199.762ZM125.609 199.762C125.405 199.762 125.219 199.744 125.051 199.708C124.883 199.684 124.727 199.642 124.583 199.582L124.871 198.412C124.967 198.436 125.075 198.46 125.195 198.484C125.315 198.52 125.429 198.538 125.537 198.538C126.041 198.538 126.449 198.358 126.761 197.998C127.085 197.65 127.337 197.206 127.517 196.666L127.715 196.018L124.205 187.252H125.735L127.517 192.094C127.649 192.478 127.787 192.886 127.931 193.318C128.087 193.738 128.231 194.152 128.363 194.56H128.435C128.567 194.164 128.693 193.75 128.813 193.318C128.933 192.886 129.053 192.478 129.173 192.094L130.739 187.252H132.179L128.885 196.72C128.729 197.152 128.555 197.554 128.363 197.926C128.171 198.298 127.943 198.616 127.679 198.88C127.415 199.156 127.115 199.372 126.779 199.528C126.443 199.684 126.053 199.762 125.609 199.762ZM137.199 196.216C136.659 196.216 136.143 196.114 135.651 195.91C135.171 195.706 134.745 195.412 134.373 195.028C134.001 194.632 133.701 194.152 133.473 193.588C133.257 193.012 133.149 192.364 133.149 191.644C133.149 190.912 133.257 190.264 133.473 189.7C133.701 189.124 134.001 188.638 134.373 188.242C134.745 187.846 135.171 187.546 135.651 187.342C136.143 187.138 136.659 187.036 137.199 187.036C137.739 187.036 138.249 187.138 138.729 187.342C139.221 187.546 139.653 187.846 140.025 188.242C140.397 188.638 140.691 189.124 140.907 189.7C141.135 190.264 141.249 190.912 141.249 191.644C141.249 192.364 141.135 193.012 140.907 193.588C140.691 194.152 140.397 194.632 140.025 195.028C139.653 195.412 139.221 195.706 138.729 195.91C138.249 196.114 137.739 196.216 137.199 196.216ZM137.199 194.992C137.571 194.992 137.913 194.914 138.225 194.758C138.537 194.59 138.801 194.362 139.017 194.074C139.245 193.774 139.419 193.42 139.539 193.012C139.659 192.604 139.719 192.148 139.719 191.644C139.719 191.14 139.659 190.684 139.539 190.276C139.419 189.856 139.245 189.496 139.017 189.196C138.801 188.896 138.537 188.668 138.225 188.512C137.913 188.344 137.571 188.26 137.199 188.26C136.827 188.26 136.485 188.344 136.173 188.512C135.861 188.668 135.591 188.896 135.363 189.196C135.147 189.496 134.979 189.856 134.859 190.276C134.739 190.684 134.679 191.14 134.679 191.644C134.679 192.148 134.739 192.604 134.859 193.012C134.979 193.42 135.147 193.774 135.363 194.074C135.591 194.362 135.861 194.59 136.173 194.758C136.485 194.914 136.827 194.992 137.199 194.992ZM146.109 196.216C145.173 196.216 144.489 195.928 144.057 195.352C143.637 194.776 143.427 193.924 143.427 192.796V187.252H144.921V192.598C144.921 193.426 145.047 194.026 145.299 194.398C145.563 194.758 145.983 194.938 146.559 194.938C147.015 194.938 147.417 194.824 147.765 194.596C148.113 194.356 148.497 193.978 148.917 193.462V187.252H150.393V196H149.169L149.043 194.632H148.989C148.581 195.112 148.149 195.496 147.693 195.784C147.249 196.072 146.721 196.216 146.109 196.216ZM153.344 196V187.252H154.568L154.694 188.836H154.748C155.048 188.284 155.408 187.846 155.828 187.522C156.26 187.198 156.728 187.036 157.232 187.036C157.58 187.036 157.892 187.096 158.168 187.216L157.88 188.512C157.736 188.464 157.604 188.428 157.484 188.404C157.364 188.38 157.214 188.368 157.034 188.368C156.662 188.368 156.272 188.518 155.864 188.818C155.468 189.118 155.12 189.64 154.82 190.384V196H153.344ZM165.078 196L161.928 187.252H163.458L165.114 192.22C165.246 192.652 165.378 193.084 165.51 193.516C165.654 193.948 165.792 194.374 165.924 194.794H165.996C166.128 194.374 166.26 193.948 166.392 193.516C166.524 193.084 166.656 192.652 166.788 192.22L168.444 187.252H169.902L166.806 196H165.078ZM174.922 196.216C174.382 196.216 173.866 196.114 173.374 195.91C172.894 195.706 172.468 195.412 172.096 195.028C171.724 194.632 171.424 194.152 171.196 193.588C170.98 193.012 170.872 192.364 170.872 191.644C170.872 190.912 170.98 190.264 171.196 189.7C171.424 189.124 171.724 188.638 172.096 188.242C172.468 187.846 172.894 187.546 173.374 187.342C173.866 187.138 174.382 187.036 174.922 187.036C175.462 187.036 175.972 187.138 176.452 187.342C176.944 187.546 177.376 187.846 177.748 188.242C178.12 188.638 178.414 189.124 178.63 189.7C178.858 190.264 178.972 190.912 178.972 191.644C178.972 192.364 178.858 193.012 178.63 193.588C178.414 194.152 178.12 194.632 177.748 195.028C177.376 195.412 176.944 195.706 176.452 195.91C175.972 196.114 175.462 196.216 174.922 196.216ZM174.922 194.992C175.294 194.992 175.636 194.914 175.948 194.758C176.26 194.59 176.524 194.362 176.74 194.074C176.968 193.774 177.142 193.42 177.262 193.012C177.382 192.604 177.442 192.148 177.442 191.644C177.442 191.14 177.382 190.684 177.262 190.276C177.142 189.856 176.968 189.496 176.74 189.196C176.524 188.896 176.26 188.668 175.948 188.512C175.636 188.344 175.294 188.26 174.922 188.26C174.55 188.26 174.208 188.344 173.896 188.512C173.584 188.668 173.314 188.896 173.086 189.196C172.87 189.496 172.702 189.856 172.582 190.276C172.462 190.684 172.402 191.14 172.402 191.644C172.402 192.148 172.462 192.604 172.582 193.012C172.702 193.42 172.87 193.774 173.086 194.074C173.314 194.362 173.584 194.59 173.896 194.758C174.208 194.914 174.55 194.992 174.922 194.992ZM182.842 196.216C182.278 196.216 181.876 196.048 181.636 195.712C181.396 195.376 181.276 194.884 181.276 194.236V183.184H182.752V194.344C182.752 194.584 182.794 194.752 182.878 194.848C182.962 194.944 183.058 194.992 183.166 194.992C183.214 194.992 183.256 194.992 183.292 194.992C183.34 194.992 183.406 194.98 183.49 194.956L183.688 196.072C183.592 196.12 183.478 196.156 183.346 196.18C183.214 196.204 183.046 196.216 182.842 196.216ZM188.42 196.216C187.484 196.216 186.8 195.928 186.368 195.352C185.948 194.776 185.738 193.924 185.738 192.796V187.252H187.232V192.598C187.232 193.426 187.358 194.026 187.61 194.398C187.874 194.758 188.294 194.938 188.87 194.938C189.326 194.938 189.728 194.824 190.076 194.596C190.424 194.356 190.808 193.978 191.228 193.462V187.252H192.704V196H191.48L191.354 194.632H191.3C190.892 195.112 190.46 195.496 190.004 195.784C189.56 196.072 189.032 196.216 188.42 196.216ZM195.655 196V187.252H196.879L197.005 188.512H197.059C197.479 188.092 197.917 187.744 198.373 187.468C198.841 187.18 199.381 187.036 199.993 187.036C200.917 187.036 201.589 187.324 202.009 187.9C202.441 188.476 202.657 189.328 202.657 190.456V196H201.181V190.654C201.181 189.826 201.049 189.232 200.785 188.872C200.521 188.5 200.101 188.314 199.525 188.314C199.069 188.314 198.667 188.428 198.319 188.656C197.971 188.884 197.575 189.22 197.131 189.664V196H195.655ZM208.252 196.216C207.784 196.216 207.388 196.144 207.064 196C206.752 195.856 206.494 195.658 206.29 195.406C206.098 195.154 205.96 194.848 205.876 194.488C205.792 194.128 205.75 193.732 205.75 193.3V188.458H204.454V187.342L205.822 187.252L206.002 184.804H207.244V187.252H209.602V188.458H207.244V193.318C207.244 193.858 207.34 194.278 207.532 194.578C207.736 194.866 208.09 195.01 208.594 195.01C208.75 195.01 208.918 194.986 209.098 194.938C209.278 194.89 209.44 194.836 209.584 194.776L209.872 195.892C209.632 195.976 209.368 196.048 209.08 196.108C208.804 196.18 208.528 196.216 208.252 196.216ZM214.88 196.216C214.292 196.216 213.74 196.114 213.224 195.91C212.72 195.694 212.276 195.394 211.892 195.01C211.52 194.614 211.226 194.134 211.01 193.57C210.794 193.006 210.686 192.364 210.686 191.644C210.686 190.924 210.794 190.282 211.01 189.718C211.238 189.142 211.532 188.656 211.892 188.26C212.264 187.864 212.684 187.564 213.152 187.36C213.62 187.144 214.106 187.036 214.61 187.036C215.162 187.036 215.654 187.132 216.086 187.324C216.53 187.516 216.896 187.792 217.184 188.152C217.484 188.512 217.712 188.944 217.868 189.448C218.024 189.952 218.102 190.516 218.102 191.14C218.102 191.296 218.096 191.452 218.084 191.608C218.084 191.752 218.072 191.878 218.048 191.986H212.144C212.204 192.922 212.492 193.666 213.008 194.218C213.536 194.758 214.22 195.028 215.06 195.028C215.48 195.028 215.864 194.968 216.212 194.848C216.572 194.716 216.914 194.548 217.238 194.344L217.76 195.316C217.376 195.556 216.95 195.766 216.482 195.946C216.014 196.126 215.48 196.216 214.88 196.216ZM212.126 190.924H216.806C216.806 190.036 216.614 189.364 216.23 188.908C215.858 188.44 215.33 188.206 214.646 188.206C214.334 188.206 214.034 188.266 213.746 188.386C213.47 188.506 213.218 188.686 212.99 188.926C212.762 189.154 212.57 189.436 212.414 189.772C212.27 190.108 212.174 190.492 212.126 190.924ZM223.81 196.216C223.222 196.216 222.67 196.114 222.154 195.91C221.65 195.694 221.206 195.394 220.822 195.01C220.45 194.614 220.156 194.134 219.94 193.57C219.724 193.006 219.616 192.364 219.616 191.644C219.616 190.924 219.724 190.282 219.94 189.718C220.168 189.142 220.462 188.656 220.822 188.26C221.194 187.864 221.614 187.564 222.082 187.36C222.55 187.144 223.036 187.036 223.54 187.036C224.092 187.036 224.584 187.132 225.016 187.324C225.46 187.516 225.826 187.792 226.114 188.152C226.414 188.512 226.642 188.944 226.798 189.448C226.954 189.952 227.032 190.516 227.032 191.14C227.032 191.296 227.026 191.452 227.014 191.608C227.014 191.752 227.002 191.878 226.978 191.986H221.074C221.134 192.922 221.422 193.666 221.938 194.218C222.466 194.758 223.15 195.028 223.99 195.028C224.41 195.028 224.794 194.968 225.142 194.848C225.502 194.716 225.844 194.548 226.168 194.344L226.69 195.316C226.306 195.556 225.88 195.766 225.412 195.946C224.944 196.126 224.41 196.216 223.81 196.216ZM221.056 190.924H225.736C225.736 190.036 225.544 189.364 225.16 188.908C224.788 188.44 224.26 188.206 223.576 188.206C223.264 188.206 222.964 188.266 222.676 188.386C222.4 188.506 222.148 188.686 221.92 188.926C221.692 189.154 221.5 189.436 221.344 189.772C221.2 190.108 221.104 190.492 221.056 190.924ZM229.194 196V187.252H230.418L230.544 188.836H230.598C230.898 188.284 231.258 187.846 231.678 187.522C232.11 187.198 232.578 187.036 233.082 187.036C233.43 187.036 233.742 187.096 234.018 187.216L233.73 188.512C233.586 188.464 233.454 188.428 233.334 188.404C233.214 188.38 233.064 188.368 232.884 188.368C232.512 188.368 232.122 188.518 231.714 188.818C231.318 189.118 230.97 189.64 230.67 190.384V196H229.194ZM47.6704 221V213.458H46.4824V212.342L47.6704 212.252V210.866C47.6704 209.966 47.8744 209.258 48.2824 208.742C48.7024 208.226 49.3504 207.968 50.2264 207.968C50.5024 207.968 50.7604 207.998 51.0004 208.058C51.2524 208.106 51.4804 208.172 51.6844 208.256L51.3604 209.39C51.0364 209.246 50.7064 209.174 50.3704 209.174C49.5544 209.174 49.1464 209.738 49.1464 210.866V212.252H51.0004V213.458H49.1464V221H47.6704ZM55.9005 221.216C55.3605 221.216 54.8445 221.114 54.3525 220.91C53.8725 220.706 53.4465 220.412 53.0745 220.028C52.7025 219.632 52.4025 219.152 52.1745 218.588C51.9585 218.012 51.8505 217.364 51.8505 216.644C51.8505 215.912 51.9585 215.264 52.1745 214.7C52.4025 214.124 52.7025 213.638 53.0745 213.242C53.4465 212.846 53.8725 212.546 54.3525 212.342C54.8445 212.138 55.3605 212.036 55.9005 212.036C56.4405 212.036 56.9505 212.138 57.4305 212.342C57.9225 212.546 58.3545 212.846 58.7265 213.242C59.0985 213.638 59.3925 214.124 59.6085 214.7C59.8365 215.264 59.9505 215.912 59.9505 216.644C59.9505 217.364 59.8365 218.012 59.6085 218.588C59.3925 219.152 59.0985 219.632 58.7265 220.028C58.3545 220.412 57.9225 220.706 57.4305 220.91C56.9505 221.114 56.4405 221.216 55.9005 221.216ZM55.9005 219.992C56.2725 219.992 56.6145 219.914 56.9265 219.758C57.2385 219.59 57.5025 219.362 57.7185 219.074C57.9465 218.774 58.1205 218.42 58.2405 218.012C58.3605 217.604 58.4205 217.148 58.4205 216.644C58.4205 216.14 58.3605 215.684 58.2405 215.276C58.1205 214.856 57.9465 214.496 57.7185 214.196C57.5025 213.896 57.2385 213.668 56.9265 213.512C56.6145 213.344 56.2725 213.26 55.9005 213.26C55.5285 213.26 55.1865 213.344 54.8745 213.512C54.5625 213.668 54.2925 213.896 54.0645 214.196C53.8485 214.496 53.6805 214.856 53.5605 215.276C53.4405 215.684 53.3805 216.14 53.3805 216.644C53.3805 217.148 53.4405 217.604 53.5605 218.012C53.6805 218.42 53.8485 218.774 54.0645 219.074C54.2925 219.362 54.5625 219.59 54.8745 219.758C55.1865 219.914 55.5285 219.992 55.9005 219.992ZM62.2543 221V212.252H63.4783L63.6043 213.836H63.6583C63.9583 213.284 64.3183 212.846 64.7383 212.522C65.1703 212.198 65.6383 212.036 66.1423 212.036C66.4903 212.036 66.8023 212.096 67.0783 212.216L66.7903 213.512C66.6463 213.464 66.5143 213.428 66.3943 213.404C66.2743 213.38 66.1243 213.368 65.9443 213.368C65.5723 213.368 65.1823 213.518 64.7743 213.818C64.3783 214.118 64.0303 214.64 63.7303 215.384V221H62.2543ZM74.8521 221.216C74.3841 221.216 73.9881 221.144 73.6641 221C73.3521 220.856 73.0941 220.658 72.8901 220.406C72.6981 220.154 72.5601 219.848 72.4761 219.488C72.3921 219.128 72.3501 218.732 72.3501 218.3V213.458H71.0541V212.342L72.4221 212.252L72.6021 209.804H73.8441V212.252H76.2021V213.458H73.8441V218.318C73.8441 218.858 73.9401 219.278 74.1321 219.578C74.3361 219.866 74.6901 220.01 75.1941 220.01C75.3501 220.01 75.5181 219.986 75.6981 219.938C75.8781 219.89 76.0401 219.836 76.1841 219.776L76.4721 220.892C76.2321 220.976 75.9681 221.048 75.6801 221.108C75.4041 221.18 75.1281 221.216 74.8521 221.216ZM78.1801 221V208.184H79.6561V211.676L79.6021 213.476C80.0221 213.08 80.4601 212.744 80.9161 212.468C81.3721 212.18 81.9061 212.036 82.5181 212.036C83.4421 212.036 84.1141 212.324 84.5341 212.9C84.9661 213.476 85.1821 214.328 85.1821 215.456V221H83.7061V215.654C83.7061 214.826 83.5741 214.232 83.3101 213.872C83.0461 213.5 82.6261 213.314 82.0501 213.314C81.5941 213.314 81.1921 213.428 80.8441 213.656C80.4961 213.884 80.1001 214.22 79.6561 214.664V221H78.1801ZM91.5171 221.216C90.9291 221.216 90.3771 221.114 89.8611 220.91C89.3571 220.694 88.9131 220.394 88.5291 220.01C88.1571 219.614 87.8631 219.134 87.6471 218.57C87.4311 218.006 87.3231 217.364 87.3231 216.644C87.3231 215.924 87.4311 215.282 87.6471 214.718C87.8751 214.142 88.1691 213.656 88.5291 213.26C88.9011 212.864 89.3211 212.564 89.7891 212.36C90.2571 212.144 90.7431 212.036 91.2471 212.036C91.7991 212.036 92.2911 212.132 92.7231 212.324C93.1671 212.516 93.5331 212.792 93.8211 213.152C94.1211 213.512 94.3491 213.944 94.5051 214.448C94.6611 214.952 94.7391 215.516 94.7391 216.14C94.7391 216.296 94.7331 216.452 94.7211 216.608C94.7211 216.752 94.7091 216.878 94.6851 216.986H88.7811C88.8411 217.922 89.1291 218.666 89.6451 219.218C90.1731 219.758 90.8571 220.028 91.6971 220.028C92.1171 220.028 92.5011 219.968 92.8491 219.848C93.2091 219.716 93.5511 219.548 93.8751 219.344L94.3971 220.316C94.0131 220.556 93.5871 220.766 93.1191 220.946C92.6511 221.126 92.1171 221.216 91.5171 221.216ZM88.7631 215.924H93.4431C93.4431 215.036 93.2511 214.364 92.8671 213.908C92.4951 213.44 91.9671 213.206 91.2831 213.206C90.9711 213.206 90.6711 213.266 90.3831 213.386C90.1071 213.506 89.8551 213.686 89.6271 213.926C89.3991 214.154 89.2071 214.436 89.0511 214.772C88.9071 215.108 88.8111 215.492 88.7631 215.924ZM102.52 221.216C101.788 221.216 101.176 221 100.684 220.568C100.204 220.136 99.9643 219.524 99.9643 218.732C99.9643 217.772 100.39 217.04 101.242 216.536C102.094 216.02 103.456 215.66 105.328 215.456C105.328 215.18 105.298 214.91 105.238 214.646C105.19 214.382 105.1 214.148 104.968 213.944C104.836 213.74 104.65 213.578 104.41 213.458C104.182 213.326 103.888 213.26 103.528 213.26C103.024 213.26 102.55 213.356 102.106 213.548C101.662 213.74 101.266 213.956 100.918 214.196L100.342 213.17C100.75 212.906 101.248 212.654 101.836 212.414C102.424 212.162 103.072 212.036 103.78 212.036C104.848 212.036 105.622 212.366 106.102 213.026C106.582 213.674 106.822 214.544 106.822 215.636V221H105.598L105.472 219.956H105.418C104.998 220.304 104.548 220.604 104.068 220.856C103.588 221.096 103.072 221.216 102.52 221.216ZM102.952 220.028C103.372 220.028 103.768 219.932 104.14 219.74C104.512 219.536 104.908 219.242 105.328 218.858V216.428C104.596 216.524 103.978 216.638 103.474 216.77C102.982 216.902 102.58 217.058 102.268 217.238C101.968 217.418 101.746 217.628 101.602 217.868C101.47 218.096 101.404 218.348 101.404 218.624C101.404 219.128 101.554 219.488 101.854 219.704C102.154 219.92 102.52 220.028 102.952 220.028ZM111.861 221.216C111.237 221.216 110.643 221.102 110.079 220.874C109.515 220.646 109.023 220.358 108.603 220.01L109.341 219.02C109.725 219.332 110.115 219.584 110.511 219.776C110.919 219.968 111.387 220.064 111.915 220.064C112.491 220.064 112.923 219.932 113.211 219.668C113.499 219.404 113.643 219.08 113.643 218.696C113.643 218.468 113.583 218.27 113.463 218.102C113.343 217.934 113.187 217.79 112.995 217.67C112.815 217.538 112.605 217.424 112.365 217.328C112.125 217.232 111.885 217.136 111.645 217.04C111.333 216.932 111.021 216.812 110.709 216.68C110.397 216.536 110.115 216.368 109.863 216.176C109.623 215.972 109.425 215.738 109.269 215.474C109.113 215.21 109.035 214.892 109.035 214.52C109.035 214.172 109.101 213.848 109.233 213.548C109.377 213.236 109.575 212.972 109.827 212.756C110.091 212.528 110.409 212.354 110.781 212.234C111.153 212.102 111.573 212.036 112.041 212.036C112.593 212.036 113.097 212.132 113.553 212.324C114.021 212.516 114.423 212.75 114.759 213.026L114.057 213.962C113.757 213.734 113.445 213.548 113.121 213.404C112.797 213.26 112.443 213.188 112.059 213.188C111.507 213.188 111.099 213.314 110.835 213.566C110.583 213.818 110.457 214.112 110.457 214.448C110.457 214.652 110.511 214.832 110.619 214.988C110.727 215.132 110.871 215.264 111.051 215.384C111.231 215.492 111.435 215.594 111.663 215.69C111.903 215.774 112.149 215.864 112.401 215.96C112.713 216.08 113.025 216.206 113.337 216.338C113.661 216.47 113.949 216.638 114.201 216.842C114.453 217.034 114.657 217.274 114.813 217.562C114.981 217.85 115.065 218.198 115.065 218.606C115.065 218.966 114.993 219.302 114.849 219.614C114.717 219.926 114.513 220.202 114.237 220.442C113.973 220.682 113.637 220.868 113.229 221C112.833 221.144 112.377 221.216 111.861 221.216ZM119.402 221.216C118.778 221.216 118.184 221.102 117.62 220.874C117.056 220.646 116.564 220.358 116.144 220.01L116.882 219.02C117.266 219.332 117.656 219.584 118.052 219.776C118.46 219.968 118.928 220.064 119.456 220.064C120.032 220.064 120.464 219.932 120.752 219.668C121.04 219.404 121.184 219.08 121.184 218.696C121.184 218.468 121.124 218.27 121.004 218.102C120.884 217.934 120.728 217.79 120.536 217.67C120.356 217.538 120.146 217.424 119.906 217.328C119.666 217.232 119.426 217.136 119.186 217.04C118.874 216.932 118.562 216.812 118.25 216.68C117.938 216.536 117.656 216.368 117.404 216.176C117.164 215.972 116.966 215.738 116.81 215.474C116.654 215.21 116.576 214.892 116.576 214.52C116.576 214.172 116.642 213.848 116.774 213.548C116.918 213.236 117.116 212.972 117.368 212.756C117.632 212.528 117.95 212.354 118.322 212.234C118.694 212.102 119.114 212.036 119.582 212.036C120.134 212.036 120.638 212.132 121.094 212.324C121.562 212.516 121.964 212.75 122.3 213.026L121.598 213.962C121.298 213.734 120.986 213.548 120.662 213.404C120.338 213.26 119.984 213.188 119.6 213.188C119.048 213.188 118.64 213.314 118.376 213.566C118.124 213.818 117.998 214.112 117.998 214.448C117.998 214.652 118.052 214.832 118.16 214.988C118.268 215.132 118.412 215.264 118.592 215.384C118.772 215.492 118.976 215.594 119.204 215.69C119.444 215.774 119.69 215.864 119.942 215.96C120.254 216.08 120.566 216.206 120.878 216.338C121.202 216.47 121.49 216.638 121.742 216.842C121.994 217.034 122.198 217.274 122.354 217.562C122.522 217.85 122.606 218.198 122.606 218.606C122.606 218.966 122.534 219.302 122.39 219.614C122.258 219.926 122.054 220.202 121.778 220.442C121.514 220.682 121.178 220.868 120.77 221C120.374 221.144 119.918 221.216 119.402 221.216ZM124.657 221V212.252H126.133V221H124.657ZM125.413 210.452C125.125 210.452 124.879 210.362 124.675 210.182C124.483 210.002 124.387 209.774 124.387 209.498C124.387 209.21 124.483 208.982 124.675 208.814C124.879 208.634 125.125 208.544 125.413 208.544C125.701 208.544 125.941 208.634 126.133 208.814C126.337 208.982 126.439 209.21 126.439 209.498C126.439 209.774 126.337 210.002 126.133 210.182C125.941 210.362 125.701 210.452 125.413 210.452ZM131.372 221.216C130.748 221.216 130.154 221.102 129.59 220.874C129.026 220.646 128.534 220.358 128.114 220.01L128.852 219.02C129.236 219.332 129.626 219.584 130.022 219.776C130.43 219.968 130.898 220.064 131.426 220.064C132.002 220.064 132.434 219.932 132.722 219.668C133.01 219.404 133.154 219.08 133.154 218.696C133.154 218.468 133.094 218.27 132.974 218.102C132.854 217.934 132.698 217.79 132.506 217.67C132.326 217.538 132.116 217.424 131.876 217.328C131.636 217.232 131.396 217.136 131.156 217.04C130.844 216.932 130.532 216.812 130.22 216.68C129.908 216.536 129.626 216.368 129.374 216.176C129.134 215.972 128.936 215.738 128.78 215.474C128.624 215.21 128.546 214.892 128.546 214.52C128.546 214.172 128.612 213.848 128.744 213.548C128.888 213.236 129.086 212.972 129.338 212.756C129.602 212.528 129.92 212.354 130.292 212.234C130.664 212.102 131.084 212.036 131.552 212.036C132.104 212.036 132.608 212.132 133.064 212.324C133.532 212.516 133.934 212.75 134.27 213.026L133.568 213.962C133.268 213.734 132.956 213.548 132.632 213.404C132.308 213.26 131.954 213.188 131.57 213.188C131.018 213.188 130.61 213.314 130.346 213.566C130.094 213.818 129.968 214.112 129.968 214.448C129.968 214.652 130.022 214.832 130.13 214.988C130.238 215.132 130.382 215.264 130.562 215.384C130.742 215.492 130.946 215.594 131.174 215.69C131.414 215.774 131.66 215.864 131.912 215.96C132.224 216.08 132.536 216.206 132.848 216.338C133.172 216.47 133.46 216.638 133.712 216.842C133.964 217.034 134.168 217.274 134.324 217.562C134.492 217.85 134.576 218.198 134.576 218.606C134.576 218.966 134.504 219.302 134.36 219.614C134.228 219.926 134.024 220.202 133.748 220.442C133.484 220.682 133.148 220.868 132.74 221C132.344 221.144 131.888 221.216 131.372 221.216ZM139.03 221.216C138.562 221.216 138.166 221.144 137.842 221C137.53 220.856 137.272 220.658 137.068 220.406C136.876 220.154 136.738 219.848 136.654 219.488C136.57 219.128 136.528 218.732 136.528 218.3V213.458H135.232V212.342L136.6 212.252L136.78 209.804H138.022V212.252H140.38V213.458H138.022V218.318C138.022 218.858 138.118 219.278 138.31 219.578C138.514 219.866 138.868 220.01 139.372 220.01C139.528 220.01 139.696 219.986 139.876 219.938C140.056 219.89 140.218 219.836 140.362 219.776L140.65 220.892C140.41 220.976 140.146 221.048 139.858 221.108C139.582 221.18 139.306 221.216 139.03 221.216ZM143.987 221.216C143.255 221.216 142.643 221 142.151 220.568C141.671 220.136 141.431 219.524 141.431 218.732C141.431 217.772 141.857 217.04 142.709 216.536C143.561 216.02 144.923 215.66 146.795 215.456C146.795 215.18 146.765 214.91 146.705 214.646C146.657 214.382 146.567 214.148 146.435 213.944C146.303 213.74 146.117 213.578 145.877 213.458C145.649 213.326 145.355 213.26 144.995 213.26C144.491 213.26 144.017 213.356 143.573 213.548C143.129 213.74 142.733 213.956 142.385 214.196L141.809 213.17C142.217 212.906 142.715 212.654 143.303 212.414C143.891 212.162 144.539 212.036 145.247 212.036C146.315 212.036 147.089 212.366 147.569 213.026C148.049 213.674 148.289 214.544 148.289 215.636V221H147.065L146.939 219.956H146.885C146.465 220.304 146.015 220.604 145.535 220.856C145.055 221.096 144.539 221.216 143.987 221.216ZM144.419 220.028C144.839 220.028 145.235 219.932 145.607 219.74C145.979 219.536 146.375 219.242 146.795 218.858V216.428C146.063 216.524 145.445 216.638 144.941 216.77C144.449 216.902 144.047 217.058 143.735 217.238C143.435 217.418 143.213 217.628 143.069 217.868C142.937 218.096 142.871 218.348 142.871 218.624C142.871 219.128 143.021 219.488 143.321 219.704C143.621 219.92 143.987 220.028 144.419 220.028ZM151.041 221V212.252H152.265L152.391 213.512H152.445C152.865 213.092 153.303 212.744 153.759 212.468C154.227 212.18 154.767 212.036 155.379 212.036C156.303 212.036 156.975 212.324 157.395 212.9C157.827 213.476 158.043 214.328 158.043 215.456V221H156.567V215.654C156.567 214.826 156.435 214.232 156.171 213.872C155.907 213.5 155.487 213.314 154.911 213.314C154.455 213.314 154.053 213.428 153.705 213.656C153.357 213.884 152.961 214.22 152.517 214.664V221H151.041ZM164.341 221.216C163.765 221.216 163.225 221.114 162.721 220.91C162.217 220.706 161.779 220.412 161.407 220.028C161.047 219.632 160.759 219.152 160.543 218.588C160.339 218.012 160.237 217.364 160.237 216.644C160.237 215.912 160.351 215.264 160.579 214.7C160.807 214.124 161.113 213.638 161.497 213.242C161.881 212.846 162.325 212.546 162.829 212.342C163.345 212.138 163.885 212.036 164.449 212.036C165.025 212.036 165.517 212.138 165.925 212.342C166.333 212.546 166.693 212.786 167.005 213.062L166.249 214.034C165.997 213.806 165.727 213.62 165.439 213.476C165.163 213.332 164.851 213.26 164.503 213.26C164.107 213.26 163.741 213.344 163.405 213.512C163.069 213.668 162.781 213.896 162.541 214.196C162.301 214.496 162.109 214.856 161.965 215.276C161.833 215.684 161.767 216.14 161.767 216.644C161.767 217.148 161.833 217.604 161.965 218.012C162.097 218.42 162.277 218.774 162.505 219.074C162.745 219.362 163.033 219.59 163.369 219.758C163.705 219.914 164.071 219.992 164.467 219.992C164.875 219.992 165.247 219.908 165.583 219.74C165.931 219.56 166.243 219.35 166.519 219.11L167.167 220.1C166.771 220.448 166.333 220.724 165.853 220.928C165.373 221.12 164.869 221.216 164.341 221.216ZM172.253 221.216C171.665 221.216 171.113 221.114 170.597 220.91C170.093 220.694 169.649 220.394 169.265 220.01C168.893 219.614 168.599 219.134 168.383 218.57C168.167 218.006 168.059 217.364 168.059 216.644C168.059 215.924 168.167 215.282 168.383 214.718C168.611 214.142 168.905 213.656 169.265 213.26C169.637 212.864 170.057 212.564 170.525 212.36C170.993 212.144 171.479 212.036 171.983 212.036C172.535 212.036 173.027 212.132 173.459 212.324C173.903 212.516 174.269 212.792 174.557 213.152C174.857 213.512 175.085 213.944 175.241 214.448C175.397 214.952 175.475 215.516 175.475 216.14C175.475 216.296 175.469 216.452 175.457 216.608C175.457 216.752 175.445 216.878 175.421 216.986H169.517C169.577 217.922 169.865 218.666 170.381 219.218C170.909 219.758 171.593 220.028 172.433 220.028C172.853 220.028 173.237 219.968 173.585 219.848C173.945 219.716 174.287 219.548 174.611 219.344L175.133 220.316C174.749 220.556 174.323 220.766 173.855 220.946C173.387 221.126 172.853 221.216 172.253 221.216ZM169.499 215.924H174.179C174.179 215.036 173.987 214.364 173.603 213.908C173.231 213.44 172.703 213.206 172.019 213.206C171.707 213.206 171.407 213.266 171.119 213.386C170.843 213.506 170.591 213.686 170.363 213.926C170.135 214.154 169.943 214.436 169.787 214.772C169.643 215.108 169.547 215.492 169.499 215.924ZM183.995 221.216C183.527 221.216 183.131 221.144 182.807 221C182.495 220.856 182.237 220.658 182.033 220.406C181.841 220.154 181.703 219.848 181.619 219.488C181.535 219.128 181.493 218.732 181.493 218.3V213.458H180.197V212.342L181.565 212.252L181.745 209.804H182.987V212.252H185.345V213.458H182.987V218.318C182.987 218.858 183.083 219.278 183.275 219.578C183.479 219.866 183.833 220.01 184.337 220.01C184.493 220.01 184.661 219.986 184.841 219.938C185.021 219.89 185.183 219.836 185.327 219.776L185.615 220.892C185.375 220.976 185.111 221.048 184.823 221.108C184.547 221.18 184.271 221.216 183.995 221.216ZM187.323 221V208.184H188.799V211.676L188.745 213.476C189.165 213.08 189.603 212.744 190.059 212.468C190.515 212.18 191.049 212.036 191.661 212.036C192.585 212.036 193.257 212.324 193.677 212.9C194.109 213.476 194.325 214.328 194.325 215.456V221H192.849V215.654C192.849 214.826 192.717 214.232 192.453 213.872C192.189 213.5 191.769 213.314 191.193 213.314C190.737 213.314 190.335 213.428 189.987 213.656C189.639 213.884 189.243 214.22 188.799 214.664V221H187.323ZM200.66 221.216C200.072 221.216 199.52 221.114 199.004 220.91C198.5 220.694 198.056 220.394 197.672 220.01C197.3 219.614 197.006 219.134 196.79 218.57C196.574 218.006 196.466 217.364 196.466 216.644C196.466 215.924 196.574 215.282 196.79 214.718C197.018 214.142 197.312 213.656 197.672 213.26C198.044 212.864 198.464 212.564 198.932 212.36C199.4 212.144 199.886 212.036 200.39 212.036C200.942 212.036 201.434 212.132 201.866 212.324C202.31 212.516 202.676 212.792 202.964 213.152C203.264 213.512 203.492 213.944 203.648 214.448C203.804 214.952 203.882 215.516 203.882 216.14C203.882 216.296 203.876 216.452 203.864 216.608C203.864 216.752 203.852 216.878 203.828 216.986H197.924C197.984 217.922 198.272 218.666 198.788 219.218C199.316 219.758 200 220.028 200.84 220.028C201.26 220.028 201.644 219.968 201.992 219.848C202.352 219.716 202.694 219.548 203.018 219.344L203.54 220.316C203.156 220.556 202.73 220.766 202.262 220.946C201.794 221.126 201.26 221.216 200.66 221.216ZM197.906 215.924H202.586C202.586 215.036 202.394 214.364 202.01 213.908C201.638 213.44 201.11 213.206 200.426 213.206C200.114 213.206 199.814 213.266 199.526 213.386C199.25 213.506 198.998 213.686 198.77 213.926C198.542 214.154 198.35 214.436 198.194 214.772C198.05 215.108 197.954 215.492 197.906 215.924ZM206.275 224.762C206.071 224.762 205.885 224.744 205.717 224.708C205.549 224.684 205.393 224.642 205.249 224.582L205.537 223.412C205.633 223.436 205.741 223.46 205.861 223.484C205.981 223.52 206.095 223.538 206.203 223.538C206.707 223.538 207.115 223.358 207.427 222.998C207.751 222.65 208.003 222.206 208.183 221.666L208.381 221.018L204.871 212.252H206.401L208.183 217.094C208.315 217.478 208.453 217.886 208.597 218.318C208.753 218.738 208.897 219.152 209.029 219.56H209.101C209.233 219.164 209.359 218.75 209.479 218.318C209.599 217.886 209.719 217.478 209.839 217.094L211.405 212.252H212.845L209.551 221.72C209.395 222.152 209.221 222.554 209.029 222.926C208.837 223.298 208.609 223.616 208.345 223.88C208.081 224.156 207.781 224.372 207.445 224.528C207.109 224.684 206.719 224.762 206.275 224.762ZM99.9946 249.69V237.252H101.219L101.345 238.26H101.399C101.795 237.924 102.227 237.636 102.695 237.396C103.175 237.156 103.673 237.036 104.189 237.036C104.753 237.036 105.251 237.144 105.683 237.36C106.115 237.564 106.475 237.864 106.763 238.26C107.051 238.644 107.267 239.112 107.411 239.664C107.567 240.204 107.645 240.816 107.645 241.5C107.645 242.244 107.543 242.91 107.339 243.498C107.135 244.074 106.859 244.566 106.511 244.974C106.163 245.382 105.761 245.694 105.305 245.91C104.849 246.114 104.369 246.216 103.865 246.216C103.457 246.216 103.049 246.126 102.641 245.946C102.245 245.766 101.843 245.52 101.435 245.208L101.471 246.738V249.69H99.9946ZM103.613 244.974C103.973 244.974 104.303 244.896 104.603 244.74C104.915 244.572 105.179 244.344 105.395 244.056C105.623 243.756 105.797 243.39 105.917 242.958C106.049 242.526 106.115 242.04 106.115 241.5C106.115 241.02 106.073 240.582 105.989 240.186C105.905 239.79 105.767 239.454 105.575 239.178C105.395 238.89 105.155 238.668 104.855 238.512C104.567 238.356 104.219 238.278 103.811 238.278C103.439 238.278 103.061 238.38 102.677 238.584C102.305 238.788 101.903 239.082 101.471 239.466V244.056C101.867 244.392 102.251 244.632 102.623 244.776C102.995 244.908 103.325 244.974 103.613 244.974ZM109.979 246V237.252H111.203L111.329 238.836H111.383C111.683 238.284 112.043 237.846 112.463 237.522C112.895 237.198 113.363 237.036 113.867 237.036C114.215 237.036 114.527 237.096 114.803 237.216L114.515 238.512C114.371 238.464 114.239 238.428 114.119 238.404C113.999 238.38 113.849 238.368 113.669 238.368C113.297 238.368 112.907 238.518 112.499 238.818C112.103 239.118 111.755 239.64 111.455 240.384V246H109.979ZM119.445 246.216C118.905 246.216 118.389 246.114 117.897 245.91C117.417 245.706 116.991 245.412 116.619 245.028C116.247 244.632 115.947 244.152 115.719 243.588C115.503 243.012 115.395 242.364 115.395 241.644C115.395 240.912 115.503 240.264 115.719 239.7C115.947 239.124 116.247 238.638 116.619 238.242C116.991 237.846 117.417 237.546 117.897 237.342C118.389 237.138 118.905 237.036 119.445 237.036C119.985 237.036 120.495 237.138 120.975 237.342C121.467 237.546 121.899 237.846 122.271 238.242C122.643 238.638 122.937 239.124 123.153 239.7C123.381 240.264 123.495 240.912 123.495 241.644C123.495 242.364 123.381 243.012 123.153 243.588C122.937 244.152 122.643 244.632 122.271 245.028C121.899 245.412 121.467 245.706 120.975 245.91C120.495 246.114 119.985 246.216 119.445 246.216ZM119.445 244.992C119.817 244.992 120.159 244.914 120.471 244.758C120.783 244.59 121.047 244.362 121.263 244.074C121.491 243.774 121.665 243.42 121.785 243.012C121.905 242.604 121.965 242.148 121.965 241.644C121.965 241.14 121.905 240.684 121.785 240.276C121.665 239.856 121.491 239.496 121.263 239.196C121.047 238.896 120.783 238.668 120.471 238.512C120.159 238.344 119.817 238.26 119.445 238.26C119.073 238.26 118.731 238.344 118.419 238.512C118.107 238.668 117.837 238.896 117.609 239.196C117.393 239.496 117.225 239.856 117.105 240.276C116.985 240.684 116.925 241.14 116.925 241.644C116.925 242.148 116.985 242.604 117.105 243.012C117.225 243.42 117.393 243.774 117.609 244.074C117.837 244.362 118.107 244.59 118.419 244.758C118.731 244.914 119.073 244.992 119.445 244.992ZM127.619 246L124.469 237.252H125.999L127.655 242.22C127.787 242.652 127.919 243.084 128.051 243.516C128.195 243.948 128.333 244.374 128.465 244.794H128.537C128.669 244.374 128.801 243.948 128.933 243.516C129.065 243.084 129.197 242.652 129.329 242.22L130.985 237.252H132.443L129.347 246H127.619ZM134.131 246V237.252H135.607V246H134.131ZM134.887 235.452C134.599 235.452 134.353 235.362 134.149 235.182C133.957 235.002 133.861 234.774 133.861 234.498C133.861 234.21 133.957 233.982 134.149 233.814C134.353 233.634 134.599 233.544 134.887 233.544C135.175 233.544 135.415 233.634 135.607 233.814C135.811 233.982 135.913 234.21 135.913 234.498C135.913 234.774 135.811 235.002 135.607 235.182C135.415 235.362 135.175 235.452 134.887 235.452ZM141.549 246.216C140.445 246.216 139.563 245.82 138.903 245.028C138.255 244.236 137.931 243.108 137.931 241.644C137.931 240.936 138.033 240.3 138.237 239.736C138.453 239.16 138.735 238.674 139.083 238.278C139.431 237.882 139.833 237.576 140.289 237.36C140.745 237.144 141.225 237.036 141.729 237.036C142.233 237.036 142.671 237.126 143.043 237.306C143.415 237.486 143.793 237.732 144.177 238.044L144.105 236.55V233.184H145.599V246H144.375L144.249 244.974H144.195C143.847 245.31 143.445 245.604 142.989 245.856C142.545 246.096 142.065 246.216 141.549 246.216ZM141.873 244.974C142.281 244.974 142.665 244.878 143.025 244.686C143.385 244.482 143.745 244.176 144.105 243.768V239.196C143.733 238.86 143.373 238.626 143.025 238.494C142.689 238.35 142.341 238.278 141.981 238.278C141.633 238.278 141.303 238.362 140.991 238.53C140.691 238.686 140.427 238.914 140.199 239.214C139.971 239.502 139.791 239.85 139.659 240.258C139.527 240.666 139.461 241.122 139.461 241.626C139.461 242.682 139.671 243.504 140.091 244.092C140.511 244.68 141.105 244.974 141.873 244.974ZM152.091 246.216C151.503 246.216 150.951 246.114 150.435 245.91C149.931 245.694 149.487 245.394 149.103 245.01C148.731 244.614 148.437 244.134 148.221 243.57C148.005 243.006 147.897 242.364 147.897 241.644C147.897 240.924 148.005 240.282 148.221 239.718C148.449 239.142 148.743 238.656 149.103 238.26C149.475 237.864 149.895 237.564 150.363 237.36C150.831 237.144 151.317 237.036 151.821 237.036C152.373 237.036 152.865 237.132 153.297 237.324C153.741 237.516 154.107 237.792 154.395 238.152C154.695 238.512 154.923 238.944 155.079 239.448C155.235 239.952 155.313 240.516 155.313 241.14C155.313 241.296 155.307 241.452 155.295 241.608C155.295 241.752 155.283 241.878 155.259 241.986H149.355C149.415 242.922 149.703 243.666 150.219 244.218C150.747 244.758 151.431 245.028 152.271 245.028C152.691 245.028 153.075 244.968 153.423 244.848C153.783 244.716 154.125 244.548 154.449 244.344L154.971 245.316C154.587 245.556 154.161 245.766 153.693 245.946C153.225 246.126 152.691 246.216 152.091 246.216ZM149.337 240.924H154.017C154.017 240.036 153.825 239.364 153.441 238.908C153.069 238.44 152.541 238.206 151.857 238.206C151.545 238.206 151.245 238.266 150.957 238.386C150.681 238.506 150.429 238.686 150.201 238.926C149.973 239.154 149.781 239.436 149.625 239.772C149.481 240.108 149.385 240.492 149.337 240.924ZM158.249 246.216C157.949 246.216 157.691 246.114 157.475 245.91C157.271 245.694 157.169 245.424 157.169 245.1C157.169 244.752 157.271 244.476 157.475 244.272C157.691 244.056 157.949 243.948 158.249 243.948C158.537 243.948 158.783 244.056 158.987 244.272C159.203 244.476 159.311 244.752 159.311 245.1C159.311 245.424 159.203 245.694 158.987 245.91C158.783 246.114 158.537 246.216 158.249 246.216Z" fill="black"/>
<path d="M191.267 108.069V108.611C191.266 108.686 191.262 108.761 191.252 108.836C191.18 109.377 190.846 109.874 190.323 110.219C189.799 110.564 189.128 110.728 188.454 110.677C183.189 110.273 177.947 109.524 172.664 109.655C162.924 109.895 153.103 113.102 143.675 111.12C141.016 110.561 138.386 109.59 135.651 109.799C133.196 109.986 131.012 111.098 128.634 111.629C121.402 113.218 114.04 109.179 106.542 109.347C101.6 109.455 96.8686 111.393 91.9326 111.178C89.0718 111.054 86.3469 110.212 83.5561 109.693C76.6093 108.401 69.4527 109.123 62.2935 109.571C61.8278 109.6 61.3655 109.489 60.9961 109.259C60.6268 109.029 60.3769 108.696 60.2949 108.326C60.2758 108.239 60.2664 108.152 60.2666 108.064V107.6C60.2666 107.198 60.465 106.813 60.8181 106.528C61.1712 106.244 61.6502 106.084 62.1496 106.084L93.8653 106.063L158.667 106.019L188.698 106C189.379 106 190.033 106.218 190.514 106.606C190.996 106.995 191.267 107.521 191.267 108.069Z" fill="#42B6E9"/>
<path d="M130.197 33.7911H101.676V57.762H130.197V33.7911Z" fill="#8D72AD"/>
<path d="M113.937 49.5604H108.434V57.0488H113.937V49.5604Z" fill="#BEDBF3"/>
<path d="M165.877 85.8149C165.877 85.8149 162.173 96.3625 163.759 100.213L158.991 104.324L156.08 100.724C156.08 100.724 159.252 97.6363 158.991 95.3202C158.73 93.0042 158.459 84.7727 158.459 84.7727L165.877 85.8149Z" fill="#F5B5B5"/>
<path d="M148.13 106.407C148.343 106.533 148.537 106.658 148.72 106.764H164.639C164.785 106.677 164.901 106.542 164.978 106.378C165.055 106.214 165.075 106.04 165.055 105.867C164.978 105.471 164.794 104.66 164.552 103.724C163.991 101.524 163.179 98.6388 162.995 98.9476C162.744 99.4301 162.231 101.572 160.955 101.302C159.668 101.032 157.618 100.501 157.618 100.501C157.618 100.501 158.353 98.7835 157.647 98.0887C157.492 97.944 157.309 97.8475 157.105 97.8185C155.568 97.5483 155.568 99.9609 155.568 99.9609L149.929 103.174C149.446 103.319 148.972 103.493 148.508 103.715C147.357 104.294 146.225 105.249 148.13 106.407Z" fill="#CACDD8"/>
<path d="M175.829 81.5212L182.773 89.4728L184.64 93.5741L182.232 95.369L180.094 94.597C180.094 94.597 178.228 89.9843 176.352 89.2123C174.485 88.4403 169.939 83.3161 169.939 83.3161L175.829 81.5212Z" fill="#F5B5B5"/>
<path d="M166.37 75.8659L170.925 85.9213L173.614 90.534C174.204 90.9297 174.823 90.7656 175.423 90.3024C175.693 90.0805 175.954 89.8199 176.196 89.5111C177.686 87.6872 178.856 84.4931 178.856 84.4931L173.363 77.2845L171.564 74.9298L172.695 70.7513L170.084 75.7211L168.227 78.1047L166.37 75.8659Z" fill="#2E2D40"/>
<path d="M177.028 20.5898L179.746 31.7163L176.951 45.9888C176.951 45.9888 176.883 51.8271 174.32 51.3832C171.757 50.9393 174.446 45.0527 174.446 45.0527L175.703 33.3472L171.689 21.7864C171.535 21.3135 171.564 20.8021 171.747 20.3485C171.931 19.8853 172.279 19.5089 172.715 19.2773C174.301 18.3027 176.554 18.9878 177.028 20.5898Z" fill="#F5B5B5"/>
<path d="M167.512 11.0466L169.775 18.0043L174.04 15.7655C174.04 15.7655 172.28 10.7957 172.28 10.043C172.28 9.30958 167.512 11.0466 167.512 11.0466Z" fill="#F5B5B5"/>
<path d="M169.137 13.9408C165.984 13.9408 163.421 11.3931 163.421 8.23756C163.421 5.08199 165.974 2.53436 169.137 2.53436C172.29 2.53436 174.852 5.08199 174.852 8.23756C174.852 11.3931 172.299 13.9408 169.137 13.9408Z" fill="#F5B5B5"/>
<path d="M167.221 19.4512L168.304 18.4186L168.575 17.1255C168.575 17.1255 172.096 12.7251 175.074 14.2787C176.003 14.7612 176.699 15.8806 177.212 17.1931C178.517 20.6092 178.392 24.3824 176.873 27.7213L172.096 38.3846L161.254 37.3521L163.149 30.6163C163.149 30.6163 161.254 26.4668 164.774 23.62L167.221 19.4512Z" fill="#45ACDB"/>
<path d="M161.293 37.2066C161.293 37.2066 164.881 32.4298 167.367 38.4032L167.231 40.1981C167.231 40.1981 169.301 45.2741 168.063 56.0146C166.825 66.7552 164.891 94.8079 164.891 94.8079C164.891 94.8079 160.336 95.4063 158.266 92.1252C158.266 92.1252 158.953 55.1268 161.303 51.537V37.2066H161.293Z" fill="#2E2D40"/>
<path d="M161.265 37.1977C161.265 37.1977 167.87 33.0096 172.445 38.2399L172.193 39.8129C172.193 39.8129 176.004 44.2616 173.721 53.68C171.439 63.0985 173.615 90.5434 173.615 90.5434C173.615 90.5434 165.878 85.8052 161.265 49.7525V37.1977Z" fill="#2E2D40"/>
<path d="M176.051 22.4997L168.778 31.5129L155.625 38.0074C155.625 38.0074 150.905 41.5297 149.697 39.1944C148.497 36.8591 154.851 35.4115 154.851 35.4115L165.006 29.2451L171.844 18.9195C172.134 18.5046 172.55 18.2151 173.034 18.08C173.517 17.9449 174.03 17.9931 174.484 18.2054C176.235 18.8906 177.047 21.1391 176.051 22.4997Z" fill="#F5B5B5"/>
<path d="M180.897 94.4315C180.897 94.4315 179.311 92.4436 178.363 93.6981C177.415 94.9527 179.475 96.0238 179.475 96.0238L179.591 102.489C179.591 102.489 178.469 107.43 181.506 105.519C184.543 103.609 184.669 103.377 185.259 102.238C185.858 101.09 187.087 96.4967 188.16 95.0202C189.224 93.5341 190.201 90.5522 188.934 90.1855C187.667 89.8188 181.767 88.5064 182.067 88.9406C182.357 89.3749 183.953 90.7838 183.131 91.8164C182.309 92.8489 180.897 94.4315 180.897 94.4315Z" fill="#CACDD8"/>
<path d="M170.771 1.72363H168.15C166.902 1.72363 165.693 2.23509 164.813 3.15185C163.923 4.0686 163.43 5.31347 163.43 6.60658H170.771V1.72363Z" fill="#2E2D40"/>
<path d="M175.114 31.6488C175.114 31.6488 174.891 39.2241 174.446 41.5787C174.001 43.9333 174.853 43.364 175.114 43.364C175.375 43.364 177.038 44.5992 177.59 44.8404C178.141 45.0913 180.549 31.4751 180.123 30.7996C179.688 30.124 178.276 22.6066 177.406 22.6066C176.535 22.6163 175.114 31.6488 175.114 31.6488Z" fill="#45ACDB"/>
<path opacity="0.2" d="M178.034 23.5427C178.034 23.5427 176.893 29.024 175.113 31.6584L175.045 34.6307C175.045 34.6307 179.175 28.3002 178.972 26.6211L178.034 23.5427Z" fill="#304B73"/>
<path d="M170.771 18.0131C170.771 18.0131 165.365 29.0335 163.962 29.8827C162.55 30.7415 154.658 35.4894 154.446 35.3929C154.233 35.2964 152.946 35.9526 153.856 37.2746C154.765 38.5967 153.333 40.353 155.645 39.4652C157.956 38.5677 169.572 32.2855 169.688 31.7065C169.804 31.1179 177.589 23.7935 177.096 21.6029C176.603 19.4123 176.138 17.6946 174.63 17.077C173.121 16.4594 170.771 18.0131 170.771 18.0131Z" fill="#45ACDB"/>
<path opacity="0.2" d="M177.009 21.2173C177.009 21.2173 177.328 23.1763 175.665 24.7203C174.001 26.2643 169.349 33.1449 163.614 35.3933" stroke="#162141" stroke-width="0.25" stroke-miterlimit="10"/>
<path d="M167.096 1.07734C167.096 1.07734 165.249 3.39336 169.136 7.46569C173.024 11.538 173.314 9.99402 172.376 13.4294C171.438 16.8552 170.964 19.4511 171.68 21.0144C172.396 22.5874 175.51 24.4884 174.03 25.9939C172.55 27.4993 176.042 35.4316 178.111 29.4968C180.181 23.562 180.936 -4.78027 167.096 1.07734Z" fill="#2E2D40"/>
<path d="M165.713 9.47288C165.761 9.50183 165.955 11.2002 166.448 11.6152C166.941 12.0302 167.773 12.5223 167.647 12.8022C167.522 13.082 167.077 13.7672 166.835 13.7865C166.593 13.8058 164.746 12.8118 164.156 11.9047C163.566 10.9976 163.411 10.4765 163.411 10.4765C163.411 10.4765 163.131 10.2352 164.301 9.65623C165.471 9.07723 165.713 9.47288 165.713 9.47288Z" fill="#BEDADF"/>
<path d="M66.1142 87.643C65.568 87.9481 64.9917 88.1957 64.3945 88.3819C63.3268 88.6738 62.1779 88.5667 61.1047 88.8161C60.6632 88.9177 60.1811 89.132 60.0425 89.555C59.9391 89.8709 60.0425 90.2127 60.1589 90.5286C61.3503 94.0239 62.0689 97.7334 63.9715 100.905C64.7709 102.235 65.7632 103.439 66.9159 104.478C67.3481 104.868 67.8395 105.25 68.4158 105.311C68.6826 105.339 68.9522 105.297 69.1972 105.187C69.4422 105.078 69.6541 104.906 69.8115 104.689C69.9689 104.471 70.0661 104.216 70.0935 103.95C70.1209 103.683 70.0774 103.413 69.9674 103.168C69.7957 102.799 69.4798 102.496 69.2747 102.134C69.0235 101.69 68.9552 101.17 68.8924 100.656C68.7077 99.1614 68.5229 97.5985 69.042 96.1816C69.3893 95.232 70.0265 94.4229 70.5567 93.5639C71.0868 92.7048 71.5302 91.7165 71.4119 90.7133C71.3307 90.028 70.9963 89.4017 70.6435 88.8087C70.2907 88.2157 69.5906 86.6177 68.8794 86.42C68.1683 86.2224 66.7589 87.3123 66.1142 87.643Z" fill="#8C4503"/>
<path d="M85.5614 99.721C85.5723 100.06 85.5255 100.398 85.4229 100.72C85.1994 101.308 84.6471 101.711 84.3626 102.27C83.9655 103.048 84.1465 103.99 84.4088 104.824C84.5732 105.346 84.7893 105.889 85.2308 106.213C85.5891 106.473 86.0454 106.553 86.4832 106.614C90.2791 107.138 94.1323 106.837 97.9615 106.948C98.6598 106.968 99.3987 106.992 100.008 106.651C100.618 106.309 100.995 105.452 100.579 104.89C100.21 104.386 99.4707 104.391 98.8463 104.36C97.2153 104.278 95.662 103.638 94.4464 102.548C94.2063 102.343 93.9983 102.104 93.8294 101.838C93.6985 101.603 93.5903 101.355 93.5061 101.099C92.9687 99.6454 92.3299 98.2311 91.5943 96.8668C91.3893 96.4844 91.1565 96.0873 90.7723 95.8822C90.4925 95.7555 90.1891 95.6894 89.882 95.6882C88.927 95.6254 86.4555 95.3003 85.7184 96.0429C85.0368 96.7264 85.5762 98.8509 85.5614 99.721Z" fill="#8C4503"/>
<path d="M88.2954 15.3034C91.662 15.3034 94.3911 12.574 94.3911 9.20707C94.3911 5.84015 91.662 3.11072 88.2954 3.11072C84.9288 3.11072 82.1997 5.84015 82.1997 9.20707C82.1997 12.574 84.9288 15.3034 88.2954 15.3034Z" fill="#A0616A"/>
<path d="M82.7911 15.3871C82.4217 16.3588 81.814 17.2696 80.9199 17.7887L89.3505 19.5086C89.0437 18.2782 89.0034 16.9964 89.2322 15.7492C89.3143 15.4483 89.3313 15.1334 89.2821 14.8255C89.1233 14.214 88.4343 13.9184 87.8191 13.778C86.2804 13.427 84.9191 13.2386 83.4894 12.5606C83.0534 13.3088 83.1144 14.5244 82.7911 15.3871Z" fill="#A0616A"/>
<path d="M84.828 9.29233C85.1882 8.8231 85.8809 8.76028 86.4554 8.89884C87.0299 9.03739 87.5637 9.33297 88.1363 9.45305C88.2683 9.4902 88.4066 9.49953 88.5423 9.48045C88.6781 9.46137 88.8084 9.4143 88.9251 9.34221C89.1486 9.1704 89.2169 8.86928 89.2649 8.59033C89.4676 7.38266 89.5148 6.15401 89.4053 4.93436C89.3753 4.76296 89.3867 4.58688 89.4386 4.42078C89.5827 4.07532 90.0204 3.99219 90.377 3.88135C90.9668 3.68233 91.4736 3.29239 91.8172 2.77316C92.1607 2.25393 92.3215 1.63502 92.274 1.01421C92.2658 0.716145 92.1403 0.433357 91.9249 0.227227C91.6774 0.025862 91.3319 0.0129317 91.0124 0.00923691C89.3745 -0.00307897 87.7361 -0.00307897 86.097 0.00923691C85.4912 0.00923691 84.8539 0.0295581 84.3274 0.332529C83.9395 0.556062 83.6495 0.914453 83.3004 1.1971C82.3916 1.93606 81.1595 2.08015 80.053 2.45702C79.5123 2.61113 79.0213 2.9041 78.6289 3.30681C78.2594 3.72802 78.0839 4.35243 78.3148 4.86231C78.434 5.07445 78.5666 5.2787 78.712 5.47379C79.3659 6.51756 78.93 7.87539 79.0279 9.1002C79.1498 10.6335 81.4181 13.122 82.9568 13.484C85.4413 14.0641 84.006 10.2955 84.828 9.29233Z" fill="#3F3D56"/>
<path d="M84.5252 76.1956C84.6822 77.3151 84.8836 78.4401 84.83 79.5689C84.7543 81.1447 84.1872 82.6651 84.0819 84.239C84.0025 85.4158 84.1853 86.6055 84.0209 87.7731C83.9156 88.512 83.6737 89.2399 83.5222 89.9899C83.2848 91.1933 83.2924 92.4322 83.5444 93.6327C83.7964 94.8331 84.2876 95.9704 84.9889 96.9767C85.0915 97.1498 85.2381 97.2925 85.4137 97.3906C85.5825 97.4528 85.7629 97.4767 85.942 97.4608C87.7164 97.4234 89.4861 97.2616 91.2379 96.9767C91.2885 96.9829 91.3398 96.9785 91.3886 96.9639C91.4374 96.9493 91.4827 96.9247 91.5215 96.8917C91.5604 96.8588 91.592 96.8181 91.6144 96.7724C91.6368 96.7266 91.6495 96.6767 91.6517 96.6257C91.9768 94.9631 91.236 93.282 91.0476 91.5916C90.8463 89.7867 91.2785 87.9781 91.7089 86.212C91.9036 85.3418 92.1472 84.4833 92.4386 83.6405C92.6454 83.0715 92.8967 82.521 93.0777 81.9428C93.3324 81.0386 93.4879 80.1095 93.5413 79.1717C93.6645 77.6938 93.7304 76.2066 93.739 74.7103C93.739 73.2989 93.6983 71.8782 93.3899 70.5001C92.9946 68.7469 92.1855 67.1175 91.382 65.5121C90.9479 65.5805 90.5692 65.8336 90.2016 66.0664C89.1674 66.7354 88.0879 67.3317 86.9709 67.8509C86.2209 68.1982 84.7543 68.4458 84.2814 69.1737C83.8085 69.9015 84.1151 71.3499 84.1502 72.1406C84.213 73.4984 84.3387 74.8525 84.5252 76.1956Z" fill="#3F3D56"/>
<path d="M76.292 52.2806C75.483 54.4605 76.6726 56.8159 77.707 58.8979C80.245 64.0281 82.0183 69.5037 83.7731 74.9554C83.9043 75.3636 84.0373 75.8089 83.8895 76.2116C83.7634 76.4982 83.5576 76.7425 83.2966 76.9154C82.083 77.8391 80.5387 78.1661 79.0942 78.6483C77.6977 79.1146 76.36 79.7414 75.108 80.516C74.0625 81.1644 73.0761 81.9145 72.1026 82.6627L68.9864 85.0421C68.7842 85.1779 68.6078 85.3487 68.4655 85.5464C68.1644 86.0175 68.2808 86.6327 68.4378 87.1721C68.8336 88.5989 69.3438 89.9914 69.9636 91.3361C70.0929 91.6188 70.2444 91.9144 70.5177 92.0621C71.0054 92.3226 71.6002 91.9772 71.9715 91.567C72.3428 91.1569 72.6642 90.6434 73.1869 90.4752C73.7097 90.3071 74.286 90.5122 74.8309 90.4364C75.7157 90.3108 76.3087 89.498 76.9386 88.8736C79.5394 86.3205 83.8821 86.5052 86.7453 84.2551C87.1812 83.9115 87.5783 83.5162 88.0549 83.2298C88.5315 82.9435 89.0875 82.7883 89.5899 82.5352C91.1157 81.7667 92.0762 80.1761 92.5897 78.5467C93.1032 76.9173 93.251 75.1955 93.6205 73.5255C93.8052 72.6628 94.0619 71.8093 94.1469 70.9392C94.2017 70.1208 94.1844 69.2993 94.0952 68.484L93.0626 55.7093C92.9776 54.6692 92.8945 53.6292 92.7301 52.5983C89.6638 52.7073 86.5993 52.8311 83.5311 52.868C81.0947 52.881 78.601 53.0528 76.292 52.2806Z" fill="#3F3D56"/>
<path d="M75.1579 55.2667C75.5736 55.9373 76.5858 55.9225 77.2822 55.5567C77.9786 55.1909 78.5217 54.5721 79.2199 54.21C80.1601 53.7204 81.2703 53.7389 82.3287 53.7685C84.0041 53.8165 85.6998 53.8664 87.3161 54.3227C88.9785 54.7975 90.6059 55.7119 92.3312 55.529C92.6304 55.4976 92.9592 55.4108 93.1218 55.1595C93.2165 54.9754 93.2617 54.7698 93.2529 54.5628L93.3083 53.0554C93.3423 52.7954 93.3006 52.5312 93.1883 52.2943C93.0441 52.0965 92.8459 51.9445 92.6175 51.8564C90.1626 50.6686 87.366 50.4469 84.6414 50.3527C83.256 50.3071 81.87 50.288 80.4834 50.2954C79.3086 50.2954 77.8973 50.1329 76.7521 50.4469C75.2134 50.87 74.3784 54.016 75.1579 55.2667Z" fill="#3F3D56"/>
<path d="M77.4006 21.6768C77.0412 22.2097 77.5562 22.983 77.4799 23.6602C77.427 24.1098 77.1158 24.4539 76.9851 24.8813C76.8544 25.3086 76.9229 25.8063 76.8716 26.2799C76.8204 26.6194 76.7449 26.953 76.646 27.2772C76.4176 28.2462 76.2583 29.2365 76.1698 30.2374L75.6953 34.4483C75.6108 35.081 75.5589 35.7192 75.5397 36.3594C75.5397 36.8386 75.5646 37.327 75.4588 37.7896C75.3529 38.2521 75.1227 38.6536 74.9655 39.0847C74.8084 39.5157 74.7368 40.0541 74.9484 40.4593C74.2404 41.1587 74.0304 42.5352 74.5252 43.4584C74.6196 43.602 74.6932 43.7633 74.743 43.9357C74.7705 44.1762 74.7369 44.4211 74.6465 44.6387L74.1673 46.1577C74.0444 46.5462 74.0117 47.1383 74.3478 47.2271C74.0649 47.5758 73.8446 47.9894 73.7005 48.4426C73.6302 48.67 73.6092 48.9148 73.6394 49.1544C73.6696 49.3939 73.75 49.6206 73.8732 49.8135C73.9917 49.9383 74.093 50.0844 74.1735 50.2465C74.2467 50.4611 74.1829 50.7035 74.1377 50.9292C74.066 51.2608 74.0522 51.6064 74.0972 51.9447C74.1422 52.2829 74.2449 52.6067 74.3991 52.8959C74.5586 53.1816 74.7848 53.4057 75.0498 53.5408C75.3149 53.6758 75.6073 53.716 75.8913 53.6563C76.8498 53.3991 77.7118 52.9939 78.678 53.2048C80.7599 53.6581 82.848 54.1151 84.8645 54.881C87.1642 55.7543 89.3924 57.0346 91.7979 57.3029C91.957 57.3432 92.123 57.313 92.2647 57.2178C92.387 57.0798 92.4633 56.8938 92.4794 56.6942L93.2247 52.5517C93.5244 51.0206 93.7524 49.4709 93.9077 47.9098C93.9933 46.9033 94.0167 45.8894 94.0416 44.8774L94.2329 36.822C94.3247 35.6349 94.1929 34.4385 93.8471 33.3197L92.7454 29.1384C92.1231 26.7517 90.6745 24.6352 90.161 22.2097C89.8358 20.6741 89.5962 19.0275 88.7233 17.8304C87.4785 16.1246 85.3313 15.86 83.4502 16.1524C82.599 16.2856 81.7386 16.5224 81.0073 17.0386C80.1562 17.6436 79.5307 18.5982 78.9239 19.5325C78.4197 20.3003 77.9109 20.9183 77.4006 21.6768Z" fill="#9377B6"/>
<path d="M90.8795 8.68009C90.8222 8.73742 90.9712 11.3512 90.3522 12.1078C89.7331 12.8645 88.5982 13.8389 88.8733 14.2172C89.1485 14.607 89.9853 15.5127 90.3522 15.4783C90.719 15.4439 93.2411 13.4491 93.8831 11.9359C94.5251 10.4112 94.6283 9.57429 94.6283 9.57429C94.6283 9.57429 94.9837 9.13866 93.0692 8.57692C91.1547 8.02664 90.8795 8.68009 90.8795 8.68009Z" fill="#BEDADF"/>
<path d="M85.7886 39.6323C86.3847 40.1681 86.8219 40.8356 87.3784 41.3996C88.3124 42.3491 89.5445 43.0072 90.4785 43.9566C90.876 44.3609 91.2039 44.8121 91.6312 45.1787C92.6248 46.0342 93.996 46.3538 95.3275 46.5325C96.659 46.7111 98.0302 46.7957 99.2623 47.3033C100.127 47.6606 100.961 48.2998 101.11 49.1835C101.279 50.0954 100.683 50.9696 100.117 51.7311C99.9281 52.0131 99.6896 52.2576 99.4114 52.4644C98.7257 52.8968 97.8017 52.737 97.0266 52.4926C94.3935 51.6747 92.0584 50.1894 89.7532 48.7228L83.7317 44.8967C82.5692 44.1635 81.3967 43.402 80.4527 42.4149C80.1149 42.0577 79.3995 41.362 79.3597 40.845C79.32 40.3279 79.946 39.3032 80.1944 38.852C81.3967 36.6992 84.4571 38.4384 85.7886 39.6323Z" fill="#A0616A"/>
</svg>
