<svg width="319" height="171" viewBox="0 0 319 171" fill="none" xmlns="http://www.w3.org/2000/svg">
<path d="M307.366 146.51H292.211V158H307.366V146.51Z" fill="#3F3D56"/>
<path d="M257.775 140.654C257.775 140.654 259.749 115.971 292.369 113.159L257.775 140.654Z" fill="#F2F2F2"/>
<path d="M247.749 135.133C247.749 135.133 254.9 111.431 225.556 96.8701L247.749 135.133Z" fill="#F2F2F2"/>
<path d="M44.8806 114.218C41.7823 125.702 31.17 132.815 31.17 132.815C31.17 132.815 25.5809 121.308 28.6792 109.823C31.7775 98.3387 42.3899 91.2261 42.3899 91.2261C42.3899 91.2261 47.9789 102.733 44.8806 114.218Z" fill="white"/>
<path d="M16.6945 114.218C19.7928 125.702 30.4052 132.815 30.4052 132.815C30.4052 132.815 35.9942 121.308 32.8959 109.823C29.7976 98.3387 19.1853 91.2261 19.1853 91.2261C19.1853 91.2261 13.5962 102.733 16.6945 114.218Z" fill="white"/>
<path d="M21.2475 111.745C29.7493 120.044 30.7877 132.801 30.7877 132.801C30.7877 132.801 18.042 132.103 9.54023 123.804C1.03843 115.506 0 102.749 0 102.749C0 102.749 12.7457 103.446 21.2475 111.745Z" fill="#3F3D56"/>
<path d="M40.3278 111.745C31.826 120.044 30.7876 132.801 30.7876 132.801C30.7876 132.801 43.5333 132.103 52.0351 123.804C60.5369 115.506 61.5753 102.749 61.5753 102.749C61.5753 102.749 48.8296 103.446 40.3278 111.745Z" fill="#3F3D56"/>
<path d="M191.117 29.9391C191.117 29.9391 187.421 26.2327 178.919 26.974C178.919 26.974 96.8615 18.4493 95.0134 33.6455C93.1652 48.8418 92.7956 57.7371 97.6008 61.0729C97.6008 61.0729 113.31 75.3426 105.178 87.9443L100.743 95.3571L274.838 93.8746C274.838 93.8746 276.686 66.8178 282.231 61.6289C287.775 56.4399 289.624 29.0125 282.231 28.2712C274.838 27.53 189.084 23.4529 191.117 29.9391Z" fill="#3F3D56"/>
<path d="M183.112 1.94401C179.663 3.14497 176.539 5.95393 175.833 9.63609C175.505 11.3429 175.706 13.1173 175.431 14.8339C174.792 18.8149 171.761 21.8553 168.966 24.6794C166.171 27.5035 163.284 30.7849 163.08 34.8147C162.857 39.2273 165.96 43.3613 165.423 47.7451C164.8 52.8382 159.583 56.1384 158.293 61.0968C157.432 64.4077 158.487 67.9742 160.223 70.8975C163.532 76.4683 169.186 80.2502 175.208 82.2777C181.23 84.3051 187.644 84.7316 193.978 84.8001C201.691 84.8834 210.065 84.2006 215.86 78.9515C219.17 75.9263 221.249 71.7226 221.68 67.1832C222.23 61.1029 219.769 54.8203 221.467 48.9698C222.535 45.2878 225.214 41.9251 224.814 38.104C224.423 34.3679 221.259 31.7197 219.088 28.7015C217.061 25.8835 215.831 22.5555 214.626 19.2746L210.502 8.04855C209.691 5.84172 208.801 3.52072 206.994 2.07229C203.611 -0.639263 198.172 -0.106499 194.217 0.452751C190.548 0.971571 186.641 0.715169 183.112 1.94401Z" fill="#C4C4C4"/>
<path d="M99.2642 60.1515C99.2642 60.1515 47.1464 72.3826 67.8457 95.3623L71.1724 98.6981L69.6938 149.846H309.953L312.541 99.81L315.498 93.8798C315.498 93.8798 333.912 71.7339 280.719 63.7189L271.142 87.9495L109.244 86.8376C109.244 86.8376 108.135 59.4102 99.2642 60.1515Z" fill="#3F3D56"/>
<path d="M89.2842 146.51H74.1293V158H89.2842V146.51Z" fill="#3F3D56"/>
<path d="M188.306 88.1342C188.306 88.1342 152.121 62.3747 107.026 88.3195L93.7195 107.593L96.307 123.53C96.307 123.53 189.823 125.013 190.932 115.006C192.041 104.998 188.306 88.1342 188.306 88.1342Z" fill="#3F3D56"/>
<path d="M272.99 88.315C272.99 88.315 209.505 67.9298 190.423 88.315L192.78 117.596C192.78 117.596 285.557 124.638 287.036 119.819C288.514 115.001 289.254 106.476 289.254 106.476L272.99 88.315Z" fill="#3F3D56"/>
<path opacity="0.1" d="M272.99 88.3142C272.99 88.3142 209.505 67.9291 190.424 88.3142L190.476 88.9673C190.413 88.6643 190.378 88.4995 190.378 88.4995C190.378 88.4995 152.121 62.3695 107.026 88.3142L93.7195 107.587L96.307 123.525C96.307 123.525 186.86 125.456 192.678 116.325L192.78 117.595C192.78 117.595 285.557 124.637 287.036 119.819C288.514 115 289.254 106.476 289.254 106.476L272.99 88.3142Z" fill="black"/>
<path d="M100.743 37.1648C118.708 36.7816 135.739 34.4954 151.382 29.3813C151.763 47.4244 154.35 64.2991 160.253 79.4178C142.764 76.231 125.014 79.3846 107.026 88.3131C110.257 72.0027 107.464 54.8563 100.743 37.1648Z" fill="white"/>
<path d="M284.449 40.1326C266.484 39.7494 249.453 37.4632 233.809 32.3491C233.429 50.3921 230.842 67.2668 224.938 82.3855C242.427 79.1988 260.177 82.3523 278.165 91.2809C274.934 74.9705 277.728 57.8241 284.449 40.1326Z" fill="white"/>
<path d="M169.077 35.4033C170.123 34.6565 171.278 34.0757 172.501 33.6815C180.253 30.7891 188.376 29.016 196.626 28.4154C203.8 27.9054 211.575 28.5112 217.177 33.032C218.049 33.6732 218.762 34.5064 219.262 35.4673C219.967 36.9926 219.753 38.7656 219.525 40.431C219.474 41.077 219.312 41.7092 219.045 42.2996C218.291 43.7391 216.435 44.2434 214.823 44.0708C213.21 43.8982 211.697 43.2141 210.107 42.8969C209.123 42.7249 208.127 42.6233 207.129 42.5928L197.154 42.0513C190.952 41.7146 184.668 41.3835 178.584 42.6387C176.711 42.9763 174.901 43.6016 173.218 44.4927C171.829 45.275 170.893 46.3976 169.604 44.9526C167.338 42.414 166.084 37.7481 169.077 35.4033Z" fill="#9377B6"/>
<path d="M184.533 39.8221C184.533 39.8221 197.949 33.7916 203.038 40.7498C208.127 47.708 200.262 44.9247 200.262 44.9247L191.472 47.708L181.758 45.8525L184.533 39.8221Z" fill="#F2F2F2"/>
<path d="M185.227 35.4171C185.227 35.4171 187.077 44.2308 185.69 46.5502C184.302 48.8696 193.554 52.1168 193.554 52.1168L202.344 48.4057C202.344 48.4057 200.031 34.0255 202.344 31.2422L185.227 35.4171Z" fill="#FFB9B9"/>
<path opacity="0.1" d="M185.227 35.4171C185.227 35.4171 187.077 44.2308 185.69 46.5502C184.302 48.8696 193.554 52.1168 193.554 52.1168L202.344 48.4057C202.344 48.4057 200.031 34.0255 202.344 31.2422L185.227 35.4171Z" fill="black"/>
<path d="M176.558 141.391C177.882 143.935 178.74 146.692 179.615 149.424C179.628 149.515 179.66 149.602 179.709 149.68C179.758 149.758 179.823 149.825 179.9 149.876C179.976 149.927 180.062 149.961 180.153 149.976C180.244 149.991 180.336 149.987 180.425 149.964L188.654 149.955C189.669 149.954 191.032 149.627 191.021 148.608C191.014 147.893 190.284 147.447 189.742 146.982C188.235 145.694 187.843 143.569 187.219 141.684C186.007 138.054 183.67 134.907 180.549 132.701C180.127 132.37 179.642 132.129 179.123 131.994C178.602 131.919 178.07 131.947 177.56 132.079C176.116 132.372 170.722 133.372 171.74 135.478C172.179 136.385 173.805 137.33 174.487 138.177C175.281 139.177 175.975 140.254 176.558 141.391Z" fill="#575A89"/>
<path d="M205.173 131.821C204.883 132.433 204.56 133.028 204.205 133.604C203.013 135.576 201.606 137.415 200.496 139.434C199.804 140.693 199.221 142.055 199.144 143.491C199.068 144.927 199.572 146.455 200.715 147.325C201.909 148.233 203.547 148.276 205.032 148.064C206.516 147.852 207.992 147.425 209.487 147.538C208.983 144.677 211.389 142.159 211.991 139.318C212.16 138.52 212.185 137.692 212.412 136.908C212.655 136.192 212.967 135.5 213.343 134.843C214.541 132.504 215.388 129.999 215.856 127.411C215.913 127.098 208.541 127.046 207.85 127.196C205.692 127.664 206.008 130.027 205.173 131.821Z" fill="#575A89"/>
<path d="M148.359 86.8774C146.254 90.1794 146.739 94.5554 148.217 98.183C149.695 101.811 152.047 105.017 153.657 108.588C154.684 110.864 155.403 113.278 156.559 115.491C157.99 118.232 160.08 120.647 161.04 123.587C161.653 125.461 161.793 127.515 162.785 129.218C163.384 130.128 164.068 130.979 164.828 131.76C166.964 134.213 170.46 149.973 173.763 151.711C176.003 149.625 178.239 145.345 181.027 144.759C183.814 144.174 185.596 142.152 192.287 144.759C192.287 142.326 183.177 130.655 182.239 127.902C181.333 125.24 179.167 122.173 178.557 119.428C177.304 113.797 174.628 108.604 171.978 103.484L185.596 102.401C187.819 102.177 190.053 102.094 192.287 102.152C195.802 102.318 199.245 103.182 202.741 103.581C206.238 103.981 209.936 103.876 213.052 102.236C207.094 110.808 197.461 130.663 197.657 141.11C198.989 140.075 201.381 138.861 203.027 138.503C204.673 138.145 207.278 138.463 208.917 138.851C211.169 139.72 212.36 141.805 212.901 142.674C214.31 144.933 214.25 146.539 214.98 148.061C220.317 140.748 225.991 118.05 230.22 110.041C231.089 108.395 232.155 106.861 233.093 105.252C234.95 102.072 236.296 98.6231 237.634 95.1908C238.817 92.157 240.009 88.7813 238.874 85.729C238.403 84.5709 237.717 83.5131 236.852 82.6117C234.412 79.9143 231.016 77.919 227.386 77.8359C221.812 77.7083 217.208 81.8511 212.318 84.5374C206.56 87.7015 199.841 88.9592 193.291 88.4941C186.575 88.0173 180.161 85.8129 173.763 83.8716C170.562 82.8553 167.308 82.0138 164.017 81.3507C161.273 80.8346 158.66 81.4062 155.956 82.1098C153.012 82.8759 150.053 84.2187 148.359 86.8774Z" fill="#2F2E41"/>
<path d="M206.507 26.6078C206.504 30.2978 205.041 33.8357 202.439 36.4449C199.837 39.054 196.309 40.5212 192.629 40.5242C191.802 40.5256 190.977 40.4511 190.163 40.3016C187.566 39.8312 185.156 38.628 183.217 36.833C181.277 35.038 179.889 32.7256 179.213 30.1671C178.538 27.6087 178.605 24.9102 179.405 22.3882C180.205 19.8663 181.706 17.6254 183.731 15.9285C185.757 14.2315 188.223 13.1489 190.84 12.8076C193.457 12.4663 196.117 12.8805 198.508 14.0015C200.899 15.1225 202.921 16.9039 204.338 19.1368C205.755 21.3696 206.508 23.9613 206.507 26.6078Z" fill="#FFB9B9"/>
<path d="M184.533 39.8189C184.533 39.8189 187.077 40.9786 188.003 41.9063C188.928 42.8341 191.704 47.9368 196.33 44.6896C200.956 41.4424 201.418 39.5869 202.806 39.5869C204.194 39.5869 206.045 42.3702 206.045 42.3702L218.767 80.6403C215.338 84.5211 211.364 87.8808 206.97 90.6137C199.568 95.2525 190.778 97.5719 186.615 95.7164C182.451 93.8609 174.587 92.4693 173.199 88.7582C171.811 85.0472 169.498 73.9141 169.498 73.9141L175.975 45.6174L184.533 39.8189Z" fill="#F2F2F2"/>
<path d="M182.747 78.5229C183.756 76.3384 183.902 73.8658 183.988 71.4601C184.124 69.0773 184.061 66.6874 183.799 64.3152C183.389 61.2122 182.382 58.2228 181.745 55.1585C181.187 52.4708 180.916 49.7313 180.936 46.9862C180.946 45.7336 181.036 44.4149 181.717 43.3646C182.192 42.6318 182.934 42.0643 183.231 41.2426C183.813 39.6315 182.375 37.9445 180.8 37.2811C178.925 36.4918 176.783 36.5448 174.811 37.04C172.839 37.5353 171 38.4463 169.178 39.3508C167.862 40.0041 166.518 40.6776 165.498 41.7365C164.062 43.2266 163.43 45.3019 162.92 47.31C162.512 48.9172 162.15 50.5931 162.46 52.2221C162.964 54.8674 165.115 56.857 166.261 59.2925C167.593 62.1206 167.503 65.4164 166.973 68.4984C166.444 71.5803 165.504 74.5938 165.214 77.7076C164.924 80.8214 165.369 84.1686 167.315 86.6129C168.108 87.609 170.258 89.9696 171.71 89.7026C172.85 89.4927 174.503 86.9758 175.421 86.178C178.075 83.8732 181.223 81.8232 182.747 78.5229Z" fill="#9377B6"/>
<path d="M206.984 38.3048C207.025 40.892 205.888 43.3512 204.55 45.564C203.213 47.7768 201.641 49.8696 200.656 52.2609C199.431 55.2544 199.181 58.5594 199.941 61.7039C200.224 62.775 200.565 63.8298 200.962 64.8637L203.497 71.8353C203.838 72.9314 204.333 73.9733 204.966 74.9296C205.539 75.6621 206.212 76.3106 206.964 76.8565C208.889 78.4154 211.105 79.5744 213.481 80.2659C215.866 80.8979 218.476 80.8582 220.729 79.8513C220.973 70.4004 222.487 61.0257 225.231 51.9806C225.737 50.3109 226.291 48.553 225.9 46.8522C225.462 44.9471 223.936 43.5168 222.486 42.2106C218.049 38.2159 213.171 34.0198 207.233 33.4813C203.796 33.1696 206.955 36.4344 206.984 38.3048Z" fill="#9377B6"/>
<path d="M176.626 92.247C176.977 92.9377 177.196 93.6898 177.544 94.3824C178.058 95.3113 178.693 96.1673 179.432 96.9276C182.525 100.367 186.306 103.793 190.92 104C191.378 104.043 191.841 103.985 192.274 103.829C193.081 103.493 193.558 102.626 193.715 101.763C194.042 99.967 193.252 98.1745 192.46 96.53C190.744 92.9658 188.813 89.3111 185.599 87.0124C182.432 84.7464 178.188 84.1961 174.494 85.3371C172.82 85.8541 170.045 86.7569 172.261 88.2881C173.942 89.4498 175.651 90.3341 176.626 92.247Z" fill="#FFB9B9"/>
<path d="M179.401 148.372C178.022 150.252 178.298 152.938 177.077 154.924C176.018 156.645 174.022 157.548 172.697 159.073C172.275 159.58 171.898 160.123 171.571 160.697C170.343 162.761 169.344 165.406 170.554 167.481C171.528 169.15 173.574 169.802 175.45 170.247C177.822 170.809 180.287 171.259 182.686 170.829C185.086 170.4 187.431 168.927 188.286 166.638C188.454 166.063 188.654 165.497 188.885 164.944C190.185 162.377 194.264 162.349 195.595 159.798C196.527 158.012 195.67 155.854 194.815 154.031L192.201 148.462C191.333 146.614 187.817 147.677 185.983 147.234C183.593 146.657 181.121 146.02 179.401 148.372Z" fill="#2F2E41"/>
<path d="M199.619 143.591C198.51 144.37 197.793 145.593 197.254 146.839C195.961 149.832 195.516 153.113 195.085 156.346C194.912 157.641 194.74 158.967 195.01 160.245C195.568 162.885 197.954 164.829 200.522 165.637C203.09 166.444 205.844 166.32 208.533 166.188C209.396 166.145 210.294 166.093 211.051 165.675C212.402 164.928 212.93 163.172 212.698 161.642C212.466 160.113 211.633 158.752 210.817 157.439C210.002 156.126 209.168 154.766 208.934 153.237C208.541 150.665 209.65 146.889 208.074 144.562C206.495 142.23 201.727 142.109 199.619 143.591Z" fill="#2F2E41"/>
<path d="M193.762 28.7124C202.691 28.7124 209.93 24.8023 209.93 19.979C209.93 15.1557 202.691 11.2456 193.762 11.2456C184.833 11.2456 177.595 15.1557 177.595 19.979C177.595 24.8023 184.833 28.7124 193.762 28.7124Z" fill="#C4C4C4"/>
<path d="M162.237 52.3573C160.913 54.3161 159.386 56.1995 158.658 58.4506C158.231 59.7738 158.098 61.1725 157.788 62.5283C156.756 67.0442 153.776 71.0552 153.476 75.6783C153.371 76.7056 153.522 77.7429 153.914 78.6977C154.769 80.5625 156.815 81.5452 158.767 82.1634C160.719 82.7816 162.815 83.227 164.373 84.5582C165.157 85.3121 165.868 86.1389 166.497 87.0275C169.038 90.1973 172.458 92.5432 176.325 93.7703C176.02 91.6595 175.876 89.1154 177.559 87.8107C178.47 87.1045 179.687 86.9787 180.834 86.8793L186.254 86.4096C182.64 82.8942 178.656 79.7821 174.372 77.128C172.873 76.1995 171.242 75.2202 170.558 73.5924C170.13 72.5747 170.136 71.4349 170.126 70.3306C170.088 66.2883 169.747 62.2546 169.104 58.2638C168.658 55.4928 168.067 52.7466 167.392 50.0227C167.202 49.258 166.081 45.828 164.7 46.6306C164.375 46.8196 164.071 48.9955 163.881 49.4469C163.43 50.4687 162.879 51.4434 162.237 52.3573Z" fill="#9377B6"/>
<path opacity="0.1" d="M169.738 58.3042C169.799 61.581 169.105 64.8278 167.71 67.7915C167.347 68.4465 167.079 69.1503 166.915 69.8815C166.673 71.441 167.558 72.9508 168.569 74.1601C170.565 76.5384 173.154 78.3441 176.071 79.3935" fill="black"/>
<path d="M204.273 41.6799L204.6 41.7317C204.314 41.6864 204.058 41.5291 203.888 41.2944C203.718 41.0598 203.648 40.767 203.693 40.4806L207.069 19.0963C207.114 18.8098 207.271 18.5531 207.505 18.3825C207.739 18.212 208.031 18.1417 208.316 18.1871L207.99 18.1353C208.217 18.1713 208.435 18.2519 208.631 18.3724C208.827 18.4929 208.998 18.6509 209.133 18.8375C209.268 19.0241 209.366 19.2356 209.419 19.4599C209.473 19.6841 209.482 19.9168 209.446 20.1446L206.277 40.2197C206.241 40.4475 206.161 40.666 206.041 40.8627C205.921 41.0593 205.763 41.2304 205.577 41.3659C205.391 41.5015 205.18 41.599 204.956 41.6529C204.733 41.7068 204.501 41.7159 204.273 41.6799Z" fill="#2F2E41"/>
<path d="M207.875 18.1172L208.369 18.1957L204.653 41.7402L204.158 41.6617C204.074 41.6484 203.994 41.6187 203.922 41.5744C203.85 41.5301 203.787 41.4719 203.737 41.4033C203.688 41.3346 203.652 41.2568 203.632 41.1743C203.612 41.0917 203.609 41.0061 203.622 40.9223L207.137 18.6545C207.15 18.5706 207.18 18.4902 207.224 18.4179C207.268 18.3455 207.326 18.2826 207.395 18.2327C207.463 18.1828 207.541 18.1469 207.623 18.1271C207.706 18.1073 207.791 18.1039 207.875 18.1172Z" fill="#42B6E9"/>
<path d="M207.941 21.2428L207.845 21.2276C207.811 21.2222 207.779 21.2453 207.774 21.2792L207.49 23.077C207.485 23.1109 207.508 23.1428 207.542 23.1482L207.638 23.1634C207.672 23.1689 207.704 23.1458 207.709 23.1118L207.993 21.314C207.998 21.2801 207.975 21.2482 207.941 21.2428Z" fill="#464353"/>
<path d="M216.334 37.5729C216.844 36.284 217.363 34.9509 217.328 33.5646C217.24 32.3081 216.86 31.0896 216.219 30.0066C215.439 28.5533 214.466 27.2132 213.325 26.0232C211.967 24.6069 210.006 23.3422 208.155 23.985C206.685 24.4955 205.847 26.0301 205.303 27.4918C204.979 28.2056 204.851 28.9931 204.932 29.773C205.112 30.7794 205.887 31.5519 206.449 32.4053C207.329 33.7433 207.707 35.342 208.068 36.9035L208.976 40.8199L210.534 47.547C210.493 47.3697 213.428 44.5824 213.776 43.989C214.898 42.0774 215.517 39.6364 216.334 37.5729Z" fill="#FFB9B9"/>
<path d="M224.667 44.9562L226.881 49.5723C227.947 51.4704 228.433 53.6414 228.277 55.8143L228.408 69.6613C228.425 71.5117 228.44 73.39 227.954 75.1752C227.816 75.7711 227.556 76.3318 227.19 76.8216C226.815 77.2439 226.373 77.6012 225.881 77.8791C221.692 80.5038 216.26 81.9956 211.834 79.7962C210.82 79.2543 209.856 78.6235 208.953 77.911C207.189 76.6011 205.399 75.2656 204.08 73.5067C202.699 71.6659 209.05 64.6624 208.12 62.5556C206.456 58.7813 207.377 49.8304 204.794 46.618C204.418 46.1506 207.835 46.5715 207.821 45.9712C207.794 44.7575 210.697 43.0027 211.817 42.541C213.73 41.752 215.932 40.1423 216.252 38.0933C220.32 43.4423 208.898 59.6048 215.317 61.5594C215.417 61.6239 215.534 61.6599 215.653 61.6635C215.772 61.6672 215.891 61.6384 215.995 61.5802C216.099 61.522 216.186 61.4366 216.246 61.333C216.306 61.2294 216.337 61.1115 216.336 60.9917C216.7 59.463 216.829 57.8888 217.095 56.3399C217.584 53.5194 218.526 50.797 219.883 48.2785C220.643 46.8664 223.105 41.6978 224.667 44.9562Z" fill="#9377B6"/>
<path opacity="0.1" d="M217.805 55.5469C217.479 56.4263 217.775 57.3989 218.026 58.3028C218.755 60.9244 219.095 63.6391 219.035 66.3598C219.046 66.4074 219.045 66.4569 219.031 66.5038C219.018 66.5507 218.993 66.5935 218.959 66.6284C218.925 66.6633 218.883 66.6892 218.837 66.7037C218.79 66.7181 218.741 66.7208 218.693 66.7114C217.626 66.777 216.403 66.7839 215.679 65.9946" fill="black"/>
<path d="M46.2222 157.442H15.5429L10.2063 139.199C9.88108 138.088 9.81869 136.915 10.0241 135.775C10.2294 134.635 10.6969 133.559 11.3894 132.631C12.082 131.704 12.9805 130.951 14.0137 130.433C15.0469 129.914 16.1864 129.644 17.3418 129.644H44.1802C45.3278 129.644 46.4599 129.91 47.4878 130.422C48.5156 130.934 49.4114 131.678 50.1049 132.595C50.7984 133.511 51.2709 134.577 51.4853 135.707C51.6998 136.838 51.6503 138.003 51.3409 139.111L46.2222 157.442Z" fill="#3F3D56"/>
</svg>
