<svg width="100%" height="218" viewBox="0 0 219 218" fill="none" xmlns="http://www.w3.org/2000/svg">
<path d="M9.25256 137V134.744H12.6606V124.712H9.85256V122.984C10.6206 122.84 11.2766 122.672 11.8206 122.48C12.3806 122.272 12.9006 122.024 13.3806 121.736H15.4446V134.744H18.4446V137H9.25256ZM23.0933 137.288C22.5813 137.288 22.1493 137.112 21.7973 136.76C21.4613 136.408 21.2933 135.96 21.2933 135.416C21.2933 134.872 21.4613 134.424 21.7973 134.072C22.1493 133.72 22.5813 133.544 23.0933 133.544C23.6053 133.544 24.0293 133.72 24.3653 134.072C24.7013 134.424 24.8693 134.872 24.8693 135.416C24.8693 135.96 24.7013 136.408 24.3653 136.76C24.0293 137.112 23.6053 137.288 23.0933 137.288ZM33.1873 137V121.304H38.1313C38.9953 121.304 39.7953 121.384 40.5313 121.544C41.2833 121.704 41.9313 121.976 42.4753 122.36C43.0193 122.744 43.4433 123.248 43.7473 123.872C44.0513 124.48 44.2033 125.24 44.2033 126.152C44.2033 127.016 44.0513 127.768 43.7473 128.408C43.4433 129.048 43.0193 129.584 42.4753 130.016C41.9473 130.432 41.3153 130.744 40.5793 130.952C39.8593 131.144 39.0753 131.24 38.2273 131.24H35.9713V137H33.1873ZM35.9713 129.008H38.0113C40.3153 129.008 41.4673 128.056 41.4673 126.152C41.4673 125.16 41.1633 124.48 40.5553 124.112C39.9633 123.728 39.0833 123.536 37.9153 123.536H35.9713V129.008ZM51.201 137.288C50.465 137.288 49.761 137.152 49.089 136.88C48.417 136.608 47.817 136.208 47.289 135.68C46.777 135.152 46.369 134.504 46.065 133.736C45.761 132.968 45.609 132.096 45.609 131.12C45.609 130.144 45.761 129.272 46.065 128.504C46.369 127.736 46.777 127.088 47.289 126.56C47.817 126.032 48.417 125.632 49.089 125.36C49.761 125.072 50.465 124.928 51.201 124.928C51.937 124.928 52.641 125.072 53.313 125.36C54.001 125.632 54.601 126.032 55.113 126.56C55.625 127.088 56.033 127.736 56.337 128.504C56.657 129.272 56.817 130.144 56.817 131.12C56.817 132.096 56.657 132.968 56.337 133.736C56.033 134.504 55.625 135.152 55.113 135.68C54.601 136.208 54.001 136.608 53.313 136.88C52.641 137.152 51.937 137.288 51.201 137.288ZM51.201 135.032C52.065 135.032 52.745 134.68 53.241 133.976C53.737 133.256 53.985 132.304 53.985 131.12C53.985 129.92 53.737 128.968 53.241 128.264C52.745 127.544 52.065 127.184 51.201 127.184C50.337 127.184 49.657 127.544 49.161 128.264C48.681 128.968 48.441 129.92 48.441 131.12C48.441 132.304 48.681 133.256 49.161 133.976C49.657 134.68 50.337 135.032 51.201 135.032ZM62.7431 137.288C61.9271 137.288 61.1191 137.136 60.3191 136.832C59.5351 136.512 58.8551 136.12 58.2791 135.656L59.5751 133.88C60.1031 134.296 60.6231 134.624 61.1351 134.864C61.6631 135.088 62.2311 135.2 62.8391 135.2C63.4791 135.2 63.9511 135.072 64.2551 134.816C64.5591 134.544 64.7111 134.2 64.7111 133.784C64.7111 133.544 64.6391 133.336 64.4951 133.16C64.3511 132.968 64.1591 132.8 63.9191 132.656C63.6791 132.512 63.4071 132.384 63.1031 132.272C62.7991 132.144 62.4951 132.016 62.1911 131.888C61.8071 131.744 61.4151 131.576 61.0151 131.384C60.6151 131.192 60.2551 130.96 59.9351 130.688C59.6311 130.416 59.3751 130.104 59.1671 129.752C58.9751 129.384 58.8791 128.952 58.8791 128.456C58.8791 127.416 59.2631 126.568 60.0311 125.912C60.7991 125.256 61.8471 124.928 63.1751 124.928C63.9911 124.928 64.7271 125.072 65.3831 125.36C66.0391 125.648 66.6071 125.976 67.0871 126.344L65.8151 128.024C65.3991 127.72 64.9751 127.48 64.5431 127.304C64.1271 127.112 63.6871 127.016 63.2231 127.016C62.6311 127.016 62.1911 127.144 61.9031 127.4C61.6311 127.64 61.4951 127.944 61.4951 128.312C61.4951 128.552 61.5591 128.76 61.6871 128.936C61.8311 129.096 62.0151 129.24 62.2391 129.368C62.4631 129.496 62.7191 129.616 63.0071 129.728C63.3111 129.84 63.6231 129.952 63.9431 130.064C64.3431 130.208 64.7431 130.376 65.1431 130.568C65.5431 130.744 65.9031 130.968 66.2231 131.24C66.5591 131.512 66.8231 131.848 67.0151 132.248C67.2231 132.632 67.3271 133.096 67.3271 133.64C67.3271 134.152 67.2231 134.632 67.0151 135.08C66.8231 135.512 66.5351 135.896 66.1511 136.232C65.7671 136.552 65.2871 136.808 64.7111 137C64.1351 137.192 63.4791 137.288 62.7431 137.288ZM73.4743 137.288C72.7863 137.288 72.2023 137.184 71.7223 136.976C71.2583 136.768 70.8743 136.48 70.5703 136.112C70.2823 135.728 70.0663 135.28 69.9223 134.768C69.7943 134.24 69.7303 133.656 69.7303 133.016V127.4H68.0503V125.336L69.8743 125.216L70.2103 122H72.5143V125.216H75.5143V127.4H72.5143V133.016C72.5143 134.392 73.0663 135.08 74.1703 135.08C74.3783 135.08 74.5863 135.056 74.7943 135.008C75.0183 134.96 75.2183 134.896 75.3943 134.816L75.8743 136.856C75.5543 136.968 75.1863 137.064 74.7703 137.144C74.3703 137.24 73.9383 137.288 73.4743 137.288ZM83.5909 141.848C83.2709 141.848 82.9909 141.824 82.7509 141.776C82.5109 141.744 82.2789 141.688 82.0549 141.608L82.5589 139.448C82.6709 139.48 82.7989 139.512 82.9429 139.544C83.1029 139.592 83.2549 139.616 83.3989 139.616C84.0229 139.616 84.5189 139.424 84.8869 139.04C85.2709 138.672 85.5589 138.192 85.7509 137.6L85.9669 136.856L81.3349 125.216H84.1429L86.1829 131C86.3589 131.512 86.5269 132.056 86.6869 132.632C86.8629 133.192 87.0389 133.752 87.2149 134.312H87.3109C87.4549 133.768 87.5989 133.216 87.7429 132.656C87.9029 132.08 88.0549 131.528 88.1989 131L89.9749 125.216H92.6389L88.3669 137.528C88.1269 138.2 87.8629 138.8 87.5749 139.328C87.2869 139.856 86.9509 140.304 86.5669 140.672C86.1989 141.056 85.7669 141.344 85.2709 141.536C84.7909 141.744 84.2309 141.848 83.5909 141.848ZM99.3651 137.288C98.6291 137.288 97.9251 137.152 97.2531 136.88C96.5811 136.608 95.9811 136.208 95.4531 135.68C94.9411 135.152 94.5331 134.504 94.2291 133.736C93.9251 132.968 93.7731 132.096 93.7731 131.12C93.7731 130.144 93.9251 129.272 94.2291 128.504C94.5331 127.736 94.9411 127.088 95.4531 126.56C95.9811 126.032 96.5811 125.632 97.2531 125.36C97.9251 125.072 98.6291 124.928 99.3651 124.928C100.101 124.928 100.805 125.072 101.477 125.36C102.165 125.632 102.765 126.032 103.277 126.56C103.789 127.088 104.197 127.736 104.501 128.504C104.821 129.272 104.981 130.144 104.981 131.12C104.981 132.096 104.821 132.968 104.501 133.736C104.197 134.504 103.789 135.152 103.277 135.68C102.765 136.208 102.165 136.608 101.477 136.88C100.805 137.152 100.101 137.288 99.3651 137.288ZM99.3651 135.032C100.229 135.032 100.909 134.68 101.405 133.976C101.901 133.256 102.149 132.304 102.149 131.12C102.149 129.92 101.901 128.968 101.405 128.264C100.909 127.544 100.229 127.184 99.3651 127.184C98.5011 127.184 97.8211 127.544 97.3251 128.264C96.8451 128.968 96.6051 129.92 96.6051 131.12C96.6051 132.304 96.8451 133.256 97.3251 133.976C97.8211 134.68 98.5011 135.032 99.3651 135.032ZM111.217 137.288C109.953 137.288 109.033 136.888 108.457 136.088C107.881 135.272 107.593 134.112 107.593 132.608V125.216H110.353V132.248C110.353 133.224 110.497 133.912 110.785 134.312C111.073 134.712 111.537 134.912 112.177 134.912C112.689 134.912 113.137 134.784 113.521 134.528C113.921 134.272 114.345 133.856 114.793 133.28V125.216H117.553V137H115.297L115.081 135.272H115.009C114.497 135.88 113.937 136.368 113.329 136.736C112.737 137.104 112.033 137.288 111.217 137.288ZM121.049 137V125.216H123.329L123.521 127.304H123.617C124.033 126.536 124.537 125.952 125.129 125.552C125.721 125.136 126.329 124.928 126.953 124.928C127.513 124.928 127.961 125.008 128.297 125.168L127.817 127.568C127.609 127.504 127.417 127.456 127.241 127.424C127.065 127.392 126.849 127.376 126.593 127.376C126.129 127.376 125.641 127.56 125.129 127.928C124.617 128.28 124.177 128.904 123.809 129.8V137H121.049ZM134.807 137V125.216H137.087L137.279 127.304H137.375C137.791 126.536 138.295 125.952 138.887 125.552C139.479 125.136 140.087 124.928 140.711 124.928C141.271 124.928 141.719 125.008 142.055 125.168L141.575 127.568C141.367 127.504 141.175 127.456 140.999 127.424C140.823 127.392 140.607 127.376 140.351 127.376C139.887 127.376 139.399 127.56 138.887 127.928C138.375 128.28 137.935 128.904 137.567 129.8V137H134.807ZM148.565 137.288C147.749 137.288 146.989 137.152 146.285 136.88C145.581 136.592 144.965 136.184 144.437 135.656C143.909 135.128 143.493 134.488 143.189 133.736C142.901 132.968 142.757 132.096 142.757 131.12C142.757 130.16 142.909 129.296 143.213 128.528C143.517 127.76 143.917 127.112 144.413 126.584C144.925 126.056 145.509 125.648 146.165 125.36C146.821 125.072 147.493 124.928 148.181 124.928C148.981 124.928 149.685 125.064 150.293 125.336C150.901 125.608 151.405 125.992 151.805 126.488C152.221 126.984 152.533 127.576 152.741 128.264C152.949 128.952 153.053 129.704 153.053 130.52C153.053 130.792 153.037 131.048 153.005 131.288C152.989 131.528 152.965 131.72 152.933 131.864H145.445C145.573 132.92 145.941 133.736 146.549 134.312C147.173 134.872 147.965 135.152 148.925 135.152C149.437 135.152 149.909 135.08 150.341 134.936C150.789 134.776 151.229 134.56 151.661 134.288L152.597 136.016C152.037 136.384 151.413 136.688 150.725 136.928C150.037 137.168 149.317 137.288 148.565 137.288ZM145.421 129.992H150.653C150.653 129.08 150.453 128.368 150.053 127.856C149.669 127.328 149.069 127.064 148.253 127.064C147.549 127.064 146.933 127.312 146.405 127.808C145.877 128.304 145.549 129.032 145.421 129.992ZM162.962 141.656V137.792L163.058 135.824C162.626 136.24 162.13 136.592 161.57 136.88C161.01 137.152 160.426 137.288 159.818 137.288C158.33 137.288 157.146 136.752 156.266 135.68C155.402 134.592 154.97 133.072 154.97 131.12C154.97 130.16 155.106 129.296 155.378 128.528C155.666 127.76 156.042 127.112 156.506 126.584C156.97 126.056 157.498 125.648 158.09 125.36C158.698 125.072 159.322 124.928 159.962 124.928C160.634 124.928 161.218 125.048 161.714 125.288C162.226 125.512 162.73 125.864 163.226 126.344H163.298L163.538 125.216H165.722V141.656H162.962ZM160.49 135.008C161.37 135.008 162.194 134.568 162.962 133.688V128.192C162.546 127.824 162.138 127.568 161.738 127.424C161.354 127.28 160.962 127.208 160.562 127.208C159.794 127.208 159.146 127.544 158.618 128.216C158.09 128.888 157.826 129.848 157.826 131.096C157.826 132.376 158.05 133.352 158.498 134.024C158.962 134.68 159.626 135.008 160.49 135.008ZM172.74 137.288C171.476 137.288 170.556 136.888 169.98 136.088C169.404 135.272 169.116 134.112 169.116 132.608V125.216H171.876V132.248C171.876 133.224 172.02 133.912 172.308 134.312C172.596 134.712 173.06 134.912 173.7 134.912C174.212 134.912 174.66 134.784 175.044 134.528C175.444 134.272 175.868 133.856 176.316 133.28V125.216H179.076V137H176.82L176.604 135.272H176.532C176.02 135.88 175.46 136.368 174.852 136.736C174.26 137.104 173.556 137.288 172.74 137.288ZM187.612 137.288C186.796 137.288 186.036 137.152 185.332 136.88C184.628 136.592 184.012 136.184 183.484 135.656C182.956 135.128 182.54 134.488 182.236 133.736C181.948 132.968 181.804 132.096 181.804 131.12C181.804 130.16 181.956 129.296 182.26 128.528C182.564 127.76 182.964 127.112 183.46 126.584C183.972 126.056 184.556 125.648 185.212 125.36C185.868 125.072 186.54 124.928 187.228 124.928C188.028 124.928 188.732 125.064 189.34 125.336C189.948 125.608 190.452 125.992 190.852 126.488C191.268 126.984 191.58 127.576 191.788 128.264C191.996 128.952 192.1 129.704 192.1 130.52C192.1 130.792 192.084 131.048 192.052 131.288C192.036 131.528 192.012 131.72 191.98 131.864H184.492C184.62 132.92 184.988 133.736 185.596 134.312C186.22 134.872 187.012 135.152 187.972 135.152C188.484 135.152 188.956 135.08 189.388 134.936C189.836 134.776 190.276 134.56 190.708 134.288L191.644 136.016C191.084 136.384 190.46 136.688 189.772 136.928C189.084 137.168 188.364 137.288 187.612 137.288ZM184.468 129.992H189.7C189.7 129.08 189.5 128.368 189.1 127.856C188.716 127.328 188.116 127.064 187.3 127.064C186.596 127.064 185.98 127.312 185.452 127.808C184.924 128.304 184.596 129.032 184.468 129.992ZM198.024 137.288C197.208 137.288 196.4 137.136 195.6 136.832C194.816 136.512 194.136 136.12 193.56 135.656L194.856 133.88C195.384 134.296 195.904 134.624 196.416 134.864C196.944 135.088 197.512 135.2 198.12 135.2C198.76 135.2 199.232 135.072 199.536 134.816C199.84 134.544 199.992 134.2 199.992 133.784C199.992 133.544 199.92 133.336 199.776 133.16C199.632 132.968 199.44 132.8 199.2 132.656C198.96 132.512 198.688 132.384 198.384 132.272C198.08 132.144 197.776 132.016 197.472 131.888C197.088 131.744 196.696 131.576 196.296 131.384C195.896 131.192 195.536 130.96 195.216 130.688C194.912 130.416 194.656 130.104 194.448 129.752C194.256 129.384 194.16 128.952 194.16 128.456C194.16 127.416 194.544 126.568 195.312 125.912C196.08 125.256 197.128 124.928 198.456 124.928C199.272 124.928 200.008 125.072 200.664 125.36C201.32 125.648 201.888 125.976 202.368 126.344L201.096 128.024C200.68 127.72 200.256 127.48 199.824 127.304C199.408 127.112 198.968 127.016 198.504 127.016C197.912 127.016 197.472 127.144 197.184 127.4C196.912 127.64 196.776 127.944 196.776 128.312C196.776 128.552 196.84 128.76 196.968 128.936C197.112 129.096 197.296 129.24 197.52 129.368C197.744 129.496 198 129.616 198.288 129.728C198.592 129.84 198.904 129.952 199.224 130.064C199.624 130.208 200.024 130.376 200.424 130.568C200.824 130.744 201.184 130.968 201.504 131.24C201.84 131.512 202.104 131.848 202.296 132.248C202.504 132.632 202.608 133.096 202.608 133.64C202.608 134.152 202.504 134.632 202.296 135.08C202.104 135.512 201.816 135.896 201.432 136.232C201.048 136.552 200.568 136.808 199.992 137C199.416 137.192 198.76 137.288 198.024 137.288ZM208.756 137.288C208.068 137.288 207.484 137.184 207.004 136.976C206.54 136.768 206.156 136.48 205.852 136.112C205.564 135.728 205.348 135.28 205.204 134.768C205.076 134.24 205.012 133.656 205.012 133.016V127.4H203.332V125.336L205.156 125.216L205.492 122H207.796V125.216H210.796V127.4H207.796V133.016C207.796 134.392 208.348 135.08 209.452 135.08C209.66 135.08 209.868 135.056 210.076 135.008C210.3 134.96 210.5 134.896 210.676 134.816L211.156 136.856C210.836 136.968 210.468 137.064 210.052 137.144C209.652 137.24 209.22 137.288 208.756 137.288Z" fill="black"/>
<path d="M7.72547 187V175.192H14.5295V176.452H9.21947V180.16H13.7015V181.438H9.21947V185.722H14.7095V187H7.72547ZM15.2872 187L18.1492 182.428L15.5032 178.252H17.1052L18.2752 180.178C18.4072 180.418 18.5452 180.664 18.6892 180.916C18.8332 181.156 18.9832 181.396 19.1392 181.636H19.2112C19.3432 181.396 19.4752 181.156 19.6072 180.916C19.7392 180.664 19.8712 180.418 20.0032 180.178L21.0652 178.252H22.6132L19.9672 182.59L22.8112 187H21.2092L19.9312 184.966C19.7752 184.702 19.6192 184.438 19.4632 184.174C19.3072 183.91 19.1452 183.652 18.9772 183.4H18.9052C18.7492 183.652 18.5992 183.91 18.4552 184.174C18.3112 184.426 18.1672 184.69 18.0232 184.966L16.8352 187H15.2872ZM24.5444 190.69V178.252H25.7684L25.8944 179.26H25.9484C26.3444 178.924 26.7764 178.636 27.2444 178.396C27.7244 178.156 28.2224 178.036 28.7384 178.036C29.3024 178.036 29.8004 178.144 30.2324 178.36C30.6644 178.564 31.0244 178.864 31.3124 179.26C31.6004 179.644 31.8164 180.112 31.9604 180.664C32.1164 181.204 32.1944 181.816 32.1944 182.5C32.1944 183.244 32.0924 183.91 31.8884 184.498C31.6844 185.074 31.4084 185.566 31.0604 185.974C30.7124 186.382 30.3104 186.694 29.8544 186.91C29.3984 187.114 28.9184 187.216 28.4144 187.216C28.0064 187.216 27.5984 187.126 27.1904 186.946C26.7944 186.766 26.3924 186.52 25.9844 186.208L26.0204 187.738V190.69H24.5444ZM28.1624 185.974C28.5224 185.974 28.8524 185.896 29.1524 185.74C29.4644 185.572 29.7284 185.344 29.9444 185.056C30.1724 184.756 30.3464 184.39 30.4664 183.958C30.5984 183.526 30.6644 183.04 30.6644 182.5C30.6644 182.02 30.6224 181.582 30.5384 181.186C30.4544 180.79 30.3164 180.454 30.1244 180.178C29.9444 179.89 29.7044 179.668 29.4044 179.512C29.1164 179.356 28.7684 179.278 28.3604 179.278C27.9884 179.278 27.6104 179.38 27.2264 179.584C26.8544 179.788 26.4524 180.082 26.0204 180.466V185.056C26.4164 185.392 26.8004 185.632 27.1724 185.776C27.5444 185.908 27.8744 185.974 28.1624 185.974ZM36.0947 187.216C35.5307 187.216 35.1287 187.048 34.8887 186.712C34.6487 186.376 34.5287 185.884 34.5287 185.236V174.184H36.0047V185.344C36.0047 185.584 36.0467 185.752 36.1307 185.848C36.2147 185.944 36.3107 185.992 36.4187 185.992C36.4667 185.992 36.5087 185.992 36.5447 185.992C36.5927 185.992 36.6587 185.98 36.7427 185.956L36.9407 187.072C36.8447 187.12 36.7307 187.156 36.5987 187.18C36.4667 187.204 36.2987 187.216 36.0947 187.216ZM41.1326 187.216C40.4006 187.216 39.7886 187 39.2966 186.568C38.8166 186.136 38.5766 185.524 38.5766 184.732C38.5766 183.772 39.0026 183.04 39.8546 182.536C40.7066 182.02 42.0686 181.66 43.9406 181.456C43.9406 181.18 43.9106 180.91 43.8506 180.646C43.8026 180.382 43.7126 180.148 43.5806 179.944C43.4486 179.74 43.2626 179.578 43.0226 179.458C42.7946 179.326 42.5006 179.26 42.1406 179.26C41.6366 179.26 41.1626 179.356 40.7186 179.548C40.2746 179.74 39.8786 179.956 39.5306 180.196L38.9546 179.17C39.3626 178.906 39.8606 178.654 40.4486 178.414C41.0366 178.162 41.6846 178.036 42.3926 178.036C43.4606 178.036 44.2346 178.366 44.7146 179.026C45.1946 179.674 45.4346 180.544 45.4346 181.636V187H44.2106L44.0846 185.956H44.0306C43.6106 186.304 43.1606 186.604 42.6806 186.856C42.2006 187.096 41.6846 187.216 41.1326 187.216ZM41.5646 186.028C41.9846 186.028 42.3806 185.932 42.7526 185.74C43.1246 185.536 43.5206 185.242 43.9406 184.858V182.428C43.2086 182.524 42.5906 182.638 42.0866 182.77C41.5946 182.902 41.1926 183.058 40.8806 183.238C40.5806 183.418 40.3586 183.628 40.2146 183.868C40.0826 184.096 40.0166 184.348 40.0166 184.624C40.0166 185.128 40.1666 185.488 40.4666 185.704C40.7666 185.92 41.1326 186.028 41.5646 186.028ZM48.1869 187V178.252H49.6629V187H48.1869ZM48.9429 176.452C48.6549 176.452 48.4089 176.362 48.2049 176.182C48.0129 176.002 47.9169 175.774 47.9169 175.498C47.9169 175.21 48.0129 174.982 48.2049 174.814C48.4089 174.634 48.6549 174.544 48.9429 174.544C49.2309 174.544 49.4709 174.634 49.6629 174.814C49.8669 174.982 49.9689 175.21 49.9689 175.498C49.9689 175.774 49.8669 176.002 49.6629 176.182C49.4709 176.362 49.2309 176.452 48.9429 176.452ZM52.6166 187V178.252H53.8406L53.9666 179.512H54.0206C54.4406 179.092 54.8786 178.744 55.3346 178.468C55.8026 178.18 56.3426 178.036 56.9546 178.036C57.8786 178.036 58.5506 178.324 58.9706 178.9C59.4026 179.476 59.6186 180.328 59.6186 181.456V187H58.1426V181.654C58.1426 180.826 58.0106 180.232 57.7466 179.872C57.4826 179.5 57.0626 179.314 56.4866 179.314C56.0306 179.314 55.6286 179.428 55.2806 179.656C54.9326 179.884 54.5366 180.22 54.0926 180.664V187H52.6166ZM67.4499 187L65.0199 178.252H66.5319L67.8279 183.31C67.9239 183.73 68.0139 184.138 68.0979 184.534C68.1819 184.93 68.2659 185.332 68.3499 185.74H68.4219C68.5179 185.332 68.6139 184.93 68.7099 184.534C68.8059 184.126 68.9079 183.718 69.0159 183.31L70.3659 178.252H71.8059L73.1739 183.31C73.2819 183.73 73.3839 184.138 73.4799 184.534C73.5879 184.93 73.6899 185.332 73.7859 185.74H73.8579C73.9539 185.332 74.0439 184.93 74.1279 184.534C74.2119 184.138 74.3019 183.73 74.3979 183.31L75.6759 178.252H77.0799L74.7399 187H72.9399L71.6799 182.302C71.5719 181.882 71.4699 181.468 71.3739 181.06C71.2899 180.652 71.1939 180.226 71.0859 179.782H71.0139C70.9179 180.226 70.8219 180.658 70.7259 181.078C70.6299 181.486 70.5219 181.9 70.4019 182.32L69.1779 187H67.4499ZM78.9838 187V174.184H80.4598V177.676L80.4058 179.476C80.8258 179.08 81.2638 178.744 81.7198 178.468C82.1758 178.18 82.7098 178.036 83.3218 178.036C84.2458 178.036 84.9178 178.324 85.3378 178.9C85.7698 179.476 85.9858 180.328 85.9858 181.456V187H84.5098V181.654C84.5098 180.826 84.3778 180.232 84.1138 179.872C83.8498 179.5 83.4298 179.314 82.8538 179.314C82.3978 179.314 81.9958 179.428 81.6478 179.656C81.2998 179.884 80.9038 180.22 80.4598 180.664V187H78.9838ZM90.7908 187.216C90.0588 187.216 89.4468 187 88.9548 186.568C88.4748 186.136 88.2348 185.524 88.2348 184.732C88.2348 183.772 88.6608 183.04 89.5128 182.536C90.3648 182.02 91.7268 181.66 93.5988 181.456C93.5988 181.18 93.5688 180.91 93.5088 180.646C93.4608 180.382 93.3708 180.148 93.2388 179.944C93.1068 179.74 92.9208 179.578 92.6808 179.458C92.4528 179.326 92.1588 179.26 91.7988 179.26C91.2948 179.26 90.8208 179.356 90.3768 179.548C89.9328 179.74 89.5368 179.956 89.1888 180.196L88.6128 179.17C89.0208 178.906 89.5188 178.654 90.1068 178.414C90.6948 178.162 91.3428 178.036 92.0508 178.036C93.1188 178.036 93.8928 178.366 94.3728 179.026C94.8528 179.674 95.0928 180.544 95.0928 181.636V187H93.8688L93.7428 185.956H93.6888C93.2688 186.304 92.8188 186.604 92.3388 186.856C91.8588 187.096 91.3428 187.216 90.7908 187.216ZM91.2228 186.028C91.6428 186.028 92.0388 185.932 92.4108 185.74C92.7828 185.536 93.1788 185.242 93.5988 184.858V182.428C92.8668 182.524 92.2488 182.638 91.7448 182.77C91.2528 182.902 90.8508 183.058 90.5388 183.238C90.2388 183.418 90.0168 183.628 89.8728 183.868C89.7408 184.096 89.6748 184.348 89.6748 184.624C89.6748 185.128 89.8248 185.488 90.1248 185.704C90.4248 185.92 90.7908 186.028 91.2228 186.028ZM100.353 187.216C99.885 187.216 99.489 187.144 99.165 187C98.853 186.856 98.595 186.658 98.391 186.406C98.199 186.154 98.061 185.848 97.977 185.488C97.893 185.128 97.851 184.732 97.851 184.3V179.458H96.555V178.342L97.923 178.252L98.103 175.804H99.345V178.252H101.703V179.458H99.345V184.318C99.345 184.858 99.441 185.278 99.633 185.578C99.837 185.866 100.191 186.01 100.695 186.01C100.851 186.01 101.019 185.986 101.199 185.938C101.379 185.89 101.541 185.836 101.685 185.776L101.973 186.892C101.733 186.976 101.469 187.048 101.181 187.108C100.905 187.18 100.629 187.216 100.353 187.216ZM107.429 190.762C107.225 190.762 107.039 190.744 106.871 190.708C106.703 190.684 106.547 190.642 106.403 190.582L106.691 189.412C106.787 189.436 106.895 189.46 107.015 189.484C107.135 189.52 107.249 189.538 107.357 189.538C107.861 189.538 108.269 189.358 108.581 188.998C108.905 188.65 109.157 188.206 109.337 187.666L109.535 187.018L106.025 178.252H107.555L109.337 183.094C109.469 183.478 109.607 183.886 109.751 184.318C109.907 184.738 110.051 185.152 110.183 185.56H110.255C110.387 185.164 110.513 184.75 110.633 184.318C110.753 183.886 110.873 183.478 110.993 183.094L112.559 178.252H113.999L110.705 187.72C110.549 188.152 110.375 188.554 110.183 188.926C109.991 189.298 109.763 189.616 109.499 189.88C109.235 190.156 108.935 190.372 108.599 190.528C108.263 190.684 107.873 190.762 107.429 190.762ZM119.019 187.216C118.479 187.216 117.963 187.114 117.471 186.91C116.991 186.706 116.565 186.412 116.193 186.028C115.821 185.632 115.521 185.152 115.293 184.588C115.077 184.012 114.969 183.364 114.969 182.644C114.969 181.912 115.077 181.264 115.293 180.7C115.521 180.124 115.821 179.638 116.193 179.242C116.565 178.846 116.991 178.546 117.471 178.342C117.963 178.138 118.479 178.036 119.019 178.036C119.559 178.036 120.069 178.138 120.549 178.342C121.041 178.546 121.473 178.846 121.845 179.242C122.217 179.638 122.511 180.124 122.727 180.7C122.955 181.264 123.069 181.912 123.069 182.644C123.069 183.364 122.955 184.012 122.727 184.588C122.511 185.152 122.217 185.632 121.845 186.028C121.473 186.412 121.041 186.706 120.549 186.91C120.069 187.114 119.559 187.216 119.019 187.216ZM119.019 185.992C119.391 185.992 119.733 185.914 120.045 185.758C120.357 185.59 120.621 185.362 120.837 185.074C121.065 184.774 121.239 184.42 121.359 184.012C121.479 183.604 121.539 183.148 121.539 182.644C121.539 182.14 121.479 181.684 121.359 181.276C121.239 180.856 121.065 180.496 120.837 180.196C120.621 179.896 120.357 179.668 120.045 179.512C119.733 179.344 119.391 179.26 119.019 179.26C118.647 179.26 118.305 179.344 117.993 179.512C117.681 179.668 117.411 179.896 117.183 180.196C116.967 180.496 116.799 180.856 116.679 181.276C116.559 181.684 116.499 182.14 116.499 182.644C116.499 183.148 116.559 183.604 116.679 184.012C116.799 184.42 116.967 184.774 117.183 185.074C117.411 185.362 117.681 185.59 117.993 185.758C118.305 185.914 118.647 185.992 119.019 185.992ZM127.928 187.216C126.992 187.216 126.308 186.928 125.876 186.352C125.456 185.776 125.246 184.924 125.246 183.796V178.252H126.74V183.598C126.74 184.426 126.866 185.026 127.118 185.398C127.382 185.758 127.802 185.938 128.378 185.938C128.834 185.938 129.236 185.824 129.584 185.596C129.932 185.356 130.316 184.978 130.736 184.462V178.252H132.212V187H130.988L130.862 185.632H130.808C130.4 186.112 129.968 186.496 129.512 186.784C129.068 187.072 128.54 187.216 127.928 187.216ZM135.236 179.242L134.822 178.558C135.278 178.258 135.614 177.94 135.83 177.604C136.058 177.256 136.172 176.824 136.172 176.308C136.136 176.32 136.088 176.326 136.028 176.326C135.776 176.326 135.554 176.248 135.362 176.092C135.17 175.936 135.074 175.714 135.074 175.426C135.074 175.114 135.164 174.868 135.344 174.688C135.524 174.508 135.752 174.418 136.028 174.418C136.376 174.418 136.652 174.562 136.856 174.85C137.06 175.126 137.162 175.528 137.162 176.056C137.162 176.776 136.994 177.4 136.658 177.928C136.334 178.444 135.86 178.882 135.236 179.242ZM139.417 187V178.252H140.641L140.767 179.836H140.821C141.121 179.284 141.481 178.846 141.901 178.522C142.333 178.198 142.801 178.036 143.305 178.036C143.653 178.036 143.965 178.096 144.241 178.216L143.953 179.512C143.809 179.464 143.677 179.428 143.557 179.404C143.437 179.38 143.287 179.368 143.107 179.368C142.735 179.368 142.345 179.518 141.937 179.818C141.541 180.118 141.193 180.64 140.893 181.384V187H139.417ZM149.028 187.216C148.44 187.216 147.888 187.114 147.372 186.91C146.868 186.694 146.424 186.394 146.04 186.01C145.668 185.614 145.374 185.134 145.158 184.57C144.942 184.006 144.834 183.364 144.834 182.644C144.834 181.924 144.942 181.282 145.158 180.718C145.386 180.142 145.68 179.656 146.04 179.26C146.412 178.864 146.832 178.564 147.3 178.36C147.768 178.144 148.254 178.036 148.758 178.036C149.31 178.036 149.802 178.132 150.234 178.324C150.678 178.516 151.044 178.792 151.332 179.152C151.632 179.512 151.86 179.944 152.016 180.448C152.172 180.952 152.25 181.516 152.25 182.14C152.25 182.296 152.244 182.452 152.232 182.608C152.232 182.752 152.22 182.878 152.196 182.986H146.292C146.352 183.922 146.64 184.666 147.156 185.218C147.684 185.758 148.368 186.028 149.208 186.028C149.628 186.028 150.012 185.968 150.36 185.848C150.72 185.716 151.062 185.548 151.386 185.344L151.908 186.316C151.524 186.556 151.098 186.766 150.63 186.946C150.162 187.126 149.628 187.216 149.028 187.216ZM146.274 181.924H150.954C150.954 181.036 150.762 180.364 150.378 179.908C150.006 179.44 149.478 179.206 148.794 179.206C148.482 179.206 148.182 179.266 147.894 179.386C147.618 179.506 147.366 179.686 147.138 179.926C146.91 180.154 146.718 180.436 146.562 180.772C146.418 181.108 146.322 181.492 146.274 181.924ZM159.581 187.216C159.017 187.216 158.615 187.048 158.375 186.712C158.135 186.376 158.015 185.884 158.015 185.236V174.184H159.491V185.344C159.491 185.584 159.533 185.752 159.617 185.848C159.701 185.944 159.797 185.992 159.905 185.992C159.953 185.992 159.995 185.992 160.031 185.992C160.079 185.992 160.145 185.98 160.229 185.956L160.427 187.072C160.331 187.12 160.217 187.156 160.085 187.18C159.953 187.204 159.785 187.216 159.581 187.216ZM166.005 187.216C165.465 187.216 164.949 187.114 164.457 186.91C163.977 186.706 163.551 186.412 163.179 186.028C162.807 185.632 162.507 185.152 162.279 184.588C162.063 184.012 161.955 183.364 161.955 182.644C161.955 181.912 162.063 181.264 162.279 180.7C162.507 180.124 162.807 179.638 163.179 179.242C163.551 178.846 163.977 178.546 164.457 178.342C164.949 178.138 165.465 178.036 166.005 178.036C166.545 178.036 167.055 178.138 167.535 178.342C168.027 178.546 168.459 178.846 168.831 179.242C169.203 179.638 169.497 180.124 169.713 180.7C169.941 181.264 170.055 181.912 170.055 182.644C170.055 183.364 169.941 184.012 169.713 184.588C169.497 185.152 169.203 185.632 168.831 186.028C168.459 186.412 168.027 186.706 167.535 186.91C167.055 187.114 166.545 187.216 166.005 187.216ZM166.005 185.992C166.377 185.992 166.719 185.914 167.031 185.758C167.343 185.59 167.607 185.362 167.823 185.074C168.051 184.774 168.225 184.42 168.345 184.012C168.465 183.604 168.525 183.148 168.525 182.644C168.525 182.14 168.465 181.684 168.345 181.276C168.225 180.856 168.051 180.496 167.823 180.196C167.607 179.896 167.343 179.668 167.031 179.512C166.719 179.344 166.377 179.26 166.005 179.26C165.633 179.26 165.291 179.344 164.979 179.512C164.667 179.668 164.397 179.896 164.169 180.196C163.953 180.496 163.785 180.856 163.665 181.276C163.545 181.684 163.485 182.14 163.485 182.644C163.485 183.148 163.545 183.604 163.665 184.012C163.785 184.42 163.953 184.774 164.169 185.074C164.397 185.362 164.667 185.59 164.979 185.758C165.291 185.914 165.633 185.992 166.005 185.992ZM175.761 187.216C175.221 187.216 174.705 187.114 174.213 186.91C173.733 186.706 173.307 186.412 172.935 186.028C172.563 185.632 172.263 185.152 172.035 184.588C171.819 184.012 171.711 183.364 171.711 182.644C171.711 181.912 171.819 181.264 172.035 180.7C172.263 180.124 172.563 179.638 172.935 179.242C173.307 178.846 173.733 178.546 174.213 178.342C174.705 178.138 175.221 178.036 175.761 178.036C176.301 178.036 176.811 178.138 177.291 178.342C177.783 178.546 178.215 178.846 178.587 179.242C178.959 179.638 179.253 180.124 179.469 180.7C179.697 181.264 179.811 181.912 179.811 182.644C179.811 183.364 179.697 184.012 179.469 184.588C179.253 185.152 178.959 185.632 178.587 186.028C178.215 186.412 177.783 186.706 177.291 186.91C176.811 187.114 176.301 187.216 175.761 187.216ZM175.761 185.992C176.133 185.992 176.475 185.914 176.787 185.758C177.099 185.59 177.363 185.362 177.579 185.074C177.807 184.774 177.981 184.42 178.101 184.012C178.221 183.604 178.281 183.148 178.281 182.644C178.281 182.14 178.221 181.684 178.101 181.276C177.981 180.856 177.807 180.496 177.579 180.196C177.363 179.896 177.099 179.668 176.787 179.512C176.475 179.344 176.133 179.26 175.761 179.26C175.389 179.26 175.047 179.344 174.735 179.512C174.423 179.668 174.153 179.896 173.925 180.196C173.709 180.496 173.541 180.856 173.421 181.276C173.301 181.684 173.241 182.14 173.241 182.644C173.241 183.148 173.301 183.604 173.421 184.012C173.541 184.42 173.709 184.774 173.925 185.074C174.153 185.362 174.423 185.59 174.735 185.758C175.047 185.914 175.389 185.992 175.761 185.992ZM182.115 187V174.184H183.573V182.86H183.627L187.353 178.252H188.991L186.057 181.762L189.387 187H187.767L185.211 182.788L183.573 184.696V187H182.115ZM191.027 187V178.252H192.503V187H191.027ZM191.783 176.452C191.495 176.452 191.249 176.362 191.045 176.182C190.853 176.002 190.757 175.774 190.757 175.498C190.757 175.21 190.853 174.982 191.045 174.814C191.249 174.634 191.495 174.544 191.783 174.544C192.071 174.544 192.311 174.634 192.503 174.814C192.707 174.982 192.809 175.21 192.809 175.498C192.809 175.774 192.707 176.002 192.503 176.182C192.311 176.362 192.071 176.452 191.783 176.452ZM195.456 187V178.252H196.68L196.806 179.512H196.86C197.28 179.092 197.718 178.744 198.174 178.468C198.642 178.18 199.182 178.036 199.794 178.036C200.718 178.036 201.39 178.324 201.81 178.9C202.242 179.476 202.458 180.328 202.458 181.456V187H200.982V181.654C200.982 180.826 200.85 180.232 200.586 179.872C200.322 179.5 199.902 179.314 199.326 179.314C198.87 179.314 198.468 179.428 198.12 179.656C197.772 179.884 197.376 180.22 196.932 180.664V187H195.456ZM208.252 191.032C207.712 191.032 207.22 190.978 206.776 190.87C206.332 190.774 205.948 190.624 205.624 190.42C205.312 190.216 205.066 189.97 204.886 189.682C204.718 189.394 204.634 189.058 204.634 188.674C204.634 188.302 204.748 187.948 204.976 187.612C205.204 187.276 205.516 186.97 205.912 186.694V186.622C205.696 186.49 205.51 186.31 205.354 186.082C205.21 185.842 205.138 185.548 205.138 185.2C205.138 184.828 205.24 184.504 205.444 184.228C205.648 183.952 205.864 183.736 206.092 183.58V183.508C205.804 183.268 205.54 182.95 205.3 182.554C205.072 182.146 204.958 181.678 204.958 181.15C204.958 180.67 205.042 180.238 205.21 179.854C205.39 179.47 205.63 179.146 205.93 178.882C206.23 178.606 206.578 178.396 206.974 178.252C207.382 178.108 207.808 178.036 208.252 178.036C208.492 178.036 208.714 178.06 208.918 178.108C209.134 178.144 209.326 178.192 209.494 178.252H212.536V179.386H210.736C210.94 179.59 211.108 179.848 211.24 180.16C211.384 180.472 211.456 180.814 211.456 181.186C211.456 181.654 211.372 182.08 211.204 182.464C211.036 182.836 210.808 183.154 210.52 183.418C210.232 183.67 209.89 183.868 209.494 184.012C209.11 184.156 208.696 184.228 208.252 184.228C208.036 184.228 207.814 184.204 207.586 184.156C207.358 184.096 207.142 184.018 206.938 183.922C206.782 184.054 206.65 184.204 206.542 184.372C206.434 184.528 206.38 184.726 206.38 184.966C206.38 185.242 206.488 185.47 206.704 185.65C206.92 185.83 207.328 185.92 207.928 185.92H209.62C210.64 185.92 211.402 186.088 211.906 186.424C212.422 186.748 212.68 187.276 212.68 188.008C212.68 188.416 212.578 188.8 212.374 189.16C212.17 189.532 211.876 189.856 211.492 190.132C211.108 190.408 210.64 190.624 210.088 190.78C209.548 190.948 208.936 191.032 208.252 191.032ZM208.252 183.238C208.504 183.238 208.738 183.19 208.954 183.094C209.182 182.998 209.38 182.86 209.548 182.68C209.728 182.5 209.866 182.284 209.962 182.032C210.058 181.768 210.106 181.474 210.106 181.15C210.106 180.502 209.926 180.004 209.566 179.656C209.206 179.296 208.768 179.116 208.252 179.116C207.736 179.116 207.298 179.296 206.938 179.656C206.578 180.004 206.398 180.502 206.398 181.15C206.398 181.474 206.446 181.768 206.542 182.032C206.638 182.284 206.77 182.5 206.938 182.68C207.118 182.86 207.316 182.998 207.532 183.094C207.76 183.19 208 183.238 208.252 183.238ZM208.468 190.006C208.888 190.006 209.266 189.952 209.602 189.844C209.95 189.748 210.244 189.616 210.484 189.448C210.724 189.292 210.91 189.106 211.042 188.89C211.174 188.674 211.24 188.452 211.24 188.224C211.24 187.816 211.09 187.534 210.79 187.378C210.49 187.222 210.052 187.144 209.476 187.144H207.964C207.796 187.144 207.61 187.132 207.406 187.108C207.214 187.096 207.022 187.06 206.83 187C206.518 187.228 206.29 187.468 206.146 187.72C206.002 187.972 205.93 188.224 205.93 188.476C205.93 188.944 206.152 189.316 206.596 189.592C207.052 189.868 207.676 190.006 208.468 190.006ZM28.5757 212V204.458H27.3877V203.342L28.5757 203.252V201.866C28.5757 200.966 28.7797 200.258 29.1877 199.742C29.6077 199.226 30.2557 198.968 31.1317 198.968C31.4077 198.968 31.6657 198.998 31.9057 199.058C32.1577 199.106 32.3857 199.172 32.5897 199.256L32.2657 200.39C31.9417 200.246 31.6117 200.174 31.2757 200.174C30.4597 200.174 30.0517 200.738 30.0517 201.866V203.252H31.9057V204.458H30.0517V212H28.5757ZM36.8057 212.216C36.2657 212.216 35.7497 212.114 35.2577 211.91C34.7777 211.706 34.3517 211.412 33.9797 211.028C33.6077 210.632 33.3077 210.152 33.0797 209.588C32.8637 209.012 32.7557 208.364 32.7557 207.644C32.7557 206.912 32.8637 206.264 33.0797 205.7C33.3077 205.124 33.6077 204.638 33.9797 204.242C34.3517 203.846 34.7777 203.546 35.2577 203.342C35.7497 203.138 36.2657 203.036 36.8057 203.036C37.3457 203.036 37.8557 203.138 38.3357 203.342C38.8277 203.546 39.2597 203.846 39.6317 204.242C40.0037 204.638 40.2977 205.124 40.5137 205.7C40.7417 206.264 40.8557 206.912 40.8557 207.644C40.8557 208.364 40.7417 209.012 40.5137 209.588C40.2977 210.152 40.0037 210.632 39.6317 211.028C39.2597 211.412 38.8277 211.706 38.3357 211.91C37.8557 212.114 37.3457 212.216 36.8057 212.216ZM36.8057 210.992C37.1777 210.992 37.5197 210.914 37.8317 210.758C38.1437 210.59 38.4077 210.362 38.6237 210.074C38.8517 209.774 39.0257 209.42 39.1457 209.012C39.2657 208.604 39.3257 208.148 39.3257 207.644C39.3257 207.14 39.2657 206.684 39.1457 206.276C39.0257 205.856 38.8517 205.496 38.6237 205.196C38.4077 204.896 38.1437 204.668 37.8317 204.512C37.5197 204.344 37.1777 204.26 36.8057 204.26C36.4337 204.26 36.0917 204.344 35.7797 204.512C35.4677 204.668 35.1977 204.896 34.9697 205.196C34.7537 205.496 34.5857 205.856 34.4657 206.276C34.3457 206.684 34.2857 207.14 34.2857 207.644C34.2857 208.148 34.3457 208.604 34.4657 209.012C34.5857 209.42 34.7537 209.774 34.9697 210.074C35.1977 210.362 35.4677 210.59 35.7797 210.758C36.0917 210.914 36.4337 210.992 36.8057 210.992ZM43.1596 212V203.252H44.3836L44.5096 204.836H44.5636C44.8636 204.284 45.2236 203.846 45.6436 203.522C46.0756 203.198 46.5436 203.036 47.0476 203.036C47.3956 203.036 47.7076 203.096 47.9836 203.216L47.6956 204.512C47.5516 204.464 47.4196 204.428 47.2996 204.404C47.1796 204.38 47.0296 204.368 46.8496 204.368C46.4776 204.368 46.0876 204.518 45.6796 204.818C45.2836 205.118 44.9356 205.64 44.6356 206.384V212H43.1596ZM55.2893 212.216C54.6653 212.216 54.0713 212.102 53.5073 211.874C52.9433 211.646 52.4513 211.358 52.0313 211.01L52.7693 210.02C53.1533 210.332 53.5433 210.584 53.9393 210.776C54.3473 210.968 54.8153 211.064 55.3433 211.064C55.9193 211.064 56.3513 210.932 56.6393 210.668C56.9273 210.404 57.0713 210.08 57.0713 209.696C57.0713 209.468 57.0113 209.27 56.8913 209.102C56.7713 208.934 56.6153 208.79 56.4233 208.67C56.2433 208.538 56.0333 208.424 55.7933 208.328C55.5533 208.232 55.3133 208.136 55.0733 208.04C54.7613 207.932 54.4493 207.812 54.1373 207.68C53.8253 207.536 53.5433 207.368 53.2913 207.176C53.0513 206.972 52.8533 206.738 52.6973 206.474C52.5413 206.21 52.4633 205.892 52.4633 205.52C52.4633 205.172 52.5293 204.848 52.6613 204.548C52.8053 204.236 53.0033 203.972 53.2553 203.756C53.5193 203.528 53.8373 203.354 54.2093 203.234C54.5813 203.102 55.0013 203.036 55.4693 203.036C56.0213 203.036 56.5253 203.132 56.9813 203.324C57.4493 203.516 57.8513 203.75 58.1873 204.026L57.4853 204.962C57.1853 204.734 56.8733 204.548 56.5493 204.404C56.2253 204.26 55.8713 204.188 55.4873 204.188C54.9353 204.188 54.5273 204.314 54.2633 204.566C54.0113 204.818 53.8853 205.112 53.8853 205.448C53.8853 205.652 53.9393 205.832 54.0473 205.988C54.1553 206.132 54.2993 206.264 54.4793 206.384C54.6593 206.492 54.8633 206.594 55.0913 206.69C55.3313 206.774 55.5773 206.864 55.8293 206.96C56.1413 207.08 56.4533 207.206 56.7653 207.338C57.0893 207.47 57.3773 207.638 57.6293 207.842C57.8813 208.034 58.0853 208.274 58.2413 208.562C58.4093 208.85 58.4933 209.198 58.4933 209.606C58.4933 209.966 58.4213 210.302 58.2773 210.614C58.1453 210.926 57.9413 211.202 57.6653 211.442C57.4013 211.682 57.0653 211.868 56.6573 212C56.2613 212.144 55.8053 212.216 55.2893 212.216ZM63.9464 212.216C63.4064 212.216 62.8904 212.114 62.3984 211.91C61.9184 211.706 61.4924 211.412 61.1204 211.028C60.7484 210.632 60.4484 210.152 60.2204 209.588C60.0044 209.012 59.8964 208.364 59.8964 207.644C59.8964 206.912 60.0044 206.264 60.2204 205.7C60.4484 205.124 60.7484 204.638 61.1204 204.242C61.4924 203.846 61.9184 203.546 62.3984 203.342C62.8904 203.138 63.4064 203.036 63.9464 203.036C64.4864 203.036 64.9964 203.138 65.4764 203.342C65.9684 203.546 66.4004 203.846 66.7724 204.242C67.1444 204.638 67.4384 205.124 67.6544 205.7C67.8824 206.264 67.9964 206.912 67.9964 207.644C67.9964 208.364 67.8824 209.012 67.6544 209.588C67.4384 210.152 67.1444 210.632 66.7724 211.028C66.4004 211.412 65.9684 211.706 65.4764 211.91C64.9964 212.114 64.4864 212.216 63.9464 212.216ZM63.9464 210.992C64.3184 210.992 64.6604 210.914 64.9724 210.758C65.2844 210.59 65.5484 210.362 65.7644 210.074C65.9924 209.774 66.1664 209.42 66.2864 209.012C66.4064 208.604 66.4664 208.148 66.4664 207.644C66.4664 207.14 66.4064 206.684 66.2864 206.276C66.1664 205.856 65.9924 205.496 65.7644 205.196C65.5484 204.896 65.2844 204.668 64.9724 204.512C64.6604 204.344 64.3184 204.26 63.9464 204.26C63.5744 204.26 63.2324 204.344 62.9204 204.512C62.6084 204.668 62.3384 204.896 62.1104 205.196C61.8944 205.496 61.7264 205.856 61.6064 206.276C61.4864 206.684 61.4264 207.14 61.4264 207.644C61.4264 208.148 61.4864 208.604 61.6064 209.012C61.7264 209.42 61.8944 209.774 62.1104 210.074C62.3384 210.362 62.6084 210.59 62.9204 210.758C63.2324 210.914 63.5744 210.992 63.9464 210.992ZM77.3057 212.216C76.7657 212.216 76.2497 212.114 75.7577 211.91C75.2777 211.706 74.8517 211.412 74.4797 211.028C74.1077 210.632 73.8077 210.152 73.5797 209.588C73.3637 209.012 73.2557 208.364 73.2557 207.644C73.2557 206.912 73.3637 206.264 73.5797 205.7C73.8077 205.124 74.1077 204.638 74.4797 204.242C74.8517 203.846 75.2777 203.546 75.7577 203.342C76.2497 203.138 76.7657 203.036 77.3057 203.036C77.8457 203.036 78.3557 203.138 78.8357 203.342C79.3277 203.546 79.7597 203.846 80.1317 204.242C80.5037 204.638 80.7977 205.124 81.0137 205.7C81.2417 206.264 81.3557 206.912 81.3557 207.644C81.3557 208.364 81.2417 209.012 81.0137 209.588C80.7977 210.152 80.5037 210.632 80.1317 211.028C79.7597 211.412 79.3277 211.706 78.8357 211.91C78.3557 212.114 77.8457 212.216 77.3057 212.216ZM77.3057 210.992C77.6777 210.992 78.0197 210.914 78.3317 210.758C78.6437 210.59 78.9077 210.362 79.1237 210.074C79.3517 209.774 79.5257 209.42 79.6457 209.012C79.7657 208.604 79.8257 208.148 79.8257 207.644C79.8257 207.14 79.7657 206.684 79.6457 206.276C79.5257 205.856 79.3517 205.496 79.1237 205.196C78.9077 204.896 78.6437 204.668 78.3317 204.512C78.0197 204.344 77.6777 204.26 77.3057 204.26C76.9337 204.26 76.5917 204.344 76.2797 204.512C75.9677 204.668 75.6977 204.896 75.4697 205.196C75.2537 205.496 75.0857 205.856 74.9657 206.276C74.8457 206.684 74.7857 207.14 74.7857 207.644C74.7857 208.148 74.8457 208.604 74.9657 209.012C75.0857 209.42 75.2537 209.774 75.4697 210.074C75.6977 210.362 75.9677 210.59 76.2797 210.758C76.5917 210.914 76.9337 210.992 77.3057 210.992ZM86.1148 212.216C85.6468 212.216 85.2508 212.144 84.9268 212C84.6148 211.856 84.3568 211.658 84.1528 211.406C83.9608 211.154 83.8228 210.848 83.7388 210.488C83.6548 210.128 83.6128 209.732 83.6128 209.3V204.458H82.3168V203.342L83.6848 203.252L83.8648 200.804H85.1068V203.252H87.4648V204.458H85.1068V209.318C85.1068 209.858 85.2028 210.278 85.3948 210.578C85.5988 210.866 85.9528 211.01 86.4568 211.01C86.6128 211.01 86.7808 210.986 86.9608 210.938C87.1408 210.89 87.3028 210.836 87.4468 210.776L87.7348 211.892C87.4948 211.976 87.2308 212.048 86.9428 212.108C86.6668 212.18 86.3908 212.216 86.1148 212.216ZM89.4428 212V199.184H90.9188V202.676L90.8648 204.476C91.2848 204.08 91.7228 203.744 92.1788 203.468C92.6348 203.18 93.1688 203.036 93.7808 203.036C94.7048 203.036 95.3768 203.324 95.7968 203.9C96.2288 204.476 96.4448 205.328 96.4448 206.456V212H94.9688V206.654C94.9688 205.826 94.8368 205.232 94.5728 204.872C94.3088 204.5 93.8888 204.314 93.3128 204.314C92.8568 204.314 92.4548 204.428 92.1068 204.656C91.7588 204.884 91.3628 205.22 90.9188 205.664V212H89.4428ZM102.78 212.216C102.192 212.216 101.64 212.114 101.124 211.91C100.62 211.694 100.176 211.394 99.7918 211.01C99.4198 210.614 99.1258 210.134 98.9098 209.57C98.6938 209.006 98.5858 208.364 98.5858 207.644C98.5858 206.924 98.6938 206.282 98.9098 205.718C99.1378 205.142 99.4318 204.656 99.7918 204.26C100.164 203.864 100.584 203.564 101.052 203.36C101.52 203.144 102.006 203.036 102.51 203.036C103.062 203.036 103.554 203.132 103.986 203.324C104.43 203.516 104.796 203.792 105.084 204.152C105.384 204.512 105.612 204.944 105.768 205.448C105.924 205.952 106.002 206.516 106.002 207.14C106.002 207.296 105.996 207.452 105.984 207.608C105.984 207.752 105.972 207.878 105.948 207.986H100.044C100.104 208.922 100.392 209.666 100.908 210.218C101.436 210.758 102.12 211.028 102.96 211.028C103.38 211.028 103.764 210.968 104.112 210.848C104.472 210.716 104.814 210.548 105.138 210.344L105.66 211.316C105.276 211.556 104.85 211.766 104.382 211.946C103.914 212.126 103.38 212.216 102.78 212.216ZM100.026 206.924H104.706C104.706 206.036 104.514 205.364 104.13 204.908C103.758 204.44 103.23 204.206 102.546 204.206C102.234 204.206 101.934 204.266 101.646 204.386C101.37 204.506 101.118 204.686 100.89 204.926C100.662 205.154 100.47 205.436 100.314 205.772C100.17 206.108 100.074 206.492 100.026 206.924ZM108.164 212V203.252H109.388L109.514 204.836H109.568C109.868 204.284 110.228 203.846 110.648 203.522C111.08 203.198 111.548 203.036 112.052 203.036C112.4 203.036 112.712 203.096 112.988 203.216L112.7 204.512C112.556 204.464 112.424 204.428 112.304 204.404C112.184 204.38 112.034 204.368 111.854 204.368C111.482 204.368 111.092 204.518 110.684 204.818C110.288 205.118 109.94 205.64 109.64 206.384V212H108.164ZM116.619 212.216C115.995 212.216 115.401 212.102 114.837 211.874C114.273 211.646 113.781 211.358 113.361 211.01L114.099 210.02C114.483 210.332 114.873 210.584 115.269 210.776C115.677 210.968 116.145 211.064 116.673 211.064C117.249 211.064 117.681 210.932 117.969 210.668C118.257 210.404 118.401 210.08 118.401 209.696C118.401 209.468 118.341 209.27 118.221 209.102C118.101 208.934 117.945 208.79 117.753 208.67C117.573 208.538 117.363 208.424 117.123 208.328C116.883 208.232 116.643 208.136 116.403 208.04C116.091 207.932 115.779 207.812 115.467 207.68C115.155 207.536 114.873 207.368 114.621 207.176C114.381 206.972 114.183 206.738 114.027 206.474C113.871 206.21 113.793 205.892 113.793 205.52C113.793 205.172 113.859 204.848 113.991 204.548C114.135 204.236 114.333 203.972 114.585 203.756C114.849 203.528 115.167 203.354 115.539 203.234C115.911 203.102 116.331 203.036 116.799 203.036C117.351 203.036 117.855 203.132 118.311 203.324C118.779 203.516 119.181 203.75 119.517 204.026L118.815 204.962C118.515 204.734 118.203 204.548 117.879 204.404C117.555 204.26 117.201 204.188 116.817 204.188C116.265 204.188 115.857 204.314 115.593 204.566C115.341 204.818 115.215 205.112 115.215 205.448C115.215 205.652 115.269 205.832 115.377 205.988C115.485 206.132 115.629 206.264 115.809 206.384C115.989 206.492 116.193 206.594 116.421 206.69C116.661 206.774 116.907 206.864 117.159 206.96C117.471 207.08 117.783 207.206 118.095 207.338C118.419 207.47 118.707 207.638 118.959 207.842C119.211 208.034 119.415 208.274 119.571 208.562C119.739 208.85 119.823 209.198 119.823 209.606C119.823 209.966 119.751 210.302 119.607 210.614C119.475 210.926 119.271 211.202 118.995 211.442C118.731 211.682 118.395 211.868 117.987 212C117.591 212.144 117.135 212.216 116.619 212.216ZM128.934 212.216C128.358 212.216 127.818 212.114 127.314 211.91C126.81 211.706 126.372 211.412 126 211.028C125.64 210.632 125.352 210.152 125.136 209.588C124.932 209.012 124.83 208.364 124.83 207.644C124.83 206.912 124.944 206.264 125.172 205.7C125.4 205.124 125.706 204.638 126.09 204.242C126.474 203.846 126.918 203.546 127.422 203.342C127.938 203.138 128.478 203.036 129.042 203.036C129.618 203.036 130.11 203.138 130.518 203.342C130.926 203.546 131.286 203.786 131.598 204.062L130.842 205.034C130.59 204.806 130.32 204.62 130.032 204.476C129.756 204.332 129.444 204.26 129.096 204.26C128.7 204.26 128.334 204.344 127.998 204.512C127.662 204.668 127.374 204.896 127.134 205.196C126.894 205.496 126.702 205.856 126.558 206.276C126.426 206.684 126.36 207.14 126.36 207.644C126.36 208.148 126.426 208.604 126.558 209.012C126.69 209.42 126.87 209.774 127.098 210.074C127.338 210.362 127.626 210.59 127.962 210.758C128.298 210.914 128.664 210.992 129.06 210.992C129.468 210.992 129.84 210.908 130.176 210.74C130.524 210.56 130.836 210.35 131.112 210.11L131.76 211.1C131.364 211.448 130.926 211.724 130.446 211.928C129.966 212.12 129.462 212.216 128.934 212.216ZM135.527 212.216C134.795 212.216 134.183 212 133.691 211.568C133.211 211.136 132.971 210.524 132.971 209.732C132.971 208.772 133.397 208.04 134.249 207.536C135.101 207.02 136.463 206.66 138.335 206.456C138.335 206.18 138.305 205.91 138.245 205.646C138.197 205.382 138.107 205.148 137.975 204.944C137.843 204.74 137.657 204.578 137.417 204.458C137.189 204.326 136.895 204.26 136.535 204.26C136.031 204.26 135.557 204.356 135.113 204.548C134.669 204.74 134.273 204.956 133.925 205.196L133.349 204.17C133.757 203.906 134.255 203.654 134.843 203.414C135.431 203.162 136.079 203.036 136.787 203.036C137.855 203.036 138.629 203.366 139.109 204.026C139.589 204.674 139.829 205.544 139.829 206.636V212H138.605L138.479 210.956H138.425C138.005 211.304 137.555 211.604 137.075 211.856C136.595 212.096 136.079 212.216 135.527 212.216ZM135.959 211.028C136.379 211.028 136.775 210.932 137.147 210.74C137.519 210.536 137.915 210.242 138.335 209.858V207.428C137.603 207.524 136.985 207.638 136.481 207.77C135.989 207.902 135.587 208.058 135.275 208.238C134.975 208.418 134.753 208.628 134.609 208.868C134.477 209.096 134.411 209.348 134.411 209.624C134.411 210.128 134.561 210.488 134.861 210.704C135.161 210.92 135.527 211.028 135.959 211.028ZM142.581 212V203.252H143.805L143.931 204.512H143.985C144.405 204.092 144.843 203.744 145.299 203.468C145.767 203.18 146.307 203.036 146.919 203.036C147.843 203.036 148.515 203.324 148.935 203.9C149.367 204.476 149.583 205.328 149.583 206.456V212H148.107V206.654C148.107 205.826 147.975 205.232 147.711 204.872C147.447 204.5 147.027 204.314 146.451 204.314C145.995 204.314 145.593 204.428 145.245 204.656C144.897 204.884 144.501 205.22 144.057 205.664V212H142.581ZM156.029 212V199.184H157.505V202.676L157.451 204.476C157.871 204.08 158.309 203.744 158.765 203.468C159.221 203.18 159.755 203.036 160.367 203.036C161.291 203.036 161.963 203.324 162.383 203.9C162.815 204.476 163.031 205.328 163.031 206.456V212H161.555V206.654C161.555 205.826 161.423 205.232 161.159 204.872C160.895 204.5 160.475 204.314 159.899 204.314C159.443 204.314 159.041 204.428 158.693 204.656C158.345 204.884 157.949 205.22 157.505 205.664V212H156.029ZM169.366 212.216C168.778 212.216 168.226 212.114 167.71 211.91C167.206 211.694 166.762 211.394 166.378 211.01C166.006 210.614 165.712 210.134 165.496 209.57C165.28 209.006 165.172 208.364 165.172 207.644C165.172 206.924 165.28 206.282 165.496 205.718C165.724 205.142 166.018 204.656 166.378 204.26C166.75 203.864 167.17 203.564 167.638 203.36C168.106 203.144 168.592 203.036 169.096 203.036C169.648 203.036 170.14 203.132 170.572 203.324C171.016 203.516 171.382 203.792 171.67 204.152C171.97 204.512 172.198 204.944 172.354 205.448C172.51 205.952 172.588 206.516 172.588 207.14C172.588 207.296 172.582 207.452 172.57 207.608C172.57 207.752 172.558 207.878 172.534 207.986H166.63C166.69 208.922 166.978 209.666 167.494 210.218C168.022 210.758 168.706 211.028 169.546 211.028C169.966 211.028 170.35 210.968 170.698 210.848C171.058 210.716 171.4 210.548 171.724 210.344L172.246 211.316C171.862 211.556 171.436 211.766 170.968 211.946C170.5 212.126 169.966 212.216 169.366 212.216ZM166.612 206.924H171.292C171.292 206.036 171.1 205.364 170.716 204.908C170.344 204.44 169.816 204.206 169.132 204.206C168.82 204.206 168.52 204.266 168.232 204.386C167.956 204.506 167.704 204.686 167.476 204.926C167.248 205.154 167.056 205.436 166.9 205.772C166.756 206.108 166.66 206.492 166.612 206.924ZM176.315 212.216C175.751 212.216 175.349 212.048 175.109 211.712C174.869 211.376 174.749 210.884 174.749 210.236V199.184H176.225V210.344C176.225 210.584 176.267 210.752 176.351 210.848C176.435 210.944 176.531 210.992 176.639 210.992C176.687 210.992 176.729 210.992 176.765 210.992C176.813 210.992 176.879 210.98 176.963 210.956L177.161 212.072C177.065 212.12 176.951 212.156 176.819 212.18C176.687 212.204 176.519 212.216 176.315 212.216ZM179.337 215.69V203.252H180.561L180.687 204.26H180.741C181.137 203.924 181.569 203.636 182.037 203.396C182.517 203.156 183.015 203.036 183.531 203.036C184.095 203.036 184.593 203.144 185.025 203.36C185.457 203.564 185.817 203.864 186.105 204.26C186.393 204.644 186.609 205.112 186.753 205.664C186.909 206.204 186.987 206.816 186.987 207.5C186.987 208.244 186.885 208.91 186.681 209.498C186.477 210.074 186.201 210.566 185.853 210.974C185.505 211.382 185.103 211.694 184.647 211.91C184.191 212.114 183.711 212.216 183.207 212.216C182.799 212.216 182.391 212.126 181.983 211.946C181.587 211.766 181.185 211.52 180.777 211.208L180.813 212.738V215.69H179.337ZM182.955 210.974C183.315 210.974 183.645 210.896 183.945 210.74C184.257 210.572 184.521 210.344 184.737 210.056C184.965 209.756 185.139 209.39 185.259 208.958C185.391 208.526 185.457 208.04 185.457 207.5C185.457 207.02 185.415 206.582 185.331 206.186C185.247 205.79 185.109 205.454 184.917 205.178C184.737 204.89 184.497 204.668 184.197 204.512C183.909 204.356 183.561 204.278 183.153 204.278C182.781 204.278 182.403 204.38 182.019 204.584C181.647 204.788 181.245 205.082 180.813 205.466V210.056C181.209 210.392 181.593 210.632 181.965 210.776C182.337 210.908 182.667 210.974 182.955 210.974ZM189.92 212.216C189.62 212.216 189.362 212.114 189.146 211.91C188.942 211.694 188.84 211.424 188.84 211.1C188.84 210.752 188.942 210.476 189.146 210.272C189.362 210.056 189.62 209.948 189.92 209.948C190.208 209.948 190.454 210.056 190.658 210.272C190.874 210.476 190.982 210.752 190.982 211.1C190.982 211.424 190.874 211.694 190.658 211.91C190.454 212.114 190.208 212.216 189.92 212.216Z" fill="black"/>
<path d="M109.564 33.0747H121.465C124.376 33.0745 127.259 33.6531 129.948 34.7774C132.637 35.9017 135.081 37.5496 137.139 39.6272C139.198 41.7047 140.831 44.1712 141.944 46.8857C143.058 49.6002 143.632 52.5097 143.632 55.4479V85.7622H87.3989V55.4479C87.3989 49.5141 89.7342 43.8234 93.8909 39.6277C98.0477 35.4319 103.686 33.0747 109.564 33.0747Z" fill="#2F2E41"/>
<path opacity="0.2" d="M110.865 34.2943H120.163C123.074 34.2941 125.957 34.8727 128.646 35.997C131.335 37.1213 133.779 38.7692 135.837 40.8468C137.896 42.9243 139.528 45.3908 140.642 48.1053C141.756 50.8198 142.33 53.7293 142.33 56.6675V84.5419H88.7002V56.6675C88.7002 50.7337 91.0354 45.043 95.1922 40.8473C99.349 36.6515 104.987 34.2943 110.865 34.2943Z" fill="black"/>
<path d="M174.217 91.2073V92.9086C171.232 94.008 167.947 94.575 164.62 94.5651H66.6364C65.8557 94.5651 65.082 94.5417 64.3152 94.495C61.5902 94.3342 58.9125 93.8699 56.3705 93.1172C55.8744 92.9704 55.3877 92.8125 54.9107 92.6436C54.6834 92.5637 54.4583 92.4815 54.2354 92.3971C54.0962 92.3445 53.9569 92.2899 53.819 92.2353C52.9822 91.9027 52.1716 91.5344 51.3911 91.1323V86.5117C51.3911 85.7648 51.7873 85.0486 52.4925 84.5205C53.1976 83.9924 54.1541 83.6957 55.1514 83.6957H163.305C164.214 83.6969 165.093 83.9451 165.777 84.3943L172.933 89.0909C173.336 89.3548 173.659 89.6801 173.881 90.0451C174.102 90.4102 174.217 90.8064 174.217 91.2073Z" fill="#42B6E9"/>
<path d="M108.508 40.5387C105.669 40.7279 102.842 41.0345 100.025 41.4584C99.2244 41.5793 98.4121 41.7133 97.6819 42.0707C97.1144 42.3707 96.5913 42.7492 96.1277 43.1954C94.0367 45.0863 92.353 47.3909 91.1813 49.966C90.4562 51.5624 89.9355 53.2507 89.2522 54.8603C86.8193 60.6086 82.4066 65.3097 79.8384 70.9976C79.2825 72.2288 78.8139 73.5138 78.6278 74.8526C78.4351 76.2375 78.6538 77.8536 79.7811 78.6629C80.3018 79.0348 80.9344 79.1885 81.554 79.3199C89.3539 81.0634 97.2445 82.364 105.189 83.2156C104.328 82.3773 104.041 81.0779 104.154 79.877C104.267 78.6761 104.734 77.5409 105.195 76.428C100.699 75.4268 96.2145 74.3757 91.741 73.2746C91.0732 73.1104 90.2714 72.8016 90.1894 72.1131C90.1477 71.7623 90.3195 71.4247 90.4888 71.1159C92.3967 67.6287 94.6845 64.3675 97.3096 61.393C97.3096 65.0798 97.1287 69.2436 97.1287 72.9317H139.316C138.809 70.8274 138.511 68.6773 138.426 66.5133C138.23 59.4497 140.586 52.4401 139.974 45.391C139.916 44.7406 139.828 44.0705 139.491 43.5134C138.909 42.5516 137.748 42.1535 136.68 41.825C132.588 40.5689 128.41 39.2984 124.132 39.3969C122.86 39.4271 121.594 39.5769 120.33 39.728C116.478 40.1866 112.378 40.2799 108.508 40.5387Z" fill="#42B6E9"/>
<path d="M88.7496 82.9137L91.8216 92.8376C91.8412 92.9005 91.8802 92.9554 91.9329 92.9944C91.9855 93.0334 92.0491 93.0544 92.1144 93.0544H105.297L102.173 81.4921L89.0177 82.513C88.9719 82.5168 88.9275 82.531 88.8878 82.5544C88.8482 82.5778 88.8142 82.61 88.7885 82.6484C88.7627 82.6869 88.7459 82.7307 88.7391 82.7766C88.7324 82.8225 88.736 82.8694 88.7496 82.9137Z" fill="#656478"/>
<path d="M111.284 44.8065C110.712 45.1389 110.044 45.2585 109.393 45.3728L105.193 46.1086C104.375 46.2518 103.515 46.4147 102.885 46.96C101.596 48.0729 101.875 50.1212 102.265 51.7873L103.046 55.1298C103.634 57.642 104.236 60.1844 105.442 62.4601C107.55 66.432 111.416 69.2924 115.667 70.6707C117.186 71.1634 118.791 71.484 120.377 71.3079C123.483 70.9637 126.139 68.7287 127.777 66.0418C129.414 63.3549 130.194 60.2383 130.909 57.1664C131.595 54.2259 132.247 51.2433 132.203 48.2213C132.19 47.2806 132.096 46.2978 131.599 45.5002C130.509 43.7488 128.04 43.6174 126.016 43.9406C125.701 43.9919 125.374 44.0471 125.071 43.9511C124.159 43.6647 124.139 42.402 123.748 41.5257C123.01 39.8728 120.821 39.5798 119.031 39.7296C117.241 39.8794 114.454 40.0725 112.895 41.096C111.395 42.0749 113.043 43.783 111.284 44.8065Z" fill="#FBBEBE"/>
<path opacity="0.1" d="M111.284 44.8065C110.712 45.1389 110.044 45.2585 109.393 45.3728L105.193 46.1086C104.375 46.2518 103.515 46.4147 102.885 46.96C101.596 48.0729 101.875 50.1212 102.265 51.7873L103.046 55.1298C103.634 57.642 104.236 60.1844 105.442 62.4601C107.55 66.432 111.416 69.2924 115.667 70.6707C117.186 71.1634 118.791 71.484 120.377 71.3079C123.483 70.9637 126.139 68.7287 127.777 66.0418C129.414 63.3549 130.194 60.2383 130.909 57.1664C131.595 54.2259 132.247 51.2433 132.203 48.2213C132.19 47.2806 132.096 46.2978 131.599 45.5002C130.509 43.7488 128.04 43.6174 126.016 43.9406C125.701 43.9919 125.374 44.0471 125.071 43.9511C124.159 43.6647 124.139 42.402 123.748 41.5257C123.01 39.8728 120.821 39.5798 119.031 39.7296C117.241 39.8794 114.454 40.0725 112.895 41.096C111.395 42.0749 113.043 43.783 111.284 44.8065Z" fill="black"/>
<path d="M107.808 48.5725C108.443 49.9179 108.919 51.3448 109.687 52.618C110.298 53.6297 111.08 54.5218 111.858 55.4087C113.875 57.7107 115.917 60.031 118.412 61.7838C119.446 56.4253 121.942 51.4649 125.62 47.4622C126.695 46.2968 128.041 45.1485 129.619 45.1918C130.598 45.2194 131.501 45.7095 132.316 46.2548C133.227 46.8631 134.089 47.5687 134.743 48.445C135.778 49.8404 136.225 51.6076 136.305 53.3485C136.386 55.0895 136.118 56.8264 135.852 58.5476L134.486 67.4441C134.406 67.9591 134.296 68.5281 133.879 68.8368C133.642 68.9881 133.376 69.085 133.098 69.1206C128.13 70.0969 123.009 69.4636 117.946 69.4136C112.349 69.3598 106.597 70.0036 101.295 68.2062C101.018 68.1116 100.73 68.0025 100.543 67.7778C100.42 67.6084 100.331 67.4159 100.283 67.2115C99.0472 63.1752 100.038 58.838 100.771 54.6795C101.351 51.384 101.764 48.0608 102.009 44.7228C102.031 44.4219 105.306 45.0867 105.671 45.2996C106.667 45.8948 107.329 47.5582 107.808 48.5725Z" fill="#42B6E9"/>
<path d="M116.361 46.2796C122.4 46.2796 127.295 41.3382 127.295 35.2428C127.295 29.1473 122.4 24.206 116.361 24.206C110.322 24.206 105.427 29.1473 105.427 35.2428C105.427 41.3382 110.322 46.2796 116.361 46.2796Z" fill="#FBBEBE"/>
<path d="M111.92 13.5857C109.003 13.9588 105.854 14.4515 103.792 16.5669C102.639 17.7494 101.964 19.3261 101.408 20.887C100.546 23.3178 99.9043 25.8799 100.106 28.4591C100.286 30.7663 101.132 33.1261 100.447 35.336C100.132 36.353 99.5138 37.2412 99.0335 38.1885C98.1431 39.9479 97.724 41.92 97.5704 43.8896C97.4636 45.2442 97.4845 46.6382 97.9257 47.9219C98.3956 49.2884 99.312 50.4512 99.8926 51.773C100.752 53.7254 100.838 55.9223 100.904 58.0574C100.97 60.1925 101.026 62.3131 101.076 64.4403C101.107 65.7779 101.11 67.21 100.377 68.3255C103.083 67.2311 105.827 66.1142 108.143 64.3273C110.458 62.5404 112.333 59.9639 112.632 57.0365C112.874 54.6636 112.08 52.3248 111.396 50.0413C109.703 44.3915 108.61 38.3685 109.841 32.5992C110.285 30.5219 111.364 28.2029 113.435 27.8205C114.699 27.588 115.961 28.17 117.1 28.7718C119.791 30.1934 122.567 32.0329 123.569 34.9274C124.48 37.5447 123.713 40.4603 122.528 42.9593C121.342 45.4584 119.728 47.7564 118.806 50.3684C117.391 54.3758 117.789 59.0678 120.14 62.5982C122.491 66.1287 126.835 68.3006 131.012 67.7303C130.685 66.3061 129.661 65.1551 129.112 63.8018C128.113 61.3435 128.786 58.5159 129.86 56.0905C130.934 53.665 132.4 51.4038 133.071 48.8285C133.545 47.0153 133.602 45.1207 133.6 43.2457C133.6 40.2947 133.455 37.3424 133.174 34.4045C132.893 31.4666 132.463 28.4919 131.537 25.6657C130.792 23.3992 129.708 21.2076 128.086 19.4693C126.36 17.6181 124.113 16.3633 121.907 15.1335C120.587 14.4003 119.238 13.6579 117.757 13.3833C116.585 13.1665 115.354 12.8578 114.159 12.8381C113.347 12.8262 112.493 13.0036 111.92 13.5857Z" fill="#2F2E41"/>
<path d="M130.94 37.279C130.597 36.6654 130.23 36.0308 129.65 35.6379C129.317 35.4318 128.959 35.2697 128.586 35.1557C127.324 34.7103 126.042 34.261 124.708 34.19C124.49 34.1795 124.242 34.19 124.1 34.3582C123.808 34.7037 124.27 35.1741 124.67 35.383L127.849 37.0451L124.919 36.7324C124.493 36.6864 123.886 36.8034 123.918 37.2343C123.938 37.5168 124.246 37.6705 124.511 37.7599C126.392 38.4168 128.566 38.9319 129.596 40.6505C128.224 40.5191 126.822 40.3877 125.477 40.6925C125.109 40.7766 124.727 40.9067 124.487 41.1997C124.246 41.4927 124.218 41.988 124.522 42.2206C124.709 42.3612 124.962 42.3651 125.196 42.352C126.15 42.306 127.129 42.1142 128.045 42.3888C128.962 42.6634 129.775 43.633 129.459 44.5423C130.271 44.6158 131.232 44.5423 131.983 44.1888C132.811 43.7947 132.791 43.0536 132.741 42.1602C132.632 40.41 131.772 38.7769 130.94 37.279Z" fill="#FBBEBE"/>
<path opacity="0.1" d="M130.119 65.921C129.39 60.7505 128.391 55.6226 127.125 50.5588C126.474 47.931 125.735 45.2585 125.921 42.5545C128.61 42.9001 131.02 43.1563 133.498 42.0474C133.538 43.4677 134.559 44.6752 134.93 46.0482C135.178 46.9679 135.085 47.9415 135.182 48.8889C135.28 49.8362 135.573 50.7546 135.824 51.6756C137.071 56.2398 137.364 61.0155 136.687 65.7003C134.387 65.9762 132.414 66.2797 130.119 65.921Z" fill="black"/>
<path d="M129.728 65.921C129 60.7505 128 55.6226 126.734 50.5588C126.083 47.931 125.344 45.2585 125.53 42.5545C128.219 42.9001 130.629 43.1563 133.107 42.0474C133.148 43.4677 134.168 44.6752 134.539 46.0482C134.788 46.9679 134.694 47.9415 134.792 48.8889C134.889 49.8362 135.182 50.7546 135.433 51.6756C136.68 56.2398 136.974 61.0155 136.296 65.7003C133.996 65.9762 132.023 66.2797 129.728 65.921Z" fill="#42B6E9"/>
<path d="M92.1016 91.5132L93.376 59.6024C93.3963 59.0951 93.6115 58.6158 93.976 58.266C94.3405 57.9163 94.8256 57.7235 95.3285 57.7287L145.641 58.2149C145.908 58.2177 146.171 58.276 146.414 58.3863C146.657 58.4966 146.875 58.6565 147.055 58.8559C147.234 59.0553 147.37 59.2899 147.455 59.5449C147.54 59.8 147.572 60.0701 147.548 60.3382L144.89 90.9088C144.849 91.3895 144.632 91.8376 144.282 92.1666C143.932 92.4956 143.474 92.6822 142.996 92.6904L94.0685 93.5445C93.8051 93.549 93.5435 93.4992 93.2999 93.3981C93.0562 93.297 92.8356 93.1468 92.6514 92.9566C92.4673 92.7664 92.3236 92.5403 92.229 92.2921C92.1345 92.0439 92.0911 91.7789 92.1016 91.5132Z" fill="#1175A0"/>
<path d="M120.957 78.2609C122.758 78.2609 124.218 76.8009 124.218 75C124.218 73.1991 122.758 71.7391 120.957 71.7391C119.156 71.7391 117.696 73.1991 117.696 75C117.696 76.8009 119.156 78.2609 120.957 78.2609Z" fill="#F2F2F2"/>
<path d="M62.8626 78.6473H64.439C65.302 78.6473 66.1298 78.9933 66.7401 79.6094C67.3503 80.2254 67.6932 81.0609 67.6932 81.932V86.8132H59.6084V81.932C59.6084 81.0609 59.9513 80.2254 60.5615 79.6094C61.1718 78.9933 61.9995 78.6473 62.8626 78.6473Z" fill="#3F3D56"/>
<path opacity="0.1" d="M62.8626 78.6473H64.439C65.302 78.6473 66.1298 78.9933 66.7401 79.6094C67.3503 80.2254 67.6932 81.0609 67.6932 81.932V86.8132H59.6084V81.932C59.6084 81.0609 59.9513 80.2254 60.5615 79.6094C61.1718 78.9933 61.9995 78.6473 62.8626 78.6473Z" fill="black"/>
<path d="M63.3271 80.4437C63.6844 80.4437 63.974 80.1513 63.974 79.7907C63.974 79.4301 63.6844 79.1377 63.3271 79.1377C62.9698 79.1377 62.6802 79.4301 62.6802 79.7907C62.6802 80.1513 62.9698 80.4437 63.3271 80.4437Z" fill="#3F3D56"/>
<path d="M63.3271 79.6274C63.6844 79.6274 63.974 79.3351 63.974 78.9744C63.974 78.6138 63.6844 78.3214 63.3271 78.3214C62.9698 78.3214 62.6802 78.6138 62.6802 78.9744C62.6802 79.3351 62.9698 79.6274 63.3271 79.6274Z" fill="#3F3D56"/>
<path d="M63.3271 78.81C63.6844 78.81 63.974 78.5177 63.974 78.157C63.974 77.7964 63.6844 77.504 63.3271 77.504C62.9698 77.504 62.6802 77.7964 62.6802 78.157C62.6802 78.5177 62.9698 78.81 63.3271 78.81Z" fill="#3F3D56"/>
<path d="M63.3271 77.9949C63.6844 77.9949 63.974 77.7025 63.974 77.3419C63.974 76.9812 63.6844 76.6888 63.3271 76.6888C62.9698 76.6888 62.6802 76.9812 62.6802 77.3419C62.6802 77.7025 62.9698 77.9949 63.3271 77.9949Z" fill="#3F3D56"/>
<path d="M63.3271 77.1786C63.6844 77.1786 63.974 76.8862 63.974 76.5256C63.974 76.1649 63.6844 75.8726 63.3271 75.8726C62.9698 75.8726 62.6802 76.1649 62.6802 76.5256C62.6802 76.8862 62.9698 77.1786 63.3271 77.1786Z" fill="#3F3D56"/>
<path d="M63.3271 76.3623C63.6844 76.3623 63.974 76.0699 63.974 75.7093C63.974 75.3486 63.6844 75.0563 63.3271 75.0563C62.9698 75.0563 62.6802 75.3486 62.6802 75.7093C62.6802 76.0699 62.9698 76.3623 63.3271 76.3623Z" fill="#3F3D56"/>
<path d="M63.3271 75.546C63.6844 75.546 63.974 75.2537 63.974 74.893C63.974 74.5324 63.6844 74.24 63.3271 74.24C62.9698 74.24 62.6802 74.5324 62.6802 74.893C62.6802 75.2537 62.9698 75.546 63.3271 75.546Z" fill="#3F3D56"/>
<path d="M64.2983 75.8729C64.6556 75.8729 64.9452 75.5806 64.9452 75.2199C64.9452 74.8593 64.6556 74.5669 64.2983 74.5669C63.941 74.5669 63.6514 74.8593 63.6514 75.2199C63.6514 75.5806 63.941 75.8729 64.2983 75.8729Z" fill="#3F3D56"/>
<path d="M64.9453 75.546C65.3026 75.546 65.5922 75.2537 65.5922 74.893C65.5922 74.5324 65.3026 74.24 64.9453 74.24C64.588 74.24 64.2983 74.5324 64.2983 74.893C64.2983 75.2537 64.588 75.546 64.9453 75.546Z" fill="#3F3D56"/>
<path d="M65.5923 75.2191C65.9496 75.2191 66.2392 74.9267 66.2392 74.5661C66.2392 74.2054 65.9496 73.9131 65.5923 73.9131C65.235 73.9131 64.9453 74.2054 64.9453 74.5661C64.9453 74.9267 65.235 75.2191 65.5923 75.2191Z" fill="#3F3D56"/>
<path d="M63.3271 74.7308C63.6844 74.7308 63.974 74.4385 63.974 74.0778C63.974 73.7172 63.6844 73.4248 63.3271 73.4248C62.9698 73.4248 62.6802 73.7172 62.6802 74.0778C62.6802 74.4385 62.9698 74.7308 63.3271 74.7308Z" fill="#3F3D56"/>
<path d="M63.3271 73.9146C63.6844 73.9146 63.974 73.6222 63.974 73.2615C63.974 72.9009 63.6844 72.6085 63.3271 72.6085C62.9698 72.6085 62.6802 72.9009 62.6802 73.2615C62.6802 73.6222 62.9698 73.9146 63.3271 73.9146Z" fill="#3F3D56"/>
<path d="M63.3271 73.0972C63.6844 73.0972 63.974 72.8048 63.974 72.4442C63.974 72.0835 63.6844 71.7911 63.3271 71.7911C62.9698 71.7911 62.6802 72.0835 62.6802 72.4442C62.6802 72.8048 62.9698 73.0972 63.3271 73.0972Z" fill="#3F3D56"/>
<path d="M63.3271 72.2809C63.6844 72.2809 63.974 71.9885 63.974 71.6279C63.974 71.2672 63.6844 70.9749 63.3271 70.9749C62.9698 70.9749 62.6802 71.2672 62.6802 71.6279C62.6802 71.9885 62.9698 72.2809 63.3271 72.2809Z" fill="#3F3D56"/>
<path d="M66.0088 69.5237C65.8487 69.5473 65.6873 69.5644 65.5259 69.5749C65.6765 69.442 65.8162 69.297 65.9437 69.1413C65.8536 68.8671 65.7219 68.6087 65.5532 68.3753C65.3928 68.4662 65.2156 68.5226 65.0325 68.5409C64.8724 68.5645 64.711 68.5816 64.5496 68.5934C64.7618 68.4187 64.9596 68.1559 65.1679 67.9365C64.6866 67.4959 64.0661 67.242 63.4167 67.2198C62.7673 67.1977 62.1312 67.4087 61.6215 67.8154C61.1118 68.2221 60.7615 68.798 60.6329 69.4409C60.5043 70.0838 60.6058 70.7518 60.9193 71.3263C61.2328 71.9007 61.7379 72.3443 62.3449 72.5782C62.952 72.812 63.6215 72.821 64.2344 72.6035C64.8474 72.3859 65.364 71.956 65.6925 71.3902C66.021 70.8243 66.14 70.1592 66.0283 69.5132L66.0088 69.5237Z" fill="#9377B6"/>
<path d="M68.1711 72.7678C68.006 72.8701 67.8198 72.9326 67.627 72.9505C67.4668 72.9741 67.3054 72.9925 67.144 73.003C67.3156 72.8477 67.4757 72.68 67.623 72.5011C67.233 72.3985 66.819 72.4464 66.4621 72.6354C66.1052 72.8245 65.8309 73.1411 65.693 73.5234C65.555 73.9057 65.5633 74.3262 65.7162 74.7027C65.8691 75.0791 66.1556 75.3845 66.5197 75.5591C66.8838 75.7337 67.2993 75.765 67.685 75.6467C68.0707 75.5285 68.3988 75.2694 68.6053 74.9199C68.8117 74.5705 68.8817 74.1558 68.8013 73.7571C68.721 73.3584 68.4963 73.0042 68.1711 72.7639V72.7678Z" fill="#9377B6"/>
<path d="M62.3579 75.8729C62.7152 75.8729 63.0048 75.5806 63.0048 75.2199C63.0048 74.8593 62.7152 74.5669 62.3579 74.5669C62.0006 74.5669 61.7109 74.8593 61.7109 75.2199C61.7109 75.5806 62.0006 75.8729 62.3579 75.8729Z" fill="#3F3D56"/>
<path d="M61.7104 75.546C62.0677 75.546 62.3574 75.2537 62.3574 74.893C62.3574 74.5324 62.0677 74.24 61.7104 74.24C61.3531 74.24 61.0635 74.5324 61.0635 74.893C61.0635 75.2537 61.3531 75.546 61.7104 75.546Z" fill="#3F3D56"/>
<path d="M61.0634 75.2191C61.4207 75.2191 61.7104 74.9267 61.7104 74.5661C61.7104 74.2054 61.4207 73.9131 61.0634 73.9131C60.7061 73.9131 60.4165 74.2054 60.4165 74.5661C60.4165 74.9267 60.7061 75.2191 61.0634 75.2191Z" fill="#3F3D56"/>
<path d="M58.485 72.7678C58.65 72.8703 58.8362 72.9328 59.0291 72.9505C59.1892 72.9741 59.3506 72.9925 59.5121 73.003C59.3402 72.848 59.1801 72.6803 59.033 72.5011C59.4231 72.3985 59.837 72.4464 60.194 72.6354C60.5509 72.8245 60.8252 73.1411 60.9631 73.5234C61.101 73.9057 61.0928 74.3262 60.9399 74.7027C60.787 75.0791 60.5005 75.3845 60.1364 75.5591C59.7723 75.7337 59.3568 75.765 58.9711 75.6467C58.5854 75.5285 58.2572 75.2694 58.0508 74.9199C57.8443 74.5705 57.7744 74.1558 57.8547 73.7571C57.935 73.3584 58.1598 73.0042 58.485 72.7639V72.7678Z" fill="#9377B6"/>
<path d="M62.8626 79.1377H64.439C65.302 79.1377 66.1298 79.4838 66.7401 80.0998C67.3503 80.7158 67.6932 81.5513 67.6932 82.4224V86.7412C67.6932 86.889 67.635 87.0307 67.5315 87.1352C67.428 87.2396 67.2877 87.2983 67.1413 87.2983H60.1603C60.0139 87.2983 59.8736 87.2396 59.7701 87.1352C59.6665 87.0307 59.6084 86.889 59.6084 86.7412V82.4224C59.6084 81.5513 59.9513 80.7158 60.5615 80.0998C61.1718 79.4838 61.9995 79.1377 62.8626 79.1377Z" fill="#3F3D56"/>
<g opacity="0.1">
<path opacity="0.1" d="M66.0579 69.7024C65.9924 69.773 65.9228 69.8397 65.8496 69.9021C65.9238 69.9021 65.9967 69.8903 66.0709 69.8824C66.0735 69.822 66.0644 69.7615 66.0579 69.7024Z" fill="black"/>
<path opacity="0.1" d="M64.8784 68.9216C65.0411 68.9111 65.2012 68.894 65.3626 68.8703C65.5075 68.8518 65.649 68.8129 65.7831 68.7547C65.7175 68.6232 65.6418 68.4971 65.5566 68.3776C65.4756 68.4274 65.3879 68.465 65.2963 68.4893C65.1686 68.6444 65.0289 68.789 64.8784 68.9216Z" fill="black"/>
<path opacity="0.1" d="M60.9017 70.3231C60.9007 69.825 61.0329 69.3358 61.2842 68.9071C61.5355 68.4784 61.8968 68.126 62.3298 67.8872C62.7629 67.6483 63.2518 67.5317 63.7449 67.5498C64.2381 67.5678 64.7174 67.7197 65.1322 67.9896L65.1738 67.9449C64.9031 67.7018 64.5874 67.5151 64.2449 67.3957C63.9024 67.2763 63.5398 67.2265 63.1782 67.2491C62.8165 67.2717 62.4628 67.3664 62.1376 67.5276C61.8123 67.6888 61.5218 67.9134 61.2829 68.1884C61.044 68.4634 60.8614 68.7835 60.7456 69.1301C60.6298 69.4766 60.5831 69.8429 60.6081 70.2078C60.6332 70.5727 60.7295 70.929 60.8916 71.2562C61.0537 71.5833 61.2783 71.8748 61.5525 72.1139C61.1316 71.6141 60.9008 70.9792 60.9017 70.3231Z" fill="black"/>
</g>
<g opacity="0.1">
<path opacity="0.1" d="M67.144 73.3287C67.3055 73.3182 67.4669 73.3011 67.627 73.2775C67.8199 73.2591 68.0061 73.1962 68.1711 73.0935C68.3538 73.2294 68.5062 73.4026 68.6184 73.6018C68.7305 73.801 68.7999 74.0218 68.8219 74.2498C68.8282 74.1926 68.8313 74.1352 68.831 74.0777C68.8323 73.8225 68.774 73.5706 68.6609 73.3423C68.5479 73.1141 68.3832 72.9159 68.1802 72.7637C68.0151 72.866 67.8289 72.9285 67.6361 72.9464L67.5059 72.9635C67.3948 73.0945 67.2738 73.2166 67.144 73.3287Z" fill="black"/>
<path opacity="0.1" d="M67.209 72.7709C67.263 72.7715 67.3169 72.7754 67.3704 72.7827C67.455 72.692 67.5383 72.5948 67.6229 72.5002C67.3836 72.4357 67.1328 72.4276 66.8899 72.4766C66.647 72.5256 66.4186 72.6304 66.2222 72.7829C66.0259 72.9353 65.867 73.1313 65.7577 73.3557C65.6485 73.5801 65.5919 73.8269 65.5923 74.0769C65.5923 74.1321 65.5923 74.1859 65.6001 74.2398C65.6401 73.8372 65.8269 73.4639 66.1242 73.1925C66.4215 72.9211 66.8081 72.7708 67.209 72.7709Z" fill="black"/>
</g>
<g opacity="0.1">
<path opacity="0.1" d="M59.5122 73.3287C59.3508 73.3182 59.1894 73.3011 59.0293 73.2775C58.8363 73.2594 58.65 73.1964 58.4852 73.0935C58.3024 73.2294 58.15 73.4026 58.0379 73.6018C57.9257 73.801 57.8564 74.0218 57.8343 74.2498C57.828 74.1926 57.825 74.1352 57.8252 74.0777C57.824 73.8225 57.8823 73.5706 57.9953 73.3423C58.1084 73.1141 58.2731 72.9159 58.4761 72.7637C58.641 72.8662 58.8273 72.9287 59.0202 72.9464L59.1503 72.9635C59.2607 73.0951 59.3817 73.2173 59.5122 73.3287Z" fill="black"/>
<path opacity="0.1" d="M59.4471 72.7712C59.3927 72.7718 59.3384 72.7757 59.2844 72.783C59.2011 72.6923 59.1178 72.5951 59.0332 72.5005C59.2725 72.436 59.5233 72.4279 59.7662 72.4769C60.0091 72.526 60.2375 72.6307 60.4339 72.7832C60.6302 72.9356 60.7891 73.1316 60.8984 73.356C61.0076 73.5804 61.0642 73.8272 61.0638 74.0772C61.0638 74.1324 61.0638 74.1862 61.056 74.2401C61.016 73.8375 60.8292 73.4642 60.5319 73.1928C60.2346 72.9214 59.848 72.7711 59.4471 72.7712Z" fill="black"/>
</g>
<path opacity="0.1" d="M184 60.0315C184.008 65.0457 182.823 69.9661 180.575 74.2549C180.575 79.5001 178.459 84.2544 175.026 87.7193C174.167 88.5854 173.242 89.3602 172.262 90.0343C172.223 90.0631 172.182 90.0904 172.142 90.1177C172.068 90.1677 171.995 90.2177 171.92 90.2692L171.85 90.3161C171.537 90.5207 171.217 90.7176 170.891 90.9025C167.882 92.6119 164.572 93.4934 161.219 93.4781H62.4751C61.6884 93.4781 60.9087 93.4417 60.136 93.369C57.3899 93.1191 54.6915 92.397 52.1298 91.2267C51.6298 90.9984 51.1395 90.753 50.6587 90.4904C50.4297 90.3661 50.2028 90.2384 49.9782 90.1071C49.8379 90.0252 49.6976 89.9404 49.5586 89.8556C48.7153 89.3374 47.8984 88.7637 47.1119 88.1375C46.3932 87.5691 45.7016 86.9561 45.0402 86.3012C40.5783 81.8772 37.8182 75.7548 37.8182 68.9992C35.3172 64.5491 33.9906 59.3545 34.0001 54.0485C34.0001 39.0281 44.3899 26.8515 57.2081 26.8515C57.6014 26.8515 57.9948 26.8652 58.3881 26.8894C58.4445 26.8894 58.4996 26.8894 58.556 26.8985C60.7168 22.6427 63.6054 18.7323 67.0787 15.2901C76.5507 5.91179 90.3942 0 105.815 0C118.772 0 130.616 4.17401 139.688 11.0706C143.126 8.82509 147.009 7.64796 150.958 7.65412C163.774 7.65412 174.166 19.8307 174.166 34.8511C174.164 35.8015 174.12 36.7511 174.035 37.6964C177.124 40.2232 179.642 43.5715 181.376 47.4587C183.111 51.3459 184.011 55.6581 184 60.0315Z" fill="#979797"/>
<path opacity="0.1" d="M184 61.1185C184.008 66.1327 182.823 71.053 180.575 75.3419C180.575 80.5871 178.459 85.3413 175.026 88.8063C174.167 89.6723 173.242 90.4472 172.262 91.1213C172.223 91.1501 172.182 91.1774 172.142 91.2046C172.068 91.2546 171.995 91.3046 171.92 91.3561L171.85 91.4031C171.537 91.6077 171.217 91.8046 170.891 91.9894C167.882 93.6989 164.572 94.5804 161.219 94.5651H62.4751C61.6884 94.5651 60.9087 94.5287 60.136 94.456C57.3899 94.2061 54.6915 93.484 52.1298 92.3137C51.6298 92.0854 51.1395 91.84 50.6587 91.5773C50.4297 91.4531 50.2028 91.3253 49.9782 91.194C49.8379 91.1122 49.6976 91.0274 49.5586 90.9425C48.7153 90.4244 47.8984 89.8507 47.1119 89.2244C46.3932 88.656 45.7016 88.0431 45.0402 87.3882C40.5783 82.9642 37.8182 76.8418 37.8182 70.0861C35.3172 65.6361 33.9906 60.4415 34.0001 55.1355C34.0001 40.1151 44.3899 27.9385 57.2081 27.9385C57.6014 27.9385 57.9948 27.9521 58.3881 27.9764C58.4445 27.9764 58.4996 27.9764 58.556 27.9855C60.7168 23.7296 63.6054 19.8193 67.0787 16.377C76.5507 6.99876 90.3942 1.08698 105.815 1.08698C118.772 1.08698 130.616 5.26098 139.688 12.1576C143.126 9.91206 147.009 8.73493 150.958 8.74109C163.774 8.74109 174.166 20.9177 174.166 35.938C174.164 36.8884 174.12 37.8381 174.035 38.7833C177.124 41.3102 179.642 44.6584 181.376 48.5457C183.111 52.4329 184.011 56.7451 184 61.1185Z" fill="#979797"/>
</svg>
