<svg width="384" height="175" viewBox="0 0 384 175" fill="none" xmlns="http://www.w3.org/2000/svg">
<g clip-path="url(#clip0)">
<path d="M22.9465 133.723C22.9465 133.723 9.75885 110.776 16.2208 91.2585C22.6827 71.7408 33.6285 70.5539 40.0904 68.4439C46.5524 66.3338 50.7724 61.5863 60.5313 43.2555C70.2901 24.9246 92.9729 0.395638 122.513 16.8802C152.053 33.3647 193.595 63.5644 176.451 115.524C162.076 159.175 108.534 158.252 91.6541 156.801C88.0934 156.537 84.4009 156.405 80.8402 156.405C67.5207 156.537 35.8704 156.01 22.9465 133.723Z" fill="#42B6E9"/>
<path d="M146.119 22.0234H51.5637V81.7634H146.119V22.0234Z" fill="white"/>
<path d="M146.119 75.3013H51.5637V142.954H146.119V75.3013Z" fill="#F8F8F8"/>
<path d="M132.272 25.9793L107.875 73.191L113.677 73.8504L135.569 25.0562L132.272 25.9793Z" fill="#E6E6E6"/>
<path d="M84.6646 24.397L57.4981 71.2131V75.3013L91.6541 24.2651H84.6646V24.397Z" fill="#E6E6E6"/>
<path d="M101.413 23.8696H96.1379V76.4883H101.413V23.8696Z" fill="#3F3D56"/>
<path d="M146.119 23.8696H141.635V76.4883H146.119V23.8696Z" fill="#3F3D56"/>
<path d="M146.119 71.2129H51.5637V76.4879H146.119V71.2129Z" fill="#3F3D56"/>
<path d="M76.6202 25.0562L56.0475 59.6078V64.3553L80.9721 25.0562H76.6202Z" fill="white"/>
<path d="M56.0475 23.8696H51.5637V76.4883H56.0475V23.8696Z" fill="#3F3D56"/>
<path d="M146.119 21.2319H51.5637V26.507H146.119V21.2319Z" fill="#3F3D56"/>
<path fill-rule="evenodd" clip-rule="evenodd" d="M72.9276 138.602C72.9276 138.602 71.3451 142.294 72.6639 144.668C73.9826 147.042 74.5101 147.965 74.5101 147.965C74.5101 147.965 73.8508 148.888 72.9276 148.36C72.1364 147.701 71.2132 145.987 70.1582 145.987C69.1032 145.987 66.9932 146.91 63.96 148.624C60.9269 150.339 58.4212 149.02 58.1575 148.624C57.8937 148.229 57.1024 147.305 58.1575 146.514C59.2125 145.723 66.3338 141.107 66.7294 139.789C67.1251 138.47 67.2569 138.338 67.2569 138.338H72.9276V138.602Z" fill="#9E616A"/>
<path d="M89.4122 111.303L76.752 140.712H64.6194L70.422 117.765C70.8176 116.183 71.6088 114.6 72.532 113.281L85.1921 96.7968C85.5877 96.2693 87.3021 94.2912 88.0934 94.0274C89.544 92.7087 92.7091 92.1812 92.9728 92.1812L89.4122 111.303Z" fill="#9377B6"/>
<path fill-rule="evenodd" clip-rule="evenodd" d="M137.02 130.426L139.393 129.766C139.393 129.766 147.833 124.887 150.075 124.887C152.317 124.887 150.603 126.733 150.603 126.733C150.603 126.733 146.647 130.162 146.778 131.349C146.91 132.536 147.57 133.327 148.625 133.195C149.68 133.063 149.943 134.514 149.416 134.909C148.888 135.305 148.888 135.305 148.888 135.305L137.943 135.569L137.02 130.426Z" fill="#9E616A"/>
<path fill-rule="evenodd" clip-rule="evenodd" d="M113.546 73.1908C113.546 73.1908 117.37 84.4003 114.732 89.9391C112.095 95.4779 104.578 90.9942 104.578 90.9942L105.237 95.6098L96.9291 93.8954L98.6435 86.7741C98.6435 86.7741 91.786 82.5541 95.6104 74.5096C99.4348 66.4651 106.292 67.652 114.205 70.1577C114.205 71.3446 113.546 73.1908 113.546 73.1908Z" fill="#9E616A"/>
<path fill-rule="evenodd" clip-rule="evenodd" d="M114.337 70.5536C114.337 70.5536 99.5666 62.9047 95.3466 74.6417C91.1265 86.3787 98.5116 87.3019 98.5116 87.3019L100.49 84.7962C100.49 84.7962 97.7203 79.5212 102.863 79.3893C103.259 85.06 104.182 90.7307 104.182 90.7307C104.182 90.7307 106.82 93.6319 110.776 93.5001C114.732 93.3682 114.337 92.9726 114.337 91.7857C114.337 90.5988 114.469 90.5988 112.754 90.4669C111.04 90.4669 111.963 89.0163 113.15 88.6206C114.205 88.0931 116.315 86.7744 115.919 85.7194C115.524 84.6644 112.886 86.2469 112.886 86.2469C112.886 86.2469 110.776 87.4338 108.798 87.3019C106.82 87.17 106.424 85.1919 105.897 83.3456C105.501 81.4993 104.71 77.8068 104.71 77.8068L105.237 77.1474C106.82 75.3011 109.062 74.2461 111.567 74.1142H111.831C111.831 74.2461 114.337 73.8505 114.337 70.5536Z" fill="#AEAFAE"/>
<path fill-rule="evenodd" clip-rule="evenodd" d="M104.446 93.6321C105.105 93.764 105.633 94.2915 105.633 94.9509C106.029 98.6434 107.479 110.776 110.644 117.502C114.469 125.414 119.084 135.833 118.557 141.371C118.293 142.822 118.425 142.822 118.425 142.822H108.139C108.139 142.822 106.16 117.634 102.995 107.215C99.8304 96.6653 98.9072 92.709 98.9072 92.709L104.446 93.6321Z" fill="#3F3D56"/>
<path fill-rule="evenodd" clip-rule="evenodd" d="M83.3458 142.822L107.347 143.086C107.611 143.086 107.875 143.218 108.007 143.218C108.402 143.349 109.194 143.086 108.402 138.338C107.084 129.898 104.71 103.786 100.094 93.7639C99.8304 93.1045 99.171 92.577 98.3797 92.577L92.9728 92.1814C91.9178 92.0495 91.1265 92.7089 90.8628 93.632C85.4558 113.677 82.1589 125.282 81.3677 140.58C81.2358 141.899 82.1589 142.822 83.3458 142.822Z" fill="#9377B6"/>
<path fill-rule="evenodd" clip-rule="evenodd" d="M105.765 95.6104C105.765 95.6104 114.996 106.556 124.755 122.381C128.975 129.107 134.909 127.129 138.866 125.678C140.316 125.151 141.899 126.338 141.503 127.92C140.712 131.349 140.185 134.514 139.921 136.228C139.789 137.02 139.261 137.811 138.338 137.943C134.25 139.13 122.249 142.295 117.634 138.47C115.655 132.008 113.414 122.513 110.644 117.502C106.952 110.908 105.765 95.6104 105.765 95.6104Z" fill="#9377B6"/>
<path d="M319.8 46.025C318.877 53.2782 324.548 59.6083 329.427 62.9052C334.175 66.0702 339.45 67.6527 344.725 69.2353C348.286 70.2903 351.846 71.4772 355.011 73.9828C362.396 80.0491 364.243 92.973 361.341 103.259C358.44 113.546 351.582 121.326 344.461 127.657C328.108 142.163 308.459 150.603 288.546 154.296C281.424 155.614 274.171 156.406 266.918 155.482C256.895 154.164 247.268 149.284 238.433 143.218C233.421 139.789 228.542 136.097 224.586 131.085C212.849 116.447 210.343 91.918 218.783 74.1147C223.003 65.4108 229.201 58.5533 235.663 52.2232C253.335 34.6836 273.775 19.2541 296.458 17.6716C303.711 17.1441 311.624 18.4628 316.635 24.7929C321.647 31.2549 320.855 38.1124 319.8 46.025Z" fill="#9377B6"/>
<path fill-rule="evenodd" clip-rule="evenodd" d="M253.994 130.954C253.203 130.822 252.016 130.294 254.258 129.107C256.5 128.052 258.741 126.734 258.61 125.811C258.61 125.415 258.214 125.151 257.818 124.887C257.291 124.624 256.763 124.228 256.763 123.437C256.763 122.514 259.533 123.041 265.203 124.887L279.842 122.646L281.16 130.69L264.148 129.239C260.324 130.426 257.027 130.954 253.994 130.954Z" fill="#D8A982"/>
<path d="M277.996 147.306V226.959C277.996 231.048 258.61 230.784 254.653 226.959C250.829 223.135 262.434 195.837 264.412 180.407C266.39 164.846 276.017 139.657 276.017 139.657L281.82 129.898L277.996 147.306Z" fill="#2F2E41"/>
<path opacity="0.1" d="M277.996 147.306V226.959C277.996 231.048 258.61 230.784 254.653 226.959C250.829 223.135 262.434 195.837 264.412 180.407C266.39 164.846 276.017 139.657 276.017 139.657L281.82 129.898L277.996 147.306Z" fill="black"/>
<path d="M285.776 123.964V131.745C285.776 131.745 297.381 131.745 297.381 129.767V121.986L285.776 123.964Z" fill="#A0616A"/>
<path d="M277.995 123.964L276.017 139.526V151.131C276.017 151.131 277.995 232.499 279.842 234.609C281.82 236.719 293.425 232.631 299.228 228.806C305.03 224.982 293.425 205.464 293.425 205.464V184.1C293.425 184.1 299.228 151.131 301.206 145.065C303.184 138.998 297.381 124.492 297.381 124.492L291.579 125.811L277.995 123.964Z" fill="#2F2E41"/>
<path d="M281.556 84.2692C287.82 84.2692 292.898 79.1915 292.898 72.9278C292.898 66.6641 287.82 61.5864 281.556 61.5864C275.292 61.5864 270.215 66.6641 270.215 72.9278C270.215 79.1915 275.292 84.2692 281.556 84.2692Z" fill="#2F2E41"/>
<path d="M290.524 69.2354C294.967 69.2354 298.568 65.6338 298.568 61.1909C298.568 56.7481 294.967 53.1465 290.524 53.1465C286.081 53.1465 282.479 56.7481 282.479 61.1909C282.479 65.6338 286.081 69.2354 290.524 69.2354Z" fill="#2F2E41"/>
<path d="M301.338 61.1909C301.469 61.5865 301.601 61.9822 301.601 62.5097C302.129 66.8616 299.096 70.686 294.876 71.2135C290.524 71.741 286.699 68.7079 286.172 64.4878C286.436 65.2791 286.831 66.0703 287.359 66.8616C289.864 70.4223 294.744 71.2135 298.304 68.576C300.414 66.8616 301.733 64.0922 301.338 61.1909Z" fill="#2F2E41"/>
<path d="M277.468 77.4118C281.547 77.4118 284.853 74.8139 284.853 71.6092C284.853 68.4045 281.547 65.8066 277.468 65.8066C273.389 65.8066 270.083 68.4045 270.083 71.6092C270.083 74.8139 273.389 77.4118 277.468 77.4118Z" fill="#2F2E41"/>
<path d="M288.546 75.6974C288.546 81.2362 282.611 85.72 277.6 85.72C272.589 85.72 270.347 81.2362 270.347 75.6974C270.347 70.1586 274.435 65.6748 279.446 65.6748C284.457 65.6748 288.546 70.1586 288.546 75.6974Z" fill="#D8A982"/>
<path d="M276.017 83.2145L279.842 96.7978C279.842 96.7978 291.447 89.017 287.622 87.0389C283.798 85.0607 285.644 81.2363 285.644 81.2363L276.017 83.2145Z" fill="#D8A982"/>
<path d="M277.995 96.7976C276.017 98.7758 276.281 109.59 276.281 109.59L279.974 125.942C279.974 125.942 287.754 127.92 289.732 125.942C291.711 123.964 297.513 125.942 299.491 125.942C301.469 125.942 299.623 125.415 299.623 113.81C299.623 102.205 291.711 90.995 289.732 87.1706C287.754 83.3462 283.93 89.1488 283.93 89.1488C283.93 89.1488 279.974 94.8195 277.995 96.7976Z" fill="#42B6E9"/>
<path d="M285.776 90.9951C281.952 90.9951 285.776 100.754 285.776 100.754V120.008L265.467 122.118C265.467 122.118 266.654 129.371 266.654 131.349C266.654 133.327 287.754 129.635 293.557 127.657C299.359 125.679 293.557 96.5339 293.557 96.5339C293.557 96.5339 289.601 90.9951 285.776 90.9951Z" fill="#42B6E9"/>
<path d="M289.379 71.5472C290.188 68.9769 287.128 65.7222 282.543 64.2777C277.958 62.8332 273.585 63.7459 272.775 66.3162C271.965 68.8865 275.026 72.1412 279.611 73.5857C284.196 75.0302 288.569 74.1175 289.379 71.5472Z" fill="#2F2E41"/>
<path d="M286.304 94.8193L273.248 108.271L264.808 107.084L264.412 116.975L271.402 118.821C272.984 119.216 274.567 118.821 275.754 117.898L290.656 105.238L286.304 94.8193Z" fill="#42B6E9"/>
<path d="M270.742 82.0272C274.303 86.511 277.468 85.7198 282.084 83.0823C281.161 80.9722 283.007 79.6535 284.062 77.8072L270.215 75.9609C269.424 77.9391 269.687 79.9172 270.742 82.0272Z" fill="#C1DEE2"/>
<path d="M283.534 78.4664L283.402 78.3346L283.666 78.0708H288.414L288.546 78.2027H283.798L283.534 78.4664Z" fill="#C1DEE2"/>
<path d="M286.436 80.9722L286.568 81.104L282.084 83.0822L281.952 82.9503L286.436 80.9722Z" fill="#C1DEE2"/>
<path d="M271.27 123.832L252.543 127.656H252.148L235.663 125.942V104.842L255.84 101.545L270.478 103.259V103.391L271.27 123.832Z" fill="#C1DEE2"/>
<path opacity="0.1" d="M271.27 123.832L252.543 127.656H252.148V106.029L270.479 103.259L271.27 123.832Z" fill="black"/>
<path opacity="0.05" d="M270.478 103.391L252.148 106.161L235.663 104.974L255.84 101.545L270.478 103.259V103.391Z" fill="black"/>
<path d="M263.885 102.996L245.158 106.82H244.763L228.278 105.106V84.0054L248.455 80.5767L263.093 82.2911V82.4229L263.885 102.996Z" fill="white"/>
<path opacity="0.1" d="M263.885 102.996L245.158 106.82H244.763V85.1923L263.093 82.4229L263.885 102.996Z" fill="black"/>
<path d="M332.46 161.153C333.12 157.725 330.219 154.691 327.449 152.581C324.548 150.603 321.251 148.625 320.328 145.196C319.009 140.317 323.229 135.965 326.394 132.273C328.768 129.503 330.878 126.338 332.592 123.173C333.252 121.854 333.911 120.404 334.043 118.953C334.307 116.843 333.647 114.733 332.988 112.623C330.746 105.765 328.372 99.0397 325.867 92.314" stroke="#C1DEE2" stroke-width="3.0658" stroke-miterlimit="10"/>
<path d="M333.515 89.6764C333.12 88.4895 332.329 87.3026 331.405 86.5114C330.482 85.5883 329.295 85.0607 327.977 84.6651L327.317 88.4895L326.13 84.4014C324.548 84.4014 322.833 84.9289 321.515 85.852C320.196 86.7751 319.273 88.2258 318.745 89.8083C318.218 91.3908 318.218 93.1052 318.745 94.6877C319.273 96.2702 320.328 97.589 321.647 98.644C322.965 99.5672 324.548 100.095 326.262 100.095C327.845 100.095 329.559 99.5671 330.878 98.5121C332.197 97.4571 333.12 96.1384 333.647 94.5558C334.043 92.9733 334.043 91.2589 333.515 89.6764Z" fill="white"/>
<path d="M327.449 130.954C325.603 131.613 323.625 131.481 321.91 130.822C320.196 130.031 318.745 128.712 317.822 126.997C317.031 125.283 316.767 123.305 317.295 121.459C317.822 119.612 319.009 118.03 320.592 116.975L321.515 120.14L322.174 116.315C324.152 115.656 326.262 115.788 328.108 116.711C329.955 117.634 331.405 119.217 332.065 121.195C332.724 123.173 332.592 125.283 331.801 127.129C330.878 128.844 329.295 130.294 327.449 130.954Z" fill="white"/>
<path d="M341.824 113.414C340.637 113.81 339.45 113.942 338.263 113.81C337.076 113.678 335.889 113.282 334.966 112.491C333.911 111.832 333.12 110.909 332.46 109.854C331.801 108.799 331.537 107.612 331.405 106.425C331.274 105.238 331.537 104.051 332.065 102.864C332.592 101.809 333.252 100.754 334.175 99.963C335.098 99.1717 336.153 98.6442 337.34 98.3804C338.527 98.1167 339.714 98.1167 340.901 98.3804L340.637 102.469L342.483 99.0398C343.406 99.4354 344.197 100.095 344.857 100.886C345.516 101.677 346.044 102.6 346.439 103.524C346.703 104.183 346.835 104.974 346.835 105.634C346.967 107.348 346.439 109.062 345.516 110.381C344.857 111.832 343.406 112.887 341.824 113.414Z" fill="white"/>
<path opacity="0.1" d="M333.12 91.9183C331.405 92.5777 329.955 93.6327 328.24 94.2921C326.526 94.9514 324.548 95.0833 323.097 94.0283C322.306 93.5008 321.778 92.5777 320.987 92.0502C320.328 91.3908 319.405 90.9952 318.613 90.8633C318.482 91.9183 318.482 93.1052 318.745 94.1602C319.009 95.2152 319.537 96.2702 320.196 97.0615C320.855 97.9846 321.778 98.644 322.702 99.1715C323.625 99.699 324.812 99.9627 325.867 100.095C326.922 100.095 328.109 99.9627 329.032 99.5671C330.087 99.1715 331.01 98.5121 331.801 97.7208C332.592 96.9296 333.12 96.0064 333.515 94.9514C333.911 93.8964 334.043 92.8414 333.911 91.6545C333.647 91.7864 333.384 91.7864 333.12 91.9183Z" fill="black"/>
<path opacity="0.1" d="M341.824 113.414C340.505 113.81 339.186 113.942 337.867 113.678C336.549 113.414 335.362 112.887 334.307 111.964C333.252 111.041 332.46 109.986 331.933 108.667C331.405 107.348 331.274 106.029 331.537 104.71C332.197 104.974 332.856 105.238 333.515 105.765C334.307 106.425 334.834 107.216 335.757 107.744C337.34 108.799 339.45 108.667 341.164 108.007C342.879 107.348 344.461 106.293 346.307 105.634C346.571 105.502 346.835 105.502 347.099 105.37C347.231 107.084 346.703 108.799 345.78 110.117C344.857 111.832 343.406 112.887 341.824 113.414Z" fill="black"/>
<path opacity="0.1" d="M327.449 130.954C326.262 131.349 324.812 131.481 323.493 131.218C322.174 130.954 320.987 130.426 319.932 129.635C318.877 128.844 318.086 127.657 317.558 126.47C317.031 125.283 316.899 123.832 317.031 122.514C317.822 122.777 318.481 123.041 319.009 123.569C319.8 124.228 320.46 125.019 321.383 125.679C323.097 126.734 325.339 126.602 327.185 125.942C329.032 125.415 330.614 124.36 332.46 123.701C332.46 125.283 331.933 126.866 331.01 128.184C330.219 129.503 328.9 130.426 327.449 130.954Z" fill="black"/>
<path d="M216.805 46.2889C217.069 40.0907 222.212 35.2113 228.542 35.2113C228.937 35.2113 229.201 35.2113 229.597 35.2113C233.949 27.8262 243.444 25.3206 250.829 29.5406C253.203 30.8594 255.049 32.8375 256.5 35.2113C256.763 35.2113 257.027 35.2113 257.423 35.2113C263.621 35.2113 268.764 40.0907 269.16 46.2889" fill="#F2F2F2"/>
<path opacity="0.05" d="M219.179 45.3656C219.442 39.1674 224.586 34.2879 230.916 34.2879C231.311 34.2879 231.575 34.2879 231.971 34.2879C236.323 26.9029 245.818 24.3972 253.203 28.6173C255.576 29.936 257.423 31.9142 258.873 34.2879C259.137 34.2879 259.401 34.2879 259.797 34.2879C265.995 34.2879 271.138 39.1674 271.534 45.3656" fill="black"/>
<path d="M313.47 70.2905C313.866 63.6967 319.273 58.5535 325.867 58.5535C326.262 58.5535 326.658 58.5535 326.922 58.5535C331.537 50.7728 341.56 48.0034 349.341 52.6191C351.846 54.0697 353.824 56.0479 355.275 58.5535C355.539 58.5535 355.934 58.5535 356.198 58.5535C362.792 58.5535 368.199 63.6967 368.595 70.2905" fill="#F2F2F2"/>
<path opacity="0.05" d="M316.108 69.2353C316.503 62.6415 321.91 57.4983 328.504 57.4983C328.9 57.4983 329.295 57.4983 329.559 57.4983C334.175 49.7176 344.197 46.9482 351.978 51.5639C354.484 53.0145 356.462 54.9927 357.912 57.4983C358.176 57.4983 358.572 57.4983 358.836 57.4983C365.429 57.4983 370.836 62.6415 371.232 69.2353" fill="black"/>
</g>
<defs>
<clipPath id="clip0">
<rect width="383.233" height="175" fill="white"/>
</clipPath>
</defs>
</svg>
