<svg width="100%" height="251" viewBox="0 0 260 251" fill="none" xmlns="http://www.w3.org/2000/svg">
<path d="M137.658 16.2409H65.1147V65.5844H137.658V16.2409Z" fill="#42B6E9"/>
<path d="M135.402 109.427C172.313 109.427 202.236 106.723 202.236 103.388C202.236 100.053 172.313 97.3492 135.402 97.3492C98.4901 97.3492 68.5674 100.053 68.5674 103.388C68.5674 106.723 98.4901 109.427 135.402 109.427Z" fill="#42B6E9"/>
<path opacity="0.1" d="M65.4892 12.7878C70.1776 12.7878 73.9783 12.383 73.9783 11.8836C73.9783 11.3842 70.1776 10.9794 65.4892 10.9794C60.8007 10.9794 57 11.3842 57 11.8836C57 12.383 60.8007 12.7878 65.4892 12.7878Z" fill="black"/>
<path d="M91.2257 20.7623H69.7456V44.2715H91.2257V20.7623Z" fill="#F2F2F2"/>
<path d="M76.6622 31.5566C76.7319 31.5779 76.8069 31.5743 76.8743 31.5463C76.9417 31.5183 76.9973 31.4678 77.0318 31.4033C77.3288 30.9332 76.7819 30.327 76.9003 29.7831C76.9952 29.3473 77.4883 29.0887 77.5891 28.6543C77.687 28.2322 77.3852 27.7564 77.5892 27.3744C77.749 27.0752 78.1483 26.9965 78.4823 27.0489C78.8164 27.1013 79.1335 27.2488 79.471 27.2695C79.9207 27.297 80.3494 27.0982 80.7892 26.9997C81.2289 26.9012 81.7653 26.9397 82.024 27.3102C82.3561 27.7859 82.0192 28.4482 82.1349 29.0175C82.2267 29.4695 82.6035 29.8438 82.6116 30.305C82.6145 30.469 82.1853 30.3369 82.2081 30.4993C82.2309 30.6616 82.0281 30.5187 82.1902 30.4994C82.2565 30.4831 82.3158 30.4461 82.3597 30.3937C82.4035 30.3413 82.4296 30.2762 82.4343 30.2079C82.4535 30.0727 82.7066 30.0276 82.7037 29.891C82.6968 29.5709 83.2731 29.7868 83.368 29.4811C83.5862 28.7686 83.5415 28.0009 83.2419 27.3188C83.0875 27.0402 82.9642 26.7453 82.8743 26.4394C82.7896 26.015 82.9228 25.5594 82.7832 25.1499C82.595 24.598 81.9724 24.3167 81.3943 24.2596C80.8163 24.2024 80.2288 24.3047 79.6541 24.2204C79.1392 24.145 78.6407 23.9209 78.1214 23.9533C77.4982 23.9923 76.9559 24.3955 76.524 24.8483C76.092 25.301 75.7256 25.8217 75.235 26.2096C75.0848 26.3134 74.9462 26.4332 74.8217 26.5669C74.5718 26.8727 74.5465 27.3083 74.616 27.6977C74.6855 28.0871 74.8367 28.4585 74.9006 28.8488C74.9606 29.2156 74.9421 29.5904 74.9679 29.9613C74.974 30.3353 75.0867 30.6997 75.2928 31.0114C75.3819 31.1328 75.4973 31.2322 75.6304 31.302C75.7635 31.3718 75.9107 31.4102 76.0607 31.4143C76.1647 31.4167 76.2526 31.3228 76.3575 31.3473C76.4887 31.3779 76.5457 31.503 76.6622 31.5566Z" fill="#2F2E41"/>
<path d="M71.9385 44.4014C72.0324 43.1084 72.1031 42.1422 72.1031 42.1422L72.7102 40.5353L74.6589 44.4014L71.9385 44.4014Z" fill="#575A89"/>
<path opacity="0.1" d="M71.9385 44.4014C72.0324 43.1084 72.1031 42.1422 72.1031 42.1422L72.7102 40.5353L74.6589 44.4014L71.9385 44.4014Z" fill="black"/>
<path d="M76.4546 31.6873C76.4546 31.6873 78.2716 36.3321 77.2254 37.2168C76.1793 38.1016 83.0619 35.7238 83.0619 35.7238L82.8967 35.1156C82.8967 35.1156 80.6392 34.2309 81.7405 31.6873C82.8417 29.1436 76.4546 31.6873 76.4546 31.6873Z" fill="#A0616A"/>
<path opacity="0.1" d="M76.4546 31.6873C76.4546 31.6873 78.2716 36.3321 77.2254 37.2168C76.1793 38.1016 83.0619 35.7238 83.0619 35.7238L82.8967 35.1156C82.8967 35.1156 80.6392 34.2309 81.7405 31.6873C82.8417 29.1436 76.4546 31.6873 76.4546 31.6873Z" fill="black"/>
<path d="M79.0418 33.5674C81.1704 33.5674 82.8961 31.8344 82.8961 29.6967C82.8961 27.559 81.1704 25.826 79.0418 25.826C76.9131 25.826 75.1875 27.559 75.1875 29.6967C75.1875 31.8344 76.9131 33.5674 79.0418 33.5674Z" fill="#A0616A"/>
<path d="M88.4024 38.0466C88.4024 38.0466 88.387 38.354 88.36 38.8914C88.3047 39.9855 88.2057 42.0354 88.1066 44.4006H73.1657C72.7753 43.8754 72.4557 43.3008 72.2152 42.6916C72.1502 42.515 72.1124 42.3294 72.1033 42.1414C72.021 40.6753 73.3291 38.6292 74.2526 38.4341C75.2983 38.212 77.2804 36.1116 77.2804 36.1116C77.2867 36.1916 77.3132 36.2686 77.3573 36.3355C77.4014 36.4024 77.4617 36.4569 77.5325 36.494V36.4953C77.6923 36.5782 77.8711 36.6174 78.0508 36.6089C78.6965 36.6089 81.5365 35.2927 82.4485 34.8625C82.6273 34.7786 82.7314 34.7282 82.7314 34.7282C83.7832 35.184 84.8697 35.5542 85.9805 35.8352C86.5347 35.974 87.0461 36.2487 87.4687 36.6346C87.8914 37.0205 88.2122 37.5057 88.4024 38.0466Z" fill="#8D72AD"/>
<path d="M76.0015 31.1688C76.0713 31.1901 76.1462 31.1865 76.2136 31.1585C76.281 31.1306 76.3367 31.08 76.3711 31.0155C76.6682 30.5454 76.1212 29.9392 76.2397 29.3953C76.3345 28.9596 76.8276 28.7009 76.9284 28.2665C77.0264 27.8444 76.7245 27.3686 76.9285 26.9867C77.0884 26.6874 77.4876 26.6087 77.8217 26.6611C78.1558 26.7135 78.4729 26.861 78.8104 26.8817C79.2601 26.9092 79.6888 26.7104 80.1285 26.6119C80.5683 26.5134 81.1046 26.552 81.3633 26.9224C81.6955 27.3981 81.3585 28.0604 81.4742 28.6297C81.5661 29.0817 82.6125 29.399 82.7074 29.0933C82.9256 28.3808 82.8808 27.6131 82.5812 26.9311C82.4268 26.6524 82.3035 26.3575 82.2136 26.0517C82.129 25.6273 82.2622 25.1716 82.1225 24.7621C81.9344 24.2103 81.3117 23.9289 80.7337 23.8718C80.1556 23.8147 79.5682 23.9169 78.9934 23.8327C78.4785 23.7572 77.9801 23.5331 77.4607 23.5656C76.8376 23.6045 76.2953 24.0078 75.8633 24.4605C75.4314 24.9132 75.0649 25.434 74.5743 25.8218C74.4241 25.9256 74.2856 26.0454 74.161 26.1791C73.9112 26.4849 73.8858 26.9206 73.9553 27.3099C74.0248 27.6993 74.1761 28.0707 74.24 28.4611C74.3 28.8279 74.2815 29.2027 74.3073 29.5735C74.3133 29.9475 74.4261 30.312 74.6322 30.6236C74.7212 30.745 74.8367 30.8444 74.9698 30.9142C75.1028 30.984 75.25 31.0224 75.4001 31.0265C75.5041 31.0289 75.5919 30.9351 75.6969 30.9595C75.828 30.9901 75.8851 31.1152 76.0015 31.1688Z" fill="#2F2E41"/>
<path opacity="0.1" d="M90.3119 44.4003H85.9515C85.6197 41.9564 85.3457 39.4014 85.3457 39.4014L86.2268 39.0139L88.0172 38.0464C88.0172 38.0464 88.1484 38.359 88.3593 38.8912C88.8095 40.0292 89.6263 42.1708 90.3119 44.4003Z" fill="black"/>
<path d="M90.6971 44.3991H85.7759C85.0466 41.7253 84.3276 38.8189 84.3276 38.8189L86.2004 37.4368L88.4024 38.0452C88.4024 38.0452 89.6912 41.1259 90.6971 44.3991Z" fill="#575A89"/>
<path d="M125.182 20.7623H104.474V22.1832H125.182V20.7623Z" fill="white"/>
<path d="M77.3345 47.8877H70.0029V49.3086H77.3345V47.8877Z" fill="#42B6E9"/>
<path d="M90.9685 50.4716H70.0029V51.8924H90.9685V50.4716Z" fill="white"/>
<path d="M129.427 25.9301H99.5859V27.3509H129.427V25.9301Z" fill="#F2F2F2"/>
<path d="M129.427 29.9323H99.5859V31.3531H129.427V29.9323Z" fill="#F2F2F2"/>
<path d="M129.427 33.9379H99.5859V35.3588H129.427V33.9379Z" fill="#F2F2F2"/>
<path d="M129.427 37.9435H99.5859V39.3644H129.427V37.9435Z" fill="#F2F2F2"/>
<path d="M129.427 41.9456H99.5859V43.3665H129.427V41.9456Z" fill="#F2F2F2"/>
<path d="M129.427 45.9512H99.5859V47.3721H129.427V45.9512Z" fill="#F2F2F2"/>
<path d="M129.427 49.9534H99.5859V51.3743H129.427V49.9534Z" fill="#F2F2F2"/>
<path d="M73.5557 0.344642L65.3985 8.53665L61.97 5.09349C61.8611 4.9842 61.7319 4.8975 61.5898 4.83835C61.4476 4.7792 61.2951 4.74876 61.1412 4.74876C60.9873 4.74876 60.8349 4.7792 60.6927 4.83835C60.5505 4.8975 60.4213 4.9842 60.3125 5.09349C60.2037 5.20279 60.1173 5.33254 60.0584 5.47534C59.9995 5.61814 59.9692 5.77119 59.9692 5.92576C59.9692 6.08032 59.9995 6.23338 60.0584 6.37618C60.1173 6.51898 60.2037 6.64873 60.3125 6.75802L64.761 11.2254C64.9286 11.3938 65.156 11.4884 65.3931 11.4885C65.6302 11.4885 65.8576 11.394 66.0253 11.2258L75.2124 2.0092C75.3213 1.89995 75.4076 1.77023 75.4666 1.62744C75.5256 1.48465 75.5559 1.33159 75.556 1.17701C75.556 1.02243 75.5257 0.869358 75.4668 0.726538C75.4079 0.583718 75.3216 0.45395 75.2128 0.344647C74.993 0.123974 74.695 6.47161e-07 74.3842 0C74.0735 -6.47156e-07 73.7755 0.12397 73.5557 0.344642Z" fill="#57B894"/>
<path opacity="0.1" d="M195.191 97.2302C195.191 106.467 182.371 103.61 166.674 103.61C150.977 103.61 138.347 106.467 138.347 97.2302C138.347 87.9934 151.165 85.9844 166.863 85.9844C182.56 85.9844 195.191 87.9934 195.191 97.2302Z" fill="black"/>
<path d="M195.191 95.5053C195.191 104.742 182.371 101.885 166.674 101.885C150.977 101.885 138.347 104.742 138.347 95.5053C138.347 86.2685 151.165 84.2596 166.863 84.2596C182.56 84.2596 195.191 86.2685 195.191 95.5053Z" fill="#3F3D56"/>
<path d="M141.599 66.5695L141.018 67.2469C141.018 67.2469 133.954 67.9129 134.241 69.0644C134.528 70.216 142.745 67.5291 142.745 67.5291L141.599 66.5695Z" fill="#FFC1C7"/>
<path d="M154.404 65.993C154.404 65.993 146.855 68.6799 142.746 67.5284L144.657 71.3668C144.657 71.3668 154.404 71.0789 156.124 69.3516C157.844 67.6243 154.404 65.993 154.404 65.993Z" fill="#42B6E9"/>
<path opacity="0.1" d="M154.404 65.993C154.404 65.993 146.855 68.6799 142.746 67.5284L144.657 71.3668C144.657 71.3668 154.404 71.0789 156.124 69.3516C157.844 67.6243 154.404 65.993 154.404 65.993Z" fill="black"/>
<path d="M149.291 45.4102C152.088 45.4102 154.355 43.1331 154.355 40.3243C154.355 37.5154 152.088 35.2383 149.291 35.2383C146.494 35.2383 144.227 37.5154 144.227 40.3243C144.227 43.1331 146.494 45.4102 149.291 45.4102Z" fill="#FFC1C7"/>
<path d="M153.61 45.0979C153.784 45.4321 154.005 45.7397 154.266 46.0112C154.96 46.7691 155.788 47.3912 156.707 47.8457C153.833 48.4324 150.93 48.8659 148.01 49.1446C148.318 48.0543 147.912 46.8881 147.367 45.8958C146.821 44.9035 146.126 43.9786 145.785 42.8983L149.208 42.9907C149.829 43.0075 150.452 43.0261 151.073 42.9956C151.537 42.9728 152.31 42.6936 152.743 42.7964C153.659 43.0138 153.21 44.2821 153.61 45.0979Z" fill="#FFC1C7"/>
<path d="M165.105 68.9697L167.972 72.4243C167.972 72.4243 172.749 83.6517 162.334 84.8032C151.919 85.9547 144.179 83.9396 144.179 83.9396C144.179 83.9396 139.974 81.9244 139.879 83.4598C139.783 84.9951 139.401 89.3134 137.108 93.5356L135.101 98.1418C135.101 98.1418 134.05 99.1973 134.337 100.637C134.624 102.076 127.935 102.556 128.03 100.637C128.03 100.637 128.986 99.0054 128.986 98.0458C128.986 97.0862 130.515 94.7831 130.515 94.7831L133.286 80.9648C133.286 80.9648 133.095 73.8637 139.592 75.2071C146.09 76.5506 155.359 74.9192 155.359 74.9192L157.461 67.5303L165.105 68.9697Z" fill="#2F2E41"/>
<path opacity="0.1" d="M165.105 68.9697L167.972 72.4243C167.972 72.4243 172.749 83.6517 162.334 84.8032C151.919 85.9547 144.179 83.9396 144.179 83.9396C144.179 83.9396 139.974 81.9244 139.879 83.4598C139.783 84.9951 139.401 89.3134 137.108 93.5356L135.101 98.1418C135.101 98.1418 134.05 99.1973 134.337 100.637C134.624 102.076 127.935 102.556 128.03 100.637C128.03 100.637 128.986 99.0054 128.986 98.0458C128.986 97.0862 130.515 94.7831 130.515 94.7831L133.286 80.9648C133.286 80.9648 133.095 73.8637 139.592 75.2071C146.09 76.5506 155.359 74.9192 155.359 74.9192L157.461 67.5303L165.105 68.9697Z" fill="black"/>
<path d="M154.355 68.7153C154.355 68.7153 163.098 65.4175 167.972 72.4226C167.972 72.4226 169.214 83.2662 164.245 83.746C159.276 84.2258 152.779 84.1299 151.25 82.4985C149.721 80.8672 140.07 76.2611 140.07 76.2611C140.07 76.2611 135.266 73.8002 134.324 76.9978C133.381 80.1955 133.286 80.9632 133.286 80.9632C133.286 80.9632 128.317 84.6097 126.31 85.2814C126.31 85.2814 124.972 87.2006 124.208 87.2006C123.444 87.2006 118.761 88.2562 119.239 84.7056L126.979 77.6045L134.719 70.0236C134.719 70.0236 136.917 66.761 142.554 68.4883C146.296 69.6065 150.091 70.5353 153.925 71.2711L154.355 68.7153Z" fill="#2F2E41"/>
<path d="M134.051 100.443C134.051 100.443 135.866 105.049 134.338 105.625C132.809 106.201 129.56 105.817 129.56 105.817C129.56 105.817 125.738 105.337 124.782 105.433C123.827 105.529 119.909 104.762 120.482 103.226C121.056 101.691 124.018 102.075 124.018 102.075L126.693 100.827C126.693 100.827 126.98 99.8676 127.649 100.251C128.318 100.635 130.229 102.075 134.051 100.443Z" fill="#CBCEDA"/>
<path d="M124.113 86.8168C124.113 86.8168 126.12 91.3269 122.871 90.9431C119.622 90.5592 117.138 89.8875 116.182 89.7915C115.263 89.6992 112.664 88.8078 113.063 87.0319C113.084 86.917 113.093 86.8001 113.089 86.6833C113.089 86.4449 113.411 85.9771 115.991 86.0491C115.991 86.0491 117.902 86.0491 118.667 84.7056C118.667 84.7056 121.533 88.3521 124.113 86.8168Z" fill="#CBCEDA"/>
<path d="M145.803 48.4332C145.803 48.4332 152.683 44.115 158.416 48.4332C164.15 52.7514 167.972 72.4234 167.972 72.4234L154.69 69.4486C154.69 69.4486 154.116 67.1455 153.352 66.7617C152.588 66.3779 152.492 64.7465 152.492 64.7465C152.492 64.7465 148.383 63.499 148.67 58.701C148.956 53.9029 145.803 48.4332 145.803 48.4332Z" fill="#42B6E9"/>
<path d="M149.338 48.6243H145.803C145.803 48.6243 143.701 51.0234 143.414 57.0689L142.268 61.8669C142.268 61.8669 139.879 67.6246 141.312 68.5842C142.745 69.5438 145.516 69.4478 146.09 67.5286C146.663 65.6094 150.581 54.4779 150.581 54.4779L149.338 48.6243Z" fill="#42B6E9"/>
<path d="M148.326 33.7058C149.202 33.3448 150.161 33.2352 151.096 33.3891C152.031 33.543 152.905 33.9545 153.621 34.5777C155.456 36.2223 155.826 38.9053 156.29 41.3311C156.754 43.7568 157.687 46.4582 159.964 47.3934C158.938 47.531 157.896 47.5006 156.88 47.3032L160.32 50.3994L154.525 48.5024C152.706 47.907 150.796 47.3041 148.912 47.6404C145.792 48.1974 143.62 51.1431 140.623 52.178L140.956 50.546L138.945 50.5305C139.427 50.1726 139.821 49.709 140.097 49.1751C140.003 49.0595 139.886 48.9642 139.754 48.8948C139.621 48.8253 139.477 48.7832 139.328 48.7709C138.49 43.5208 141.594 38.3309 145.64 34.9008C146.436 34.2261 147.316 33.5781 148.344 33.4093C149.372 33.2406 150.572 33.7021 150.929 34.6844" fill="#2F2E41"/>
<path d="M1.30263 144V142.392C2.35863 141.368 3.31063 140.424 4.15863 139.56C5.02263 138.696 5.75063 137.896 6.34263 137.16C6.95063 136.424 7.41463 135.736 7.73463 135.096C8.05463 134.456 8.21463 133.848 8.21463 133.272C8.21463 132.456 7.99863 131.816 7.56663 131.352C7.13463 130.872 6.51063 130.632 5.69463 130.632C5.10263 130.632 4.55863 130.8 4.06263 131.136C3.58263 131.472 3.13463 131.872 2.71863 132.336L1.18262 130.8C1.88663 130.048 2.60663 129.472 3.34263 129.072C4.09463 128.656 4.99863 128.448 6.05463 128.448C6.79063 128.448 7.45463 128.56 8.04663 128.784C8.63863 129.008 9.14263 129.328 9.55863 129.744C9.97463 130.144 10.2946 130.632 10.5186 131.208C10.7586 131.784 10.8786 132.424 10.8786 133.128C10.8786 133.8 10.7266 134.488 10.4226 135.192C10.1346 135.88 9.73463 136.584 9.22263 137.304C8.72663 138.008 8.14263 138.736 7.47063 139.488C6.79863 140.24 6.08663 141.016 5.33463 141.816C5.73463 141.784 6.16663 141.752 6.63063 141.72C7.09463 141.672 7.51063 141.648 7.87863 141.648H11.6226V144H1.30263ZM16.0073 144.288C15.4953 144.288 15.0633 144.112 14.7113 143.76C14.3753 143.408 14.2073 142.96 14.2073 142.416C14.2073 141.872 14.3753 141.424 14.7113 141.072C15.0633 140.72 15.4953 140.544 16.0073 140.544C16.5193 140.544 16.9433 140.72 17.2793 141.072C17.6153 141.424 17.7833 141.872 17.7833 142.416C17.7833 142.96 17.6153 143.408 17.2793 143.76C16.9433 144.112 16.5193 144.288 16.0073 144.288ZM26.1014 144V128.304H29.2454L32.0294 135.984C32.2054 136.48 32.3734 136.992 32.5334 137.52C32.6934 138.032 32.8614 138.544 33.0374 139.056H33.1334C33.3094 138.544 33.4694 138.032 33.6134 137.52C33.7734 136.992 33.9414 136.48 34.1174 135.984L36.8294 128.304H39.9974V144H37.4294V136.824C37.4294 136.456 37.4374 136.056 37.4534 135.624C37.4854 135.192 37.5174 134.76 37.5494 134.328C37.5814 133.88 37.6214 133.448 37.6694 133.032C37.7174 132.6 37.7574 132.2 37.7894 131.832H37.6934L36.4214 135.48L33.8534 142.536H32.1974L29.6054 135.48L28.3574 131.832H28.2614C28.2934 132.2 28.3254 132.6 28.3574 133.032C28.4054 133.448 28.4454 133.88 28.4774 134.328C28.5254 134.76 28.5574 135.192 28.5734 135.624C28.6054 136.056 28.6214 136.456 28.6214 136.824V144H26.1014ZM46.6002 144.288C45.5602 144.288 44.7202 143.976 44.0802 143.352C43.4402 142.712 43.1202 141.872 43.1202 140.832C43.1202 140.208 43.2482 139.656 43.5042 139.176C43.7762 138.68 44.1922 138.256 44.7522 137.904C45.3282 137.552 46.0482 137.256 46.9122 137.016C47.7922 136.776 48.8402 136.592 50.0562 136.464C50.0402 136.16 49.9922 135.872 49.9122 135.6C49.8482 135.312 49.7282 135.064 49.5522 134.856C49.3922 134.632 49.1762 134.464 48.9042 134.352C48.6322 134.224 48.2962 134.16 47.8962 134.16C47.3202 134.16 46.7522 134.272 46.1922 134.496C45.6482 134.72 45.1122 134.992 44.5842 135.312L43.5762 133.464C44.2322 133.048 44.9682 132.688 45.7842 132.384C46.6002 132.08 47.4802 131.928 48.4242 131.928C49.8962 131.928 50.9922 132.368 51.7122 133.248C52.4482 134.112 52.8162 135.368 52.8162 137.016V144H50.5362L50.3442 142.704H50.2482C49.7202 143.152 49.1522 143.528 48.5442 143.832C47.9522 144.136 47.3042 144.288 46.6002 144.288ZM47.4882 142.128C47.9682 142.128 48.4002 142.016 48.7842 141.792C49.1842 141.568 49.6082 141.248 50.0562 140.832V138.192C49.2562 138.288 48.5842 138.416 48.0402 138.576C47.4962 138.736 47.0562 138.92 46.7202 139.128C46.3842 139.32 46.1442 139.544 46.0002 139.8C45.8562 140.056 45.7842 140.328 45.7842 140.616C45.7842 141.144 45.9442 141.528 46.2642 141.768C46.5842 142.008 46.9922 142.128 47.4882 142.128ZM59.8962 144.288C59.2082 144.288 58.6242 144.184 58.1442 143.976C57.6802 143.768 57.2962 143.48 56.9922 143.112C56.7042 142.728 56.4882 142.28 56.3442 141.768C56.2162 141.24 56.1522 140.656 56.1522 140.016V134.4H54.4722V132.336L56.2962 132.216L56.6322 129H58.9362V132.216H61.9362V134.4H58.9362V140.016C58.9362 141.392 59.4882 142.08 60.5922 142.08C60.8002 142.08 61.0082 142.056 61.2162 142.008C61.4402 141.96 61.6402 141.896 61.8162 141.816L62.2962 143.856C61.9762 143.968 61.6082 144.064 61.1922 144.144C60.7922 144.24 60.3602 144.288 59.8962 144.288ZM68.9611 144.288C68.1611 144.288 67.4091 144.152 66.7051 143.88C66.0171 143.608 65.4171 143.208 64.9051 142.68C64.3931 142.152 63.9931 141.504 63.7051 140.736C63.4171 139.968 63.2731 139.096 63.2731 138.12C63.2731 137.144 63.4331 136.272 63.7531 135.504C64.0731 134.736 64.5051 134.088 65.0491 133.56C65.5931 133.032 66.2171 132.632 66.9211 132.36C67.6411 132.072 68.3931 131.928 69.1771 131.928C69.9451 131.928 70.6011 132.056 71.1451 132.312C71.7051 132.568 72.2011 132.88 72.6331 133.248L71.2891 135.048C70.9691 134.776 70.6491 134.568 70.3291 134.424C70.0251 134.264 69.6891 134.184 69.3211 134.184C68.3611 134.184 67.5851 134.544 66.9931 135.264C66.4011 135.968 66.1051 136.92 66.1051 138.12C66.1051 139.304 66.3931 140.256 66.9691 140.976C67.5611 141.68 68.3211 142.032 69.2491 142.032C69.7131 142.032 70.1451 141.936 70.5451 141.744C70.9611 141.536 71.3371 141.296 71.6731 141.024L72.8011 142.848C72.2411 143.328 71.6251 143.688 70.9531 143.928C70.2971 144.168 69.6331 144.288 68.9611 144.288ZM75.127 144V127.056H77.887V131.424L77.791 133.704C78.287 133.24 78.831 132.832 79.423 132.48C80.031 132.112 80.743 131.928 81.559 131.928C82.823 131.928 83.743 132.336 84.319 133.152C84.895 133.952 85.183 135.104 85.183 136.608V144H82.423V136.968C82.423 135.992 82.279 135.304 81.991 134.904C81.703 134.504 81.231 134.304 80.575 134.304C80.063 134.304 79.607 134.432 79.207 134.688C78.823 134.928 78.383 135.288 77.887 135.768V144H75.127ZM95.2585 144L92.1385 132.216H94.9225L96.3385 138.336C96.4665 138.896 96.5705 139.456 96.6505 140.016C96.7465 140.576 96.8505 141.144 96.9625 141.72H97.0585C97.1705 141.144 97.2825 140.576 97.3945 140.016C97.5225 139.456 97.6585 138.896 97.8025 138.336L99.3385 132.216H101.859L103.419 138.336C103.563 138.896 103.699 139.456 103.827 140.016C103.955 140.576 104.083 141.144 104.211 141.72H104.307C104.419 141.144 104.523 140.576 104.619 140.016C104.715 139.456 104.819 138.896 104.931 138.336L106.347 132.216H108.939L105.939 144H102.651L101.283 138.504C101.155 137.944 101.035 137.392 100.923 136.848C100.811 136.288 100.691 135.696 100.563 135.072H100.467C100.355 135.696 100.243 136.288 100.131 136.848C100.019 137.408 99.8985 137.968 99.7705 138.528L98.4265 144H95.2585ZM111.268 144V132.216H114.028V144H111.268ZM112.66 130.152C112.164 130.152 111.756 130.008 111.436 129.72C111.116 129.432 110.956 129.056 110.956 128.592C110.956 128.128 111.116 127.752 111.436 127.464C111.756 127.16 112.164 127.008 112.66 127.008C113.156 127.008 113.564 127.16 113.884 127.464C114.204 127.752 114.364 128.128 114.364 128.592C114.364 129.056 114.204 129.432 113.884 129.72C113.564 130.008 113.156 130.152 112.66 130.152ZM121.701 144.288C121.013 144.288 120.429 144.184 119.949 143.976C119.485 143.768 119.101 143.48 118.797 143.112C118.509 142.728 118.293 142.28 118.149 141.768C118.021 141.24 117.957 140.656 117.957 140.016V134.4H116.277V132.336L118.101 132.216L118.437 129H120.741V132.216H123.741V134.4H120.741V140.016C120.741 141.392 121.293 142.08 122.397 142.08C122.605 142.08 122.813 142.056 123.021 142.008C123.245 141.96 123.445 141.896 123.621 141.816L124.101 143.856C123.781 143.968 123.413 144.064 122.997 144.144C122.597 144.24 122.165 144.288 121.701 144.288ZM126.221 144V127.056H128.981V131.424L128.885 133.704C129.381 133.24 129.925 132.832 130.517 132.48C131.125 132.112 131.837 131.928 132.653 131.928C133.917 131.928 134.837 132.336 135.413 133.152C135.989 133.952 136.277 135.104 136.277 136.608V144H133.517V136.968C133.517 135.992 133.373 135.304 133.085 134.904C132.797 134.504 132.325 134.304 131.669 134.304C131.157 134.304 130.701 134.432 130.301 134.688C129.917 134.928 129.477 135.288 128.981 135.768V144H126.221ZM147.264 144.288C146.224 144.288 145.384 143.976 144.744 143.352C144.104 142.712 143.784 141.872 143.784 140.832C143.784 140.208 143.912 139.656 144.168 139.176C144.44 138.68 144.856 138.256 145.416 137.904C145.992 137.552 146.712 137.256 147.576 137.016C148.456 136.776 149.504 136.592 150.72 136.464C150.704 136.16 150.656 135.872 150.576 135.6C150.512 135.312 150.392 135.064 150.216 134.856C150.056 134.632 149.84 134.464 149.568 134.352C149.296 134.224 148.96 134.16 148.56 134.16C147.984 134.16 147.416 134.272 146.856 134.496C146.312 134.72 145.776 134.992 145.248 135.312L144.24 133.464C144.896 133.048 145.632 132.688 146.448 132.384C147.264 132.08 148.144 131.928 149.088 131.928C150.56 131.928 151.656 132.368 152.376 133.248C153.112 134.112 153.48 135.368 153.48 137.016V144H151.2L151.008 142.704H150.912C150.384 143.152 149.816 143.528 149.208 143.832C148.616 144.136 147.968 144.288 147.264 144.288ZM148.152 142.128C148.632 142.128 149.064 142.016 149.448 141.792C149.848 141.568 150.272 141.248 150.72 140.832V138.192C149.92 138.288 149.248 138.416 148.704 138.576C148.16 138.736 147.72 138.92 147.384 139.128C147.048 139.32 146.808 139.544 146.664 139.8C146.52 140.056 146.448 140.328 146.448 140.616C146.448 141.144 146.608 141.528 146.928 141.768C147.248 142.008 147.656 142.128 148.152 142.128ZM164.228 144L160.124 132.216H162.932L164.804 138.336C164.964 138.912 165.124 139.496 165.284 140.088C165.46 140.68 165.628 141.28 165.788 141.888H165.884C166.06 141.28 166.228 140.68 166.388 140.088C166.548 139.496 166.716 138.912 166.892 138.336L168.764 132.216H171.428L167.42 144H164.228ZM178.154 144.288C177.418 144.288 176.714 144.152 176.042 143.88C175.37 143.608 174.77 143.208 174.242 142.68C173.73 142.152 173.322 141.504 173.018 140.736C172.714 139.968 172.562 139.096 172.562 138.12C172.562 137.144 172.714 136.272 173.018 135.504C173.322 134.736 173.73 134.088 174.242 133.56C174.77 133.032 175.37 132.632 176.042 132.36C176.714 132.072 177.418 131.928 178.154 131.928C178.89 131.928 179.594 132.072 180.266 132.36C180.954 132.632 181.554 133.032 182.066 133.56C182.578 134.088 182.986 134.736 183.29 135.504C183.61 136.272 183.77 137.144 183.77 138.12C183.77 139.096 183.61 139.968 183.29 140.736C182.986 141.504 182.578 142.152 182.066 142.68C181.554 143.208 180.954 143.608 180.266 143.88C179.594 144.152 178.89 144.288 178.154 144.288ZM178.154 142.032C179.018 142.032 179.698 141.68 180.194 140.976C180.69 140.256 180.938 139.304 180.938 138.12C180.938 136.92 180.69 135.968 180.194 135.264C179.698 134.544 179.018 134.184 178.154 134.184C177.29 134.184 176.61 134.544 176.114 135.264C175.634 135.968 175.394 136.92 175.394 138.12C175.394 139.304 175.634 140.256 176.114 140.976C176.61 141.68 177.29 142.032 178.154 142.032ZM189.19 144.288C188.198 144.288 187.502 143.992 187.102 143.4C186.702 142.808 186.502 142 186.502 140.976V127.056H189.262V141.12C189.262 141.456 189.326 141.696 189.454 141.84C189.582 141.968 189.718 142.032 189.862 142.032C189.926 142.032 189.982 142.032 190.03 142.032C190.094 142.032 190.182 142.016 190.294 141.984L190.654 144.048C190.286 144.208 189.798 144.288 189.19 144.288ZM196.522 144.288C195.258 144.288 194.338 143.888 193.762 143.088C193.186 142.272 192.898 141.112 192.898 139.608V132.216H195.658V139.248C195.658 140.224 195.802 140.912 196.09 141.312C196.378 141.712 196.842 141.912 197.482 141.912C197.994 141.912 198.442 141.784 198.826 141.528C199.226 141.272 199.65 140.856 200.098 140.28V132.216H202.858V144H200.602L200.386 142.272H200.314C199.802 142.88 199.242 143.368 198.634 143.736C198.042 144.104 197.338 144.288 196.522 144.288ZM206.354 144V132.216H208.634L208.826 133.8H208.922C209.45 133.288 210.018 132.848 210.626 132.48C211.25 132.112 211.97 131.928 212.786 131.928C214.05 131.928 214.97 132.336 215.546 133.152C216.122 133.952 216.41 135.104 216.41 136.608V144H213.65V136.968C213.65 135.992 213.506 135.304 213.218 134.904C212.93 134.504 212.458 134.304 211.802 134.304C211.29 134.304 210.834 134.432 210.434 134.688C210.05 134.928 209.61 135.288 209.114 135.768V144H206.354ZM223.935 144.288C223.247 144.288 222.663 144.184 222.183 143.976C221.719 143.768 221.335 143.48 221.031 143.112C220.743 142.728 220.527 142.28 220.383 141.768C220.255 141.24 220.191 140.656 220.191 140.016V134.4H218.511V132.336L220.335 132.216L220.671 129H222.975V132.216H225.975V134.4H222.975V140.016C222.975 141.392 223.527 142.08 224.631 142.08C224.839 142.08 225.047 142.056 225.255 142.008C225.479 141.96 225.679 141.896 225.855 141.816L226.335 143.856C226.015 143.968 225.647 144.064 225.231 144.144C224.831 144.24 224.399 144.288 223.935 144.288ZM233.12 144.288C232.304 144.288 231.544 144.152 230.84 143.88C230.136 143.592 229.52 143.184 228.992 142.656C228.464 142.128 228.048 141.488 227.744 140.736C227.456 139.968 227.312 139.096 227.312 138.12C227.312 137.16 227.464 136.296 227.768 135.528C228.072 134.76 228.472 134.112 228.968 133.584C229.48 133.056 230.064 132.648 230.72 132.36C231.376 132.072 232.048 131.928 232.736 131.928C233.536 131.928 234.24 132.064 234.848 132.336C235.456 132.608 235.96 132.992 236.36 133.488C236.776 133.984 237.088 134.576 237.296 135.264C237.504 135.952 237.608 136.704 237.608 137.52C237.608 137.792 237.592 138.048 237.56 138.288C237.544 138.528 237.52 138.72 237.488 138.864H230C230.128 139.92 230.496 140.736 231.104 141.312C231.728 141.872 232.52 142.152 233.48 142.152C233.992 142.152 234.464 142.08 234.896 141.936C235.344 141.776 235.784 141.56 236.216 141.288L237.152 143.016C236.592 143.384 235.968 143.688 235.28 143.928C234.592 144.168 233.872 144.288 233.12 144.288ZM229.976 136.992H235.208C235.208 136.08 235.008 135.368 234.608 134.856C234.224 134.328 233.624 134.064 232.808 134.064C232.104 134.064 231.488 134.312 230.96 134.808C230.432 135.304 230.104 136.032 229.976 136.992ZM245.284 144.288C244.468 144.288 243.708 144.152 243.004 143.88C242.3 143.592 241.684 143.184 241.156 142.656C240.628 142.128 240.212 141.488 239.908 140.736C239.62 139.968 239.476 139.096 239.476 138.12C239.476 137.16 239.628 136.296 239.932 135.528C240.236 134.76 240.636 134.112 241.132 133.584C241.644 133.056 242.228 132.648 242.884 132.36C243.54 132.072 244.212 131.928 244.9 131.928C245.7 131.928 246.404 132.064 247.012 132.336C247.62 132.608 248.124 132.992 248.524 133.488C248.94 133.984 249.252 134.576 249.46 135.264C249.668 135.952 249.772 136.704 249.772 137.52C249.772 137.792 249.756 138.048 249.724 138.288C249.708 138.528 249.684 138.72 249.652 138.864H242.164C242.292 139.92 242.66 140.736 243.268 141.312C243.892 141.872 244.684 142.152 245.644 142.152C246.156 142.152 246.628 142.08 247.06 141.936C247.508 141.776 247.948 141.56 248.38 141.288L249.316 143.016C248.756 143.384 248.132 143.688 247.444 143.928C246.756 144.168 246.036 144.288 245.284 144.288ZM242.14 136.992H247.372C247.372 136.08 247.172 135.368 246.772 134.856C246.388 134.328 245.788 134.064 244.972 134.064C244.268 134.064 243.652 134.312 243.124 134.808C242.596 135.304 242.268 136.032 242.14 136.992ZM252.408 144V132.216H254.688L254.88 134.304H254.976C255.392 133.536 255.896 132.952 256.488 132.552C257.08 132.136 257.688 131.928 258.312 131.928C258.872 131.928 259.32 132.008 259.656 132.168L259.176 134.568C258.968 134.504 258.776 134.456 258.6 134.424C258.424 134.392 258.208 134.376 257.952 134.376C257.488 134.376 257 134.56 256.488 134.928C255.976 135.28 255.536 135.904 255.168 136.8V144H252.408Z" fill="black"/>
<path d="M11.7634 195V190.428L8.21735 183.192H9.81935L11.3494 186.522C11.5414 186.954 11.7274 187.38 11.9074 187.8C12.0874 188.22 12.2794 188.652 12.4834 189.096H12.5554C12.7594 188.652 12.9634 188.22 13.1674 187.8C13.3714 187.38 13.5634 186.954 13.7434 186.522L15.2554 183.192H16.8214L13.2754 190.428V195H11.7634ZM20.9356 195.216C20.3956 195.216 19.8796 195.114 19.3876 194.91C18.9076 194.706 18.4816 194.412 18.1096 194.028C17.7376 193.632 17.4376 193.152 17.2096 192.588C16.9936 192.012 16.8856 191.364 16.8856 190.644C16.8856 189.912 16.9936 189.264 17.2096 188.7C17.4376 188.124 17.7376 187.638 18.1096 187.242C18.4816 186.846 18.9076 186.546 19.3876 186.342C19.8796 186.138 20.3956 186.036 20.9356 186.036C21.4756 186.036 21.9856 186.138 22.4656 186.342C22.9576 186.546 23.3896 186.846 23.7616 187.242C24.1336 187.638 24.4276 188.124 24.6436 188.7C24.8716 189.264 24.9856 189.912 24.9856 190.644C24.9856 191.364 24.8716 192.012 24.6436 192.588C24.4276 193.152 24.1336 193.632 23.7616 194.028C23.3896 194.412 22.9576 194.706 22.4656 194.91C21.9856 195.114 21.4756 195.216 20.9356 195.216ZM20.9356 193.992C21.3076 193.992 21.6496 193.914 21.9616 193.758C22.2736 193.59 22.5376 193.362 22.7536 193.074C22.9816 192.774 23.1556 192.42 23.2756 192.012C23.3956 191.604 23.4556 191.148 23.4556 190.644C23.4556 190.14 23.3956 189.684 23.2756 189.276C23.1556 188.856 22.9816 188.496 22.7536 188.196C22.5376 187.896 22.2736 187.668 21.9616 187.512C21.6496 187.344 21.3076 187.26 20.9356 187.26C20.5636 187.26 20.2216 187.344 19.9096 187.512C19.5976 187.668 19.3276 187.896 19.0996 188.196C18.8836 188.496 18.7156 188.856 18.5956 189.276C18.4756 189.684 18.4156 190.14 18.4156 190.644C18.4156 191.148 18.4756 191.604 18.5956 192.012C18.7156 192.42 18.8836 192.774 19.0996 193.074C19.3276 193.362 19.5976 193.59 19.9096 193.758C20.2216 193.914 20.5636 193.992 20.9356 193.992ZM29.8455 195.216C28.9095 195.216 28.2255 194.928 27.7935 194.352C27.3735 193.776 27.1635 192.924 27.1635 191.796V186.252H28.6575V191.598C28.6575 192.426 28.7835 193.026 29.0355 193.398C29.2995 193.758 29.7195 193.938 30.2955 193.938C30.7515 193.938 31.1535 193.824 31.5015 193.596C31.8495 193.356 32.2335 192.978 32.6535 192.462V186.252H34.1295V195H32.9055L32.7795 193.632H32.7255C32.3175 194.112 31.8855 194.496 31.4295 194.784C30.9855 195.072 30.4575 195.216 29.8455 195.216ZM37.1525 187.242L36.7385 186.558C37.1945 186.258 37.5305 185.94 37.7465 185.604C37.9745 185.256 38.0885 184.824 38.0885 184.308C38.0525 184.32 38.0045 184.326 37.9445 184.326C37.6925 184.326 37.4705 184.248 37.2785 184.092C37.0865 183.936 36.9905 183.714 36.9905 183.426C36.9905 183.114 37.0805 182.868 37.2605 182.688C37.4405 182.508 37.6685 182.418 37.9445 182.418C38.2925 182.418 38.5685 182.562 38.7725 182.85C38.9765 183.126 39.0785 183.528 39.0785 184.056C39.0785 184.776 38.9105 185.4 38.5745 185.928C38.2505 186.444 37.7765 186.882 37.1525 187.242ZM43.1289 195.216C42.5649 195.216 42.1629 195.048 41.9229 194.712C41.6829 194.376 41.5629 193.884 41.5629 193.236V182.184H43.0389V193.344C43.0389 193.584 43.0809 193.752 43.1649 193.848C43.2489 193.944 43.3449 193.992 43.4529 193.992C43.5009 193.992 43.5429 193.992 43.5789 193.992C43.6269 193.992 43.6929 193.98 43.7769 193.956L43.9749 195.072C43.8789 195.12 43.7649 195.156 43.6329 195.18C43.5009 195.204 43.3329 195.216 43.1289 195.216ZM47.7168 195.216C47.1528 195.216 46.7508 195.048 46.5108 194.712C46.2708 194.376 46.1508 193.884 46.1508 193.236V182.184H47.6268V193.344C47.6268 193.584 47.6688 193.752 47.7528 193.848C47.8368 193.944 47.9328 193.992 48.0408 193.992C48.0888 193.992 48.1308 193.992 48.1668 193.992C48.2148 193.992 48.2808 193.98 48.3648 193.956L48.5628 195.072C48.4668 195.12 48.3528 195.156 48.2208 195.18C48.0888 195.204 47.9208 195.216 47.7168 195.216ZM54.3422 195V186.252H55.5662L55.6922 187.836H55.7462C56.0462 187.284 56.4062 186.846 56.8262 186.522C57.2582 186.198 57.7262 186.036 58.2302 186.036C58.5782 186.036 58.8902 186.096 59.1662 186.216L58.8782 187.512C58.7342 187.464 58.6022 187.428 58.4822 187.404C58.3622 187.38 58.2122 187.368 58.0322 187.368C57.6602 187.368 57.2702 187.518 56.8622 187.818C56.4662 188.118 56.1182 188.64 55.8182 189.384V195H54.3422ZM63.9527 195.216C63.3647 195.216 62.8127 195.114 62.2967 194.91C61.7927 194.694 61.3487 194.394 60.9647 194.01C60.5927 193.614 60.2987 193.134 60.0827 192.57C59.8667 192.006 59.7587 191.364 59.7587 190.644C59.7587 189.924 59.8667 189.282 60.0827 188.718C60.3107 188.142 60.6047 187.656 60.9647 187.26C61.3367 186.864 61.7567 186.564 62.2247 186.36C62.6927 186.144 63.1787 186.036 63.6827 186.036C64.2347 186.036 64.7267 186.132 65.1587 186.324C65.6027 186.516 65.9687 186.792 66.2567 187.152C66.5567 187.512 66.7847 187.944 66.9407 188.448C67.0967 188.952 67.1747 189.516 67.1747 190.14C67.1747 190.296 67.1687 190.452 67.1567 190.608C67.1567 190.752 67.1447 190.878 67.1207 190.986H61.2167C61.2767 191.922 61.5647 192.666 62.0807 193.218C62.6087 193.758 63.2927 194.028 64.1327 194.028C64.5527 194.028 64.9367 193.968 65.2847 193.848C65.6447 193.716 65.9867 193.548 66.3107 193.344L66.8327 194.316C66.4487 194.556 66.0227 194.766 65.5547 194.946C65.0867 195.126 64.5527 195.216 63.9527 195.216ZM61.1987 189.924H65.8787C65.8787 189.036 65.6867 188.364 65.3027 187.908C64.9307 187.44 64.4027 187.206 63.7187 187.206C63.4067 187.206 63.1067 187.266 62.8187 187.386C62.5427 187.506 62.2907 187.686 62.0627 187.926C61.8347 188.154 61.6427 188.436 61.4867 188.772C61.3427 189.108 61.2467 189.492 61.1987 189.924ZM72.7924 195.216C72.2164 195.216 71.6764 195.114 71.1724 194.91C70.6684 194.706 70.2304 194.412 69.8584 194.028C69.4984 193.632 69.2104 193.152 68.9944 192.588C68.7904 192.012 68.6884 191.364 68.6884 190.644C68.6884 189.912 68.8024 189.264 69.0304 188.7C69.2584 188.124 69.5644 187.638 69.9484 187.242C70.3324 186.846 70.7764 186.546 71.2804 186.342C71.7964 186.138 72.3364 186.036 72.9004 186.036C73.4764 186.036 73.9684 186.138 74.3764 186.342C74.7844 186.546 75.1444 186.786 75.4564 187.062L74.7004 188.034C74.4484 187.806 74.1784 187.62 73.8904 187.476C73.6144 187.332 73.3024 187.26 72.9544 187.26C72.5584 187.26 72.1924 187.344 71.8564 187.512C71.5204 187.668 71.2324 187.896 70.9924 188.196C70.7524 188.496 70.5604 188.856 70.4164 189.276C70.2844 189.684 70.2184 190.14 70.2184 190.644C70.2184 191.148 70.2844 191.604 70.4164 192.012C70.5484 192.42 70.7284 192.774 70.9564 193.074C71.1964 193.362 71.4844 193.59 71.8204 193.758C72.1564 193.914 72.5224 193.992 72.9184 193.992C73.3264 193.992 73.6984 193.908 74.0344 193.74C74.3824 193.56 74.6944 193.35 74.9704 193.11L75.6184 194.1C75.2224 194.448 74.7844 194.724 74.3044 194.928C73.8244 195.12 73.3204 195.216 72.7924 195.216ZM80.7046 195.216C80.1166 195.216 79.5646 195.114 79.0486 194.91C78.5446 194.694 78.1006 194.394 77.7166 194.01C77.3446 193.614 77.0506 193.134 76.8346 192.57C76.6186 192.006 76.5106 191.364 76.5106 190.644C76.5106 189.924 76.6186 189.282 76.8346 188.718C77.0626 188.142 77.3566 187.656 77.7166 187.26C78.0886 186.864 78.5086 186.564 78.9766 186.36C79.4446 186.144 79.9306 186.036 80.4346 186.036C80.9866 186.036 81.4786 186.132 81.9106 186.324C82.3546 186.516 82.7206 186.792 83.0086 187.152C83.3086 187.512 83.5366 187.944 83.6926 188.448C83.8486 188.952 83.9266 189.516 83.9266 190.14C83.9266 190.296 83.9206 190.452 83.9086 190.608C83.9086 190.752 83.8966 190.878 83.8726 190.986H77.9686C78.0286 191.922 78.3166 192.666 78.8326 193.218C79.3606 193.758 80.0446 194.028 80.8846 194.028C81.3046 194.028 81.6886 193.968 82.0366 193.848C82.3966 193.716 82.7386 193.548 83.0626 193.344L83.5846 194.316C83.2006 194.556 82.7746 194.766 82.3066 194.946C81.8386 195.126 81.3046 195.216 80.7046 195.216ZM77.9506 189.924H82.6306C82.6306 189.036 82.4386 188.364 82.0546 187.908C81.6826 187.44 81.1546 187.206 80.4706 187.206C80.1586 187.206 79.8586 187.266 79.5706 187.386C79.2946 187.506 79.0426 187.686 78.8146 187.926C78.5866 188.154 78.3946 188.436 78.2386 188.772C78.0946 189.108 77.9986 189.492 77.9506 189.924ZM86.0883 195V186.252H87.5643V195H86.0883ZM86.8443 184.452C86.5563 184.452 86.3103 184.362 86.1063 184.182C85.9143 184.002 85.8183 183.774 85.8183 183.498C85.8183 183.21 85.9143 182.982 86.1063 182.814C86.3103 182.634 86.5563 182.544 86.8443 182.544C87.1323 182.544 87.3723 182.634 87.5643 182.814C87.7683 182.982 87.8703 183.21 87.8703 183.498C87.8703 183.774 87.7683 184.002 87.5643 184.182C87.3723 184.362 87.1323 184.452 86.8443 184.452ZM92.408 195L89.258 186.252H90.788L92.444 191.22C92.576 191.652 92.708 192.084 92.84 192.516C92.984 192.948 93.122 193.374 93.254 193.794H93.326C93.458 193.374 93.59 192.948 93.722 192.516C93.854 192.084 93.986 191.652 94.118 191.22L95.774 186.252H97.232L94.136 195H92.408ZM102.396 195.216C101.808 195.216 101.256 195.114 100.74 194.91C100.236 194.694 99.792 194.394 99.408 194.01C99.036 193.614 98.742 193.134 98.526 192.57C98.31 192.006 98.202 191.364 98.202 190.644C98.202 189.924 98.31 189.282 98.526 188.718C98.754 188.142 99.048 187.656 99.408 187.26C99.78 186.864 100.2 186.564 100.668 186.36C101.136 186.144 101.622 186.036 102.126 186.036C102.678 186.036 103.17 186.132 103.602 186.324C104.046 186.516 104.412 186.792 104.7 187.152C105 187.512 105.228 187.944 105.384 188.448C105.54 188.952 105.618 189.516 105.618 190.14C105.618 190.296 105.612 190.452 105.6 190.608C105.6 190.752 105.588 190.878 105.564 190.986H99.66C99.72 191.922 100.008 192.666 100.524 193.218C101.052 193.758 101.736 194.028 102.576 194.028C102.996 194.028 103.38 193.968 103.728 193.848C104.088 193.716 104.43 193.548 104.754 193.344L105.276 194.316C104.892 194.556 104.466 194.766 103.998 194.946C103.53 195.126 102.996 195.216 102.396 195.216ZM99.642 189.924H104.322C104.322 189.036 104.13 188.364 103.746 187.908C103.374 187.44 102.846 187.206 102.162 187.206C101.85 187.206 101.55 187.266 101.262 187.386C100.986 187.506 100.734 187.686 100.506 187.926C100.278 188.154 100.086 188.436 99.93 188.772C99.786 189.108 99.69 189.492 99.642 189.924ZM113.399 195.216C112.667 195.216 112.055 195 111.563 194.568C111.083 194.136 110.843 193.524 110.843 192.732C110.843 191.772 111.269 191.04 112.121 190.536C112.973 190.02 114.335 189.66 116.207 189.456C116.207 189.18 116.177 188.91 116.117 188.646C116.069 188.382 115.979 188.148 115.847 187.944C115.715 187.74 115.529 187.578 115.289 187.458C115.061 187.326 114.767 187.26 114.407 187.26C113.903 187.26 113.429 187.356 112.985 187.548C112.541 187.74 112.145 187.956 111.797 188.196L111.221 187.17C111.629 186.906 112.127 186.654 112.715 186.414C113.303 186.162 113.951 186.036 114.659 186.036C115.727 186.036 116.501 186.366 116.981 187.026C117.461 187.674 117.701 188.544 117.701 189.636V195H116.477L116.351 193.956H116.297C115.877 194.304 115.427 194.604 114.947 194.856C114.467 195.096 113.951 195.216 113.399 195.216ZM113.831 194.028C114.251 194.028 114.647 193.932 115.019 193.74C115.391 193.536 115.787 193.242 116.207 192.858V190.428C115.475 190.524 114.857 190.638 114.353 190.77C113.861 190.902 113.459 191.058 113.147 191.238C112.847 191.418 112.625 191.628 112.481 191.868C112.349 192.096 112.283 192.348 112.283 192.624C112.283 193.128 112.433 193.488 112.733 193.704C113.033 193.92 113.399 194.028 113.831 194.028ZM126.811 195.216C126.343 195.216 125.947 195.144 125.623 195C125.311 194.856 125.053 194.658 124.849 194.406C124.657 194.154 124.519 193.848 124.435 193.488C124.351 193.128 124.309 192.732 124.309 192.3V187.458H123.013V186.342L124.381 186.252L124.561 183.804H125.803V186.252H128.161V187.458H125.803V192.318C125.803 192.858 125.899 193.278 126.091 193.578C126.295 193.866 126.649 194.01 127.153 194.01C127.309 194.01 127.477 193.986 127.657 193.938C127.837 193.89 127.999 193.836 128.143 193.776L128.431 194.892C128.191 194.976 127.927 195.048 127.639 195.108C127.363 195.18 127.087 195.216 126.811 195.216ZM133.439 195.216C132.851 195.216 132.299 195.114 131.783 194.91C131.279 194.694 130.835 194.394 130.451 194.01C130.079 193.614 129.785 193.134 129.569 192.57C129.353 192.006 129.245 191.364 129.245 190.644C129.245 189.924 129.353 189.282 129.569 188.718C129.797 188.142 130.091 187.656 130.451 187.26C130.823 186.864 131.243 186.564 131.711 186.36C132.179 186.144 132.665 186.036 133.169 186.036C133.721 186.036 134.213 186.132 134.645 186.324C135.089 186.516 135.455 186.792 135.743 187.152C136.043 187.512 136.271 187.944 136.427 188.448C136.583 188.952 136.661 189.516 136.661 190.14C136.661 190.296 136.655 190.452 136.643 190.608C136.643 190.752 136.631 190.878 136.607 190.986H130.703C130.763 191.922 131.051 192.666 131.567 193.218C132.095 193.758 132.779 194.028 133.619 194.028C134.039 194.028 134.423 193.968 134.771 193.848C135.131 193.716 135.473 193.548 135.797 193.344L136.319 194.316C135.935 194.556 135.509 194.766 135.041 194.946C134.573 195.126 134.039 195.216 133.439 195.216ZM130.685 189.924H135.365C135.365 189.036 135.173 188.364 134.789 187.908C134.417 187.44 133.889 187.206 133.205 187.206C132.893 187.206 132.593 187.266 132.305 187.386C132.029 187.506 131.777 187.686 131.549 187.926C131.321 188.154 131.129 188.436 130.973 188.772C130.829 189.108 130.733 189.492 130.685 189.924ZM137.476 195L140.338 190.428L137.692 186.252H139.294L140.464 188.178C140.596 188.418 140.734 188.664 140.878 188.916C141.022 189.156 141.172 189.396 141.328 189.636H141.4C141.532 189.396 141.664 189.156 141.796 188.916C141.928 188.664 142.06 188.418 142.192 188.178L143.254 186.252H144.802L142.156 190.59L145 195H143.398L142.12 192.966C141.964 192.702 141.808 192.438 141.652 192.174C141.496 191.91 141.334 191.652 141.166 191.4H141.094C140.938 191.652 140.788 191.91 140.644 192.174C140.5 192.426 140.356 192.69 140.212 192.966L139.024 195H137.476ZM149.047 195.216C148.579 195.216 148.183 195.144 147.859 195C147.547 194.856 147.289 194.658 147.085 194.406C146.893 194.154 146.755 193.848 146.671 193.488C146.587 193.128 146.545 192.732 146.545 192.3V187.458H145.249V186.342L146.617 186.252L146.797 183.804H148.039V186.252H150.397V187.458H148.039V192.318C148.039 192.858 148.135 193.278 148.327 193.578C148.531 193.866 148.885 194.01 149.389 194.01C149.545 194.01 149.713 193.986 149.893 193.938C150.073 193.89 150.235 193.836 150.379 193.776L150.667 194.892C150.427 194.976 150.163 195.048 149.875 195.108C149.599 195.18 149.323 195.216 149.047 195.216ZM155.979 195V186.252H157.203L157.329 187.512H157.383C157.767 187.092 158.181 186.744 158.625 186.468C159.081 186.18 159.573 186.036 160.101 186.036C160.773 186.036 161.295 186.186 161.667 186.486C162.051 186.774 162.333 187.182 162.513 187.71C162.969 187.206 163.425 186.804 163.881 186.504C164.349 186.192 164.853 186.036 165.393 186.036C166.293 186.036 166.959 186.324 167.391 186.9C167.835 187.476 168.057 188.328 168.057 189.456V195H166.581V189.654C166.581 188.826 166.449 188.232 166.185 187.872C165.921 187.5 165.513 187.314 164.961 187.314C164.301 187.314 163.569 187.764 162.765 188.664V195H161.289V189.654C161.289 188.826 161.157 188.232 160.893 187.872C160.629 187.5 160.215 187.314 159.651 187.314C158.991 187.314 158.259 187.764 157.455 188.664V195H155.979ZM174.449 195.216C173.861 195.216 173.309 195.114 172.793 194.91C172.289 194.694 171.845 194.394 171.461 194.01C171.089 193.614 170.795 193.134 170.579 192.57C170.363 192.006 170.255 191.364 170.255 190.644C170.255 189.924 170.363 189.282 170.579 188.718C170.807 188.142 171.101 187.656 171.461 187.26C171.833 186.864 172.253 186.564 172.721 186.36C173.189 186.144 173.675 186.036 174.179 186.036C174.731 186.036 175.223 186.132 175.655 186.324C176.099 186.516 176.465 186.792 176.753 187.152C177.053 187.512 177.281 187.944 177.437 188.448C177.593 188.952 177.671 189.516 177.671 190.14C177.671 190.296 177.665 190.452 177.653 190.608C177.653 190.752 177.641 190.878 177.617 190.986H171.713C171.773 191.922 172.061 192.666 172.577 193.218C173.105 193.758 173.789 194.028 174.629 194.028C175.049 194.028 175.433 193.968 175.781 193.848C176.141 193.716 176.483 193.548 176.807 193.344L177.329 194.316C176.945 194.556 176.519 194.766 176.051 194.946C175.583 195.126 175.049 195.216 174.449 195.216ZM171.695 189.924H176.375C176.375 189.036 176.183 188.364 175.799 187.908C175.427 187.44 174.899 187.206 174.215 187.206C173.903 187.206 173.603 187.266 173.315 187.386C173.039 187.506 172.787 187.686 172.559 187.926C172.331 188.154 172.139 188.436 171.983 188.772C171.839 189.108 171.743 189.492 171.695 189.924ZM182.118 195.216C181.494 195.216 180.9 195.102 180.336 194.874C179.772 194.646 179.28 194.358 178.86 194.01L179.598 193.02C179.982 193.332 180.372 193.584 180.768 193.776C181.176 193.968 181.644 194.064 182.172 194.064C182.748 194.064 183.18 193.932 183.468 193.668C183.756 193.404 183.9 193.08 183.9 192.696C183.9 192.468 183.84 192.27 183.72 192.102C183.6 191.934 183.444 191.79 183.252 191.67C183.072 191.538 182.862 191.424 182.622 191.328C182.382 191.232 182.142 191.136 181.902 191.04C181.59 190.932 181.278 190.812 180.966 190.68C180.654 190.536 180.372 190.368 180.12 190.176C179.88 189.972 179.682 189.738 179.526 189.474C179.37 189.21 179.292 188.892 179.292 188.52C179.292 188.172 179.358 187.848 179.49 187.548C179.634 187.236 179.832 186.972 180.084 186.756C180.348 186.528 180.666 186.354 181.038 186.234C181.41 186.102 181.83 186.036 182.298 186.036C182.85 186.036 183.354 186.132 183.81 186.324C184.278 186.516 184.68 186.75 185.016 187.026L184.314 187.962C184.014 187.734 183.702 187.548 183.378 187.404C183.054 187.26 182.7 187.188 182.316 187.188C181.764 187.188 181.356 187.314 181.092 187.566C180.84 187.818 180.714 188.112 180.714 188.448C180.714 188.652 180.768 188.832 180.876 188.988C180.984 189.132 181.128 189.264 181.308 189.384C181.488 189.492 181.692 189.594 181.92 189.69C182.16 189.774 182.406 189.864 182.658 189.96C182.97 190.08 183.282 190.206 183.594 190.338C183.918 190.47 184.206 190.638 184.458 190.842C184.71 191.034 184.914 191.274 185.07 191.562C185.238 191.85 185.322 192.198 185.322 192.606C185.322 192.966 185.25 193.302 185.106 193.614C184.974 193.926 184.77 194.202 184.494 194.442C184.23 194.682 183.894 194.868 183.486 195C183.09 195.144 182.634 195.216 182.118 195.216ZM189.659 195.216C189.035 195.216 188.441 195.102 187.877 194.874C187.313 194.646 186.821 194.358 186.401 194.01L187.139 193.02C187.523 193.332 187.913 193.584 188.309 193.776C188.717 193.968 189.185 194.064 189.713 194.064C190.289 194.064 190.721 193.932 191.009 193.668C191.297 193.404 191.441 193.08 191.441 192.696C191.441 192.468 191.381 192.27 191.261 192.102C191.141 191.934 190.985 191.79 190.793 191.67C190.613 191.538 190.403 191.424 190.163 191.328C189.923 191.232 189.683 191.136 189.443 191.04C189.131 190.932 188.819 190.812 188.507 190.68C188.195 190.536 187.913 190.368 187.661 190.176C187.421 189.972 187.223 189.738 187.067 189.474C186.911 189.21 186.833 188.892 186.833 188.52C186.833 188.172 186.899 187.848 187.031 187.548C187.175 187.236 187.373 186.972 187.625 186.756C187.889 186.528 188.207 186.354 188.579 186.234C188.951 186.102 189.371 186.036 189.839 186.036C190.391 186.036 190.895 186.132 191.351 186.324C191.819 186.516 192.221 186.75 192.557 187.026L191.855 187.962C191.555 187.734 191.243 187.548 190.919 187.404C190.595 187.26 190.241 187.188 189.857 187.188C189.305 187.188 188.897 187.314 188.633 187.566C188.381 187.818 188.255 188.112 188.255 188.448C188.255 188.652 188.309 188.832 188.417 188.988C188.525 189.132 188.669 189.264 188.849 189.384C189.029 189.492 189.233 189.594 189.461 189.69C189.701 189.774 189.947 189.864 190.199 189.96C190.511 190.08 190.823 190.206 191.135 190.338C191.459 190.47 191.747 190.638 191.999 190.842C192.251 191.034 192.455 191.274 192.611 191.562C192.779 191.85 192.863 192.198 192.863 192.606C192.863 192.966 192.791 193.302 192.647 193.614C192.515 193.926 192.311 194.202 192.035 194.442C191.771 194.682 191.435 194.868 191.027 195C190.631 195.144 190.175 195.216 189.659 195.216ZM196.93 195.216C196.198 195.216 195.586 195 195.094 194.568C194.614 194.136 194.374 193.524 194.374 192.732C194.374 191.772 194.8 191.04 195.652 190.536C196.504 190.02 197.866 189.66 199.738 189.456C199.738 189.18 199.708 188.91 199.648 188.646C199.6 188.382 199.51 188.148 199.378 187.944C199.246 187.74 199.06 187.578 198.82 187.458C198.592 187.326 198.298 187.26 197.938 187.26C197.434 187.26 196.96 187.356 196.516 187.548C196.072 187.74 195.676 187.956 195.328 188.196L194.752 187.17C195.16 186.906 195.658 186.654 196.246 186.414C196.834 186.162 197.482 186.036 198.19 186.036C199.258 186.036 200.032 186.366 200.512 187.026C200.992 187.674 201.232 188.544 201.232 189.636V195H200.008L199.882 193.956H199.828C199.408 194.304 198.958 194.604 198.478 194.856C197.998 195.096 197.482 195.216 196.93 195.216ZM197.362 194.028C197.782 194.028 198.178 193.932 198.55 193.74C198.922 193.536 199.318 193.242 199.738 192.858V190.428C199.006 190.524 198.388 190.638 197.884 190.77C197.392 190.902 196.99 191.058 196.678 191.238C196.378 191.418 196.156 191.628 196.012 191.868C195.88 192.096 195.814 192.348 195.814 192.624C195.814 193.128 195.964 193.488 196.264 193.704C196.564 193.92 196.93 194.028 197.362 194.028ZM206.937 199.032C206.397 199.032 205.905 198.978 205.461 198.87C205.017 198.774 204.633 198.624 204.309 198.42C203.997 198.216 203.751 197.97 203.571 197.682C203.403 197.394 203.319 197.058 203.319 196.674C203.319 196.302 203.433 195.948 203.661 195.612C203.889 195.276 204.201 194.97 204.597 194.694V194.622C204.381 194.49 204.195 194.31 204.039 194.082C203.895 193.842 203.823 193.548 203.823 193.2C203.823 192.828 203.925 192.504 204.129 192.228C204.333 191.952 204.549 191.736 204.777 191.58V191.508C204.489 191.268 204.225 190.95 203.985 190.554C203.757 190.146 203.643 189.678 203.643 189.15C203.643 188.67 203.727 188.238 203.895 187.854C204.075 187.47 204.315 187.146 204.615 186.882C204.915 186.606 205.263 186.396 205.659 186.252C206.067 186.108 206.493 186.036 206.937 186.036C207.177 186.036 207.399 186.06 207.603 186.108C207.819 186.144 208.011 186.192 208.179 186.252H211.221V187.386H209.421C209.625 187.59 209.793 187.848 209.925 188.16C210.069 188.472 210.141 188.814 210.141 189.186C210.141 189.654 210.057 190.08 209.889 190.464C209.721 190.836 209.493 191.154 209.205 191.418C208.917 191.67 208.575 191.868 208.179 192.012C207.795 192.156 207.381 192.228 206.937 192.228C206.721 192.228 206.499 192.204 206.271 192.156C206.043 192.096 205.827 192.018 205.623 191.922C205.467 192.054 205.335 192.204 205.227 192.372C205.119 192.528 205.065 192.726 205.065 192.966C205.065 193.242 205.173 193.47 205.389 193.65C205.605 193.83 206.013 193.92 206.613 193.92H208.305C209.325 193.92 210.087 194.088 210.591 194.424C211.107 194.748 211.365 195.276 211.365 196.008C211.365 196.416 211.263 196.8 211.059 197.16C210.855 197.532 210.561 197.856 210.177 198.132C209.793 198.408 209.325 198.624 208.773 198.78C208.233 198.948 207.621 199.032 206.937 199.032ZM206.937 191.238C207.189 191.238 207.423 191.19 207.639 191.094C207.867 190.998 208.065 190.86 208.233 190.68C208.413 190.5 208.551 190.284 208.647 190.032C208.743 189.768 208.791 189.474 208.791 189.15C208.791 188.502 208.611 188.004 208.251 187.656C207.891 187.296 207.453 187.116 206.937 187.116C206.421 187.116 205.983 187.296 205.623 187.656C205.263 188.004 205.083 188.502 205.083 189.15C205.083 189.474 205.131 189.768 205.227 190.032C205.323 190.284 205.455 190.5 205.623 190.68C205.803 190.86 206.001 190.998 206.217 191.094C206.445 191.19 206.685 191.238 206.937 191.238ZM207.153 198.006C207.573 198.006 207.951 197.952 208.287 197.844C208.635 197.748 208.929 197.616 209.169 197.448C209.409 197.292 209.595 197.106 209.727 196.89C209.859 196.674 209.925 196.452 209.925 196.224C209.925 195.816 209.775 195.534 209.475 195.378C209.175 195.222 208.737 195.144 208.161 195.144H206.649C206.481 195.144 206.295 195.132 206.091 195.108C205.899 195.096 205.707 195.06 205.515 195C205.203 195.228 204.975 195.468 204.831 195.72C204.687 195.972 204.615 196.224 204.615 196.476C204.615 196.944 204.837 197.316 205.281 197.592C205.737 197.868 206.361 198.006 207.153 198.006ZM216.355 195.216C215.767 195.216 215.215 195.114 214.699 194.91C214.195 194.694 213.751 194.394 213.367 194.01C212.995 193.614 212.701 193.134 212.485 192.57C212.269 192.006 212.161 191.364 212.161 190.644C212.161 189.924 212.269 189.282 212.485 188.718C212.713 188.142 213.007 187.656 213.367 187.26C213.739 186.864 214.159 186.564 214.627 186.36C215.095 186.144 215.581 186.036 216.085 186.036C216.637 186.036 217.129 186.132 217.561 186.324C218.005 186.516 218.371 186.792 218.659 187.152C218.959 187.512 219.187 187.944 219.343 188.448C219.499 188.952 219.577 189.516 219.577 190.14C219.577 190.296 219.571 190.452 219.559 190.608C219.559 190.752 219.547 190.878 219.523 190.986H213.619C213.679 191.922 213.967 192.666 214.483 193.218C215.011 193.758 215.695 194.028 216.535 194.028C216.955 194.028 217.339 193.968 217.687 193.848C218.047 193.716 218.389 193.548 218.713 193.344L219.235 194.316C218.851 194.556 218.425 194.766 217.957 194.946C217.489 195.126 216.955 195.216 216.355 195.216ZM213.601 189.924H218.281C218.281 189.036 218.089 188.364 217.705 187.908C217.333 187.44 216.805 187.206 216.121 187.206C215.809 187.206 215.509 187.266 215.221 187.386C214.945 187.506 214.693 187.686 214.465 187.926C214.237 188.154 214.045 188.436 213.889 188.772C213.745 189.108 213.649 189.492 213.601 189.924ZM227.358 195.216C226.626 195.216 226.014 195 225.522 194.568C225.042 194.136 224.802 193.524 224.802 192.732C224.802 191.772 225.228 191.04 226.08 190.536C226.932 190.02 228.294 189.66 230.166 189.456C230.166 189.18 230.136 188.91 230.076 188.646C230.028 188.382 229.938 188.148 229.806 187.944C229.674 187.74 229.488 187.578 229.248 187.458C229.02 187.326 228.726 187.26 228.366 187.26C227.862 187.26 227.388 187.356 226.944 187.548C226.5 187.74 226.104 187.956 225.756 188.196L225.18 187.17C225.588 186.906 226.086 186.654 226.674 186.414C227.262 186.162 227.91 186.036 228.618 186.036C229.686 186.036 230.46 186.366 230.94 187.026C231.42 187.674 231.66 188.544 231.66 189.636V195H230.436L230.31 193.956H230.256C229.836 194.304 229.386 194.604 228.906 194.856C228.426 195.096 227.91 195.216 227.358 195.216ZM227.79 194.028C228.21 194.028 228.606 193.932 228.978 193.74C229.35 193.536 229.746 193.242 230.166 192.858V190.428C229.434 190.524 228.816 190.638 228.312 190.77C227.82 190.902 227.418 191.058 227.106 191.238C226.806 191.418 226.584 191.628 226.44 191.868C226.308 192.096 226.242 192.348 226.242 192.624C226.242 193.128 226.392 193.488 226.692 193.704C226.992 193.92 227.358 194.028 227.79 194.028ZM234.413 195V186.252H235.637L235.763 187.512H235.817C236.237 187.092 236.675 186.744 237.131 186.468C237.599 186.18 238.139 186.036 238.751 186.036C239.675 186.036 240.347 186.324 240.767 186.9C241.199 187.476 241.415 188.328 241.415 189.456V195H239.939V189.654C239.939 188.826 239.807 188.232 239.543 187.872C239.279 187.5 238.859 187.314 238.283 187.314C237.827 187.314 237.425 187.428 237.077 187.656C236.729 187.884 236.333 188.22 235.889 188.664V195H234.413ZM247.244 195.216C246.14 195.216 245.258 194.82 244.598 194.028C243.95 193.236 243.626 192.108 243.626 190.644C243.626 189.936 243.728 189.3 243.932 188.736C244.148 188.16 244.43 187.674 244.778 187.278C245.126 186.882 245.528 186.576 245.984 186.36C246.44 186.144 246.92 186.036 247.424 186.036C247.928 186.036 248.366 186.126 248.738 186.306C249.11 186.486 249.488 186.732 249.872 187.044L249.8 185.55V182.184H251.294V195H250.07L249.944 193.974H249.89C249.542 194.31 249.14 194.604 248.684 194.856C248.24 195.096 247.76 195.216 247.244 195.216ZM247.568 193.974C247.976 193.974 248.36 193.878 248.72 193.686C249.08 193.482 249.44 193.176 249.8 192.768V188.196C249.428 187.86 249.068 187.626 248.72 187.494C248.384 187.35 248.036 187.278 247.676 187.278C247.328 187.278 246.998 187.362 246.686 187.53C246.386 187.686 246.122 187.914 245.894 188.214C245.666 188.502 245.486 188.85 245.354 189.258C245.222 189.666 245.156 190.122 245.156 190.626C245.156 191.682 245.366 192.504 245.786 193.092C246.206 193.68 246.8 193.974 247.568 193.974ZM29.5428 220.216C28.8108 220.216 28.1988 220 27.7068 219.568C27.2268 219.136 26.9868 218.524 26.9868 217.732C26.9868 216.772 27.4128 216.04 28.2648 215.536C29.1168 215.02 30.4788 214.66 32.3508 214.456C32.3508 214.18 32.3208 213.91 32.2608 213.646C32.2128 213.382 32.1228 213.148 31.9908 212.944C31.8588 212.74 31.6728 212.578 31.4328 212.458C31.2048 212.326 30.9108 212.26 30.5508 212.26C30.0468 212.26 29.5728 212.356 29.1288 212.548C28.6848 212.74 28.2888 212.956 27.9408 213.196L27.3648 212.17C27.7728 211.906 28.2708 211.654 28.8588 211.414C29.4468 211.162 30.0948 211.036 30.8028 211.036C31.8708 211.036 32.6448 211.366 33.1248 212.026C33.6048 212.674 33.8448 213.544 33.8448 214.636V220H32.6208L32.4948 218.956H32.4408C32.0208 219.304 31.5708 219.604 31.0908 219.856C30.6108 220.096 30.0948 220.216 29.5428 220.216ZM29.9748 219.028C30.3948 219.028 30.7908 218.932 31.1628 218.74C31.5348 218.536 31.9308 218.242 32.3508 217.858V215.428C31.6188 215.524 31.0008 215.638 30.4968 215.77C30.0048 215.902 29.6028 216.058 29.2908 216.238C28.9908 216.418 28.7688 216.628 28.6248 216.868C28.4928 217.096 28.4268 217.348 28.4268 217.624C28.4268 218.128 28.5768 218.488 28.8768 218.704C29.1768 218.92 29.5428 219.028 29.9748 219.028ZM42.0906 220L38.9406 211.252H40.4706L42.1266 216.22C42.2586 216.652 42.3906 217.084 42.5226 217.516C42.6666 217.948 42.8046 218.374 42.9366 218.794H43.0086C43.1406 218.374 43.2726 217.948 43.4046 217.516C43.5366 217.084 43.6686 216.652 43.8006 216.22L45.4566 211.252H46.9146L43.8186 220H42.0906ZM51.9346 220.216C51.3946 220.216 50.8786 220.114 50.3866 219.91C49.9066 219.706 49.4806 219.412 49.1086 219.028C48.7366 218.632 48.4366 218.152 48.2086 217.588C47.9926 217.012 47.8846 216.364 47.8846 215.644C47.8846 214.912 47.9926 214.264 48.2086 213.7C48.4366 213.124 48.7366 212.638 49.1086 212.242C49.4806 211.846 49.9066 211.546 50.3866 211.342C50.8786 211.138 51.3946 211.036 51.9346 211.036C52.4746 211.036 52.9846 211.138 53.4646 211.342C53.9566 211.546 54.3886 211.846 54.7606 212.242C55.1326 212.638 55.4266 213.124 55.6426 213.7C55.8706 214.264 55.9846 214.912 55.9846 215.644C55.9846 216.364 55.8706 217.012 55.6426 217.588C55.4266 218.152 55.1326 218.632 54.7606 219.028C54.3886 219.412 53.9566 219.706 53.4646 219.91C52.9846 220.114 52.4746 220.216 51.9346 220.216ZM51.9346 218.992C52.3066 218.992 52.6486 218.914 52.9606 218.758C53.2726 218.59 53.5366 218.362 53.7526 218.074C53.9806 217.774 54.1546 217.42 54.2746 217.012C54.3946 216.604 54.4546 216.148 54.4546 215.644C54.4546 215.14 54.3946 214.684 54.2746 214.276C54.1546 213.856 53.9806 213.496 53.7526 213.196C53.5366 212.896 53.2726 212.668 52.9606 212.512C52.6486 212.344 52.3066 212.26 51.9346 212.26C51.5626 212.26 51.2206 212.344 50.9086 212.512C50.5966 212.668 50.3266 212.896 50.0986 213.196C49.8826 213.496 49.7146 213.856 49.5946 214.276C49.4746 214.684 49.4146 215.14 49.4146 215.644C49.4146 216.148 49.4746 216.604 49.5946 217.012C49.7146 217.42 49.8826 217.774 50.0986 218.074C50.3266 218.362 50.5966 218.59 50.9086 218.758C51.2206 218.914 51.5626 218.992 51.9346 218.992ZM59.8545 220.216C59.2905 220.216 58.8885 220.048 58.6485 219.712C58.4085 219.376 58.2885 218.884 58.2885 218.236V207.184H59.7645V218.344C59.7645 218.584 59.8065 218.752 59.8905 218.848C59.9745 218.944 60.0705 218.992 60.1785 218.992C60.2265 218.992 60.2685 218.992 60.3045 218.992C60.3525 218.992 60.4185 218.98 60.5025 218.956L60.7005 220.072C60.6045 220.12 60.4905 220.156 60.3585 220.18C60.2265 220.204 60.0585 220.216 59.8545 220.216ZM65.4324 220.216C64.4964 220.216 63.8124 219.928 63.3804 219.352C62.9604 218.776 62.7504 217.924 62.7504 216.796V211.252H64.2444V216.598C64.2444 217.426 64.3704 218.026 64.6224 218.398C64.8864 218.758 65.3064 218.938 65.8824 218.938C66.3384 218.938 66.7404 218.824 67.0884 218.596C67.4364 218.356 67.8204 217.978 68.2404 217.462V211.252H69.7164V220H68.4924L68.3664 218.632H68.3124C67.9044 219.112 67.4724 219.496 67.0164 219.784C66.5724 220.072 66.0444 220.216 65.4324 220.216ZM72.6674 220V211.252H73.8914L74.0174 212.512H74.0714C74.4914 212.092 74.9294 211.744 75.3854 211.468C75.8534 211.18 76.3934 211.036 77.0054 211.036C77.9294 211.036 78.6014 211.324 79.0214 211.9C79.4534 212.476 79.6694 213.328 79.6694 214.456V220H78.1934V214.654C78.1934 213.826 78.0614 213.232 77.7974 212.872C77.5334 212.5 77.1134 212.314 76.5374 212.314C76.0814 212.314 75.6794 212.428 75.3314 212.656C74.9834 212.884 74.5874 213.22 74.1434 213.664V220H72.6674ZM85.2652 220.216C84.7972 220.216 84.4012 220.144 84.0772 220C83.7652 219.856 83.5072 219.658 83.3032 219.406C83.1112 219.154 82.9732 218.848 82.8892 218.488C82.8052 218.128 82.7632 217.732 82.7632 217.3V212.458H81.4672V211.342L82.8352 211.252L83.0152 208.804H84.2572V211.252H86.6152V212.458H84.2572V217.318C84.2572 217.858 84.3532 218.278 84.5452 218.578C84.7492 218.866 85.1032 219.01 85.6072 219.01C85.7632 219.01 85.9312 218.986 86.1112 218.938C86.2912 218.89 86.4532 218.836 86.5972 218.776L86.8852 219.892C86.6452 219.976 86.3812 220.048 86.0932 220.108C85.8172 220.18 85.5412 220.216 85.2652 220.216ZM91.8931 220.216C91.3051 220.216 90.7531 220.114 90.2371 219.91C89.7331 219.694 89.2891 219.394 88.9051 219.01C88.5331 218.614 88.2391 218.134 88.0231 217.57C87.8071 217.006 87.6991 216.364 87.6991 215.644C87.6991 214.924 87.8071 214.282 88.0231 213.718C88.2511 213.142 88.5451 212.656 88.9051 212.26C89.2771 211.864 89.6971 211.564 90.1651 211.36C90.6331 211.144 91.1191 211.036 91.6231 211.036C92.1751 211.036 92.6671 211.132 93.0991 211.324C93.5431 211.516 93.9091 211.792 94.1971 212.152C94.4971 212.512 94.7251 212.944 94.8811 213.448C95.0371 213.952 95.1151 214.516 95.1151 215.14C95.1151 215.296 95.1091 215.452 95.0971 215.608C95.0971 215.752 95.0851 215.878 95.0611 215.986H89.1571C89.2171 216.922 89.5051 217.666 90.0211 218.218C90.5491 218.758 91.2331 219.028 92.0731 219.028C92.4931 219.028 92.8771 218.968 93.2251 218.848C93.5851 218.716 93.9271 218.548 94.2511 218.344L94.7731 219.316C94.3891 219.556 93.9631 219.766 93.4951 219.946C93.0271 220.126 92.4931 220.216 91.8931 220.216ZM89.1391 214.924H93.8191C93.8191 214.036 93.6271 213.364 93.2431 212.908C92.8711 212.44 92.3431 212.206 91.6591 212.206C91.3471 212.206 91.0471 212.266 90.7591 212.386C90.4831 212.506 90.2311 212.686 90.0031 212.926C89.7751 213.154 89.5831 213.436 89.4271 213.772C89.2831 214.108 89.1871 214.492 89.1391 214.924ZM100.823 220.216C100.235 220.216 99.6828 220.114 99.1668 219.91C98.6628 219.694 98.2188 219.394 97.8348 219.01C97.4628 218.614 97.1688 218.134 96.9528 217.57C96.7368 217.006 96.6288 216.364 96.6288 215.644C96.6288 214.924 96.7368 214.282 96.9528 213.718C97.1808 213.142 97.4748 212.656 97.8348 212.26C98.2068 211.864 98.6268 211.564 99.0948 211.36C99.5628 211.144 100.049 211.036 100.553 211.036C101.105 211.036 101.597 211.132 102.029 211.324C102.473 211.516 102.839 211.792 103.127 212.152C103.427 212.512 103.655 212.944 103.811 213.448C103.967 213.952 104.045 214.516 104.045 215.14C104.045 215.296 104.039 215.452 104.027 215.608C104.027 215.752 104.015 215.878 103.991 215.986H98.0868C98.1468 216.922 98.4348 217.666 98.9508 218.218C99.4788 218.758 100.163 219.028 101.003 219.028C101.423 219.028 101.807 218.968 102.155 218.848C102.515 218.716 102.857 218.548 103.181 218.344L103.703 219.316C103.319 219.556 102.893 219.766 102.425 219.946C101.957 220.126 101.423 220.216 100.823 220.216ZM98.0688 214.924H102.749C102.749 214.036 102.557 213.364 102.173 212.908C101.801 212.44 101.273 212.206 100.589 212.206C100.277 212.206 99.9768 212.266 99.6888 212.386C99.4128 212.506 99.1608 212.686 98.9328 212.926C98.7048 213.154 98.5128 213.436 98.3568 213.772C98.2128 214.108 98.1168 214.492 98.0688 214.924ZM106.206 220V211.252H107.43L107.556 212.836H107.61C107.91 212.284 108.27 211.846 108.69 211.522C109.122 211.198 109.59 211.036 110.094 211.036C110.442 211.036 110.754 211.096 111.03 211.216L110.742 212.512C110.598 212.464 110.466 212.428 110.346 212.404C110.226 212.38 110.076 212.368 109.896 212.368C109.524 212.368 109.134 212.518 108.726 212.818C108.33 213.118 107.982 213.64 107.682 214.384V220H106.206ZM117.436 220L115.006 211.252H116.518L117.814 216.31C117.91 216.73 118 217.138 118.084 217.534C118.168 217.93 118.252 218.332 118.336 218.74H118.408C118.504 218.332 118.6 217.93 118.696 217.534C118.792 217.126 118.894 216.718 119.002 216.31L120.352 211.252H121.792L123.16 216.31C123.268 216.73 123.37 217.138 123.466 217.534C123.574 217.93 123.676 218.332 123.772 218.74H123.844C123.94 218.332 124.03 217.93 124.114 217.534C124.198 217.138 124.288 216.73 124.384 216.31L125.662 211.252H127.066L124.726 220H122.926L121.666 215.302C121.558 214.882 121.456 214.468 121.36 214.06C121.276 213.652 121.18 213.226 121.072 212.782H121C120.904 213.226 120.808 213.658 120.712 214.078C120.616 214.486 120.508 214.9 120.388 215.32L119.164 220H117.436ZM128.97 220V211.252H130.446V220H128.97ZM129.726 209.452C129.438 209.452 129.192 209.362 128.988 209.182C128.796 209.002 128.7 208.774 128.7 208.498C128.7 208.21 128.796 207.982 128.988 207.814C129.192 207.634 129.438 207.544 129.726 207.544C130.014 207.544 130.254 207.634 130.446 207.814C130.65 207.982 130.752 208.21 130.752 208.498C130.752 208.774 130.65 209.002 130.446 209.182C130.254 209.362 130.014 209.452 129.726 209.452ZM134.966 220.216C134.402 220.216 134 220.048 133.76 219.712C133.52 219.376 133.4 218.884 133.4 218.236V207.184H134.876V218.344C134.876 218.584 134.918 218.752 135.002 218.848C135.086 218.944 135.182 218.992 135.29 218.992C135.338 218.992 135.38 218.992 135.416 218.992C135.464 218.992 135.53 218.98 135.614 218.956L135.812 220.072C135.716 220.12 135.602 220.156 135.47 220.18C135.338 220.204 135.17 220.216 134.966 220.216ZM139.554 220.216C138.99 220.216 138.588 220.048 138.348 219.712C138.108 219.376 137.988 218.884 137.988 218.236V207.184H139.464V218.344C139.464 218.584 139.506 218.752 139.59 218.848C139.674 218.944 139.77 218.992 139.878 218.992C139.926 218.992 139.968 218.992 140.004 218.992C140.052 218.992 140.118 218.98 140.202 218.956L140.4 220.072C140.304 220.12 140.19 220.156 140.058 220.18C139.926 220.204 139.758 220.216 139.554 220.216ZM146.179 220V211.252H147.403L147.529 212.836H147.583C147.883 212.284 148.243 211.846 148.663 211.522C149.095 211.198 149.563 211.036 150.067 211.036C150.415 211.036 150.727 211.096 151.003 211.216L150.715 212.512C150.571 212.464 150.439 212.428 150.319 212.404C150.199 212.38 150.049 212.368 149.869 212.368C149.497 212.368 149.107 212.518 148.699 212.818C148.303 213.118 147.955 213.64 147.655 214.384V220H146.179ZM155.79 220.216C155.202 220.216 154.65 220.114 154.134 219.91C153.63 219.694 153.186 219.394 152.802 219.01C152.43 218.614 152.136 218.134 151.92 217.57C151.704 217.006 151.596 216.364 151.596 215.644C151.596 214.924 151.704 214.282 151.92 213.718C152.148 213.142 152.442 212.656 152.802 212.26C153.174 211.864 153.594 211.564 154.062 211.36C154.53 211.144 155.016 211.036 155.52 211.036C156.072 211.036 156.564 211.132 156.996 211.324C157.44 211.516 157.806 211.792 158.094 212.152C158.394 212.512 158.622 212.944 158.778 213.448C158.934 213.952 159.012 214.516 159.012 215.14C159.012 215.296 159.006 215.452 158.994 215.608C158.994 215.752 158.982 215.878 158.958 215.986H153.054C153.114 216.922 153.402 217.666 153.918 218.218C154.446 218.758 155.13 219.028 155.97 219.028C156.39 219.028 156.774 218.968 157.122 218.848C157.482 218.716 157.824 218.548 158.148 218.344L158.67 219.316C158.286 219.556 157.86 219.766 157.392 219.946C156.924 220.126 156.39 220.216 155.79 220.216ZM153.036 214.924H157.716C157.716 214.036 157.524 213.364 157.14 212.908C156.768 212.44 156.24 212.206 155.556 212.206C155.244 212.206 154.944 212.266 154.656 212.386C154.38 212.506 154.128 212.686 153.9 212.926C153.672 213.154 153.48 213.436 153.324 213.772C153.18 214.108 153.084 214.492 153.036 214.924ZM162.943 220.216C162.211 220.216 161.599 220 161.107 219.568C160.627 219.136 160.387 218.524 160.387 217.732C160.387 216.772 160.813 216.04 161.665 215.536C162.517 215.02 163.879 214.66 165.751 214.456C165.751 214.18 165.721 213.91 165.661 213.646C165.613 213.382 165.523 213.148 165.391 212.944C165.259 212.74 165.073 212.578 164.833 212.458C164.605 212.326 164.311 212.26 163.951 212.26C163.447 212.26 162.973 212.356 162.529 212.548C162.085 212.74 161.689 212.956 161.341 213.196L160.765 212.17C161.173 211.906 161.671 211.654 162.259 211.414C162.847 211.162 163.495 211.036 164.203 211.036C165.271 211.036 166.045 211.366 166.525 212.026C167.005 212.674 167.245 213.544 167.245 214.636V220H166.021L165.895 218.956H165.841C165.421 219.304 164.971 219.604 164.491 219.856C164.011 220.096 163.495 220.216 162.943 220.216ZM163.375 219.028C163.795 219.028 164.191 218.932 164.563 218.74C164.935 218.536 165.331 218.242 165.751 217.858V215.428C165.019 215.524 164.401 215.638 163.897 215.77C163.405 215.902 163.003 216.058 162.691 216.238C162.391 216.418 162.169 216.628 162.025 216.868C161.893 217.096 161.827 217.348 161.827 217.624C161.827 218.128 161.977 218.488 162.277 218.704C162.577 218.92 162.943 219.028 163.375 219.028ZM173.453 220.216C172.877 220.216 172.337 220.114 171.833 219.91C171.329 219.706 170.891 219.412 170.519 219.028C170.159 218.632 169.871 218.152 169.655 217.588C169.451 217.012 169.349 216.364 169.349 215.644C169.349 214.912 169.463 214.264 169.691 213.7C169.919 213.124 170.225 212.638 170.609 212.242C170.993 211.846 171.437 211.546 171.941 211.342C172.457 211.138 172.997 211.036 173.561 211.036C174.137 211.036 174.629 211.138 175.037 211.342C175.445 211.546 175.805 211.786 176.117 212.062L175.361 213.034C175.109 212.806 174.839 212.62 174.551 212.476C174.275 212.332 173.963 212.26 173.615 212.26C173.219 212.26 172.853 212.344 172.517 212.512C172.181 212.668 171.893 212.896 171.653 213.196C171.413 213.496 171.221 213.856 171.077 214.276C170.945 214.684 170.879 215.14 170.879 215.644C170.879 216.148 170.945 216.604 171.077 217.012C171.209 217.42 171.389 217.774 171.617 218.074C171.857 218.362 172.145 218.59 172.481 218.758C172.817 218.914 173.183 218.992 173.579 218.992C173.987 218.992 174.359 218.908 174.695 218.74C175.043 218.56 175.355 218.35 175.631 218.11L176.279 219.1C175.883 219.448 175.445 219.724 174.965 219.928C174.485 220.12 173.981 220.216 173.453 220.216ZM178.206 220V207.184H179.682V210.676L179.628 212.476C180.048 212.08 180.486 211.744 180.942 211.468C181.398 211.18 181.932 211.036 182.544 211.036C183.468 211.036 184.14 211.324 184.56 211.9C184.992 212.476 185.208 213.328 185.208 214.456V220H183.732V214.654C183.732 213.826 183.6 213.232 183.336 212.872C183.072 212.5 182.652 212.314 182.076 212.314C181.62 212.314 181.218 212.428 180.87 212.656C180.522 212.884 180.126 213.22 179.682 213.664V220H178.206ZM195.003 220.216C194.463 220.216 193.947 220.114 193.455 219.91C192.975 219.706 192.549 219.412 192.177 219.028C191.805 218.632 191.505 218.152 191.277 217.588C191.061 217.012 190.953 216.364 190.953 215.644C190.953 214.912 191.061 214.264 191.277 213.7C191.505 213.124 191.805 212.638 192.177 212.242C192.549 211.846 192.975 211.546 193.455 211.342C193.947 211.138 194.463 211.036 195.003 211.036C195.543 211.036 196.053 211.138 196.533 211.342C197.025 211.546 197.457 211.846 197.829 212.242C198.201 212.638 198.495 213.124 198.711 213.7C198.939 214.264 199.053 214.912 199.053 215.644C199.053 216.364 198.939 217.012 198.711 217.588C198.495 218.152 198.201 218.632 197.829 219.028C197.457 219.412 197.025 219.706 196.533 219.91C196.053 220.114 195.543 220.216 195.003 220.216ZM195.003 218.992C195.375 218.992 195.717 218.914 196.029 218.758C196.341 218.59 196.605 218.362 196.821 218.074C197.049 217.774 197.223 217.42 197.343 217.012C197.463 216.604 197.523 216.148 197.523 215.644C197.523 215.14 197.463 214.684 197.343 214.276C197.223 213.856 197.049 213.496 196.821 213.196C196.605 212.896 196.341 212.668 196.029 212.512C195.717 212.344 195.375 212.26 195.003 212.26C194.631 212.26 194.289 212.344 193.977 212.512C193.665 212.668 193.395 212.896 193.167 213.196C192.951 213.496 192.783 213.856 192.663 214.276C192.543 214.684 192.483 215.14 192.483 215.644C192.483 216.148 192.543 216.604 192.663 217.012C192.783 217.42 192.951 217.774 193.167 218.074C193.395 218.362 193.665 218.59 193.977 218.758C194.289 218.914 194.631 218.992 195.003 218.992ZM203.913 220.216C202.977 220.216 202.293 219.928 201.861 219.352C201.441 218.776 201.231 217.924 201.231 216.796V211.252H202.725V216.598C202.725 217.426 202.851 218.026 203.103 218.398C203.367 218.758 203.787 218.938 204.363 218.938C204.819 218.938 205.221 218.824 205.569 218.596C205.917 218.356 206.301 217.978 206.721 217.462V211.252H208.197V220H206.973L206.847 218.632H206.793C206.385 219.112 205.953 219.496 205.497 219.784C205.053 220.072 204.525 220.216 203.913 220.216ZM213.902 220.216C213.434 220.216 213.038 220.144 212.714 220C212.402 219.856 212.144 219.658 211.94 219.406C211.748 219.154 211.61 218.848 211.526 218.488C211.442 218.128 211.4 217.732 211.4 217.3V212.458H210.104V211.342L211.472 211.252L211.652 208.804H212.894V211.252H215.252V212.458H212.894V217.318C212.894 217.858 212.99 218.278 213.182 218.578C213.386 218.866 213.74 219.01 214.244 219.01C214.4 219.01 214.568 218.986 214.748 218.938C214.928 218.89 215.09 218.836 215.234 218.776L215.522 219.892C215.282 219.976 215.018 220.048 214.73 220.108C214.454 220.18 214.178 220.216 213.902 220.216ZM223.587 220.216C223.119 220.216 222.723 220.144 222.399 220C222.087 219.856 221.829 219.658 221.625 219.406C221.433 219.154 221.295 218.848 221.211 218.488C221.127 218.128 221.085 217.732 221.085 217.3V212.458H219.789V211.342L221.157 211.252L221.337 208.804H222.579V211.252H224.937V212.458H222.579V217.318C222.579 217.858 222.675 218.278 222.867 218.578C223.071 218.866 223.425 219.01 223.929 219.01C224.085 219.01 224.253 218.986 224.433 218.938C224.613 218.89 224.775 218.836 224.919 218.776L225.207 219.892C224.967 219.976 224.703 220.048 224.415 220.108C224.139 220.18 223.863 220.216 223.587 220.216ZM230.071 220.216C229.531 220.216 229.015 220.114 228.523 219.91C228.043 219.706 227.617 219.412 227.245 219.028C226.873 218.632 226.573 218.152 226.345 217.588C226.129 217.012 226.021 216.364 226.021 215.644C226.021 214.912 226.129 214.264 226.345 213.7C226.573 213.124 226.873 212.638 227.245 212.242C227.617 211.846 228.043 211.546 228.523 211.342C229.015 211.138 229.531 211.036 230.071 211.036C230.611 211.036 231.121 211.138 231.601 211.342C232.093 211.546 232.525 211.846 232.897 212.242C233.269 212.638 233.563 213.124 233.779 213.7C234.007 214.264 234.121 214.912 234.121 215.644C234.121 216.364 234.007 217.012 233.779 217.588C233.563 218.152 233.269 218.632 232.897 219.028C232.525 219.412 232.093 219.706 231.601 219.91C231.121 220.114 230.611 220.216 230.071 220.216ZM230.071 218.992C230.443 218.992 230.785 218.914 231.097 218.758C231.409 218.59 231.673 218.362 231.889 218.074C232.117 217.774 232.291 217.42 232.411 217.012C232.531 216.604 232.591 216.148 232.591 215.644C232.591 215.14 232.531 214.684 232.411 214.276C232.291 213.856 232.117 213.496 231.889 213.196C231.673 212.896 231.409 212.668 231.097 212.512C230.785 212.344 230.443 212.26 230.071 212.26C229.699 212.26 229.357 212.344 229.045 212.512C228.733 212.668 228.463 212.896 228.235 213.196C228.019 213.496 227.851 213.856 227.731 214.276C227.611 214.684 227.551 215.14 227.551 215.644C227.551 216.148 227.611 216.604 227.731 217.012C227.851 217.42 228.019 217.774 228.235 218.074C228.463 218.362 228.733 218.59 229.045 218.758C229.357 218.914 229.699 218.992 230.071 218.992ZM64.1831 245V237.458H62.9951V236.342L64.1831 236.252V234.866C64.1831 233.966 64.3871 233.258 64.7951 232.742C65.2151 232.226 65.8631 231.968 66.7391 231.968C67.0151 231.968 67.2731 231.998 67.5131 232.058C67.7651 232.106 67.9931 232.172 68.1971 232.256L67.8731 233.39C67.5491 233.246 67.2191 233.174 66.8831 233.174C66.0671 233.174 65.6591 233.738 65.6591 234.866V236.252H67.5131V237.458H65.6591V245H64.1831ZM69.1869 245V236.252H70.6629V245H69.1869ZM69.9429 234.452C69.6549 234.452 69.4089 234.362 69.2049 234.182C69.0129 234.002 68.9169 233.774 68.9169 233.498C68.9169 233.21 69.0129 232.982 69.2049 232.814C69.4089 232.634 69.6549 232.544 69.9429 232.544C70.2309 232.544 70.4709 232.634 70.6629 232.814C70.8669 232.982 70.9689 233.21 70.9689 233.498C70.9689 233.774 70.8669 234.002 70.6629 234.182C70.4709 234.362 70.2309 234.452 69.9429 234.452ZM73.6166 245V236.252H74.8406L74.9666 237.512H75.0206C75.4406 237.092 75.8786 236.744 76.3346 236.468C76.8026 236.18 77.3426 236.036 77.9546 236.036C78.8786 236.036 79.5506 236.324 79.9706 236.9C80.4026 237.476 80.6186 238.328 80.6186 239.456V245H79.1426V239.654C79.1426 238.826 79.0106 238.232 78.7466 237.872C78.4826 237.5 78.0626 237.314 77.4866 237.314C77.0306 237.314 76.6286 237.428 76.2806 237.656C75.9326 237.884 75.5366 238.22 75.0926 238.664V245H73.6166ZM85.4764 245.216C84.7444 245.216 84.1324 245 83.6404 244.568C83.1604 244.136 82.9204 243.524 82.9204 242.732C82.9204 241.772 83.3464 241.04 84.1984 240.536C85.0504 240.02 86.4124 239.66 88.2844 239.456C88.2844 239.18 88.2544 238.91 88.1944 238.646C88.1464 238.382 88.0564 238.148 87.9244 237.944C87.7924 237.74 87.6064 237.578 87.3664 237.458C87.1384 237.326 86.8444 237.26 86.4844 237.26C85.9804 237.26 85.5064 237.356 85.0624 237.548C84.6184 237.74 84.2224 237.956 83.8744 238.196L83.2984 237.17C83.7064 236.906 84.2044 236.654 84.7924 236.414C85.3804 236.162 86.0284 236.036 86.7364 236.036C87.8044 236.036 88.5784 236.366 89.0584 237.026C89.5384 237.674 89.7784 238.544 89.7784 239.636V245H88.5544L88.4284 243.956H88.3744C87.9544 244.304 87.5044 244.604 87.0244 244.856C86.5444 245.096 86.0284 245.216 85.4764 245.216ZM85.9084 244.028C86.3284 244.028 86.7244 243.932 87.0964 243.74C87.4684 243.536 87.8644 243.242 88.2844 242.858V240.428C87.5524 240.524 86.9344 240.638 86.4304 240.77C85.9384 240.902 85.5364 241.058 85.2244 241.238C84.9244 241.418 84.7024 241.628 84.5584 241.868C84.4264 242.096 84.3604 242.348 84.3604 242.624C84.3604 243.128 84.5104 243.488 84.8104 243.704C85.1104 243.92 85.4764 244.028 85.9084 244.028ZM94.0967 245.216C93.5327 245.216 93.1307 245.048 92.8907 244.712C92.6507 244.376 92.5307 243.884 92.5307 243.236V232.184H94.0067V243.344C94.0067 243.584 94.0487 243.752 94.1327 243.848C94.2167 243.944 94.3127 243.992 94.4207 243.992C94.4687 243.992 94.5107 243.992 94.5467 243.992C94.5947 243.992 94.6607 243.98 94.7447 243.956L94.9427 245.072C94.8467 245.12 94.7327 245.156 94.6007 245.18C94.4687 245.204 94.3007 245.216 94.0967 245.216ZM97.1186 245V236.252H98.5946V245H97.1186ZM97.8746 234.452C97.5866 234.452 97.3406 234.362 97.1366 234.182C96.9446 234.002 96.8486 233.774 96.8486 233.498C96.8486 233.21 96.9446 232.982 97.1366 232.814C97.3406 232.634 97.5866 232.544 97.8746 232.544C98.1626 232.544 98.4026 232.634 98.5946 232.814C98.7986 232.982 98.9006 233.21 98.9006 233.498C98.9006 233.774 98.7986 234.002 98.5946 234.182C98.4026 234.362 98.1626 234.452 97.8746 234.452ZM100.63 245V244.208L105.238 237.458H101.134V236.252H107.11V237.044L102.502 243.794H107.254V245H100.63ZM112.565 245.216C111.977 245.216 111.425 245.114 110.909 244.91C110.405 244.694 109.961 244.394 109.577 244.01C109.205 243.614 108.911 243.134 108.695 242.57C108.479 242.006 108.371 241.364 108.371 240.644C108.371 239.924 108.479 239.282 108.695 238.718C108.923 238.142 109.217 237.656 109.577 237.26C109.949 236.864 110.369 236.564 110.837 236.36C111.305 236.144 111.791 236.036 112.295 236.036C112.847 236.036 113.339 236.132 113.771 236.324C114.215 236.516 114.581 236.792 114.869 237.152C115.169 237.512 115.397 237.944 115.553 238.448C115.709 238.952 115.787 239.516 115.787 240.14C115.787 240.296 115.781 240.452 115.769 240.608C115.769 240.752 115.757 240.878 115.733 240.986H109.829C109.889 241.922 110.177 242.666 110.693 243.218C111.221 243.758 111.905 244.028 112.745 244.028C113.165 244.028 113.549 243.968 113.897 243.848C114.257 243.716 114.599 243.548 114.923 243.344L115.445 244.316C115.061 244.556 114.635 244.766 114.167 244.946C113.699 245.126 113.165 245.216 112.565 245.216ZM109.811 239.924H114.491C114.491 239.036 114.299 238.364 113.915 237.908C113.543 237.44 113.015 237.206 112.331 237.206C112.019 237.206 111.719 237.266 111.431 237.386C111.155 237.506 110.903 237.686 110.675 237.926C110.447 238.154 110.255 238.436 110.099 238.772C109.955 239.108 109.859 239.492 109.811 239.924ZM124.306 245.216C123.838 245.216 123.442 245.144 123.118 245C122.806 244.856 122.548 244.658 122.344 244.406C122.152 244.154 122.014 243.848 121.93 243.488C121.846 243.128 121.804 242.732 121.804 242.3V237.458H120.508V236.342L121.876 236.252L122.056 233.804H123.298V236.252H125.656V237.458H123.298V242.318C123.298 242.858 123.394 243.278 123.586 243.578C123.79 243.866 124.144 244.01 124.648 244.01C124.804 244.01 124.972 243.986 125.152 243.938C125.332 243.89 125.494 243.836 125.638 243.776L125.926 244.892C125.686 244.976 125.422 245.048 125.134 245.108C124.858 245.18 124.582 245.216 124.306 245.216ZM127.634 245V232.184H129.11V235.676L129.056 237.476C129.476 237.08 129.914 236.744 130.37 236.468C130.826 236.18 131.36 236.036 131.972 236.036C132.896 236.036 133.568 236.324 133.988 236.9C134.42 237.476 134.636 238.328 134.636 239.456V245H133.16V239.654C133.16 238.826 133.028 238.232 132.764 237.872C132.5 237.5 132.08 237.314 131.504 237.314C131.048 237.314 130.646 237.428 130.298 237.656C129.95 237.884 129.554 238.22 129.11 238.664V245H127.634ZM140.971 245.216C140.383 245.216 139.831 245.114 139.315 244.91C138.811 244.694 138.367 244.394 137.983 244.01C137.611 243.614 137.317 243.134 137.101 242.57C136.885 242.006 136.777 241.364 136.777 240.644C136.777 239.924 136.885 239.282 137.101 238.718C137.329 238.142 137.623 237.656 137.983 237.26C138.355 236.864 138.775 236.564 139.243 236.36C139.711 236.144 140.197 236.036 140.701 236.036C141.253 236.036 141.745 236.132 142.177 236.324C142.621 236.516 142.987 236.792 143.275 237.152C143.575 237.512 143.803 237.944 143.959 238.448C144.115 238.952 144.193 239.516 144.193 240.14C144.193 240.296 144.187 240.452 144.175 240.608C144.175 240.752 144.163 240.878 144.139 240.986H138.235C138.295 241.922 138.583 242.666 139.099 243.218C139.627 243.758 140.311 244.028 141.151 244.028C141.571 244.028 141.955 243.968 142.303 243.848C142.663 243.716 143.005 243.548 143.329 243.344L143.851 244.316C143.467 244.556 143.041 244.766 142.573 244.946C142.105 245.126 141.571 245.216 140.971 245.216ZM138.217 239.924H142.897C142.897 239.036 142.705 238.364 142.321 237.908C141.949 237.44 141.421 237.206 140.737 237.206C140.425 237.206 140.125 237.266 139.837 237.386C139.561 237.506 139.309 237.686 139.081 237.926C138.853 238.154 138.661 238.436 138.505 238.772C138.361 239.108 138.265 239.492 138.217 239.924ZM152.946 245.216C151.842 245.216 150.96 244.82 150.3 244.028C149.652 243.236 149.328 242.108 149.328 240.644C149.328 239.936 149.43 239.3 149.634 238.736C149.85 238.16 150.132 237.674 150.48 237.278C150.828 236.882 151.23 236.576 151.686 236.36C152.142 236.144 152.622 236.036 153.126 236.036C153.63 236.036 154.068 236.126 154.44 236.306C154.812 236.486 155.19 236.732 155.574 237.044L155.502 235.55V232.184H156.996V245H155.772L155.646 243.974H155.592C155.244 244.31 154.842 244.604 154.386 244.856C153.942 245.096 153.462 245.216 152.946 245.216ZM153.27 243.974C153.678 243.974 154.062 243.878 154.422 243.686C154.782 243.482 155.142 243.176 155.502 242.768V238.196C155.13 237.86 154.77 237.626 154.422 237.494C154.086 237.35 153.738 237.278 153.378 237.278C153.03 237.278 152.7 237.362 152.388 237.53C152.088 237.686 151.824 237.914 151.596 238.214C151.368 238.502 151.188 238.85 151.056 239.258C150.924 239.666 150.858 240.122 150.858 240.626C150.858 241.682 151.068 242.504 151.488 243.092C151.908 243.68 152.502 243.974 153.27 243.974ZM163.489 245.216C162.901 245.216 162.349 245.114 161.833 244.91C161.329 244.694 160.885 244.394 160.501 244.01C160.129 243.614 159.835 243.134 159.619 242.57C159.403 242.006 159.295 241.364 159.295 240.644C159.295 239.924 159.403 239.282 159.619 238.718C159.847 238.142 160.141 237.656 160.501 237.26C160.873 236.864 161.293 236.564 161.761 236.36C162.229 236.144 162.715 236.036 163.219 236.036C163.771 236.036 164.263 236.132 164.695 236.324C165.139 236.516 165.505 236.792 165.793 237.152C166.093 237.512 166.321 237.944 166.477 238.448C166.633 238.952 166.711 239.516 166.711 240.14C166.711 240.296 166.705 240.452 166.693 240.608C166.693 240.752 166.681 240.878 166.657 240.986H160.753C160.813 241.922 161.101 242.666 161.617 243.218C162.145 243.758 162.829 244.028 163.669 244.028C164.089 244.028 164.473 243.968 164.821 243.848C165.181 243.716 165.523 243.548 165.847 243.344L166.369 244.316C165.985 244.556 165.559 244.766 165.091 244.946C164.623 245.126 164.089 245.216 163.489 245.216ZM160.735 239.924H165.415C165.415 239.036 165.223 238.364 164.839 237.908C164.467 237.44 163.939 237.206 163.255 237.206C162.943 237.206 162.643 237.266 162.355 237.386C162.079 237.506 161.827 237.686 161.599 237.926C161.371 238.154 161.179 238.436 161.023 238.772C160.879 239.108 160.783 239.492 160.735 239.924ZM171.451 245.216C170.983 245.216 170.587 245.144 170.263 245C169.951 244.856 169.693 244.658 169.489 244.406C169.297 244.154 169.159 243.848 169.075 243.488C168.991 243.128 168.949 242.732 168.949 242.3V237.458H167.653V236.342L169.021 236.252L169.201 233.804H170.443V236.252H172.801V237.458H170.443V242.318C170.443 242.858 170.539 243.278 170.731 243.578C170.935 243.866 171.289 244.01 171.793 244.01C171.949 244.01 172.117 243.986 172.297 243.938C172.477 243.89 172.639 243.836 172.783 243.776L173.071 244.892C172.831 244.976 172.567 245.048 172.279 245.108C172.003 245.18 171.727 245.216 171.451 245.216ZM176.408 245.216C175.676 245.216 175.064 245 174.572 244.568C174.092 244.136 173.852 243.524 173.852 242.732C173.852 241.772 174.278 241.04 175.13 240.536C175.982 240.02 177.344 239.66 179.216 239.456C179.216 239.18 179.186 238.91 179.126 238.646C179.078 238.382 178.988 238.148 178.856 237.944C178.724 237.74 178.538 237.578 178.298 237.458C178.07 237.326 177.776 237.26 177.416 237.26C176.912 237.26 176.438 237.356 175.994 237.548C175.55 237.74 175.154 237.956 174.806 238.196L174.23 237.17C174.638 236.906 175.136 236.654 175.724 236.414C176.312 236.162 176.96 236.036 177.668 236.036C178.736 236.036 179.51 236.366 179.99 237.026C180.47 237.674 180.71 238.544 180.71 239.636V245H179.486L179.36 243.956H179.306C178.886 244.304 178.436 244.604 177.956 244.856C177.476 245.096 176.96 245.216 176.408 245.216ZM176.84 244.028C177.26 244.028 177.656 243.932 178.028 243.74C178.4 243.536 178.796 243.242 179.216 242.858V240.428C178.484 240.524 177.866 240.638 177.362 240.77C176.87 240.902 176.468 241.058 176.156 241.238C175.856 241.418 175.634 241.628 175.49 241.868C175.358 242.096 175.292 242.348 175.292 242.624C175.292 243.128 175.442 243.488 175.742 243.704C176.042 243.92 176.408 244.028 176.84 244.028ZM183.462 245V236.252H184.938V245H183.462ZM184.218 234.452C183.93 234.452 183.684 234.362 183.48 234.182C183.288 234.002 183.192 233.774 183.192 233.498C183.192 233.21 183.288 232.982 183.48 232.814C183.684 232.634 183.93 232.544 184.218 232.544C184.506 232.544 184.746 232.634 184.938 232.814C185.142 232.982 185.244 233.21 185.244 233.498C185.244 233.774 185.142 234.002 184.938 234.182C184.746 234.362 184.506 234.452 184.218 234.452ZM189.458 245.216C188.894 245.216 188.492 245.048 188.252 244.712C188.012 244.376 187.892 243.884 187.892 243.236V232.184H189.368V243.344C189.368 243.584 189.41 243.752 189.494 243.848C189.578 243.944 189.674 243.992 189.782 243.992C189.83 243.992 189.872 243.992 189.908 243.992C189.956 243.992 190.022 243.98 190.106 243.956L190.304 245.072C190.208 245.12 190.094 245.156 189.962 245.18C189.83 245.204 189.662 245.216 189.458 245.216ZM194.766 245.216C194.142 245.216 193.548 245.102 192.984 244.874C192.42 244.646 191.928 244.358 191.508 244.01L192.246 243.02C192.63 243.332 193.02 243.584 193.416 243.776C193.824 243.968 194.292 244.064 194.82 244.064C195.396 244.064 195.828 243.932 196.116 243.668C196.404 243.404 196.548 243.08 196.548 242.696C196.548 242.468 196.488 242.27 196.368 242.102C196.248 241.934 196.092 241.79 195.9 241.67C195.72 241.538 195.51 241.424 195.27 241.328C195.03 241.232 194.79 241.136 194.55 241.04C194.238 240.932 193.926 240.812 193.614 240.68C193.302 240.536 193.02 240.368 192.768 240.176C192.528 239.972 192.33 239.738 192.174 239.474C192.018 239.21 191.94 238.892 191.94 238.52C191.94 238.172 192.006 237.848 192.138 237.548C192.282 237.236 192.48 236.972 192.732 236.756C192.996 236.528 193.314 236.354 193.686 236.234C194.058 236.102 194.478 236.036 194.946 236.036C195.498 236.036 196.002 236.132 196.458 236.324C196.926 236.516 197.328 236.75 197.664 237.026L196.962 237.962C196.662 237.734 196.35 237.548 196.026 237.404C195.702 237.26 195.348 237.188 194.964 237.188C194.412 237.188 194.004 237.314 193.74 237.566C193.488 237.818 193.362 238.112 193.362 238.448C193.362 238.652 193.416 238.832 193.524 238.988C193.632 239.132 193.776 239.264 193.956 239.384C194.136 239.492 194.34 239.594 194.568 239.69C194.808 239.774 195.054 239.864 195.306 239.96C195.618 240.08 195.93 240.206 196.242 240.338C196.566 240.47 196.854 240.638 197.106 240.842C197.358 241.034 197.562 241.274 197.718 241.562C197.886 241.85 197.97 242.198 197.97 242.606C197.97 242.966 197.898 243.302 197.754 243.614C197.622 243.926 197.418 244.202 197.142 244.442C196.878 244.682 196.542 244.868 196.134 245C195.738 245.144 195.282 245.216 194.766 245.216Z" fill="black"/>
</svg>
