<svg width="50%" height="100%" viewBox="0 0 257 257" fill="none" xmlns="http://www.w3.org/2000/svg">
<path d="M150.881 88.2383C140.942 51.8479 103.425 30.1954 66.7759 39.8174C29.8103 49.5227 7.9791 87.6013 17.7079 124.44L49.6107 245.24C50.4343 248.359 52.4667 251.023 55.2607 252.647C58.0547 254.27 61.3814 254.72 64.509 253.897L186.176 221.882C223.03 212.185 244.887 173.959 235.181 137.209C225.476 100.46 187.735 78.5409 150.881 88.2383Z" fill="#42B6E9"/>
<path d="M66.7622 181.617C66.7544 183.118 66.6424 184.686 65.8869 185.983C65.057 187.407 63.5711 188.318 62.6204 189.668C61.201 191.671 61.1753 194.415 62.0207 196.722C62.8662 199.028 64.4646 200.976 66.1397 202.784C68.6343 205.458 71.4117 207.945 74.7 209.535C78.6404 211.436 83.0882 211.951 87.4381 212.44C88.1501 212.558 88.8768 212.558 89.5888 212.439C90.0943 212.303 90.5812 212.105 91.0384 211.85C93.5554 210.575 96.1185 209.238 98.0151 207.152C99.2993 205.718 100.222 203.999 100.705 202.138C101.189 200.277 101.221 198.327 100.797 196.451C99.9289 192.778 97.3374 189.617 96.8817 185.871C96.5511 183.151 97.3874 180.443 97.811 177.735C97.9175 177.286 97.902 176.817 97.766 176.376C97.4654 175.638 96.6054 175.326 95.837 175.102C90.6312 173.562 85.3473 172.189 79.9482 171.519C77.2161 171.168 74.4598 171.042 71.7071 171.141C70.218 171.204 66.7039 170.915 66.0355 172.704C65.6417 173.774 66.3609 175.588 66.4935 176.682C66.6851 178.32 66.7748 179.968 66.7622 181.617Z" fill="#FBBEBE"/>
<path opacity="0.1" d="M66.8514 181.485C66.8305 182.985 66.7049 184.552 65.9381 185.843C65.0958 187.26 63.602 188.158 62.6395 189.5C61.2027 191.49 61.153 194.234 61.9782 196.547C62.8035 198.861 64.3848 200.823 66.0441 202.645C68.5153 205.341 71.2708 207.852 74.5451 209.47C78.4688 211.405 82.912 211.96 87.2574 212.486C87.9683 212.61 88.695 212.617 89.408 212.505C89.9147 212.372 90.4032 212.179 90.8627 211.928C93.3908 210.675 95.9654 209.36 97.8801 207.29C99.1768 205.868 100.114 204.157 100.614 202.3C101.114 200.443 101.163 198.494 100.755 196.614C99.9195 192.934 97.3557 189.75 96.9326 186.001C96.6258 183.278 97.4857 180.577 97.933 177.873C98.0434 177.425 98.0319 176.956 97.8999 176.514C97.6056 175.772 96.7484 175.454 95.982 175.223C90.7898 173.637 85.5182 172.218 80.1251 171.501C77.3962 171.127 74.6411 170.977 71.8876 171.052C70.3981 171.102 66.8866 170.783 66.2026 172.566C65.7995 173.632 66.5028 175.453 66.6258 176.547C66.8031 178.187 66.8785 179.836 66.8514 181.485Z" fill="black"/>
<path d="M84.6944 185.522C98.8767 185.522 110.374 174.058 110.374 159.916C110.374 145.774 98.8767 134.309 84.6944 134.309C70.5121 134.309 59.0151 145.774 59.0151 159.916C59.0151 174.058 70.5121 185.522 84.6944 185.522Z" fill="#FBBEBE"/>
<path d="M92.5143 141.926C91.6437 142.763 91.0198 143.823 90.1986 144.709C87.8361 147.253 84.1708 148.057 80.7248 148.518C78.8972 148.762 76.6433 148.751 75.6992 147.176C74.6938 145.503 75.943 143.395 75.8732 141.449C72.9868 141.937 70.3812 143.468 68.5548 145.751C66.2792 148.617 65.3021 152.575 62.2964 154.663C61.7562 155.084 61.0969 155.326 60.4117 155.354C59.6689 155.291 58.9758 154.957 58.4658 154.415C55.7844 151.83 56.5434 147.469 55.7938 143.823C55.1615 140.787 53.3562 137.673 54.5117 134.794C55.7078 131.828 59.3409 130.859 62.045 129.131C63.8963 127.947 65.4031 126.298 66.414 124.35C66.6713 123.776 66.9805 123.227 67.3376 122.709C67.829 122.122 68.4341 121.64 69.1167 121.292C71.7384 119.849 74.7871 119.378 77.7223 119.963C79.7736 120.37 81.7437 121.297 83.8208 121.155C84.9346 121.082 86.0014 120.7 87.0916 120.467C89.3506 120.02 91.689 120.198 93.8527 120.983C96.0165 121.768 97.9229 123.129 99.3649 124.919C99.8913 125.592 100.36 126.33 101.045 126.831C102.407 127.839 104.288 127.714 105.871 128.322C107.455 128.93 108.653 130.266 109.726 131.579C112.59 135.141 114.938 139.087 116.699 143.302C117.657 145.595 118.439 148.184 117.601 150.523C117.384 151.026 117.192 151.539 117.026 152.061C116.559 153.986 117.881 155.856 118.33 157.773C118.689 159.324 118.487 160.95 117.762 162.368C117.608 162.749 117.311 163.054 116.934 163.218C116.479 163.36 115.995 163.114 115.614 162.827C114.272 161.815 113.455 160.266 112.294 159.049C111.133 157.831 109.275 156.942 107.789 157.736C107.411 157.938 107.091 158.232 106.716 158.446C105.665 159.033 104.286 158.825 103.255 158.186C102.224 157.546 101.477 156.54 100.834 155.515C99.0062 152.599 97.8376 149.346 96.9081 146.037C96.5488 144.76 96.4538 142.289 95.6891 141.236C94.9244 140.183 93.3254 141.142 92.5143 141.926Z" fill="white"/>
<path d="M81.7854 208.623C77.7218 207.001 74.3132 204.08 72.0943 200.318C70.4672 197.541 69.5332 194.385 67.686 191.74C64.994 187.884 59.9165 189.826 55.2137 189.803C49.1903 189.773 44.2674 188.981 39.3207 192.41C36.0249 194.691 32.4793 197.322 31.5869 201.216C30.7986 204.592 32.2056 208.193 31.4173 211.571C30.8849 213.849 31.5631 215.943 31.1764 218.254C30.6321 221.517 30.1948 224.563 31.8695 227.413L37.652 237.255L100.415 237.492C100.376 237.492 100.299 237.608 100.26 237.608H145.206C145.125 235.487 144.992 233.402 144.313 231.397C143.596 229.32 142.57 227.363 141.55 225.417L130.211 203.827C128.046 199.698 125.675 195.355 121.629 193.024C119.419 191.751 116.87 191.191 114.523 190.227C111.445 188.972 110.621 189.85 107.408 188.99C104.196 188.13 98.2346 185.887 96.4826 188.693C95.1024 190.912 95.507 193.754 94.9953 196.313C94.5313 198.639 93.2939 200.739 91.9226 202.679C90.6644 204.458 89.2455 206.176 87.4608 207.424C85.6761 208.673 83.82 209.433 81.7854 208.623Z" fill="#3F3D56"/>
<path d="M55.5205 211.45C55.5205 211.45 57.1505 224.251 63.058 226.69C68.9654 229.128 87.7199 229.534 87.7199 229.534L100.353 237.664H37.9915C37.9915 237.664 35.1389 204.147 37.9915 204.147C40.844 204.147 55.5205 211.45 55.5205 211.45Z" fill="#3F3D56"/>
<path d="M106.251 204.397L120.933 216.591L80.9911 217.608C80.9911 217.608 75.1966 224.727 77.5852 226.756C79.9738 228.785 91.1789 230.208 91.1789 230.208L101.572 235.491L145.256 235.438L130.717 209.276L106.251 204.397Z" fill="#3F3D56"/>
<path opacity="0.1" d="M142.468 83.526C132.528 47.1356 95.0117 25.4831 58.3625 35.1051C38.3263 40.3773 22.7391 53.9694 14.2078 71.1927C23.4354 59.2415 36.3787 50.6818 51.007 46.8564C87.6562 37.2344 125.173 58.8869 135.112 95.2773C171.966 85.5799 209.71 107.51 219.415 144.26C223.671 160.284 221.96 177.305 214.6 192.174C221.089 183.828 225.563 174.103 227.673 163.755C229.784 153.408 229.475 142.715 226.771 132.508C217.066 95.7587 179.322 73.8286 142.468 83.526Z" fill="black"/>
<path fill-rule="evenodd" clip-rule="evenodd" d="M226.041 58.3929C220.24 58.3929 218.131 51.4301 214.835 47.6091C212.477 44.8752 208.453 45.6904 207.262 41.8631C204.267 32.239 212.283 25.4653 222.742 25.4653C233.2 25.4653 240.252 31.406 241.774 40.3365C243.297 49.267 236.499 58.3929 226.041 58.3929Z" fill="#191847"/>
<path fill-rule="evenodd" clip-rule="evenodd" d="M219.475 57.1399C216.189 59.1261 212.96 60.0858 211.444 59.6941C207.643 58.7117 207.293 44.7696 210.234 39.2732C213.175 33.7769 228.295 31.3812 229.057 42.2713C229.321 46.0509 227.739 49.4239 225.4 52.1763L229.593 71.7729H217.413L219.475 57.1399Z" fill="#B28B67"/>
<path fill-rule="evenodd" clip-rule="evenodd" d="M228.265 34.6252C237.595 43.7849 228.23 53.5206 225.664 53.5206C225.498 52.199 224.993 50.9134 224.252 49.6898C224.645 49.1792 224.878 48.5441 224.878 47.8559C224.878 46.1697 223.479 44.8027 221.754 44.8027C221.215 44.8027 220.708 44.936 220.265 45.1708C216.525 41.9723 211.833 39.7425 209.504 39.3041C205.452 38.5415 218.935 25.4655 228.265 34.6252Z" fill="#191847"/>
<path fill-rule="evenodd" clip-rule="evenodd" d="M233.653 114.01L214.554 176.613L205.303 229.853H198.048L207.825 114.01H233.653Z" fill="#997659"/>
<path fill-rule="evenodd" clip-rule="evenodd" d="M240.485 114.01C239.188 148.382 240.715 166.112 241.005 169.235C241.296 172.358 245.271 192.607 254.683 230.902L246.953 228.24C232.079 193.118 227.01 174.865 225.304 170.253C223.598 165.641 219.067 146.893 211.711 114.01H240.485Z" fill="#B28B67"/>
<path fill-rule="evenodd" clip-rule="evenodd" d="M252.223 228.041C253.321 227.629 254.602 228.095 254.958 229.212C255.232 230.069 255.477 231.006 255.477 231.613C255.477 232.989 255.019 235.63 255.019 235.63C253.427 235.63 226.394 235.63 226.394 235.63C226.394 235.63 225.278 231.931 227.682 231.636C230.086 231.341 231.676 231.104 231.676 231.104L244.517 225.364C245.032 225.134 245.635 225.375 245.85 225.897L246.512 227.508C246.512 227.508 248.738 228.549 250.129 228.549C250.7 228.549 251.489 228.316 252.223 228.041Z" fill="#E4E4E4"/>
<path fill-rule="evenodd" clip-rule="evenodd" d="M204.515 228.041C205.613 227.629 206.894 228.095 207.251 229.212C207.524 230.069 207.769 231.006 207.769 231.613C207.769 232.989 207.312 235.63 207.312 235.63C205.719 235.63 178.686 235.63 178.686 235.63C178.686 235.63 177.57 231.931 179.974 231.636C182.378 231.341 183.969 231.104 183.969 231.104L196.809 225.364C197.324 225.134 197.928 225.375 198.142 225.897L198.805 227.508C198.805 227.508 201.03 228.549 202.422 228.549C202.992 228.549 203.782 228.316 204.515 228.041Z" fill="#E4E4E4"/>
<path fill-rule="evenodd" clip-rule="evenodd" d="M236.191 114.01L228.07 145.905H203.267L206.965 114.01H236.191Z" fill="#69A1AC"/>
<path fill-rule="evenodd" clip-rule="evenodd" d="M240.759 114.01C244.766 126.055 242.281 145.905 242.281 145.905H216.97L210.011 114.01H240.759Z" fill="#89C5CC"/>
<path fill-rule="evenodd" clip-rule="evenodd" d="M231.069 61.742C230.95 61.355 230.83 60.967 230.708 60.5779L230.257 60.7905C230.187 60.7178 230.116 60.6469 230.044 60.5779L215.838 62.7803C215.838 69.2228 211.726 75.3318 208.025 80.8312C207.124 82.1692 206.248 83.4712 205.461 84.7331C204.43 86.386 203.267 88.0684 202.075 89.7925C196.038 98.5239 189.263 108.323 195.219 120.759C204.857 140.886 245.433 127.296 245.433 127.296C245.433 123.808 244.053 120.312 242.604 116.64C241.05 112.702 239.417 108.563 239.319 104.016C239.14 95.6501 237.579 70.3043 231.069 61.742Z" fill="#C1DEE2"/>
<path fill-rule="evenodd" clip-rule="evenodd" d="M213.421 116.954C212.471 112.038 211.855 108.757 211.572 107.109C204.004 115.684 199.632 120.021 198.456 120.12C196.244 120.307 194.609 118.34 194.144 118.893C193.374 121.183 195.547 126.915 199.7 127.749C201.683 128.147 204.752 124.046 206.017 122.593C206.514 122.022 208.982 120.142 213.421 116.954ZM200.348 90.7449C198.387 90.7449 197.333 91.5581 196.173 93.1988C195.013 94.8395 193.915 102.578 195.777 102.578C197.64 102.578 205.443 99.5863 205.443 97.5753C205.443 95.5643 200.119 94.7127 200.119 93.1988C200.119 91.6849 202.31 90.7449 200.348 90.7449Z" fill="#B28B67"/>
</svg>
