<svg width="131" height="70" viewBox="0 0 131 70" fill="none" xmlns="http://www.w3.org/2000/svg">
<path d="M125.822 59.9746H119.618V64.678H125.822V59.9746Z" fill="#3F3D56"/>
<path d="M105.521 57.5773C105.521 57.5773 106.33 47.4732 119.683 46.3223L105.521 57.5773Z" fill="#F2F2F2"/>
<path d="M101.417 55.3173C101.417 55.3173 104.344 45.615 92.3323 39.6543L101.417 55.3173Z" fill="#F2F2F2"/>
<path d="M18.3721 46.7556C17.1038 51.4568 12.7595 54.3684 12.7595 54.3684C12.7595 54.3684 10.4716 49.6578 11.7399 44.9566C13.0082 40.2553 17.3525 37.3438 17.3525 37.3438C17.3525 37.3438 19.6404 42.0544 18.3721 46.7556Z" fill="#42B6E9"/>
<path d="M6.83394 46.7556C8.10224 51.4568 12.4465 54.3684 12.4465 54.3684C12.4465 54.3684 14.7344 49.6578 13.4661 44.9566C12.1978 40.2553 7.85354 37.3438 7.85354 37.3438C7.85354 37.3438 5.56563 42.0544 6.83394 46.7556Z" fill="#42B6E9"/>
<path d="M8.69776 45.7433C12.178 49.1405 12.6031 54.3627 12.6031 54.3627C12.6031 54.3627 7.38558 54.077 3.90533 50.6799C0.425087 47.2827 0 42.0605 0 42.0605C0 42.0605 5.21751 42.3462 8.69776 45.7433Z" fill="#3F3D56"/>
<path d="M16.5084 45.7433C13.0281 49.1405 12.603 54.3627 12.603 54.3627C12.603 54.3627 17.8205 54.077 21.3008 50.6799C24.781 47.2827 25.2061 42.0605 25.2061 42.0605C25.2061 42.0605 19.9886 42.3462 16.5084 45.7433Z" fill="#3F3D56"/>
<path d="M78.2346 12.2558C78.2346 12.2558 76.7215 10.7385 73.2414 11.042C73.2414 11.042 39.6507 7.55234 38.8941 13.773C38.1376 19.9936 37.9863 23.635 39.9533 25.0005C39.9533 25.0005 46.3839 30.8419 43.0551 36.0005L41.2394 39.0349L112.506 38.428C112.506 38.428 113.263 27.3522 115.532 25.2281C117.802 23.104 118.559 11.8765 115.532 11.573C112.506 11.2696 77.4024 9.6006 78.2346 12.2558Z" fill="#3F3D56"/>
<path d="M74.9577 0.795791C73.546 1.28741 72.2671 2.43727 71.978 3.94458C71.844 4.64328 71.9261 5.36963 71.8134 6.07231C71.5518 7.70198 70.3113 8.94657 69.1671 10.1026C68.0229 11.2587 66.8413 12.6019 66.7578 14.2515C66.6663 16.0579 67.9367 17.7501 67.7169 19.5447C67.4615 21.6296 65.326 22.9805 64.7981 25.0103C64.4456 26.3656 64.8776 27.8256 65.5882 29.0222C66.9425 31.3026 69.2573 32.8508 71.7223 33.6807C74.1874 34.5107 76.8128 34.6853 79.4058 34.7133C82.5631 34.7474 85.9911 34.4679 88.3633 32.3192C89.7183 31.0808 90.5693 29.36 90.7456 27.5018C90.971 25.0127 89.9635 22.4409 90.6584 20.046C91.0958 18.5388 92.1925 17.1622 92.0288 15.598C91.8688 14.0687 90.5734 12.9846 89.6848 11.7491C88.8551 10.5955 88.3516 9.23321 87.8582 7.89013L86.1699 3.29471C85.838 2.39133 85.4735 1.44122 84.7339 0.848302C83.3492 -0.261685 81.1227 -0.0435959 79.5036 0.185336C78.0015 0.397717 76.4022 0.292758 74.9577 0.795791Z" fill="#C4C4C4"/>
<path d="M40.6343 24.6232C40.6343 24.6232 19.2996 29.6301 27.773 39.0369L29.1347 40.4025L28.5295 61.3403H126.881L127.94 40.8576L129.15 38.4301C129.15 38.4301 136.688 29.3646 114.914 26.0836L110.993 36.0025L44.7196 35.5473C44.7196 35.5473 44.2657 24.3198 40.6343 24.6232Z" fill="#3F3D56"/>
<path d="M36.5489 59.9746H30.3452V64.678H36.5489V59.9746Z" fill="#3F3D56"/>
<path d="M77.0837 36.0782C77.0837 36.0782 62.2714 25.5335 43.8117 36.1541L38.3645 44.0437L39.4237 50.5678C39.4237 50.5678 77.705 51.1747 78.159 47.0782C78.6129 42.9816 77.0837 36.0782 77.0837 36.0782Z" fill="#3F3D56"/>
<path d="M111.75 36.1522C111.75 36.1522 85.7619 27.8074 77.9507 36.1522L78.9155 48.1383C78.9155 48.1383 116.894 51.021 117.499 49.0486C118.105 47.0762 118.407 43.5866 118.407 43.5866L111.75 36.1522Z" fill="#3F3D56"/>
<path opacity="0.1" d="M111.75 36.1518C111.75 36.1518 85.7619 27.8071 77.9507 36.1518L77.9722 36.4192C77.9466 36.2952 77.932 36.2277 77.932 36.2277C77.932 36.2277 62.2714 25.5313 43.8117 36.1518L38.3645 44.0414L39.4237 50.5655C39.4237 50.5655 76.4921 51.3562 78.8737 47.6183L78.9155 48.1379C78.9155 48.1379 116.894 51.0207 117.499 49.0483C118.105 47.0759 118.407 43.5863 118.407 43.5863L111.75 36.1518Z" fill="black"/>
<path d="M41.2395 15.2135C48.5936 15.0567 55.5654 14.1208 61.9689 12.0273C62.1247 19.4133 63.1837 26.3211 65.6004 32.51C58.4412 31.2055 51.1752 32.4964 43.8118 36.1513C45.1343 29.4746 43.9909 22.4556 41.2395 15.2135Z" fill="#42B6E9"/>
<path d="M116.44 16.4284C109.086 16.2715 102.115 15.3357 95.711 13.2422C95.5553 20.6282 94.4962 27.5359 92.0796 33.7248C99.2387 32.4203 106.505 33.7112 113.868 37.3662C112.546 30.6894 113.689 23.6705 116.44 16.4284Z" fill="#42B6E9"/>
<path d="M69.2125 14.4925C69.6408 14.1868 70.1136 13.9491 70.6141 13.7877C73.7876 12.6037 77.1127 11.8779 80.4898 11.632C83.4264 11.4232 86.609 11.6712 88.9026 13.5218C89.2594 13.7843 89.5513 14.1254 89.756 14.5188C90.0445 15.1431 89.9571 15.8689 89.8637 16.5507C89.8427 16.8151 89.7762 17.0739 89.6672 17.3156C89.3585 17.9049 88.5986 18.1113 87.9386 18.0406C87.2786 17.97 86.6593 17.6899 86.0083 17.5601C85.6053 17.4897 85.1979 17.4481 84.7891 17.4356L80.706 17.214C78.1671 17.0761 75.5946 16.9406 73.1041 17.4544C72.3374 17.5926 71.5966 17.8486 70.9077 18.2133C70.3389 18.5336 69.9558 18.9931 69.428 18.4016C68.5007 17.3624 67.9874 15.4524 69.2125 14.4925Z" fill="#9377B6"/>
<path d="M75.5396 16.3013C75.5396 16.3013 81.0314 13.8327 83.1145 16.6811C85.1976 19.5295 81.9783 18.3901 81.9783 18.3901L78.3802 19.5295L74.4033 18.7699L75.5396 16.3013Z" fill="#F2F2F2"/>
<path d="M75.8235 14.4981C75.8235 14.4981 76.581 18.106 76.0129 19.0555C75.4447 20.0049 79.2322 21.3342 79.2322 21.3342L82.8303 19.815C82.8303 19.815 81.8835 13.9284 82.8303 12.7891L75.8235 14.4981Z" fill="#FFB9B9"/>
<path opacity="0.1" d="M75.8235 14.4981C75.8235 14.4981 76.581 18.106 76.0129 19.0555C75.4447 20.0049 79.2322 21.3342 79.2322 21.3342L82.8303 19.815C82.8303 19.815 81.8835 13.9284 82.8303 12.7891L75.8235 14.4981Z" fill="black"/>
<path d="M72.275 57.8789C72.8168 58.9205 73.168 60.0489 73.5264 61.1674C73.5318 61.2047 73.5449 61.2404 73.5649 61.2723C73.585 61.3042 73.6115 61.3315 73.6428 61.3523C73.6741 61.3732 73.7094 61.3872 73.7465 61.3934C73.7836 61.3997 73.8215 61.398 73.8579 61.3884L77.2263 61.3847C77.642 61.3842 78.1997 61.2503 78.1954 60.8335C78.1924 60.5407 77.8938 60.358 77.6716 60.1679C77.055 59.6404 76.8945 58.7705 76.6391 57.9991C76.1427 56.513 75.1862 55.2247 73.9087 54.3218C73.736 54.1862 73.5373 54.0878 73.325 54.0325C73.1115 54.0015 72.894 54.0133 72.6851 54.0673C72.0938 54.187 69.8857 54.5963 70.3028 55.4587C70.4824 55.83 71.148 56.2166 71.4271 56.5635C71.7523 56.9728 72.0363 57.4135 72.275 57.8789Z" fill="#575A89"/>
<path d="M83.9884 53.9615C83.8696 54.2118 83.7374 54.4555 83.5924 54.6915C83.1044 55.4985 82.5285 56.2514 82.0741 57.0779C81.7906 57.5934 81.552 58.1506 81.5207 58.7385C81.4893 59.3264 81.6958 59.9521 82.1635 60.3079C82.6525 60.68 83.3229 60.6972 83.9306 60.6105C84.5383 60.5239 85.1425 60.3492 85.7546 60.3952C85.5483 59.2242 86.5332 58.1935 86.7795 57.0303C86.8487 56.7036 86.859 56.3648 86.9517 56.044C87.0515 55.7506 87.1791 55.4675 87.3329 55.1987C87.8234 54.2409 88.1701 53.2157 88.3616 52.1564C88.3848 52.0279 85.3674 52.0069 85.0844 52.0682C84.2011 52.2598 84.3302 53.2271 83.9884 53.9615Z" fill="#575A89"/>
<path d="M60.7312 35.5637C59.8698 36.9154 60.0683 38.7067 60.6733 40.1917C61.2783 41.6767 62.2412 42.9894 62.9003 44.4511C63.3204 45.3829 63.6151 46.371 64.0882 47.2769C64.6741 48.3988 65.5295 49.3876 65.9226 50.591C66.1732 51.3581 66.2307 52.1989 66.6366 52.896C66.882 53.2685 67.1621 53.6169 67.473 53.9365C68.3474 54.9409 69.7784 61.3921 71.1305 62.1035C72.0477 61.2498 72.963 59.4976 74.1041 59.2579C75.2453 59.0182 75.9746 58.1908 78.7134 59.2579C78.7134 58.2619 74.9844 53.4841 74.6005 52.3574C74.2293 51.2677 73.343 50.0122 73.0929 48.8883C72.5801 46.5835 71.4846 44.4578 70.4 42.3617L75.9746 41.9183C76.8845 41.8266 77.7992 41.7926 78.7134 41.8164C80.1523 41.8844 81.5619 42.2381 82.9931 42.4016C84.4243 42.565 85.9383 42.5222 87.2137 41.851C84.7749 45.3599 80.8317 53.4877 80.9118 57.764C81.4569 57.3405 82.4362 56.8436 83.1101 56.6969C83.784 56.5502 84.85 56.6803 85.5212 56.8392C86.443 57.1949 86.9304 58.0485 87.1522 58.4042C87.7288 59.329 87.7044 59.9863 88.0031 60.6095C90.1877 57.616 92.5104 48.3242 94.2415 45.0459C94.5974 44.3718 95.0337 43.7439 95.4178 43.0856C96.1777 41.7835 96.7287 40.3718 97.2766 38.9668C97.7608 37.7249 98.2486 36.3431 97.7842 35.0936C97.5914 34.6195 97.3105 34.1865 96.9566 33.8175C95.9578 32.7133 94.5676 31.8965 93.0813 31.8625C90.7997 31.8103 88.9149 33.5061 86.9135 34.6058C84.5561 35.901 81.8059 36.4159 79.1245 36.2255C76.3753 36.0303 73.7497 35.128 71.1305 34.3333C69.8202 33.9172 68.4884 33.5728 67.1409 33.3013C66.0177 33.09 64.948 33.3241 63.8411 33.6121C62.636 33.9256 61.4248 34.4753 60.7312 35.5637Z" fill="#2F2E41"/>
<path d="M84.5348 10.8921C84.5336 12.4026 83.9346 13.8508 82.8695 14.9189C81.8043 15.987 80.36 16.5876 78.8536 16.5888C78.5151 16.5894 78.1772 16.5589 77.8442 16.4977C76.781 16.3051 75.7946 15.8126 75.0007 15.0778C74.2068 14.343 73.6383 13.3964 73.3619 12.3491C73.0855 11.3018 73.1127 10.1971 73.4402 9.16475C73.7678 8.13237 74.3822 7.21506 75.2113 6.52042C76.0404 5.82577 77.0498 5.3826 78.1212 5.24289C79.1926 5.10317 80.2815 5.2727 81.2602 5.7316C82.2389 6.19049 83.0668 6.91972 83.6468 7.83375C84.2268 8.74778 84.5349 9.80869 84.5348 10.8921Z" fill="#FFB9B9"/>
<path d="M75.5394 16.3C75.5394 16.3 76.581 16.7748 76.9597 17.1545C77.3385 17.5343 78.4747 19.6231 80.3684 18.2939C82.2622 16.9646 82.4516 16.2051 83.0197 16.2051C83.5878 16.2051 84.3453 17.3444 84.3453 17.3444L89.5531 33.0105C88.1495 34.5991 86.5228 35.9744 84.724 37.0931C81.6941 38.9921 78.096 39.9415 76.3916 39.1819C74.6872 38.4224 71.4679 37.8527 70.8998 36.3336C70.3316 34.8144 69.3848 30.2571 69.3848 30.2571L72.036 18.6737L75.5394 16.3Z" fill="#F2F2F2"/>
<path d="M74.8084 32.1438C75.2213 31.2495 75.2813 30.2374 75.3162 29.2526C75.3719 28.2772 75.3461 27.2989 75.2392 26.3278C75.0713 25.0576 74.6588 23.8338 74.3983 22.5794C74.1699 21.4793 74.0589 20.3578 74.0671 19.2341C74.0709 18.7213 74.108 18.1815 74.3866 17.7516C74.581 17.4516 74.8851 17.2193 75.0066 16.8829C75.2447 16.2234 74.6562 15.5328 74.0113 15.2613C73.244 14.9382 72.3671 14.9599 71.5598 15.1626C70.7526 15.3653 69.9997 15.7382 69.2539 16.1085C68.7152 16.3759 68.165 16.6516 67.7473 17.0851C67.1594 17.6951 66.901 18.5446 66.6922 19.3666C66.5252 20.0245 66.3767 20.7106 66.5038 21.3774C66.7102 22.4603 67.5906 23.2747 68.0599 24.2717C68.6048 25.4294 68.5681 26.7786 68.3514 28.0402C68.1346 29.3018 67.7498 30.5354 67.6312 31.81C67.5125 33.0847 67.6947 34.4549 68.4911 35.4555C68.8156 35.8632 69.696 36.8296 70.2902 36.7202C70.7569 36.6343 71.4336 35.604 71.8096 35.2774C72.8959 34.334 74.1847 33.4948 74.8084 32.1438Z" fill="#9377B6"/>
<path d="M84.73 15.6803C84.7466 16.7394 84.281 17.7461 83.7335 18.6519C83.186 19.5577 82.5428 20.4144 82.1393 21.3933C81.638 22.6187 81.5356 23.9716 81.8469 25.2589C81.9626 25.6973 82.102 26.1291 82.2647 26.5523L83.3022 29.4062C83.4418 29.8549 83.6444 30.2814 83.9039 30.6729C84.1385 30.9727 84.4137 31.2382 84.7216 31.4616C85.5098 32.0998 86.4167 32.5742 87.3896 32.8573C88.3658 33.116 89.434 33.0998 90.3563 32.6876C90.4563 28.8188 91.0762 24.9812 92.1991 21.2786C92.4066 20.5951 92.6333 19.8755 92.4733 19.1792C92.294 18.3994 91.6693 17.8139 91.0755 17.2792C89.2595 15.6439 87.2624 13.9262 84.8316 13.7058C83.4247 13.5782 84.718 14.9147 84.73 15.6803Z" fill="#9377B6"/>
<path d="M72.3025 37.7618C72.4465 38.0445 72.5362 38.3524 72.6786 38.6359C72.8888 39.0162 73.1486 39.3666 73.4513 39.6778C74.7175 41.0857 76.2653 42.4882 78.154 42.5731C78.3416 42.5906 78.5308 42.5668 78.7083 42.5031C79.0387 42.3654 79.2339 42.0104 79.2982 41.6574C79.4321 40.922 79.1084 40.1883 78.7842 39.5151C78.0817 38.056 77.2913 36.56 75.9759 35.619C74.6794 34.6914 72.942 34.4661 71.43 34.9332C70.7448 35.1448 69.6087 35.5144 70.5158 36.1412C71.204 36.6167 71.9035 36.9787 72.3025 37.7618Z" fill="#FFB9B9"/>
<path d="M73.4387 60.7368C72.8741 61.5061 72.9873 62.6058 72.4872 63.4188C72.0537 64.1234 71.2367 64.4929 70.6945 65.1173C70.5214 65.3248 70.3672 65.5473 70.2336 65.7822C69.7306 66.627 69.3217 67.7098 69.8171 68.5591C70.2156 69.2423 71.0533 69.5094 71.8215 69.6914C72.7924 69.9214 73.8013 70.1055 74.7835 69.9297C75.7656 69.7539 76.7255 69.1509 77.0757 68.2141C77.1446 67.9786 77.2264 67.747 77.3208 67.5206C77.8532 66.4697 79.523 66.4583 80.0678 65.4139C80.4491 64.6829 80.0986 63.7994 79.7482 63.0531L78.6782 60.7736C78.3231 60.0172 76.8836 60.4522 76.1332 60.2709C75.1545 60.0345 74.1428 59.7741 73.4387 60.7368Z" fill="#2F2E41"/>
<path d="M81.715 58.7795C81.261 59.0986 80.9674 59.5993 80.7469 60.1095C80.2173 61.3345 80.0355 62.6775 79.8589 64.001C79.7882 64.5311 79.7178 65.0738 79.8283 65.5971C80.0565 66.6779 81.0332 67.4738 82.0845 67.8042C83.1358 68.1347 84.2634 68.0838 85.3638 68.0297C85.7172 68.0123 86.0847 67.9911 86.3946 67.8198C86.9476 67.514 87.1637 66.7952 87.0689 66.1691C86.974 65.5431 86.6329 64.986 86.299 64.4485C85.9651 63.911 85.6237 63.3542 85.5281 62.7283C85.3672 61.6753 85.8212 60.1297 85.1761 59.1771C84.5296 58.2225 82.5779 58.1732 81.715 58.7795Z" fill="#2F2E41"/>
<path d="M79.3175 11.7536C82.9727 11.7536 85.9358 10.153 85.9358 8.17857C85.9358 6.20412 82.9727 4.60352 79.3175 4.60352C75.6623 4.60352 72.6992 6.20412 72.6992 8.17857C72.6992 10.153 75.6623 11.7536 79.3175 11.7536Z" fill="#C4C4C4"/>
<path d="M66.4125 21.4328C65.8705 22.2346 65.2455 23.0056 64.9475 23.9271C64.7724 24.4687 64.718 25.0413 64.5912 25.5963C64.1689 27.4449 62.9489 29.0868 62.8263 30.9793C62.7833 31.3999 62.8449 31.8245 63.0055 32.2153C63.3555 32.9787 64.1931 33.381 64.992 33.6341C65.791 33.8871 66.649 34.0694 67.2867 34.6144C67.6078 34.923 67.8989 35.2614 68.1562 35.6252C69.1967 36.9228 70.5964 37.8831 72.1795 38.3854C72.0544 37.5213 71.9957 36.4799 72.6845 35.9458C73.0574 35.6567 73.5556 35.6052 74.0252 35.5645L76.2441 35.3723C74.7645 33.9332 73.1336 32.6592 71.3801 31.5728C70.7665 31.1927 70.0987 30.7918 69.8186 30.1255C69.6434 29.7089 69.6458 29.2423 69.6417 28.7902C69.6264 27.1355 69.4867 25.4843 69.2237 23.8506C69.041 22.7163 68.7991 21.5921 68.5225 20.4771C68.4449 20.1641 67.9859 18.76 67.4209 19.0885C67.2878 19.1659 67.1633 20.0566 67.0856 20.2414C66.9007 20.6597 66.6752 21.0587 66.4125 21.4328Z" fill="#9377B6"/>
<path opacity="0.1" d="M69.4832 23.8672C69.5082 25.2086 69.224 26.5376 68.6528 27.7509C68.5042 28.019 68.3947 28.3071 68.3276 28.6064C68.2282 29.2448 68.5906 29.8629 69.0047 30.3579C69.8216 31.3315 70.8812 32.0706 72.0756 32.5002" fill="black"/>
<path d="M83.6202 17.0619L83.7539 17.0831C83.6369 17.0646 83.5321 17.0002 83.4625 16.9041C83.3929 16.8081 83.3642 16.6883 83.3827 16.571L84.7645 7.81722C84.783 7.69995 84.8472 7.59486 84.943 7.52506C85.0388 7.45526 85.1583 7.42648 85.2752 7.44504L85.1416 7.42383C85.2346 7.43859 85.3238 7.47158 85.4041 7.5209C85.4844 7.57023 85.5542 7.63492 85.6095 7.7113C85.6649 7.78769 85.7047 7.87425 85.7267 7.96606C85.7487 8.05787 85.7524 8.15312 85.7377 8.24637L84.4405 16.4642C84.4258 16.5575 84.3929 16.6469 84.3437 16.7274C84.2945 16.8079 84.23 16.8779 84.1538 16.9334C84.0776 16.9889 83.9913 17.0288 83.8998 17.0509C83.8082 17.0729 83.7132 17.0767 83.6202 17.0619Z" fill="#2F2E41"/>
<path d="M85.0943 7.41636L85.297 7.44852L83.7755 17.0866L83.5729 17.0544C83.5387 17.049 83.5059 17.0368 83.4763 17.0187C83.4468 17.0005 83.4211 16.9767 83.4007 16.9486C83.3804 16.9205 83.3657 16.8887 83.3576 16.8549C83.3495 16.8211 83.3482 16.7861 83.3536 16.7517L84.7925 7.63631C84.7979 7.60199 84.81 7.56908 84.8281 7.53946C84.8462 7.50983 84.87 7.48407 84.898 7.46365C84.926 7.44322 84.9578 7.42854 84.9915 7.42042C85.0252 7.41231 85.0601 7.41093 85.0943 7.41636Z" fill="#42B6E9"/>
<path d="M85.1217 8.69579L85.0824 8.68956C85.0684 8.68734 85.0554 8.6968 85.0532 8.71068L84.937 9.44664C84.9348 9.46052 84.9444 9.47357 84.9583 9.47578L84.9976 9.48202C85.0115 9.48423 85.0246 9.47477 85.0268 9.46089L85.1429 8.72493C85.1451 8.71105 85.1356 8.69801 85.1217 8.69579Z" fill="#464353"/>
<path d="M88.5574 15.3807C88.7663 14.8531 88.9786 14.3074 88.9643 13.7399C88.9283 13.2255 88.7728 12.7268 88.5102 12.2834C88.191 11.6885 87.7925 11.1399 87.3257 10.6528C86.7698 10.073 85.967 9.55532 85.2091 9.81847C84.6073 10.0274 84.2643 10.6556 84.0416 11.254C83.9091 11.5462 83.8567 11.8685 83.8898 12.1878C83.9636 12.5998 84.2809 12.916 84.5108 13.2653C84.8712 13.8131 85.0256 14.4675 85.1737 15.1067L85.5451 16.7099L86.1829 19.4637C86.1661 19.3911 87.3676 18.2501 87.5102 18.0072C87.9696 17.2247 88.2229 16.2254 88.5574 15.3807Z" fill="#FFB9B9"/>
<path d="M91.9687 18.4031L92.8748 20.2928C93.3114 21.0697 93.51 21.9584 93.4461 22.8479L93.4999 28.5163C93.5071 29.2737 93.5129 30.0426 93.314 30.7734C93.2575 31.0174 93.1511 31.2469 93.0015 31.4474C92.8478 31.6202 92.6667 31.7665 92.4656 31.8803C90.7507 32.9547 88.5269 33.5654 86.7151 32.665C86.3001 32.4432 85.9056 32.185 85.5361 31.8933C84.814 31.3571 84.0812 30.8104 83.541 30.0904C82.9756 29.3369 85.5754 26.4699 85.1951 25.6075C84.5137 24.0625 84.8908 20.3984 83.8333 19.0834C83.6794 18.8921 85.0782 19.0644 85.0727 18.8186C85.0614 18.3218 86.2498 17.6035 86.7082 17.4144C87.4912 17.0915 88.3928 16.4325 88.5239 15.5938C90.1891 17.7834 85.5133 24.3996 88.1409 25.1997C88.1822 25.2261 88.2297 25.2408 88.2786 25.2423C88.3275 25.2438 88.3758 25.2321 88.4186 25.2082C88.4613 25.1844 88.4968 25.1495 88.5214 25.1071C88.5459 25.0647 88.5586 25.0164 88.558 24.9674C88.7071 24.3415 88.7599 23.6971 88.869 23.0631C89.0691 21.9085 89.4545 20.7941 90.0101 19.7631C90.3213 19.1851 91.3291 17.0693 91.9687 18.4031Z" fill="#9377B6"/>
<path opacity="0.1" d="M89.1594 22.7383C89.0259 23.0983 89.1471 23.4964 89.25 23.8664C89.5482 24.9396 89.6874 26.0509 89.6632 27.1646C89.6675 27.1841 89.6669 27.2044 89.6615 27.2236C89.656 27.2428 89.6459 27.2603 89.632 27.2746C89.6181 27.2888 89.6009 27.2994 89.5819 27.3054C89.5629 27.3113 89.5427 27.3124 89.5232 27.3085C89.086 27.3354 88.5856 27.3382 88.2891 27.0151" fill="black"/>
<path d="M18.9213 64.4495H6.36257L4.178 56.9818C4.04488 56.5267 4.01934 56.0468 4.10341 55.5801C4.18748 55.1134 4.37885 54.6727 4.66233 54.2931C4.94582 53.9135 5.31363 53.6053 5.73658 53.3931C6.15953 53.1808 6.62598 53.0703 7.09895 53.0703H18.0854C18.5552 53.0703 19.0186 53.1793 19.4393 53.3889C19.8601 53.5984 20.2268 53.9028 20.5107 54.2781C20.7946 54.6534 20.988 55.0896 21.0758 55.5524C21.1635 56.0151 21.1433 56.492 21.0166 56.9456L18.9213 64.4495Z" fill="#3F3D56"/>
</svg>
