<svg width="46" height="46" viewBox="0 0 46 46" fill="none" xmlns="http://www.w3.org/2000/svg">
<circle cx="23" cy="23" r="22" stroke="#9377B6" stroke-width="2"/>
<path d="M23.0768 30.24C22.0368 30.24 21.1568 30.08 20.4368 29.76C19.7168 29.4267 19.1235 28.9867 18.6568 28.44L20.0168 26.58C20.4035 26.9533 20.8235 27.26 21.2768 27.5C21.7435 27.74 22.2501 27.86 22.7968 27.86C23.4235 27.86 23.9235 27.7333 24.2968 27.48C24.6701 27.2133 24.8568 26.84 24.8568 26.36C24.8568 26.08 24.8035 25.8267 24.6968 25.6C24.6035 25.3733 24.4301 25.1867 24.1768 25.04C23.9235 24.88 23.5768 24.76 23.1368 24.68C22.6968 24.5867 22.1301 24.54 21.4368 24.54V22.46C22.0101 22.46 22.4835 22.42 22.8568 22.34C23.2435 22.26 23.5501 22.1467 23.7768 22C24.0168 21.84 24.1835 21.66 24.2768 21.46C24.3835 21.2467 24.4368 21.0133 24.4368 20.76C24.4368 20.32 24.3035 19.98 24.0368 19.74C23.7701 19.4867 23.3835 19.36 22.8768 19.36C22.4235 19.36 22.0101 19.46 21.6368 19.66C21.2768 19.86 20.8968 20.1333 20.4968 20.48L19.0168 18.68C19.6035 18.1733 20.2168 17.78 20.8568 17.5C21.5101 17.2067 22.2301 17.06 23.0168 17.06C23.6701 17.06 24.2635 17.14 24.7968 17.3C25.3435 17.4467 25.8035 17.6733 26.1768 17.98C26.5635 18.2733 26.8635 18.6333 27.0768 19.06C27.2901 19.4867 27.3968 19.98 27.3968 20.54C27.3968 21.2067 27.2101 21.7733 26.8368 22.24C26.4768 22.6933 25.9568 23.0667 25.2768 23.36V23.44C26.0101 23.6533 26.6101 24.02 27.0768 24.54C27.5568 25.0467 27.7968 25.7133 27.7968 26.54C27.7968 27.1267 27.6701 27.6533 27.4168 28.12C27.1635 28.5733 26.8235 28.96 26.3968 29.28C25.9701 29.5867 25.4701 29.8267 24.8968 30C24.3235 30.16 23.7168 30.24 23.0768 30.24Z" fill="#9377B6"/>
</svg>
