<svg width="46" height="46" viewBox="0 0 46 46" fill="none" xmlns="http://www.w3.org/2000/svg">
<circle cx="23" cy="23" r="22" stroke="#9377B6" stroke-width="2"/>
<path d="M18.9568 30V28.32C19.7701 27.56 20.5101 26.8533 21.1768 26.2C21.8568 25.5333 22.4368 24.9133 22.9168 24.34C23.4101 23.7533 23.7901 23.2133 24.0568 22.72C24.3368 22.2133 24.4768 21.7333 24.4768 21.28C24.4768 20.6533 24.3168 20.18 23.9968 19.86C23.6768 19.5267 23.2368 19.36 22.6768 19.36C22.2101 19.36 21.7968 19.4933 21.4368 19.76C21.0768 20.0133 20.7368 20.3133 20.4168 20.66L18.8168 19.08C19.4435 18.4133 20.0835 17.9133 20.7368 17.58C21.3901 17.2333 22.1701 17.06 23.0768 17.06C23.7035 17.06 24.2701 17.16 24.7768 17.36C25.2968 17.5467 25.7435 17.82 26.1168 18.18C26.4901 18.5267 26.7768 18.9467 26.9768 19.44C27.1768 19.9333 27.2768 20.4867 27.2768 21.1C27.2768 21.6333 27.1635 22.18 26.9368 22.74C26.7101 23.2867 26.4035 23.84 26.0168 24.4C25.6435 24.9467 25.2101 25.5 24.7168 26.06C24.2368 26.6067 23.7368 27.1467 23.2168 27.68C23.5368 27.64 23.8901 27.6067 24.2768 27.58C24.6768 27.54 25.0301 27.52 25.3368 27.52H27.8968V30H18.9568Z" fill="#9377B6"/>
</svg>
