<svg width="53" height="53" viewBox="0 0 53 53" fill="none" xmlns="http://www.w3.org/2000/svg">
<rect width="53" height="53" fill="black"/>
<path d="M11.0137 28.6776C11.1616 29.0701 11.3663 29.4057 11.628 29.6844C11.8897 29.9632 12.1997 30.1765 12.5581 30.3244C12.9164 30.4723 13.3061 30.5462 13.727 30.5462C14.1366 30.5462 14.5206 30.4694 14.8789 30.3158C15.2373 30.1622 15.5502 29.9461 15.8175 29.6674C16.0848 29.3886 16.2925 29.0559 16.4404 28.6691C16.5883 28.2823 16.6622 27.85 16.6622 27.3721V20H18.4541V31.9455H16.6793V30.8363C16.2811 31.2572 15.8118 31.5815 15.2714 31.809C14.731 32.0366 14.148 32.1503 13.5223 32.1503C12.8851 32.1503 12.2907 32.0394 11.7389 31.8175C11.1872 31.5957 10.7093 31.28 10.3055 30.8704C9.90164 30.4609 9.58305 29.9689 9.34985 29.3943C9.1166 28.8198 9 28.1799 9 27.4745V20H10.7918V27.3721C10.7918 27.85 10.8658 28.2851 11.0137 28.6776Z" fill="white"/>
<path d="M21.5427 20V24.3516C21.9409 23.9534 22.4017 23.6377 22.925 23.4045C23.4483 23.1712 24.0171 23.0546 24.6315 23.0546C25.2686 23.0546 25.8658 23.1741 26.4233 23.413C26.9807 23.6519 27.4642 23.9761 27.8738 24.3857C28.2834 24.7953 28.6076 25.2788 28.8465 25.8362C29.0855 26.3937 29.2049 26.9853 29.2049 27.611C29.2049 28.2367 29.0855 28.8255 28.8465 29.3772C28.6076 29.929 28.2834 30.4097 27.8738 30.8192C27.4642 31.2288 26.9807 31.553 26.4233 31.7919C25.8658 32.0309 25.2685 32.1503 24.6315 32.1503C24.0171 32.1503 23.4455 32.0337 22.9164 31.8004C22.3874 31.5672 21.9238 31.2515 21.5256 30.8533V31.9455H19.8191V20H21.5427ZM21.7389 28.7885C21.8925 29.1526 22.1058 29.4711 22.3789 29.7442C22.6519 30.0172 22.9705 30.2334 23.3345 30.3927C23.6986 30.5519 24.0911 30.6316 24.512 30.6316C24.9216 30.6316 25.3084 30.5519 25.6724 30.3927C26.0365 30.2334 26.3521 30.0173 26.6196 29.7442C26.8869 29.4712 27.1002 29.1526 27.2595 28.7885C27.4188 28.4245 27.4984 28.032 27.4984 27.611C27.4984 27.1901 27.4188 26.7947 27.2595 26.425C27.1002 26.0552 26.8869 25.7339 26.6196 25.4608C26.3522 25.1878 26.0365 24.9745 25.6724 24.8209C25.3083 24.6673 24.9216 24.5905 24.512 24.5905C24.1025 24.5905 23.7157 24.6673 23.3516 24.8209C22.9876 24.9745 22.669 25.1878 22.396 25.4608C22.1229 25.7339 21.9068 26.0552 21.7475 26.425C21.5882 26.7947 21.5086 27.1901 21.5086 27.611C21.5086 28.032 21.5854 28.4245 21.7389 28.7885Z" fill="white"/>
<path d="M30.1774 25.8533C30.4049 25.3073 30.7179 24.8266 31.116 24.4114C31.5141 23.9961 31.9863 23.669 32.5324 23.4301C33.0785 23.1912 33.6701 23.0718 34.3072 23.0718C34.9329 23.0718 35.5131 23.1856 36.0478 23.4131C36.5825 23.6406 37.0433 23.9563 37.4301 24.3602C37.8169 24.764 38.1184 25.2419 38.3345 25.7936C38.5507 26.3454 38.6588 26.9456 38.6588 27.594V28.1572H31.5768C31.6337 28.5099 31.7475 28.837 31.9181 29.1384C32.0888 29.4399 32.302 29.7015 32.558 29.9234C32.814 30.1453 33.1041 30.3188 33.4283 30.4439C33.7526 30.569 34.0967 30.6316 34.4608 30.6316C35.4961 30.6316 36.3323 30.205 36.9694 29.3517L38.2151 30.2732C37.7828 30.8534 37.2481 31.3085 36.611 31.6384C35.9739 31.9683 35.2572 32.1333 34.4608 32.1333C33.8123 32.1333 33.2065 32.0195 32.6434 31.792C32.0802 31.5645 31.5911 31.2459 31.1758 30.8363C30.7606 30.4267 30.4335 29.9461 30.1946 29.3943C29.9557 28.8426 29.8362 28.2424 29.8362 27.594C29.8361 26.9796 29.9499 26.3994 30.1774 25.8533ZM32.5751 25.1792C32.0916 25.5831 31.7702 26.1207 31.6109 26.7919H36.9182C36.7703 26.1207 36.4546 25.5831 35.971 25.1792C35.4875 24.7754 34.9215 24.5735 34.2731 24.5735C33.6246 24.5735 33.0586 24.7754 32.5751 25.1792Z" fill="white"/>
<path d="M41.884 25.3755C41.5199 25.7737 41.3379 26.3141 41.3379 26.9967V31.9456H39.6143V23.2424H41.3208V24.3175C41.5369 23.9648 41.8185 23.6861 42.1655 23.4813C42.5125 23.2765 42.9249 23.1741 43.4027 23.1741H44V24.7782H43.2833C42.7145 24.7782 42.248 24.9773 41.884 25.3755Z" fill="white"/>
</svg>
