<svg width="237" height="189" viewBox="0 0 237 189" fill="none" xmlns="http://www.w3.org/2000/svg">
<g clip-path="url(#clip0)">
<path d="M138.832 62.8961C130.411 32.0084 98.6257 13.63 67.5751 21.7971C36.2564 30.0348 17.7602 62.3554 26.0028 93.6235L53.0321 196.158C53.7299 198.805 55.4518 201.066 57.819 202.444C60.1861 203.822 63.0047 204.204 65.6545 203.505L168.735 176.332C199.959 168.101 218.477 135.655 210.255 104.462C202.032 73.2694 170.056 54.6651 138.832 62.8961Z" fill="#42B6E9"/>
<path d="M67.5637 142.155C67.5571 143.429 67.4622 144.76 66.8222 145.861C66.119 147.07 64.8601 147.843 64.0546 148.989C62.8521 150.689 62.8303 153.018 63.5466 154.976C64.2629 156.933 65.6171 158.587 67.0363 160.121C69.1498 162.391 71.5029 164.502 74.2889 165.851C77.6274 167.465 81.3958 167.902 85.0811 168.317C85.6844 168.417 86.3001 168.417 86.9032 168.317C87.3316 168.201 87.744 168.033 88.1314 167.817C90.264 166.734 92.4355 165.599 94.0423 163.829C95.1304 162.612 95.9118 161.153 96.3217 159.573C96.7317 157.993 96.7582 156.338 96.3992 154.746C95.6638 151.628 93.4682 148.945 93.0821 145.766C92.802 143.457 93.5106 141.158 93.8694 138.86C93.9597 138.479 93.9465 138.081 93.8313 137.707C93.5766 137.08 92.848 136.816 92.197 136.625C87.7864 135.318 83.3097 134.152 78.7354 133.584C76.4207 133.286 74.0854 133.179 71.7532 133.263C70.4916 133.317 67.5143 133.071 66.948 134.59C66.6144 135.498 67.2237 137.038 67.336 137.966C67.4984 139.356 67.5744 140.755 67.5637 142.155Z" fill="#FBBEBE"/>
<path opacity="0.1" d="M67.6392 142.043C67.6215 143.316 67.515 144.647 66.8654 145.742C66.1518 146.944 64.8861 147.707 64.0707 148.846C62.8534 150.535 62.8112 152.864 63.5104 154.828C64.2097 156.791 65.5494 158.457 66.9552 160.003C69.0489 162.291 71.3835 164.423 74.1576 165.797C77.4819 167.439 81.2463 167.91 84.9279 168.356C85.5303 168.462 86.1459 168.467 86.75 168.372C87.1793 168.26 87.5932 168.095 87.9824 167.883C90.1243 166.819 92.3057 165.703 93.9279 163.946C95.0265 162.739 95.8206 161.287 96.2443 159.711C96.668 158.134 96.709 156.48 96.3639 154.885C95.6557 151.76 93.4836 149.058 93.1251 145.876C92.8652 143.565 93.5938 141.272 93.9727 138.977C94.0662 138.597 94.0565 138.199 93.9446 137.823C93.6954 137.194 92.9691 136.924 92.3198 136.728C87.9207 135.382 83.4544 134.178 78.8852 133.569C76.5731 133.251 74.2389 133.124 71.9061 133.187C70.6441 133.23 67.669 132.959 67.0895 134.472C66.748 135.377 67.3438 136.923 67.4481 137.852C67.5983 139.244 67.6621 140.643 67.6392 142.043Z" fill="black"/>
<path d="M82.7565 145.469C94.7722 145.469 104.513 135.738 104.513 123.735C104.513 111.731 94.7722 102 82.7565 102C70.7407 102 61 111.731 61 123.735C61 135.738 70.7407 145.469 82.7565 145.469Z" fill="#FBBEBE"/>
<path d="M89.3816 108.465C88.644 109.175 88.1154 110.075 87.4197 110.827C85.4181 112.986 82.3127 113.669 79.3931 114.06C77.8447 114.267 75.9351 114.257 75.1352 112.921C74.2834 111.501 75.3418 109.712 75.2826 108.06C72.8372 108.474 70.6296 109.774 69.0822 111.711C67.1543 114.144 66.3264 117.503 63.7798 119.275C63.3222 119.633 62.7636 119.839 62.1831 119.862C61.5537 119.809 60.9665 119.525 60.5344 119.065C58.2626 116.871 58.9057 113.17 58.2706 110.075C57.7349 107.498 56.2054 104.855 57.1843 102.411C58.1977 99.8933 61.2758 99.0709 63.5668 97.6043C65.1354 96.5992 66.4119 95.1997 67.2684 93.5462C67.4864 93.0593 67.7484 92.5932 68.051 92.1537C68.4673 91.6555 68.98 91.2463 69.5583 90.9509C71.7795 89.726 74.3624 89.3263 76.8492 89.8226C78.5872 90.1685 80.2563 90.9554 82.0161 90.8346C82.9598 90.7722 83.8636 90.4482 84.7873 90.251C86.7012 89.8711 88.6824 90.0224 90.5156 90.6885C92.3488 91.3546 93.964 92.5101 95.1857 94.0294C95.6317 94.6004 96.0284 95.2272 96.6088 95.6523C97.7633 96.5075 99.357 96.4021 100.698 96.9179C102.04 97.4336 103.055 98.5679 103.964 99.6824C106.391 102.705 108.38 106.055 109.872 109.633C110.684 111.579 111.346 113.777 110.636 115.762C110.452 116.189 110.29 116.624 110.149 117.067C109.753 118.701 110.873 120.288 111.254 121.916C111.558 123.232 111.387 124.613 110.772 125.816C110.642 126.139 110.39 126.398 110.071 126.537C109.685 126.657 109.276 126.449 108.953 126.205C107.816 125.346 107.123 124.031 106.14 122.998C105.156 121.965 103.582 121.21 102.323 121.884C102.002 122.056 101.732 122.306 101.414 122.487C100.523 122.985 99.3551 122.808 98.4817 122.266C97.6084 121.723 96.9753 120.869 96.4302 119.999C94.8818 117.524 93.8917 114.763 93.1042 111.954C92.7998 110.87 92.7193 108.773 92.0714 107.879C91.4235 106.985 90.0688 107.799 89.3816 108.465Z" fill="white"/>
<path d="M80.2916 165.077C76.8489 163.7 73.961 161.221 72.081 158.027C70.7025 155.671 69.9111 152.992 68.3461 150.746C66.0654 147.474 61.7635 149.123 57.7791 149.102C52.6758 149.077 48.505 148.405 44.314 151.315C41.5216 153.251 38.5176 155.485 37.7616 158.79C37.0937 161.655 38.2858 164.712 37.6179 167.579C37.1668 169.513 37.7414 171.29 37.4138 173.251C36.9526 176.021 36.5821 178.606 38.001 181.026L42.9002 189.379L96.0754 189.581C96.0426 189.581 95.9771 189.679 95.9443 189.679H134.024C133.956 187.879 133.842 186.109 133.268 184.407C132.66 182.645 131.791 180.983 130.927 179.331L121.32 161.006C119.485 157.501 117.476 153.815 114.049 151.837C112.177 150.757 110.017 150.281 108.028 149.462C105.42 148.398 104.722 149.143 102 148.413C99.2785 147.683 94.2281 145.779 92.7437 148.161C91.5744 150.044 91.9171 152.456 91.4836 154.629C91.0905 156.602 90.0421 158.385 88.8803 160.031C87.8143 161.542 86.6122 163 85.1001 164.06C83.588 165.12 82.0154 165.764 80.2916 165.077Z" fill="#3F3D56"/>
<path d="M58.0392 167.476C58.0392 167.476 59.4202 178.342 64.4252 180.411C69.4302 182.481 85.3198 182.826 85.3198 182.826L96.0229 189.726H43.1879C43.1879 189.726 40.7711 161.277 43.1879 161.277C45.6047 161.277 58.0392 167.476 58.0392 167.476Z" fill="#3F3D56"/>
<path d="M101.02 161.49L113.46 171.84L79.619 172.704C79.619 172.704 74.7098 178.746 76.7334 180.468C78.7571 182.19 88.2505 183.398 88.2505 183.398L97.0559 187.882L134.067 187.837L121.748 165.632L101.02 161.49Z" fill="#3F3D56"/>
<path opacity="0.1" d="M131.704 58.8958C123.283 28.008 91.4974 9.62963 60.4468 17.7967C43.4713 22.2716 30.2652 33.8085 23.0372 48.4274C30.8552 38.2834 41.8213 31.018 54.2149 27.7711C85.2655 19.604 117.051 37.9824 125.472 68.8701C156.696 60.6391 188.674 79.2532 196.897 110.446C200.502 124.047 199.053 138.495 192.817 151.115C198.315 144.031 202.105 135.777 203.893 126.994C205.682 118.211 205.42 109.135 203.129 100.471C194.906 69.2788 162.928 50.6647 131.704 58.8958Z" fill="black"/>
</g>
<defs>
<clipPath id="clip0">
<rect width="237" height="189" fill="white"/>
</clipPath>
</defs>
</svg>
